<svg xmlns="http://www.w3.org/2000/svg" width="645" height="647" viewBox="0 0 645 647">
  <g id="Grupo_14566" data-name="Grupo 14566" transform="translate(-139.5 -2222.5)">
    <g id="Grupo_14544" data-name="Grupo 14544" transform="translate(141.03 2224.398)">
      <ellipse id="Elipse_915" data-name="Elipse 915" cx="321" cy="322" rx="321" ry="322" transform="translate(-0.03 -0.399)" fill="none" stroke="#91cff4" stroke-miterlimit="10" stroke-width="3"/>
      <ellipse id="Elipse_916" data-name="Elipse 916" cx="238.03" cy="238.03" rx="238.03" ry="238.03" transform="translate(82.834 83.737)" fill="#71b3e1"/>
      <ellipse id="Elipse_917" data-name="Elipse 917" cx="154.729" cy="154.729" rx="154.729" ry="154.729" transform="translate(166.135 167.039)" fill="#fff" stroke="#4674b8" stroke-miterlimit="10" stroke-width="3"/>
      <ellipse id="Elipse_918" data-name="Elipse 918" cx="67.783" cy="67.783" rx="67.783" ry="67.783" transform="translate(253.081 253.985)" fill="#333b8c"/>
      <path id="Trazado_24261" data-name="Trazado 24261" d="M-40.409-7.776a2.005,2.005,0,0,0-1.72.835,3.883,3.883,0,0,0-.609,2.326q0,3.1,2.33,3.1A7.364,7.364,0,0,0-38.042-2v1.65a6.575,6.575,0,0,1-2.552.476,3.892,3.892,0,0,1-3.1-1.228,5.2,5.2,0,0,1-1.073-3.526,5.758,5.758,0,0,1,.527-2.536,3.808,3.808,0,0,1,1.514-1.669,4.479,4.479,0,0,1,2.314-.581,6.245,6.245,0,0,1,2.717.654l-.635,1.6a10.507,10.507,0,0,0-1.047-.432A3.124,3.124,0,0,0-40.409-7.776Zm12.5,3.123a5.036,5.036,0,0,1-1.143,3.542A4.236,4.236,0,0,1-32.322.127,4.236,4.236,0,0,1-35.6-1.111,5.055,5.055,0,0,1-36.74-4.666,4.987,4.987,0,0,1-35.594-8.2,4.285,4.285,0,0,1-32.31-9.426a4.225,4.225,0,0,1,3.272,1.231A5.049,5.049,0,0,1-27.9-4.653Zm-6.773,0a3.877,3.877,0,0,0,.59,2.342,2.066,2.066,0,0,0,1.765.787q2.355,0,2.355-3.129T-32.31-7.789A2.08,2.08,0,0,0-34.081-7,3.86,3.86,0,0,0-34.677-4.653ZM-17.748,0h-2.5l-4.037-7.021h-.057q.121,1.86.121,2.653V0h-1.758V-9.28H-23.5l4.031,6.951h.044q-.1-1.809-.1-2.558V-9.28h1.771Zm7.814-2.577a2.4,2.4,0,0,1-.9,1.98,3.929,3.929,0,0,1-2.517.724,5.911,5.911,0,0,1-2.628-.559V-2.26a10.83,10.83,0,0,0,1.59.59A4.705,4.705,0,0,0-13.2-1.5a1.692,1.692,0,0,0,.993-.248.847.847,0,0,0,.346-.736.813.813,0,0,0-.152-.486,1.7,1.7,0,0,0-.448-.409,11.51,11.51,0,0,0-1.2-.628,5.7,5.7,0,0,1-1.276-.768,2.883,2.883,0,0,1-.679-.857,2.445,2.445,0,0,1-.254-1.143,2.4,2.4,0,0,1,.835-1.936,3.468,3.468,0,0,1,2.307-.7,5.449,5.449,0,0,1,1.381.171,9.49,9.49,0,0,1,1.374.482l-.635,1.53a9.287,9.287,0,0,0-1.228-.425,3.954,3.954,0,0,0-.955-.121,1.265,1.265,0,0,0-.857.26.858.858,0,0,0-.3.679.841.841,0,0,0,.121.454,1.326,1.326,0,0,0,.384.375,11.874,11.874,0,0,0,1.247.651A4.963,4.963,0,0,1-10.417-4.11,2.434,2.434,0,0,1-9.934-2.577ZM-.7-9.28v6a3.462,3.462,0,0,1-.46,1.8A3,3,0,0,1-2.488-.286,4.756,4.756,0,0,1-4.545.127,3.938,3.938,0,0,1-7.325-.79a3.254,3.254,0,0,1-.99-2.51V-9.28h1.961V-3.6a2.38,2.38,0,0,0,.432,1.574,1.794,1.794,0,0,0,1.428.5,1.754,1.754,0,0,0,1.4-.5A2.392,2.392,0,0,0-2.66-3.612V-9.28ZM5.5,0,3.269-7.281H3.212q.121,2.222.121,2.964V0H1.574V-9.28H4.253l2.2,7.1h.038l2.33-7.1H11.5V0H9.661V-4.393q0-.311.01-.717t.086-2.158H9.7L7.306,0Zm8.328,0V-9.28H15.8V0Zm12-4.729a4.57,4.57,0,0,1-1.3,3.51A5.319,5.319,0,0,1,20.763,0H18.135V-9.28h2.914a4.906,4.906,0,0,1,3.529,1.2A4.413,4.413,0,0,1,25.835-4.729Zm-2.044.051q0-2.99-2.641-2.99H20.1v6.043h.844Q23.791-1.625,23.791-4.678Zm12.391.025a5.036,5.036,0,0,1-1.143,3.542A4.236,4.236,0,0,1,31.764.127a4.236,4.236,0,0,1-3.275-1.238,5.055,5.055,0,0,1-1.143-3.555A4.987,4.987,0,0,1,28.491-8.2a4.285,4.285,0,0,1,3.285-1.222,4.225,4.225,0,0,1,3.272,1.231A5.049,5.049,0,0,1,36.182-4.653Zm-6.773,0A3.877,3.877,0,0,0,30-2.311a2.066,2.066,0,0,0,1.765.787q2.355,0,2.355-3.129T31.776-7.789A2.08,2.08,0,0,0,30.005-7,3.86,3.86,0,0,0,29.409-4.653Zm10.664-.508h.635a2.428,2.428,0,0,0,1.377-.311,1.11,1.11,0,0,0,.444-.978,1.015,1.015,0,0,0-.454-.939,2.754,2.754,0,0,0-1.406-.279h-.6Zm0,1.6V0H38.1V-9.28h2.7a4.628,4.628,0,0,1,2.8.689A2.458,2.458,0,0,1,44.516-6.5a2.462,2.462,0,0,1-.451,1.457,2.982,2.982,0,0,1-1.276,1Q44.884-.914,45.519,0H43.335L41.12-3.561Z" transform="translate(317.65 323.33)" fill="#fff"/>
      <path id="Trazado_24262" data-name="Trazado 24262" d="M-42.65,0h-1.816V-7.055h-2.326V-8.566h6.469v1.512H-42.65Zm8.578,0h-4.934V-8.566h4.934v1.488h-3.117V-5.2h2.9v1.488h-2.9V-1.5h3.117Zm6.844-2.379a2.214,2.214,0,0,1-.835,1.828,3.627,3.627,0,0,1-2.323.668A5.456,5.456,0,0,1-32.812-.4V-2.086a10,10,0,0,0,1.468.545,4.343,4.343,0,0,0,1.1.158,1.562,1.562,0,0,0,.917-.229.782.782,0,0,0,.319-.68.75.75,0,0,0-.141-.448,1.574,1.574,0,0,0-.413-.378,10.624,10.624,0,0,0-1.11-.58,5.263,5.263,0,0,1-1.178-.709,2.662,2.662,0,0,1-.627-.791,2.257,2.257,0,0,1-.234-1.055,2.214,2.214,0,0,1,.771-1.787,3.2,3.2,0,0,1,2.13-.65,5.03,5.03,0,0,1,1.274.158,8.76,8.76,0,0,1,1.269.445l-.586,1.412a8.573,8.573,0,0,0-1.134-.393,3.649,3.649,0,0,0-.882-.111,1.168,1.168,0,0,0-.791.24.792.792,0,0,0-.275.627.776.776,0,0,0,.111.419,1.224,1.224,0,0,0,.354.346,10.961,10.961,0,0,0,1.151.6,4.581,4.581,0,0,1,1.646,1.151A2.247,2.247,0,0,1-27.229-2.379ZM-22.371,0h-1.816V-7.055h-2.326V-8.566h6.469v1.512h-2.326Zm3.645,0V-8.566h1.816V0Zm7.6,0-2.062-6.721h-.053q.111,2.051.111,2.736V0h-1.623V-8.566h2.473l2.027,6.551h.035l2.15-6.551H-5.6V0H-7.289V-4.055q0-.287.009-.662T-7.2-6.709h-.053L-9.463,0ZM4.336-4.295a4.648,4.648,0,0,1-1.055,3.27A3.91,3.91,0,0,1,.258.117,3.91,3.91,0,0,1-2.766-1.025,4.667,4.667,0,0,1-3.82-4.307,4.6,4.6,0,0,1-2.763-7.573,3.955,3.955,0,0,1,.27-8.7,3.9,3.9,0,0,1,3.29-7.564,4.66,4.66,0,0,1,4.336-4.295Zm-6.252,0a3.578,3.578,0,0,0,.545,2.162,1.907,1.907,0,0,0,1.629.727q2.174,0,2.174-2.889T.27-7.189a1.92,1.92,0,0,0-1.635.729A3.563,3.563,0,0,0-1.916-4.295ZM13.711,0H11.4L7.676-6.48H7.623q.111,1.717.111,2.449V0H6.111V-8.566H8.4L12.123-2.15h.041q-.088-1.67-.088-2.361V-8.566h1.635Zm2.156,0V-8.566h1.816V0ZM27.615-4.295a4.648,4.648,0,0,1-1.055,3.27A3.91,3.91,0,0,1,23.537.117a3.91,3.91,0,0,1-3.023-1.143,4.667,4.667,0,0,1-1.055-3.281,4.6,4.6,0,0,1,1.058-3.267A3.955,3.955,0,0,1,23.549-8.7a3.9,3.9,0,0,1,3.021,1.137A4.66,4.66,0,0,1,27.615-4.295Zm-6.252,0a3.578,3.578,0,0,0,.545,2.162,1.907,1.907,0,0,0,1.629.727q2.174,0,2.174-2.889T23.549-7.189a1.92,1.92,0,0,0-1.635.729A3.563,3.563,0,0,0,21.363-4.295Zm18.252-.07a4.218,4.218,0,0,1-1.2,3.24A4.91,4.91,0,0,1,34.934,0H32.508V-8.566H35.2a4.529,4.529,0,0,1,3.258,1.107A4.074,4.074,0,0,1,39.615-4.365Zm-1.887.047q0-2.76-2.437-2.76h-.967V-1.5H35.1Q37.729-1.5,37.729-4.318ZM46.324,0H41.391V-8.566h4.934v1.488H43.207V-5.2h2.9v1.488h-2.9V-1.5h3.117Zm-70.2,14h-4.934V5.434h4.934V6.922h-3.117V8.8h2.9v1.488h-2.9V12.5h3.117Zm8.713,0h-2.074l-1.992-3.24L-21.22,14h-1.945l2.842-4.418-2.66-4.148h2l1.846,3.082,1.811-3.082h1.957l-2.689,4.248Zm2.895-4.535h.6a1.99,1.99,0,0,0,1.254-.331A1.159,1.159,0,0,0-10,8.17a1.188,1.188,0,0,0-.349-.943,1.634,1.634,0,0,0-1.093-.3h-.826Zm4.1-1.359a2.618,2.618,0,0,1-.864,2.115,3.7,3.7,0,0,1-2.458.732h-.779V14h-1.816V5.434h2.736a3.64,3.64,0,0,1,2.37.671A2.446,2.446,0,0,1-8.165,8.105ZM-1.614,14H-6.548V5.434h4.934V6.922H-4.731V8.8h2.9v1.488h-2.9V12.5h3.117Zm3.6-4.764h.586a2.242,2.242,0,0,0,1.271-.287,1.025,1.025,0,0,0,.41-.9.937.937,0,0,0-.419-.867,2.542,2.542,0,0,0-1.3-.258H1.989Zm0,1.477V14H.173V5.434h2.5a4.272,4.272,0,0,1,2.584.636A2.269,2.269,0,0,1,6.091,8a2.273,2.273,0,0,1-.416,1.345,2.753,2.753,0,0,1-1.178.923Q6.431,13.156,7.017,14H5L2.956,10.713ZM11.4,14H9.583V6.945H7.257V5.434h6.469V6.945H11.4Zm11.18-4.295a4.648,4.648,0,0,1-1.055,3.27A3.91,3.91,0,0,1,18.5,14.117a3.91,3.91,0,0,1-3.023-1.143,4.667,4.667,0,0,1-1.055-3.281A4.6,4.6,0,0,1,15.48,6.427,3.955,3.955,0,0,1,18.513,5.3a3.9,3.9,0,0,1,3.021,1.137A4.66,4.66,0,0,1,22.579,9.705Zm-6.252,0a3.578,3.578,0,0,0,.545,2.162,1.907,1.907,0,0,0,1.629.727q2.174,0,2.174-2.889T18.513,6.811a1.92,1.92,0,0,0-1.635.729A3.563,3.563,0,0,0,16.327,9.705Zm13.084,1.916a2.214,2.214,0,0,1-.835,1.828,3.627,3.627,0,0,1-2.323.668,5.456,5.456,0,0,1-2.426-.516V11.914a10,10,0,0,0,1.468.545,4.343,4.343,0,0,0,1.1.158,1.562,1.562,0,0,0,.917-.229.782.782,0,0,0,.319-.68.75.75,0,0,0-.141-.448,1.574,1.574,0,0,0-.413-.378,10.624,10.624,0,0,0-1.11-.58,5.263,5.263,0,0,1-1.178-.709,2.662,2.662,0,0,1-.627-.791,2.257,2.257,0,0,1-.234-1.055A2.214,2.214,0,0,1,24.7,5.961a3.2,3.2,0,0,1,2.13-.65,5.03,5.03,0,0,1,1.274.158,8.76,8.76,0,0,1,1.269.445l-.586,1.412a8.573,8.573,0,0,0-1.134-.393,3.649,3.649,0,0,0-.882-.111,1.168,1.168,0,0,0-.791.24.792.792,0,0,0-.275.627.776.776,0,0,0,.111.419,1.224,1.224,0,0,0,.354.346,10.961,10.961,0,0,0,1.151.6,4.581,4.581,0,0,1,1.646,1.151A2.247,2.247,0,0,1,29.411,11.621Z" transform="translate(308.568 120.791)"/>
      <path id="Trazado_24266" data-name="Trazado 24266" d="M-22.41-9.28h2.888a5.566,5.566,0,0,1,2.866.562,1.955,1.955,0,0,1,.892,1.787,2.252,2.252,0,0,1-.39,1.365,1.559,1.559,0,0,1-1.038.641v.063a2.045,2.045,0,0,1,1.273.736,2.4,2.4,0,0,1,.39,1.435,2.364,2.364,0,0,1-.917,1.98A3.967,3.967,0,0,1-18.938,0H-22.41ZM-20.443-5.6H-19.3a2.089,2.089,0,0,0,1.158-.248.923.923,0,0,0,.359-.819.819.819,0,0,0-.39-.765,2.509,2.509,0,0,0-1.235-.232h-1.035Zm0,1.562v2.418h1.282a1.9,1.9,0,0,0,1.2-.311,1.148,1.148,0,0,0,.387-.952q0-1.155-1.65-1.155Zm15.19-.609A5.036,5.036,0,0,1-6.4-1.111,4.236,4.236,0,0,1-9.671.127a4.236,4.236,0,0,1-3.275-1.238,5.055,5.055,0,0,1-1.143-3.555A4.987,4.987,0,0,1-12.943-8.2,4.285,4.285,0,0,1-9.658-9.426,4.225,4.225,0,0,1-6.386-8.195,5.049,5.049,0,0,1-5.253-4.653Zm-6.773,0a3.877,3.877,0,0,0,.59,2.342,2.066,2.066,0,0,0,1.765.787q2.355,0,2.355-3.129T-9.658-7.789A2.08,2.08,0,0,0-11.429-7,3.86,3.86,0,0,0-12.026-4.653ZM4.9,0H2.4L-1.635-7.021h-.057q.121,1.86.121,2.653V0H-3.329V-9.28H-.847L3.183-2.33h.044q-.1-1.809-.1-2.558V-9.28H4.9ZM15.663-4.653A5.036,5.036,0,0,1,14.52-1.111,4.236,4.236,0,0,1,11.245.127,4.236,4.236,0,0,1,7.969-1.111,5.055,5.055,0,0,1,6.827-4.666,4.987,4.987,0,0,1,7.973-8.2a4.285,4.285,0,0,1,3.285-1.222A4.225,4.225,0,0,1,14.53-8.195,5.049,5.049,0,0,1,15.663-4.653Zm-6.773,0a3.877,3.877,0,0,0,.59,2.342,2.066,2.066,0,0,0,1.765.787q2.355,0,2.355-3.129T11.258-7.789A2.08,2.08,0,0,0,9.487-7,3.86,3.86,0,0,0,8.89-4.653ZM23.064-2.577a2.4,2.4,0,0,1-.9,1.98,3.929,3.929,0,0,1-2.517.724,5.911,5.911,0,0,1-2.628-.559V-2.26a10.83,10.83,0,0,0,1.59.59A4.705,4.705,0,0,0,19.8-1.5a1.692,1.692,0,0,0,.993-.248.847.847,0,0,0,.346-.736.813.813,0,0,0-.152-.486,1.7,1.7,0,0,0-.448-.409,11.51,11.51,0,0,0-1.2-.628,5.7,5.7,0,0,1-1.276-.768,2.883,2.883,0,0,1-.679-.857,2.445,2.445,0,0,1-.254-1.143,2.4,2.4,0,0,1,.835-1.936,3.468,3.468,0,0,1,2.307-.7,5.449,5.449,0,0,1,1.381.171,9.49,9.49,0,0,1,1.374.482l-.635,1.53a9.287,9.287,0,0,0-1.228-.425,3.954,3.954,0,0,0-.955-.121,1.265,1.265,0,0,0-.857.26.858.858,0,0,0-.3.679.841.841,0,0,0,.121.454,1.326,1.326,0,0,0,.384.375,11.874,11.874,0,0,0,1.247.651A4.963,4.963,0,0,1,22.582-4.11,2.434,2.434,0,0,1,23.064-2.577Z" transform="translate(317.496 521.069)"/>
      <path id="Trazado_24269" data-name="Trazado 24269" d="M-21.079-4.365a4.218,4.218,0,0,1-1.2,3.24A4.91,4.91,0,0,1-25.761,0h-2.426V-8.566H-25.5a4.529,4.529,0,0,1,3.258,1.107A4.074,4.074,0,0,1-21.079-4.365Zm-1.887.047q0-2.76-2.437-2.76h-.967V-1.5h.779Q-22.966-1.5-22.966-4.318Zm5.479-.445h.586a2.242,2.242,0,0,0,1.271-.287,1.025,1.025,0,0,0,.41-.9.937.937,0,0,0-.419-.867,2.542,2.542,0,0,0-1.3-.258h-.551Zm0,1.477V0H-19.3V-8.566h2.5a4.272,4.272,0,0,1,2.584.636A2.269,2.269,0,0,1-13.386-6,2.273,2.273,0,0,1-13.8-4.655a2.753,2.753,0,0,1-1.178.923Q-13.046-.844-12.46,0h-2.016l-2.045-3.287ZM-6.448-4.764h.586a2.242,2.242,0,0,0,1.271-.287,1.025,1.025,0,0,0,.41-.9A.937.937,0,0,0-4.6-6.82a2.542,2.542,0,0,0-1.3-.258h-.551Zm0,1.477V0H-8.265V-8.566h2.5a4.272,4.272,0,0,1,2.584.636A2.269,2.269,0,0,1-2.347-6a2.273,2.273,0,0,1-.416,1.345,2.753,2.753,0,0,1-1.178.923Q-2.007-.844-1.421,0H-3.437L-5.481-3.287ZM4.9,0,4.28-2.039H1.157L.536,0H-1.421L1.6-8.6H3.823L6.858,0ZM3.847-3.562Q2.985-6.334,2.877-6.7t-.155-.574q-.193.75-1.107,3.709Zm11.2-.8a4.218,4.218,0,0,1-1.2,3.24A4.91,4.91,0,0,1,10.362,0H7.937V-8.566h2.689a4.529,4.529,0,0,1,3.258,1.107A4.074,4.074,0,0,1,15.044-4.365Zm-1.887.047q0-2.76-2.437-2.76H9.753V-1.5h.779Q13.157-1.5,13.157-4.318ZM16.819,0V-8.566h1.816V0ZM28.567-4.295a4.648,4.648,0,0,1-1.055,3.27A3.91,3.91,0,0,1,24.489.117a3.91,3.91,0,0,1-3.023-1.143,4.667,4.667,0,0,1-1.055-3.281,4.6,4.6,0,0,1,1.058-3.267A3.955,3.955,0,0,1,24.5-8.7a3.9,3.9,0,0,1,3.021,1.137A4.66,4.66,0,0,1,28.567-4.295Zm-6.252,0a3.578,3.578,0,0,0,.545,2.162,1.907,1.907,0,0,0,1.629.727q2.174,0,2.174-2.889T24.5-7.189a1.92,1.92,0,0,0-1.635.729A3.563,3.563,0,0,0,22.315-4.295Z" transform="translate(177.641 190.838) rotate(-45)"/>
      <path id="Trazado_24265" data-name="Trazado 24265" d="M-37.734-8.374a2.159,2.159,0,0,0-1.853.9,4.182,4.182,0,0,0-.656,2.505q0,3.343,2.509,3.343a7.931,7.931,0,0,0,2.55-.526V-.376a7.081,7.081,0,0,1-2.748.513,4.191,4.191,0,0,1-3.336-1.323,5.6,5.6,0,0,1-1.155-3.8,6.2,6.2,0,0,1,.567-2.731,4.1,4.1,0,0,1,1.63-1.8,4.823,4.823,0,0,1,2.492-.625,6.725,6.725,0,0,1,2.926.7l-.684,1.723a11.316,11.316,0,0,0-1.128-.465A3.365,3.365,0,0,0-37.734-8.374Zm13.467,3.363A5.423,5.423,0,0,1-25.5-1.2,4.562,4.562,0,0,1-29.025.137,4.562,4.562,0,0,1-32.553-1.2a5.444,5.444,0,0,1-1.23-3.828,5.37,5.37,0,0,1,1.234-3.811,4.614,4.614,0,0,1,3.538-1.316,4.55,4.55,0,0,1,3.524,1.326A5.437,5.437,0,0,1-24.268-5.011Zm-7.294,0a4.175,4.175,0,0,0,.636,2.522,2.224,2.224,0,0,0,1.9.848q2.536,0,2.536-3.37t-2.522-3.377a2.24,2.24,0,0,0-1.907.851A4.157,4.157,0,0,0-31.562-5.011ZM-13.33,0h-2.693l-4.348-7.561h-.062q.13,2,.13,2.857V0H-22.2V-9.994h2.673l4.341,7.485h.048q-.1-1.948-.1-2.755v-4.73h1.907Zm6.761-8.374a2.159,2.159,0,0,0-1.853.9A4.182,4.182,0,0,0-9.078-4.97q0,3.343,2.509,3.343a7.931,7.931,0,0,0,2.55-.526V-.376A7.081,7.081,0,0,1-6.768.137,4.191,4.191,0,0,1-10.1-1.186a5.6,5.6,0,0,1-1.155-3.8,6.2,6.2,0,0,1,.567-2.731,4.1,4.1,0,0,1,1.63-1.8,4.823,4.823,0,0,1,2.492-.625,6.725,6.725,0,0,1,2.926.7l-.684,1.723a11.315,11.315,0,0,0-1.128-.465A3.365,3.365,0,0,0-6.569-8.374ZM6.241-9.994v6.467a3.728,3.728,0,0,1-.5,1.941A3.225,3.225,0,0,1,4.313-.308,5.122,5.122,0,0,1,2.1.137,4.241,4.241,0,0,1-.9-.851a3.5,3.5,0,0,1-1.066-2.7V-9.994H.15v6.118a2.563,2.563,0,0,0,.465,1.7,1.932,1.932,0,0,0,1.538.54,1.889,1.889,0,0,0,1.507-.543A2.576,2.576,0,0,0,4.129-3.89v-6.1Zm4.566,4.437h.684a2.615,2.615,0,0,0,1.483-.335,1.2,1.2,0,0,0,.479-1.053,1.094,1.094,0,0,0-.489-1.012,2.966,2.966,0,0,0-1.514-.3h-.643Zm0,1.723V0H8.688V-9.994H11.6a4.984,4.984,0,0,1,3.015.742A2.647,2.647,0,0,1,15.593-7a2.652,2.652,0,0,1-.485,1.569,3.211,3.211,0,0,1-1.374,1.077Q15.989-.984,16.673,0H14.321L11.936-3.835ZM23.83-2.775a2.583,2.583,0,0,1-.974,2.133,4.232,4.232,0,0,1-2.71.779,6.366,6.366,0,0,1-2.83-.6V-2.434a11.663,11.663,0,0,0,1.712.636,5.067,5.067,0,0,0,1.282.185,1.822,1.822,0,0,0,1.07-.267.912.912,0,0,0,.373-.793.875.875,0,0,0-.164-.523,1.836,1.836,0,0,0-.482-.441,12.4,12.4,0,0,0-1.3-.677,6.14,6.14,0,0,1-1.374-.827,3.105,3.105,0,0,1-.731-.923,2.634,2.634,0,0,1-.273-1.23,2.583,2.583,0,0,1,.9-2.085,3.735,3.735,0,0,1,2.485-.759,5.868,5.868,0,0,1,1.487.185,10.22,10.22,0,0,1,1.48.52L23.1-7.786a10,10,0,0,0-1.323-.458,4.258,4.258,0,0,0-1.029-.13,1.362,1.362,0,0,0-.923.28.925.925,0,0,0-.321.731.905.905,0,0,0,.13.489,1.428,1.428,0,0,0,.414.4,12.787,12.787,0,0,0,1.343.7,5.345,5.345,0,0,1,1.921,1.343A2.622,2.622,0,0,1,23.83-2.775ZM34.713-5.011A5.423,5.423,0,0,1,33.482-1.2,4.562,4.562,0,0,1,29.955.137,4.562,4.562,0,0,1,26.428-1.2,5.444,5.444,0,0,1,25.2-5.024a5.37,5.37,0,0,1,1.234-3.811,4.614,4.614,0,0,1,3.538-1.316,4.55,4.55,0,0,1,3.524,1.326A5.437,5.437,0,0,1,34.713-5.011Zm-7.294,0a4.175,4.175,0,0,0,.636,2.522,2.224,2.224,0,0,0,1.9.848q2.536,0,2.536-3.37T29.969-8.388a2.24,2.24,0,0,0-1.907.851A4.157,4.157,0,0,0,27.419-5.011ZM42.684-2.775a2.583,2.583,0,0,1-.974,2.133A4.232,4.232,0,0,1,39,.137a6.366,6.366,0,0,1-2.83-.6V-2.434a11.663,11.663,0,0,0,1.712.636,5.067,5.067,0,0,0,1.282.185,1.822,1.822,0,0,0,1.07-.267.912.912,0,0,0,.373-.793.875.875,0,0,0-.164-.523,1.836,1.836,0,0,0-.482-.441,12.4,12.4,0,0,0-1.3-.677,6.14,6.14,0,0,1-1.374-.827,3.105,3.105,0,0,1-.731-.923,2.634,2.634,0,0,1-.273-1.23,2.583,2.583,0,0,1,.9-2.085,3.735,3.735,0,0,1,2.485-.759,5.868,5.868,0,0,1,1.487.185,10.22,10.22,0,0,1,1.48.52l-.684,1.647a10,10,0,0,0-1.323-.458,4.258,4.258,0,0,0-1.029-.13,1.362,1.362,0,0,0-.923.28.925.925,0,0,0-.321.731.905.905,0,0,0,.13.489,1.428,1.428,0,0,0,.414.4,12.788,12.788,0,0,0,1.343.7,5.345,5.345,0,0,1,1.921,1.343A2.622,2.622,0,0,1,42.684-2.775Z" transform="translate(460.968 465.714) rotate(-45)"/>
      <path id="Trazado_24268" data-name="Trazado 24268" d="M-25.969-4.295a4.648,4.648,0,0,1-1.055,3.27A3.91,3.91,0,0,1-30.047.117,3.91,3.91,0,0,1-33.07-1.025a4.667,4.667,0,0,1-1.055-3.281,4.6,4.6,0,0,1,1.058-3.267A3.955,3.955,0,0,1-30.035-8.7a3.9,3.9,0,0,1,3.021,1.137A4.66,4.66,0,0,1-25.969-4.295Zm-6.252,0a3.578,3.578,0,0,0,.545,2.162,1.907,1.907,0,0,0,1.629.727q2.174,0,2.174-2.889t-2.162-2.895a1.92,1.92,0,0,0-1.635.729A3.563,3.563,0,0,0-32.221-4.295ZM-22.406,0h-1.787V-8.566h4.91v1.488h-3.123v2.209H-19.5v1.482h-2.906Zm9.732,0h-4.934V-8.566h4.934v1.488h-3.117V-5.2h2.9v1.488h-2.9V-1.5h3.117Zm3.6-4.764h.586a2.242,2.242,0,0,0,1.271-.287,1.025,1.025,0,0,0,.41-.9.937.937,0,0,0-.419-.867,2.542,2.542,0,0,0-1.3-.258H-9.07Zm0,1.477V0h-1.816V-8.566h2.5a4.272,4.272,0,0,1,2.584.636A2.269,2.269,0,0,1-4.969-6a2.273,2.273,0,0,1-.416,1.345,2.753,2.753,0,0,1-1.178.923Q-4.629-.844-4.043,0H-6.059L-8.1-3.287ZM.34,0H-1.477V-7.055H-3.8V-8.566H2.666v1.512H.34ZM8.391,0,7.77-2.039H4.646L4.025,0H2.068L5.092-8.6H7.313L10.348,0ZM7.336-3.562Q6.475-6.334,6.366-6.7t-.155-.574q-.193.75-1.107,3.709Zm9.146,1.184a2.214,2.214,0,0,1-.835,1.828,3.627,3.627,0,0,1-2.323.668A5.456,5.456,0,0,1,10.9-.4V-2.086a10,10,0,0,0,1.468.545,4.343,4.343,0,0,0,1.1.158,1.562,1.562,0,0,0,.917-.229.782.782,0,0,0,.319-.68.75.75,0,0,0-.141-.448,1.574,1.574,0,0,0-.413-.378,10.624,10.624,0,0,0-1.11-.58,5.263,5.263,0,0,1-1.178-.709,2.662,2.662,0,0,1-.627-.791A2.257,2.257,0,0,1,11-6.252a2.214,2.214,0,0,1,.771-1.787,3.2,3.2,0,0,1,2.13-.65,5.03,5.03,0,0,1,1.274.158,8.76,8.76,0,0,1,1.269.445l-.586,1.412a8.573,8.573,0,0,0-1.134-.393,3.649,3.649,0,0,0-.882-.111,1.168,1.168,0,0,0-.791.24.792.792,0,0,0-.275.627.776.776,0,0,0,.111.419,1.224,1.224,0,0,0,.354.346,10.961,10.961,0,0,0,1.151.6,4.581,4.581,0,0,1,1.646,1.151A2.247,2.247,0,0,1,16.482-2.379ZM24.457,0H22.641V-7.055H20.314V-8.566h6.469v1.512H24.457Zm8.531-8.566h1.834L31.91,0H29.93L27.023-8.566h1.834l1.611,5.1q.135.451.278,1.052t.179.835a15.008,15.008,0,0,1,.439-1.887ZM-9.149,9.635a4.218,4.218,0,0,1-1.2,3.24A4.91,4.91,0,0,1-13.831,14h-2.426V5.434h2.689A4.529,4.529,0,0,1-10.31,6.541,4.074,4.074,0,0,1-9.149,9.635Zm-1.887.047q0-2.76-2.437-2.76h-.967V12.5h.779Q-11.036,12.5-11.036,9.682Zm5.479-.445h.586A2.242,2.242,0,0,0-3.7,8.949a1.025,1.025,0,0,0,.41-.9.937.937,0,0,0-.419-.867,2.542,2.542,0,0,0-1.3-.258h-.551Zm0,1.477V14H-7.374V5.434h2.5a4.272,4.272,0,0,1,2.584.636A2.269,2.269,0,0,1-1.456,8a2.273,2.273,0,0,1-.416,1.345,2.753,2.753,0,0,1-1.178.923Q-1.116,13.156-.53,14H-2.546l-2.045-3.287ZM6.97,14H5.153V6.945H2.827V5.434H9.3V6.945H6.97ZM15.5,5.434h1.834L14.423,14h-1.98L9.536,5.434H11.37l1.611,5.1q.135.451.278,1.052t.179.835a15.008,15.008,0,0,1,.439-1.887Z" transform="translate(118.809 329.497) rotate(-90)"/>
      <path id="Trazado_24264" data-name="Trazado 24264" d="M-21.471-7.776a2.005,2.005,0,0,0-1.72.835A3.883,3.883,0,0,0-23.8-4.615q0,3.1,2.33,3.1A7.364,7.364,0,0,0-19.1-2v1.65a6.575,6.575,0,0,1-2.552.476,3.892,3.892,0,0,1-3.1-1.228,5.2,5.2,0,0,1-1.073-3.526A5.758,5.758,0,0,1-25.3-7.163a3.808,3.808,0,0,1,1.514-1.669,4.479,4.479,0,0,1,2.314-.581,6.245,6.245,0,0,1,2.717.654l-.635,1.6a10.507,10.507,0,0,0-1.047-.432A3.124,3.124,0,0,0-21.471-7.776Zm12.5,3.123a5.036,5.036,0,0,1-1.143,3.542A4.236,4.236,0,0,1-13.384.127a4.236,4.236,0,0,1-3.275-1.238A5.055,5.055,0,0,1-17.8-4.666,4.987,4.987,0,0,1-16.656-8.2a4.285,4.285,0,0,1,3.285-1.222A4.225,4.225,0,0,1-10.1-8.195,5.049,5.049,0,0,1-8.966-4.653Zm-6.773,0a3.877,3.877,0,0,0,.59,2.342,2.066,2.066,0,0,0,1.765.787q2.355,0,2.355-3.129t-2.342-3.136A2.08,2.08,0,0,0-15.142-7,3.86,3.86,0,0,0-15.739-4.653Zm10.664-.508h.635a2.428,2.428,0,0,0,1.377-.311,1.11,1.11,0,0,0,.444-.978,1.015,1.015,0,0,0-.454-.939,2.754,2.754,0,0,0-1.406-.279h-.6Zm0,1.6V0H-7.043V-9.28h2.7a4.628,4.628,0,0,1,2.8.689A2.458,2.458,0,0,1-.632-6.5a2.462,2.462,0,0,1-.451,1.457,2.982,2.982,0,0,1-1.276,1Q-.263-.914.371,0H-1.812L-4.028-3.561Zm8.582-1.6h.635a2.428,2.428,0,0,0,1.377-.311,1.11,1.11,0,0,0,.444-.978,1.015,1.015,0,0,0-.454-.939A2.754,2.754,0,0,0,4.1-7.668h-.6Zm0,1.6V0H1.539V-9.28h2.7a4.628,4.628,0,0,1,2.8.689A2.458,2.458,0,0,1,7.95-6.5,2.462,2.462,0,0,1,7.5-5.043a2.982,2.982,0,0,1-1.276,1Q8.319-.914,8.953,0H6.77L4.554-3.561ZM15.466,0H10.121V-9.28h5.345v1.612H12.089V-5.63h3.142v1.612H12.089v2.393h3.377ZM25.825-4.653a5.036,5.036,0,0,1-1.143,3.542A4.236,4.236,0,0,1,21.407.127a4.236,4.236,0,0,1-3.275-1.238A5.055,5.055,0,0,1,16.99-4.666,4.987,4.987,0,0,1,18.135-8.2,4.285,4.285,0,0,1,21.42-9.426a4.225,4.225,0,0,1,3.272,1.231A5.049,5.049,0,0,1,25.825-4.653Zm-6.773,0a3.877,3.877,0,0,0,.59,2.342,2.066,2.066,0,0,0,1.765.787q2.355,0,2.355-3.129T21.42-7.789A2.08,2.08,0,0,0,19.649-7,3.86,3.86,0,0,0,19.052-4.653ZM-18.976,10.271a4.57,4.57,0,0,1-1.3,3.51A5.319,5.319,0,0,1-24.048,15h-2.628V5.72h2.914a4.906,4.906,0,0,1,3.529,1.2A4.413,4.413,0,0,1-18.976,10.271Zm-2.044.051q0-2.99-2.641-2.99h-1.047v6.043h.844Q-21.02,13.375-21.02,10.322ZM-17.053,15V5.72h1.968V15Zm6.271-5.161h.635a2.428,2.428,0,0,0,1.377-.311,1.11,1.11,0,0,0,.444-.978,1.015,1.015,0,0,0-.454-.939,2.754,2.754,0,0,0-1.406-.279h-.6Zm0,1.6V15h-1.968V5.72h2.7a4.628,4.628,0,0,1,2.8.689A2.458,2.458,0,0,1-6.338,8.5a2.462,2.462,0,0,1-.451,1.457,2.982,2.982,0,0,1-1.276,1Q-5.97,14.086-5.335,15H-7.519l-2.215-3.561ZM1.177,15H-4.167V5.72H1.177V7.332H-2.2V9.37H.943v1.612H-2.2v2.393H1.177ZM7.055,7.224a2.005,2.005,0,0,0-1.72.835,3.883,3.883,0,0,0-.609,2.326q0,3.1,2.33,3.1A7.364,7.364,0,0,0,9.423,13v1.65a6.575,6.575,0,0,1-2.552.476,3.892,3.892,0,0,1-3.1-1.228A5.2,5.2,0,0,1,2.7,10.373a5.758,5.758,0,0,1,.527-2.536A3.808,3.808,0,0,1,4.742,6.167a4.479,4.479,0,0,1,2.314-.581,6.245,6.245,0,0,1,2.717.654l-.635,1.6A10.507,10.507,0,0,0,8.09,7.408,3.124,3.124,0,0,0,7.055,7.224ZM14.977,15H13.01V7.357H10.49V5.72H17.5V7.357h-2.52Zm12.111-4.653a5.036,5.036,0,0,1-1.143,3.542,4.236,4.236,0,0,1-3.275,1.238A4.236,4.236,0,0,1,19.4,13.889a5.055,5.055,0,0,1-1.143-3.555A4.987,4.987,0,0,1,19.4,6.8a4.285,4.285,0,0,1,3.285-1.222,4.225,4.225,0,0,1,3.272,1.231A5.049,5.049,0,0,1,27.089,10.347Zm-6.773,0a3.877,3.877,0,0,0,.59,2.342,2.066,2.066,0,0,0,1.765.787q2.355,0,2.355-3.129T22.683,7.211A2.08,2.08,0,0,0,20.912,8,3.86,3.86,0,0,0,20.316,10.347Z" transform="translate(526.753 316.47) rotate(90)"/>
      <path id="Trazado_24263" data-name="Trazado 24263" d="M-44.517-4.535h.6a1.99,1.99,0,0,0,1.254-.331,1.159,1.159,0,0,0,.416-.964,1.188,1.188,0,0,0-.349-.943,1.634,1.634,0,0,0-1.093-.3h-.826Zm4.1-1.359a2.618,2.618,0,0,1-.864,2.115,3.7,3.7,0,0,1-2.458.732h-.779V0h-1.816V-8.566H-43.6a3.64,3.64,0,0,1,2.37.671A2.446,2.446,0,0,1-40.415-5.895Zm3.434,1.131h.586a2.242,2.242,0,0,0,1.271-.287,1.025,1.025,0,0,0,.41-.9.937.937,0,0,0-.419-.867,2.542,2.542,0,0,0-1.3-.258h-.551Zm0,1.477V0H-38.8V-8.566h2.5a4.272,4.272,0,0,1,2.584.636A2.269,2.269,0,0,1-32.88-6,2.273,2.273,0,0,1-33.3-4.655a2.753,2.753,0,0,1-1.178.923Q-32.54-.844-31.954,0H-33.97l-2.045-3.287ZM-23.1-4.295a4.648,4.648,0,0,1-1.055,3.27A3.91,3.91,0,0,1-27.179.117,3.91,3.91,0,0,1-30.2-1.025a4.667,4.667,0,0,1-1.055-3.281A4.6,4.6,0,0,1-30.2-7.573,3.955,3.955,0,0,1-27.167-8.7a3.9,3.9,0,0,1,3.021,1.137A4.66,4.66,0,0,1-23.1-4.295Zm-6.252,0a3.578,3.578,0,0,0,.545,2.162,1.907,1.907,0,0,0,1.629.727Q-25-1.406-25-4.295t-2.162-2.895A1.92,1.92,0,0,0-28.8-6.46,3.563,3.563,0,0,0-29.353-4.295Zm11.279-.516h3.4V-.369A9.581,9.581,0,0,1-16.23.009a10.133,10.133,0,0,1-1.491.108,3.773,3.773,0,0,1-2.962-1.14,4.741,4.741,0,0,1-1.022-3.272A4.316,4.316,0,0,1-20.52-7.529a4.505,4.505,0,0,1,3.29-1.16,6.366,6.366,0,0,1,2.543.527l-.6,1.453a4.31,4.31,0,0,0-1.951-.469,2.41,2.41,0,0,0-1.887.791,3.068,3.068,0,0,0-.709,2.127,3.416,3.416,0,0,0,.571,2.13,1.977,1.977,0,0,0,1.661.735,5.876,5.876,0,0,0,1.154-.117V-3.3h-1.623Zm7.254.047h.586a2.242,2.242,0,0,0,1.271-.287,1.025,1.025,0,0,0,.41-.9.937.937,0,0,0-.419-.867,2.542,2.542,0,0,0-1.3-.258h-.551Zm0,1.477V0h-1.816V-8.566h2.5a4.272,4.272,0,0,1,2.584.636A2.269,2.269,0,0,1-6.718-6a2.273,2.273,0,0,1-.416,1.345,2.753,2.753,0,0,1-1.178.923Q-6.378-.844-5.792,0H-7.808L-9.853-3.287ZM.53,0-.091-2.039H-3.214L-3.835,0H-5.792l3.023-8.6H-.548L2.487,0ZM-.524-3.562q-.861-2.771-.97-3.135t-.155-.574q-.193.75-1.107,3.709ZM7.192,0,5.13-6.721H5.077q.111,2.051.111,2.736V0H3.565V-8.566H6.038L8.065-2.016H8.1l2.15-6.551h2.473V0H11.03V-4.055q0-.287.009-.662t.079-1.992h-.053L8.856,0ZM20.124,0,19.5-2.039H16.38L15.759,0H13.8l3.023-8.6h2.221L22.081,0ZM19.069-3.562Q18.208-6.334,18.1-6.7t-.155-.574q-.193.75-1.107,3.709Zm9.146,1.184a2.214,2.214,0,0,1-.835,1.828,3.627,3.627,0,0,1-2.323.668A5.456,5.456,0,0,1,22.632-.4V-2.086a10,10,0,0,0,1.468.545,4.343,4.343,0,0,0,1.1.158,1.562,1.562,0,0,0,.917-.229.782.782,0,0,0,.319-.68.75.75,0,0,0-.141-.448,1.574,1.574,0,0,0-.413-.378,10.624,10.624,0,0,0-1.11-.58,5.263,5.263,0,0,1-1.178-.709,2.662,2.662,0,0,1-.627-.791,2.257,2.257,0,0,1-.234-1.055A2.214,2.214,0,0,1,23.5-8.039a3.2,3.2,0,0,1,2.13-.65,5.03,5.03,0,0,1,1.274.158,8.76,8.76,0,0,1,1.269.445l-.586,1.412a8.573,8.573,0,0,0-1.134-.393,3.649,3.649,0,0,0-.882-.111,1.168,1.168,0,0,0-.791.24.792.792,0,0,0-.275.627.776.776,0,0,0,.111.419,1.224,1.224,0,0,0,.354.346,10.961,10.961,0,0,0,1.151.6,4.581,4.581,0,0,1,1.646,1.151A2.247,2.247,0,0,1,28.216-2.379ZM39.993-4.365a4.218,4.218,0,0,1-1.2,3.24A4.91,4.91,0,0,1,35.312,0H32.886V-8.566h2.689a4.529,4.529,0,0,1,3.258,1.107A4.074,4.074,0,0,1,39.993-4.365Zm-1.887.047q0-2.76-2.437-2.76H34.7V-1.5h.779Q38.106-1.5,38.106-4.318ZM46.7,0H41.769V-8.566H46.7v1.488H43.585V-5.2h2.9v1.488h-2.9V-1.5H46.7ZM-38.549,14h-1.787V5.434h4.91V6.922h-3.123V9.131h2.906v1.482h-2.906Zm4.8,0V5.434h1.816V14Zm11.08-4.365a4.218,4.218,0,0,1-1.2,3.24A4.91,4.91,0,0,1-27.352,14h-2.426V5.434h2.689A4.529,4.529,0,0,1-23.83,6.541,4.074,4.074,0,0,1-22.67,9.635Zm-1.887.047q0-2.76-2.437-2.76h-.967V12.5h.779Q-24.557,12.5-24.557,9.682Zm8.6,4.318h-4.934V5.434h4.934V6.922h-3.117V8.8h2.9v1.488h-2.9V12.5h3.117Zm1.787,0V5.434h1.816V12.5h3.475V14Zm6.779,0V5.434h1.816V14Zm9.557,0H-4.213V12.822L-.105,6.934h-4v-1.5H2.051V6.605l-4.1,5.895H2.162Zm6.609,0L8.15,11.961H5.027L4.406,14H2.449L5.473,5.4H7.693L10.729,14ZM7.717,10.438Q6.855,7.666,6.747,7.3t-.155-.574q-.193.75-1.107,3.709Zm7.488-3.615a1.851,1.851,0,0,0-1.588.771,3.585,3.585,0,0,0-.562,2.147q0,2.865,2.15,2.865a6.8,6.8,0,0,0,2.186-.451v1.523a6.069,6.069,0,0,1-2.355.439,3.592,3.592,0,0,1-2.859-1.134,4.8,4.8,0,0,1-.99-3.255,5.315,5.315,0,0,1,.486-2.341,3.515,3.515,0,0,1,1.4-1.541,4.134,4.134,0,0,1,2.136-.536,5.764,5.764,0,0,1,2.508.6l-.586,1.477a9.7,9.7,0,0,0-.967-.4A2.884,2.884,0,0,0,15.205,6.822ZM19.213,14V5.434h1.816V14ZM30.961,9.705a4.648,4.648,0,0,1-1.055,3.27,3.91,3.91,0,0,1-3.023,1.143,3.91,3.91,0,0,1-3.023-1.143A4.667,4.667,0,0,1,22.8,9.693a4.6,4.6,0,0,1,1.058-3.267A3.955,3.955,0,0,1,26.895,5.3a3.9,3.9,0,0,1,3.021,1.137A4.66,4.66,0,0,1,30.961,9.705Zm-6.252,0a3.578,3.578,0,0,0,.545,2.162,1.907,1.907,0,0,0,1.629.727q2.174,0,2.174-2.889T26.895,6.811a1.92,1.92,0,0,0-1.635.729A3.563,3.563,0,0,0,24.709,9.705Zm1.254-4.957V4.59A16.5,16.5,0,0,0,27.34,2.826h2v.123q-.3.3-1.04.905t-1.151.894ZM40.336,14H38.027L34.3,7.52h-.053q.111,1.717.111,2.449V14H32.736V5.434h2.291l3.721,6.416h.041Q38.7,10.18,38.7,9.488V5.434h1.635Z" transform="translate(457.889 171.119) rotate(45)"/>
      <path id="Trazado_24267" data-name="Trazado 24267" d="M-20.614-8.374a2.159,2.159,0,0,0-1.853.9,4.182,4.182,0,0,0-.656,2.505q0,3.343,2.509,3.343a7.931,7.931,0,0,0,2.55-.526V-.376a7.081,7.081,0,0,1-2.748.513,4.191,4.191,0,0,1-3.336-1.323,5.6,5.6,0,0,1-1.155-3.8,6.2,6.2,0,0,1,.567-2.731,4.1,4.1,0,0,1,1.63-1.8,4.823,4.823,0,0,1,2.492-.625,6.725,6.725,0,0,1,2.926.7l-.684,1.723A11.315,11.315,0,0,0-19.5-8.176,3.365,3.365,0,0,0-20.614-8.374ZM-15.938,0V-9.994h2.119V-1.75h4.054V0ZM-.031-9.994v6.467a3.728,3.728,0,0,1-.5,1.941A3.225,3.225,0,0,1-1.958-.308,5.122,5.122,0,0,1-4.173.137,4.241,4.241,0,0,1-7.167-.851a3.5,3.5,0,0,1-1.066-2.7V-9.994h2.112v6.118a2.563,2.563,0,0,0,.465,1.7,1.932,1.932,0,0,0,1.538.54,1.889,1.889,0,0,0,1.507-.543A2.576,2.576,0,0,0-2.143-3.89v-6.1Zm2.447,0h3.11a5.994,5.994,0,0,1,3.086.6,2.106,2.106,0,0,1,.96,1.924A2.425,2.425,0,0,1,9.153-6a1.679,1.679,0,0,1-1.118.69v.068a2.2,2.2,0,0,1,1.371.793A2.58,2.58,0,0,1,9.827-2.9,2.546,2.546,0,0,1,8.839-.766,4.272,4.272,0,0,1,6.156,0H2.417ZM4.536-6.036h1.23A2.25,2.25,0,0,0,7.014-6.3.994.994,0,0,0,7.4-7.185a.882.882,0,0,0-.42-.824,2.7,2.7,0,0,0-1.33-.25H4.536Zm0,1.682v2.6H5.917a2.048,2.048,0,0,0,1.292-.335A1.236,1.236,0,0,0,7.625-3.11q0-1.244-1.777-1.244ZM17.579,0H11.823V-9.994h5.756v1.736H13.942v2.194h3.384v1.736H13.942V-1.75h3.637Zm7.984-2.775a2.583,2.583,0,0,1-.974,2.133,4.232,4.232,0,0,1-2.71.779,6.366,6.366,0,0,1-2.83-.6V-2.434a11.663,11.663,0,0,0,1.712.636,5.067,5.067,0,0,0,1.282.185,1.822,1.822,0,0,0,1.07-.267.912.912,0,0,0,.373-.793.875.875,0,0,0-.164-.523,1.836,1.836,0,0,0-.482-.441,12.4,12.4,0,0,0-1.3-.677,6.14,6.14,0,0,1-1.374-.827,3.105,3.105,0,0,1-.731-.923,2.634,2.634,0,0,1-.273-1.23,2.583,2.583,0,0,1,.9-2.085,3.735,3.735,0,0,1,2.485-.759,5.868,5.868,0,0,1,1.487.185,10.22,10.22,0,0,1,1.48.52l-.684,1.647a10,10,0,0,0-1.323-.458,4.258,4.258,0,0,0-1.029-.13,1.362,1.362,0,0,0-.923.28.925.925,0,0,0-.321.731.905.905,0,0,0,.13.489,1.428,1.428,0,0,0,.414.4,12.787,12.787,0,0,0,1.343.7,5.345,5.345,0,0,1,1.921,1.343A2.622,2.622,0,0,1,25.563-2.775Z" transform="translate(176.433 464.847) rotate(45)"/>
    </g>
  </g>
</svg>
