<svg xmlns="http://www.w3.org/2000/svg" width="645" height="645" viewBox="0 0 645 645">
  <g id="Grupo_14567" data-name="Grupo 14567" transform="translate(-139.5 -2924.5)">
    <g id="Grupo_14545" data-name="Grupo 14545" transform="translate(141.03 2925.803)">
      <g id="Grupo_14546" data-name="Grupo 14546" transform="translate(0 0)">
        <circle id="Elipse_919" data-name="Elipse 919" cx="321" cy="321" r="321" transform="translate(-0.03 0.197)" fill="#fff" stroke="#91cff4" stroke-miterlimit="10" stroke-width="3"/>
        <ellipse id="Elipse_920" data-name="Elipse 920" cx="253.112" cy="253.112" rx="253.112" ry="253.112" transform="translate(67.752 68.166)" fill="#fff" stroke="#71b3e1" stroke-miterlimit="10" stroke-width="3"/>
        <ellipse id="Elipse_921" data-name="Elipse 921" cx="169.687" cy="169.687" rx="169.687" ry="169.687" transform="translate(151.177 151.591)" fill="#4674b8"/>
        <ellipse id="Elipse_922" data-name="Elipse 922" cx="67.783" cy="67.783" rx="67.783" ry="67.783" transform="translate(253.081 253.495)" fill="#333b8c"/>
        <path id="Trazado_24270" data-name="Trazado 24270" d="M-40.409-7.776a2.005,2.005,0,0,0-1.72.835,3.883,3.883,0,0,0-.609,2.326q0,3.1,2.33,3.1A7.364,7.364,0,0,0-38.042-2v1.65a6.575,6.575,0,0,1-2.552.476,3.892,3.892,0,0,1-3.1-1.228,5.2,5.2,0,0,1-1.073-3.526,5.758,5.758,0,0,1,.527-2.536,3.808,3.808,0,0,1,1.514-1.669,4.479,4.479,0,0,1,2.314-.581,6.245,6.245,0,0,1,2.717.654l-.635,1.6a10.507,10.507,0,0,0-1.047-.432A3.124,3.124,0,0,0-40.409-7.776Zm12.5,3.123a5.036,5.036,0,0,1-1.143,3.542A4.236,4.236,0,0,1-32.322.127,4.236,4.236,0,0,1-35.6-1.111,5.055,5.055,0,0,1-36.74-4.666,4.987,4.987,0,0,1-35.594-8.2,4.285,4.285,0,0,1-32.31-9.426a4.225,4.225,0,0,1,3.272,1.231A5.049,5.049,0,0,1-27.9-4.653Zm-6.773,0a3.877,3.877,0,0,0,.59,2.342,2.066,2.066,0,0,0,1.765.787q2.355,0,2.355-3.129T-32.31-7.789A2.08,2.08,0,0,0-34.081-7,3.86,3.86,0,0,0-34.677-4.653ZM-17.748,0h-2.5l-4.037-7.021h-.057q.121,1.86.121,2.653V0h-1.758V-9.28H-23.5l4.031,6.951h.044q-.1-1.809-.1-2.558V-9.28h1.771Zm7.814-2.577a2.4,2.4,0,0,1-.9,1.98,3.929,3.929,0,0,1-2.517.724,5.911,5.911,0,0,1-2.628-.559V-2.26a10.83,10.83,0,0,0,1.59.59A4.705,4.705,0,0,0-13.2-1.5a1.692,1.692,0,0,0,.993-.248.847.847,0,0,0,.346-.736.813.813,0,0,0-.152-.486,1.7,1.7,0,0,0-.448-.409,11.51,11.51,0,0,0-1.2-.628,5.7,5.7,0,0,1-1.276-.768,2.883,2.883,0,0,1-.679-.857,2.445,2.445,0,0,1-.254-1.143,2.4,2.4,0,0,1,.835-1.936,3.468,3.468,0,0,1,2.307-.7,5.449,5.449,0,0,1,1.381.171,9.49,9.49,0,0,1,1.374.482l-.635,1.53a9.287,9.287,0,0,0-1.228-.425,3.954,3.954,0,0,0-.955-.121,1.265,1.265,0,0,0-.857.26.858.858,0,0,0-.3.679.841.841,0,0,0,.121.454,1.326,1.326,0,0,0,.384.375,11.874,11.874,0,0,0,1.247.651A4.963,4.963,0,0,1-10.417-4.11,2.434,2.434,0,0,1-9.934-2.577ZM-.7-9.28v6a3.462,3.462,0,0,1-.46,1.8A3,3,0,0,1-2.488-.286,4.756,4.756,0,0,1-4.545.127,3.938,3.938,0,0,1-7.325-.79a3.254,3.254,0,0,1-.99-2.51V-9.28h1.961V-3.6a2.38,2.38,0,0,0,.432,1.574,1.794,1.794,0,0,0,1.428.5,1.754,1.754,0,0,0,1.4-.5A2.392,2.392,0,0,0-2.66-3.612V-9.28ZM5.5,0,3.269-7.281H3.212q.121,2.222.121,2.964V0H1.574V-9.28H4.253l2.2,7.1h.038l2.33-7.1H11.5V0H9.661V-4.393q0-.311.01-.717t.086-2.158H9.7L7.306,0Zm8.328,0V-9.28H15.8V0Zm12-4.729a4.57,4.57,0,0,1-1.3,3.51A5.319,5.319,0,0,1,20.763,0H18.135V-9.28h2.914a4.906,4.906,0,0,1,3.529,1.2A4.413,4.413,0,0,1,25.835-4.729Zm-2.044.051q0-2.99-2.641-2.99H20.1v6.043h.844Q23.791-1.625,23.791-4.678Zm12.391.025a5.036,5.036,0,0,1-1.143,3.542A4.236,4.236,0,0,1,31.764.127a4.236,4.236,0,0,1-3.275-1.238,5.055,5.055,0,0,1-1.143-3.555A4.987,4.987,0,0,1,28.491-8.2a4.285,4.285,0,0,1,3.285-1.222,4.225,4.225,0,0,1,3.272,1.231A5.049,5.049,0,0,1,36.182-4.653Zm-6.773,0A3.877,3.877,0,0,0,30-2.311a2.066,2.066,0,0,0,1.765.787q2.355,0,2.355-3.129T31.776-7.789A2.08,2.08,0,0,0,30.005-7,3.86,3.86,0,0,0,29.409-4.653Zm10.664-.508h.635a2.428,2.428,0,0,0,1.377-.311,1.11,1.11,0,0,0,.444-.978,1.015,1.015,0,0,0-.454-.939,2.754,2.754,0,0,0-1.406-.279h-.6Zm0,1.6V0H38.1V-9.28h2.7a4.628,4.628,0,0,1,2.8.689A2.458,2.458,0,0,1,44.516-6.5a2.462,2.462,0,0,1-.451,1.457,2.982,2.982,0,0,1-1.276,1Q44.884-.914,45.519,0H43.335L41.12-3.561Z" transform="translate(318.65 322.841)" fill="#fff"/>
        <path id="Trazado_24271" data-name="Trazado 24271" d="M-10.56-4.157h.548a1.825,1.825,0,0,0,1.149-.3,1.062,1.062,0,0,0,.381-.884,1.089,1.089,0,0,0-.32-.865,1.5,1.5,0,0,0-1-.279h-.757ZM-6.8-5.4a2.4,2.4,0,0,1-.792,1.939,3.388,3.388,0,0,1-2.253.671h-.714V0h-1.665V-7.853h2.508a3.336,3.336,0,0,1,2.173.615A2.242,2.242,0,0,1-6.8-5.4ZM-7.106-.768a.9.9,0,0,1,.242-.682.98.98,0,0,1,.7-.231.952.952,0,0,1,.69.236.9.9,0,0,1,.244.677A.9.9,0,0,1-5.473-.1a.935.935,0,0,1-.687.244.963.963,0,0,1-.7-.239A.894.894,0,0,1-7.106-.768ZM2.97-3.937A4.261,4.261,0,0,1,2-.94,3.584,3.584,0,0,1-.768.107,3.584,3.584,0,0,1-3.54-.94a4.278,4.278,0,0,1-.967-3.008,4.219,4.219,0,0,1,.969-2.994A3.625,3.625,0,0,1-.757-7.976,3.575,3.575,0,0,1,2.011-6.934,4.272,4.272,0,0,1,2.97-3.937Zm-5.731,0a3.28,3.28,0,0,0,.5,1.982,1.748,1.748,0,0,0,1.493.666q1.993,0,1.993-2.648T-.757-6.59a1.76,1.76,0,0,0-1.5.669A3.266,3.266,0,0,0-2.761-3.937ZM3.8-.768a.9.9,0,0,1,.242-.682.98.98,0,0,1,.7-.231.952.952,0,0,1,.69.236.9.9,0,0,1,.244.677A.9.9,0,0,1,5.43-.1a.935.935,0,0,1-.687.244.963.963,0,0,1-.7-.239A.894.894,0,0,1,3.8-.768ZM8.959-4.157h.548a1.825,1.825,0,0,0,1.149-.3,1.062,1.062,0,0,0,.381-.884,1.089,1.089,0,0,0-.32-.865,1.5,1.5,0,0,0-1-.279H8.959ZM12.719-5.4a2.4,2.4,0,0,1-.792,1.939,3.388,3.388,0,0,1-2.253.671H8.959V0H7.294V-7.853H9.8a3.336,3.336,0,0,1,2.173.615A2.242,2.242,0,0,1,12.719-5.4Z" transform="translate(317.139 203.397)" fill="#fff"/>
        <path id="Trazado_24275" data-name="Trazado 24275" d="M-19.177,0H-23.7V-7.853h4.522v1.364h-2.857v1.724h2.659V-3.4h-2.659v2.025h2.857Zm6.118-7.853h1.681L-14.048,0h-1.815l-2.664-7.853h1.681l1.477,4.673q.124.414.255.964t.164.765a13.758,13.758,0,0,1,.4-1.729ZM-5.868,0H-10.39V-7.853h4.522v1.364H-8.725v1.724h2.659V-3.4H-8.725v2.025h2.857Zm8.6,0H.62L-2.8-5.94h-.048q.1,1.574.1,2.245V0H-4.23V-7.853h2.1L1.281-1.971h.038Q1.238-3.5,1.238-4.136V-7.853h1.5ZM7.742,0H6.077V-6.467H3.945V-7.853h5.93v1.386H7.742ZM17.99-3.937a4.261,4.261,0,0,1-.967,3A3.584,3.584,0,0,1,14.252.107,3.584,3.584,0,0,1,11.481-.94a4.278,4.278,0,0,1-.967-3.008,4.219,4.219,0,0,1,.969-2.994,3.625,3.625,0,0,1,2.78-1.034,3.575,3.575,0,0,1,2.769,1.042A4.272,4.272,0,0,1,17.99-3.937Zm-5.731,0a3.28,3.28,0,0,0,.5,1.982,1.748,1.748,0,0,0,1.493.666q1.993,0,1.993-2.648T14.263-6.59a1.76,1.76,0,0,0-1.5.669A3.266,3.266,0,0,0,12.26-3.937ZM24.253-2.181A2.03,2.03,0,0,1,23.488-.5a3.325,3.325,0,0,1-2.13.612,5,5,0,0,1-2.224-.473V-1.912a9.163,9.163,0,0,0,1.345.5,3.981,3.981,0,0,0,1.007.145,1.432,1.432,0,0,0,.841-.209A.716.716,0,0,0,22.62-2.1a.688.688,0,0,0-.129-.411,1.442,1.442,0,0,0-.379-.346,9.739,9.739,0,0,0-1.018-.532,4.824,4.824,0,0,1-1.08-.65,2.44,2.44,0,0,1-.575-.725,2.069,2.069,0,0,1-.215-.967,2.029,2.029,0,0,1,.706-1.638,2.935,2.935,0,0,1,1.952-.6,4.61,4.61,0,0,1,1.168.145,8.03,8.03,0,0,1,1.163.408l-.537,1.294a7.858,7.858,0,0,0-1.039-.36,3.345,3.345,0,0,0-.808-.1,1.07,1.07,0,0,0-.725.22.726.726,0,0,0-.252.575.711.711,0,0,0,.1.384,1.122,1.122,0,0,0,.325.317,10.047,10.047,0,0,0,1.055.551,4.2,4.2,0,0,1,1.509,1.055A2.06,2.06,0,0,1,24.253-2.181ZM-15.748,13h-1.638V5.147h4.5V6.512h-2.863V8.537h2.664V9.9h-2.664Zm8.921,0h-4.522V5.147h4.522V6.512H-9.684V8.236h2.659V9.6H-9.684v2.025h2.857Zm3.3-4.367h.537A2.055,2.055,0,0,0-1.821,8.37a.939.939,0,0,0,.376-.827.859.859,0,0,0-.384-.795,2.33,2.33,0,0,0-1.19-.236h-.5Zm0,1.354V13H-5.188V5.147H-2.9A3.916,3.916,0,0,1-.532,5.73,2.08,2.08,0,0,1,.236,7.5,2.083,2.083,0,0,1-.145,8.733a2.523,2.523,0,0,1-1.08.846Q.548,12.227,1.085,13H-.763L-2.637,9.987ZM2.073,13V5.147H3.738V13Zm8.449,0-.569-1.869H7.09L6.521,13H4.727L7.5,5.115H9.534L12.316,13ZM9.555,9.734q-.79-2.541-.889-2.874t-.142-.526q-.177.688-1.015,3.4Zm8.384,1.085a2.03,2.03,0,0,1-.765,1.676,3.325,3.325,0,0,1-2.13.612,5,5,0,0,1-2.224-.473V11.088a9.164,9.164,0,0,0,1.345.5,3.981,3.981,0,0,0,1.007.145,1.432,1.432,0,0,0,.841-.209.716.716,0,0,0,.293-.623.688.688,0,0,0-.129-.411,1.442,1.442,0,0,0-.379-.346,9.739,9.739,0,0,0-1.018-.532,4.824,4.824,0,0,1-1.08-.65,2.44,2.44,0,0,1-.575-.725,2.069,2.069,0,0,1-.215-.967,2.029,2.029,0,0,1,.706-1.638,2.935,2.935,0,0,1,1.952-.6,4.61,4.61,0,0,1,1.168.145,8.03,8.03,0,0,1,1.163.408l-.537,1.294a7.858,7.858,0,0,0-1.039-.36,3.345,3.345,0,0,0-.808-.1,1.07,1.07,0,0,0-.725.22.726.726,0,0,0-.252.575.711.711,0,0,0,.1.384,1.122,1.122,0,0,0,.325.317,10.047,10.047,0,0,0,1.055.551,4.2,4.2,0,0,1,1.509,1.055A2.06,2.06,0,0,1,17.939,10.819Z" transform="translate(315.454 435.905)" fill="#fff"/>
        <path id="Trazado_24278" data-name="Trazado 24278" d="M-36.454,0V-7.853h1.665V0Zm10.608,0h-2.116l-3.416-5.94h-.048q.1,1.574.1,2.245V0h-1.488V-7.853h2.1L-27.3-1.971h.038q-.081-1.531-.081-2.165V-7.853h1.5Zm5.006,0H-22.5V-6.467h-2.132V-7.853h5.93v1.386H-20.84Zm7.863,0H-17.5V-7.853h4.522v1.364h-2.857v1.724h2.659V-3.4h-2.659v2.025h2.857Zm3.3-4.367h.537A2.055,2.055,0,0,0-7.971-4.63a.939.939,0,0,0,.376-.827.859.859,0,0,0-.384-.795,2.33,2.33,0,0,0-1.19-.236h-.5Zm0,1.354V0h-1.665V-7.853H-9.05a3.916,3.916,0,0,1,2.369.583A2.08,2.08,0,0,1-5.914-5.5a2.083,2.083,0,0,1-.381,1.233,2.523,2.523,0,0,1-1.08.846Q-5.6-.773-5.065,0H-6.913L-8.787-3.013ZM.73,0,.161-1.869H-2.7L-3.271,0H-5.065l2.771-7.885H-.258L2.524,0ZM-.236-3.266q-.79-2.541-.889-2.874t-.142-.526q-.177.688-1.015,3.4ZM6.628-6.58a1.7,1.7,0,0,0-1.456.706A3.286,3.286,0,0,0,4.657-3.9q0,2.626,1.971,2.626a6.231,6.231,0,0,0,2-.414V-.3a5.564,5.564,0,0,1-2.159.4A3.293,3.293,0,0,1,3.851-.932a4.4,4.4,0,0,1-.908-2.984,4.872,4.872,0,0,1,.446-2.146A3.222,3.222,0,0,1,4.67-7.474a3.79,3.79,0,0,1,1.958-.491,5.284,5.284,0,0,1,2.3.553L8.39-6.059A8.891,8.891,0,0,0,7.5-6.424,2.644,2.644,0,0,0,6.628-6.58Zm6.789,0a1.7,1.7,0,0,0-1.456.706A3.286,3.286,0,0,0,11.446-3.9q0,2.626,1.971,2.626a6.231,6.231,0,0,0,2-.414V-.3a5.564,5.564,0,0,1-2.159.4A3.293,3.293,0,0,1,10.64-.932a4.4,4.4,0,0,1-.908-2.984,4.872,4.872,0,0,1,.446-2.146,3.222,3.222,0,0,1,1.281-1.413,3.79,3.79,0,0,1,1.958-.491,5.284,5.284,0,0,1,2.3.553l-.537,1.354a8.891,8.891,0,0,0-.886-.365A2.644,2.644,0,0,0,13.417-6.58ZM17.091,0V-7.853h1.665V0ZM27.86-3.937a4.261,4.261,0,0,1-.967,3A3.584,3.584,0,0,1,24.122.107,3.584,3.584,0,0,1,21.35-.94a4.278,4.278,0,0,1-.967-3.008,4.219,4.219,0,0,1,.969-2.994,3.625,3.625,0,0,1,2.78-1.034A3.575,3.575,0,0,1,26.9-6.934,4.272,4.272,0,0,1,27.86-3.937Zm-5.731,0a3.28,3.28,0,0,0,.5,1.982,1.748,1.748,0,0,0,1.493.666q1.993,0,1.993-2.648T24.132-6.59a1.76,1.76,0,0,0-1.5.669A3.266,3.266,0,0,0,22.129-3.937Zm1.149-4.544v-.145a15.122,15.122,0,0,0,1.262-1.617h1.837v.113q-.279.279-.953.83t-1.055.819ZM36.454,0H34.337L30.921-5.94h-.048q.1,1.574.1,2.245V0H29.487V-7.853h2.1L35-1.971h.038q-.081-1.531-.081-2.165V-7.853h1.5Zm-53.7,5.147h1.681L-18.232,13h-1.815l-2.664-7.853h1.681l1.477,4.673q.124.414.255.964t.164.765a13.758,13.758,0,0,1,.4-1.729ZM-14.574,13V5.147h1.665V13Zm8.449,0L-6.7,11.131H-9.558L-10.127,13h-1.794L-9.15,5.115h2.036L-4.332,13Zm-.967-3.266q-.79-2.541-.889-2.874t-.142-.526q-.177.688-1.015,3.4ZM7.162,13h-1.9L4.2,8.875q-.059-.22-.2-.91t-.164-.927q-.032.29-.161.932t-.2.916L2.42,13H.529l-2-7.853H.164l1,4.286q.263,1.187.381,2.057.032-.306.148-.948t.218-1l1.144-4.4H4.633l1.144,4.4q.075.3.188.9t.172,1.042q.054-.419.172-1.045t.215-1.012l1-4.286H9.16Zm7.509,0H10.149V5.147h4.522V6.512H11.814V8.236h2.659V9.6H11.814v2.025h2.857Zm1.638-7.853h2.444a4.709,4.709,0,0,1,2.425.475,1.655,1.655,0,0,1,.755,1.512A1.905,1.905,0,0,1,21.6,8.29a1.32,1.32,0,0,1-.878.542v.054a1.73,1.73,0,0,1,1.077.623,2.027,2.027,0,0,1,.33,1.214,2,2,0,0,1-.776,1.676,3.357,3.357,0,0,1-2.108.6H16.309Zm1.665,3.11h.967a1.768,1.768,0,0,0,.98-.209.781.781,0,0,0,.3-.693.693.693,0,0,0-.33-.647,2.123,2.123,0,0,0-1.045-.2h-.875Zm0,1.321v2.046h1.085a1.609,1.609,0,0,0,1.015-.263.971.971,0,0,0,.328-.806q0-.978-1.4-.978Z" transform="translate(233.496 236.344) rotate(-45)" fill="#fff"/>
        <path id="Trazado_24274" data-name="Trazado 24274" d="M-20.735,0H-22.4V-6.467h-2.132V-7.853h5.93v1.386h-2.132Zm7.38,0-.569-1.869h-2.863L-17.357,0h-1.794l2.771-7.885h2.036L-11.561,0Zm-.967-3.266q-.79-2.541-.889-2.874t-.142-.526q-.177.688-1.015,3.4Zm5.414-1.1h.537A2.055,2.055,0,0,0-7.205-4.63a.939.939,0,0,0,.376-.827.859.859,0,0,0-.384-.795A2.33,2.33,0,0,0-8.4-6.488h-.5Zm0,1.354V0h-1.665V-7.853h2.288a3.916,3.916,0,0,1,2.369.583A2.08,2.08,0,0,1-5.148-5.5,2.083,2.083,0,0,1-5.53-4.267a2.523,2.523,0,0,1-1.08.846Q-4.837-.773-4.3,0H-6.147L-8.022-3.013ZM-4.133,2.31a3.641,3.641,0,0,1-.983-.118V.806a3.257,3.257,0,0,0,.784.107A.886.886,0,0,0-3.548.572,1.9,1.9,0,0,0-3.311-.494V-7.853h1.665V-.5A3.1,3.1,0,0,1-2.275,1.59,2.335,2.335,0,0,1-4.133,2.31ZM4.853,0H.33V-7.853H4.853v1.364H2v1.724H4.654V-3.4H2v2.025H4.853ZM9.52,0H7.855V-6.467H5.723V-7.853h5.93v1.386H9.52ZM16.9,0l-.569-1.869H13.468L12.9,0H11.1l2.771-7.885h2.036L18.694,0Zm-.967-3.266q-.79-2.541-.889-2.874T14.9-6.666q-.177.688-1.015,3.4Zm8.384,1.085A2.03,2.03,0,0,1,23.552-.5a3.325,3.325,0,0,1-2.13.612A5,5,0,0,1,19.2-.365V-1.912a9.163,9.163,0,0,0,1.345.5,3.981,3.981,0,0,0,1.007.145,1.432,1.432,0,0,0,.841-.209.716.716,0,0,0,.293-.623.688.688,0,0,0-.129-.411,1.442,1.442,0,0,0-.379-.346,9.739,9.739,0,0,0-1.018-.532,4.824,4.824,0,0,1-1.08-.65,2.44,2.44,0,0,1-.575-.725,2.069,2.069,0,0,1-.215-.967A2.029,2.029,0,0,1,20-7.369a2.935,2.935,0,0,1,1.952-.6,4.61,4.61,0,0,1,1.168.145,8.03,8.03,0,0,1,1.163.408l-.537,1.294a7.858,7.858,0,0,0-1.039-.36,3.345,3.345,0,0,0-.808-.1,1.07,1.07,0,0,0-.725.22.726.726,0,0,0-.252.575.711.711,0,0,0,.1.384,1.122,1.122,0,0,0,.325.317,10.047,10.047,0,0,0,1.055.551,4.2,4.2,0,0,1,1.509,1.055A2.06,2.06,0,0,1,24.318-2.181ZM-18.009,13h-1.638V5.147h4.5V6.512h-2.863V8.537h2.664V9.9h-2.664Zm8.921,0H-13.61V5.147h4.522V6.512h-2.857V8.236h2.659V9.6h-2.659v2.025h2.857Zm4.974-6.58a1.7,1.7,0,0,0-1.456.706A3.286,3.286,0,0,0-6.085,9.1q0,2.626,1.971,2.626a6.231,6.231,0,0,0,2-.414v1.4a5.564,5.564,0,0,1-2.159.4,3.293,3.293,0,0,1-2.621-1.039A4.4,4.4,0,0,1-7.8,9.084a4.872,4.872,0,0,1,.446-2.146A3.222,3.222,0,0,1-6.072,5.526a3.79,3.79,0,0,1,1.958-.491,5.284,5.284,0,0,1,2.3.553l-.537,1.354a8.891,8.891,0,0,0-.886-.365A2.644,2.644,0,0,0-4.114,6.42ZM5.994,13H4.334V9.611H1.225V13H-.44V5.147H1.225V8.225h3.11V5.147h1.66Zm6.789,0-.569-1.869H9.351L8.782,13H6.988L9.759,5.115h2.036L14.577,13Zm-.967-3.266q-.79-2.541-.889-2.874t-.142-.526q-.177.688-1.015,3.4ZM20.2,10.819a2.03,2.03,0,0,1-.765,1.676,3.325,3.325,0,0,1-2.13.612,5,5,0,0,1-2.224-.473V11.088a9.163,9.163,0,0,0,1.345.5,3.981,3.981,0,0,0,1.007.145,1.432,1.432,0,0,0,.841-.209.716.716,0,0,0,.293-.623.688.688,0,0,0-.129-.411,1.442,1.442,0,0,0-.379-.346,9.739,9.739,0,0,0-1.018-.532,4.824,4.824,0,0,1-1.08-.65,2.44,2.44,0,0,1-.575-.725,2.069,2.069,0,0,1-.215-.967,2.029,2.029,0,0,1,.706-1.638,2.935,2.935,0,0,1,1.952-.6A4.61,4.61,0,0,1,19,5.18a8.03,8.03,0,0,1,1.163.408l-.537,1.294a7.858,7.858,0,0,0-1.039-.36,3.345,3.345,0,0,0-.808-.1,1.07,1.07,0,0,0-.725.22.726.726,0,0,0-.252.575.711.711,0,0,0,.1.384,1.122,1.122,0,0,0,.325.317,10.047,10.047,0,0,0,1.055.551,4.2,4.2,0,0,1,1.509,1.055A2.06,2.06,0,0,1,20.2,10.819ZM-25.47,26h-4.522V18.147h4.522v1.364h-2.857v1.724h2.659V22.6h-2.659v2.025h2.857Zm6.273-2.181a2.03,2.03,0,0,1-.765,1.676,3.325,3.325,0,0,1-2.13.612,5,5,0,0,1-2.224-.473V24.088a9.163,9.163,0,0,0,1.345.5,3.981,3.981,0,0,0,1.007.145,1.432,1.432,0,0,0,.841-.209.716.716,0,0,0,.293-.623.688.688,0,0,0-.129-.411,1.442,1.442,0,0,0-.379-.346,9.739,9.739,0,0,0-1.018-.532,4.824,4.824,0,0,1-1.08-.65,2.44,2.44,0,0,1-.575-.725,2.069,2.069,0,0,1-.215-.967,2.029,2.029,0,0,1,.706-1.638,2.935,2.935,0,0,1,1.952-.6,4.61,4.61,0,0,1,1.168.145,8.03,8.03,0,0,1,1.163.408l-.537,1.294a7.858,7.858,0,0,0-1.039-.36,3.345,3.345,0,0,0-.808-.1,1.07,1.07,0,0,0-.725.22.726.726,0,0,0-.252.575.711.711,0,0,0,.1.384,1.122,1.122,0,0,0,.325.317,10.047,10.047,0,0,0,1.055.551A4.2,4.2,0,0,1-19.6,22.522,2.06,2.06,0,0,1-19.2,23.819Zm3.088-1.977h.548a1.825,1.825,0,0,0,1.149-.3,1.062,1.062,0,0,0,.381-.884,1.089,1.089,0,0,0-.32-.865,1.5,1.5,0,0,0-1-.279h-.757Zm3.76-1.246a2.4,2.4,0,0,1-.792,1.939,3.388,3.388,0,0,1-2.253.671h-.714V26h-1.665V18.147h2.508a3.336,3.336,0,0,1,2.173.615A2.242,2.242,0,0,1-12.348,20.6Zm6,5.4h-4.522V18.147h4.522v1.364H-9.2v1.724h2.659V22.6H-9.2v2.025h2.857Zm4.974-6.58a1.7,1.7,0,0,0-1.456.706A3.286,3.286,0,0,0-3.341,22.1q0,2.626,1.971,2.626a6.231,6.231,0,0,0,2-.414v1.4a5.564,5.564,0,0,1-2.159.4,3.293,3.293,0,0,1-2.621-1.039,4.4,4.4,0,0,1-.908-2.984,4.872,4.872,0,0,1,.446-2.146,3.222,3.222,0,0,1,1.281-1.413,3.79,3.79,0,0,1,1.958-.491,5.284,5.284,0,0,1,2.3.553L.392,19.941a8.891,8.891,0,0,0-.886-.365A2.644,2.644,0,0,0-1.37,19.42ZM2.3,26V18.147H3.969V26Zm8.449,0-.569-1.869H7.321L6.751,26H4.958l2.771-7.885H9.765L12.547,26Zm-.967-3.266Q9,20.194,8.9,19.861t-.142-.526q-.177.688-1.015,3.4ZM13.535,26V18.147H15.2v6.478h3.185V26Zm10.737,0H19.75V18.147h4.522v1.364H21.415v1.724h2.659V22.6H21.415v2.025h2.857Zm6.273-2.181A2.03,2.03,0,0,1,29.78,25.5a3.325,3.325,0,0,1-2.13.612,5,5,0,0,1-2.224-.473V24.088a9.163,9.163,0,0,0,1.345.5,3.981,3.981,0,0,0,1.007.145,1.432,1.432,0,0,0,.841-.209.716.716,0,0,0,.293-.623.688.688,0,0,0-.129-.411,1.442,1.442,0,0,0-.379-.346,9.739,9.739,0,0,0-1.018-.532,4.824,4.824,0,0,1-1.08-.65,2.44,2.44,0,0,1-.575-.725,2.069,2.069,0,0,1-.215-.967,2.029,2.029,0,0,1,.706-1.638,2.935,2.935,0,0,1,1.952-.6,4.61,4.61,0,0,1,1.168.145,8.03,8.03,0,0,1,1.163.408l-.537,1.294a7.858,7.858,0,0,0-1.039-.36,3.345,3.345,0,0,0-.808-.1,1.07,1.07,0,0,0-.725.22.726.726,0,0,0-.252.575.711.711,0,0,0,.1.384,1.122,1.122,0,0,0,.325.317,10.047,10.047,0,0,0,1.055.551,4.2,4.2,0,0,1,1.509,1.055A2.06,2.06,0,0,1,30.545,23.819Z" transform="translate(386.815 395.141) rotate(-45)" fill="#fff"/>
        <path id="Trazado_24277" data-name="Trazado 24277" d="M-31.955-6.58a1.7,1.7,0,0,0-1.456.706A3.286,3.286,0,0,0-33.927-3.9q0,2.626,1.971,2.626a6.231,6.231,0,0,0,2-.414V-.3a5.564,5.564,0,0,1-2.159.4A3.293,3.293,0,0,1-34.732-.932a4.4,4.4,0,0,1-.908-2.984,4.872,4.872,0,0,1,.446-2.146,3.222,3.222,0,0,1,1.281-1.413,3.79,3.79,0,0,1,1.958-.491,5.284,5.284,0,0,1,2.3.553l-.537,1.354a8.891,8.891,0,0,0-.886-.365A2.644,2.644,0,0,0-31.955-6.58Zm10.581,2.643a4.261,4.261,0,0,1-.967,3A3.584,3.584,0,0,1-25.113.107,3.584,3.584,0,0,1-27.884-.94a4.278,4.278,0,0,1-.967-3.008,4.219,4.219,0,0,1,.969-2.994A3.625,3.625,0,0,1-25.1-7.976a3.575,3.575,0,0,1,2.769,1.042A4.272,4.272,0,0,1-21.374-3.937Zm-5.731,0a3.28,3.28,0,0,0,.5,1.982,1.748,1.748,0,0,0,1.493.666q1.993,0,1.993-2.648T-25.1-6.59a1.76,1.76,0,0,0-1.5.669A3.266,3.266,0,0,0-27.105-3.937ZM-12.781,0H-14.9l-3.416-5.94h-.048q.1,1.574.1,2.245V0h-1.488V-7.853h2.1l3.411,5.881h.038q-.081-1.531-.081-2.165V-7.853h1.5Zm5.006,0H-9.44V-6.467h-2.132V-7.853h5.93v1.386H-7.775ZM.089,0H-4.434V-7.853H.089v1.364H-2.769v1.724H-.11V-3.4H-2.769v2.025H.089Zm8.6,0H6.577L3.161-5.94H3.113q.1,1.574.1,2.245V0H1.727V-7.853h2.1L7.238-1.971h.038Q7.195-3.5,7.195-4.136V-7.853h1.5ZM10.67,0V-7.853h1.665V0ZM20.826-4a3.867,3.867,0,0,1-1.1,2.97A4.5,4.5,0,0,1,16.535,0H14.311V-7.853h2.465a4.152,4.152,0,0,1,2.986,1.015A3.734,3.734,0,0,1,20.826-4ZM19.1-3.958q0-2.53-2.234-2.53h-.886v5.113h.714Q19.1-1.375,19.1-3.958Zm10.484.021a4.261,4.261,0,0,1-.967,3A3.584,3.584,0,0,1,25.843.107,3.584,3.584,0,0,1,23.072-.94,4.278,4.278,0,0,1,22.1-3.948a4.219,4.219,0,0,1,.969-2.994,3.625,3.625,0,0,1,2.78-1.034,3.575,3.575,0,0,1,2.769,1.042A4.272,4.272,0,0,1,29.581-3.937Zm-5.731,0a3.28,3.28,0,0,0,.5,1.982,1.748,1.748,0,0,0,1.493.666q1.993,0,1.993-2.648T25.854-6.59a1.76,1.76,0,0,0-1.5.669A3.266,3.266,0,0,0,23.85-3.937ZM35.844-2.181A2.03,2.03,0,0,1,35.079-.5a3.325,3.325,0,0,1-2.13.612,5,5,0,0,1-2.224-.473V-1.912a9.163,9.163,0,0,0,1.345.5,3.981,3.981,0,0,0,1.007.145,1.432,1.432,0,0,0,.841-.209.716.716,0,0,0,.293-.623.688.688,0,0,0-.129-.411,1.442,1.442,0,0,0-.379-.346,9.739,9.739,0,0,0-1.018-.532,4.824,4.824,0,0,1-1.08-.65,2.44,2.44,0,0,1-.575-.725,2.069,2.069,0,0,1-.215-.967,2.029,2.029,0,0,1,.706-1.638,2.935,2.935,0,0,1,1.952-.6,4.61,4.61,0,0,1,1.168.145,8.03,8.03,0,0,1,1.163.408l-.537,1.294a7.858,7.858,0,0,0-1.039-.36,3.345,3.345,0,0,0-.808-.1,1.07,1.07,0,0,0-.725.22.726.726,0,0,0-.252.575.711.711,0,0,0,.1.384,1.122,1.122,0,0,0,.325.317,10.048,10.048,0,0,0,1.055.551,4.2,4.2,0,0,1,1.509,1.055A2.06,2.06,0,0,1,35.844-2.181ZM-25.937,13V5.147h1.665V13Zm10.608,0h-2.116l-3.416-5.94h-.048q.1,1.574.1,2.245V13H-22.3V5.147h2.1l3.411,5.881h.038q-.081-1.531-.081-2.165V5.147h1.5Zm5.006,0h-1.665V6.533h-2.132V5.147h5.93V6.533h-2.132Zm7.863,0H-6.982V5.147H-2.46V6.512H-5.317V8.236h2.659V9.6H-5.317v2.025H-2.46Zm3.3-4.367H1.38A2.055,2.055,0,0,0,2.546,8.37a.939.939,0,0,0,.376-.827.859.859,0,0,0-.384-.795,2.33,2.33,0,0,0-1.19-.236h-.5Zm0,1.354V13H-.822V5.147H1.466a3.916,3.916,0,0,1,2.369.583A2.08,2.08,0,0,1,4.6,7.5a2.083,2.083,0,0,1-.381,1.233,2.523,2.523,0,0,1-1.08.846Q4.915,12.227,5.452,13H3.6L1.729,9.987ZM13.406,13H11.29L7.874,7.06H7.826q.1,1.574.1,2.245V13H6.44V5.147h2.1l3.411,5.881h.038q-.081-1.531-.081-2.165V5.147h1.5Zm6.5,0H15.383V5.147h4.522V6.512H17.048V8.236h2.659V9.6H17.048v2.025h2.857Zm4.667,0H22.908V6.533H20.775V5.147h5.93V6.533H24.573Z" transform="translate(195.917 330.891) rotate(-90)" fill="#fff"/>
        <path id="Trazado_24273" data-name="Trazado 24273" d="M-16.36,0h-4.522V-7.853h4.522v1.364h-2.857v1.724h2.659V-3.4h-2.659v2.025h2.857Zm8.6,0H-9.872l-3.416-5.94h-.048q.1,1.574.1,2.245V0h-1.488V-7.853h2.1l3.411,5.881h.038Q-9.254-3.5-9.254-4.136V-7.853h1.5ZM-2.75,0H-4.415V-6.467H-6.547V-7.853h5.93v1.386H-2.75ZM2.256-4.367h.537A2.055,2.055,0,0,0,3.958-4.63a.939.939,0,0,0,.376-.827.859.859,0,0,0-.384-.795,2.33,2.33,0,0,0-1.19-.236h-.5Zm0,1.354V0H.591V-7.853H2.879a3.916,3.916,0,0,1,2.369.583A2.08,2.08,0,0,1,6.016-5.5a2.083,2.083,0,0,1-.381,1.233,2.523,2.523,0,0,1-1.08.846Q6.327-.773,6.864,0H5.017L3.142-3.013ZM12.375,0H7.853V-7.853h4.522v1.364H9.518v1.724h2.659V-3.4H9.518v2.025h2.857Zm4.667,0H15.377V-6.467H13.245V-7.853h5.93v1.386H17.042Zm2.32-.768A.9.9,0,0,1,19.6-1.45a.98.98,0,0,1,.7-.231.952.952,0,0,1,.69.236.9.9,0,0,1,.244.677A.9.9,0,0,1,21-.1a.935.935,0,0,1-.687.244.963.963,0,0,1-.7-.239A.894.894,0,0,1,19.363-.768ZM-21.56,13h-4.522V5.147h4.522V6.512h-2.857V8.236h2.659V9.6h-2.659v2.025h2.857Zm6.273-2.181a2.03,2.03,0,0,1-.765,1.676,3.325,3.325,0,0,1-2.13.612,5,5,0,0,1-2.224-.473V11.088a9.163,9.163,0,0,0,1.345.5,3.981,3.981,0,0,0,1.007.145,1.432,1.432,0,0,0,.841-.209.716.716,0,0,0,.293-.623.688.688,0,0,0-.129-.411,1.442,1.442,0,0,0-.379-.346,9.739,9.739,0,0,0-1.018-.532,4.824,4.824,0,0,1-1.08-.65,2.44,2.44,0,0,1-.575-.725,2.069,2.069,0,0,1-.215-.967,2.029,2.029,0,0,1,.706-1.638,2.935,2.935,0,0,1,1.952-.6,4.61,4.61,0,0,1,1.168.145,8.03,8.03,0,0,1,1.163.408l-.537,1.294a7.858,7.858,0,0,0-1.039-.36,3.345,3.345,0,0,0-.808-.1,1.07,1.07,0,0,0-.725.22.726.726,0,0,0-.252.575.711.711,0,0,0,.1.384,1.122,1.122,0,0,0,.325.317,10.047,10.047,0,0,0,1.055.551,4.2,4.2,0,0,1,1.509,1.055A2.06,2.06,0,0,1-15.286,10.819ZM-10.833,13H-12.5V6.533h-2.132V5.147H-8.7V6.533h-2.132Zm3.341,0V5.147h1.665V13Zm3.642,0V5.147h1.665v6.478H1V13ZM9.271,9.063a4.261,4.261,0,0,1-.967,3,3.584,3.584,0,0,1-2.771,1.047A3.584,3.584,0,0,1,2.761,12.06a4.278,4.278,0,0,1-.967-3.008,4.219,4.219,0,0,1,.969-2.994,3.625,3.625,0,0,1,2.78-1.034A3.575,3.575,0,0,1,8.312,6.066,4.272,4.272,0,0,1,9.271,9.063Zm-5.731,0a3.28,3.28,0,0,0,.5,1.982,1.748,1.748,0,0,0,1.493.666q1.993,0,1.993-2.648T5.543,6.41a1.76,1.76,0,0,0-1.5.669A3.266,3.266,0,0,0,3.54,9.063ZM20.271,9a3.867,3.867,0,0,1-1.1,2.97A4.5,4.5,0,0,1,15.979,13H13.755V5.147h2.465a4.152,4.152,0,0,1,2.986,1.015A3.734,3.734,0,0,1,20.271,9Zm-1.729.043q0-2.53-2.234-2.53H15.42v5.113h.714Q18.541,11.625,18.541,9.042ZM26.42,13H21.9V5.147H26.42V6.512H23.563V8.236h2.659V9.6H23.563v2.025H26.42Zm-34.1,5.147H-6L-8.672,26h-1.815l-2.664-7.853h1.681l1.477,4.673q.124.414.255.964t.164.765a13.758,13.758,0,0,1,.4-1.729ZM-5.014,26V18.147h1.665V26ZM5.143,22a3.867,3.867,0,0,1-1.1,2.97A4.5,4.5,0,0,1,.851,26H-1.372V18.147H1.093a4.152,4.152,0,0,1,2.986,1.015A3.734,3.734,0,0,1,5.143,22Zm-1.729.043q0-2.53-2.234-2.53H.293v5.113h.714Q3.413,24.625,3.413,22.042ZM11.357,26l-.569-1.869H7.925L7.356,26H5.562l2.771-7.885h2.036L13.151,26Zm-.967-3.266Q9.6,20.194,9.5,19.861t-.142-.526q-.177.688-1.015,3.4Z" transform="translate(452.251 313.46) rotate(90)" fill="#fff"/>
        <path id="Trazado_24272" data-name="Trazado 24272" d="M-20.746-2.181A2.03,2.03,0,0,1-21.511-.5a3.325,3.325,0,0,1-2.13.612,5,5,0,0,1-2.224-.473V-1.912a9.163,9.163,0,0,0,1.345.5,3.981,3.981,0,0,0,1.007.145,1.432,1.432,0,0,0,.841-.209.716.716,0,0,0,.293-.623.688.688,0,0,0-.129-.411,1.442,1.442,0,0,0-.379-.346A9.739,9.739,0,0,0-23.9-3.389a4.824,4.824,0,0,1-1.08-.65,2.44,2.44,0,0,1-.575-.725,2.069,2.069,0,0,1-.215-.967,2.029,2.029,0,0,1,.706-1.638,2.935,2.935,0,0,1,1.952-.6,4.61,4.61,0,0,1,1.168.145,8.03,8.03,0,0,1,1.163.408l-.537,1.294a7.858,7.858,0,0,0-1.039-.36,3.345,3.345,0,0,0-.808-.1,1.07,1.07,0,0,0-.725.22.726.726,0,0,0-.252.575.711.711,0,0,0,.1.384,1.122,1.122,0,0,0,.325.317,10.047,10.047,0,0,0,1.055.551,4.2,4.2,0,0,1,1.509,1.055A2.06,2.06,0,0,1-20.746-2.181Zm3.088-1.977h.548a1.825,1.825,0,0,0,1.149-.3,1.062,1.062,0,0,0,.381-.884,1.089,1.089,0,0,0-.32-.865,1.5,1.5,0,0,0-1-.279h-.757ZM-13.9-5.4a2.4,2.4,0,0,1-.792,1.939,3.388,3.388,0,0,1-2.253.671h-.714V0h-1.665V-7.853h2.508a3.336,3.336,0,0,1,2.173.615A2.242,2.242,0,0,1-13.9-5.4Zm8.61,1.466a4.261,4.261,0,0,1-.967,3A3.584,3.584,0,0,1-9.026.107,3.584,3.584,0,0,1-11.8-.94a4.278,4.278,0,0,1-.967-3.008,4.219,4.219,0,0,1,.969-2.994,3.625,3.625,0,0,1,2.78-1.034A3.575,3.575,0,0,1-6.247-6.934,4.272,4.272,0,0,1-5.288-3.937Zm-5.731,0a3.28,3.28,0,0,0,.5,1.982,1.748,1.748,0,0,0,1.493.666q1.993,0,1.993-2.648T-9.015-6.59a1.76,1.76,0,0,0-1.5.669A3.266,3.266,0,0,0-11.019-3.937ZM3.306,0H1.19L-2.226-5.94h-.048q.1,1.574.1,2.245V0H-3.66V-7.853h2.1L1.85-1.971h.038Q1.807-3.5,1.807-4.136V-7.853h1.5ZM9.918-2.181A2.03,2.03,0,0,1,9.152-.5a3.325,3.325,0,0,1-2.13.612A5,5,0,0,1,4.8-.365V-1.912a9.163,9.163,0,0,0,1.345.5,3.981,3.981,0,0,0,1.007.145,1.432,1.432,0,0,0,.841-.209A.716.716,0,0,0,8.285-2.1a.688.688,0,0,0-.129-.411,1.442,1.442,0,0,0-.379-.346A9.739,9.739,0,0,0,6.76-3.389a4.824,4.824,0,0,1-1.08-.65,2.44,2.44,0,0,1-.575-.725,2.069,2.069,0,0,1-.215-.967A2.029,2.029,0,0,1,5.6-7.369a2.935,2.935,0,0,1,1.952-.6,4.61,4.61,0,0,1,1.168.145,8.03,8.03,0,0,1,1.163.408L9.343-6.118A7.858,7.858,0,0,0,8.3-6.478a3.345,3.345,0,0,0-.808-.1,1.07,1.07,0,0,0-.725.22.726.726,0,0,0-.252.575.711.711,0,0,0,.1.384,1.122,1.122,0,0,0,.325.317A10.047,10.047,0,0,0,8-4.533,4.2,4.2,0,0,1,9.51-3.478,2.06,2.06,0,0,1,9.918-2.181Zm8.551-1.756a4.261,4.261,0,0,1-.967,3A3.584,3.584,0,0,1,14.73.107,3.584,3.584,0,0,1,11.959-.94a4.278,4.278,0,0,1-.967-3.008,4.219,4.219,0,0,1,.969-2.994,3.625,3.625,0,0,1,2.78-1.034A3.575,3.575,0,0,1,17.51-6.934,4.272,4.272,0,0,1,18.469-3.937Zm-5.731,0a3.28,3.28,0,0,0,.5,1.982,1.748,1.748,0,0,0,1.493.666q1.993,0,1.993-2.648T14.741-6.59a1.76,1.76,0,0,0-1.5.669A3.266,3.266,0,0,0,12.738-3.937Zm9.023-.43H22.3a2.055,2.055,0,0,0,1.166-.263.939.939,0,0,0,.376-.827.859.859,0,0,0-.384-.795,2.33,2.33,0,0,0-1.19-.236h-.5Zm0,1.354V0H20.1V-7.853h2.288a3.916,3.916,0,0,1,2.369.583,2.08,2.08,0,0,1,.768,1.77,2.083,2.083,0,0,1-.381,1.233,2.523,2.523,0,0,1-1.08.846Q25.832-.773,26.369,0H24.522L22.647-3.013Z" transform="translate(403.887 233.636) rotate(45)" fill="#fff"/>
        <path id="Trazado_24276" data-name="Trazado 24276" d="M-15.445,0H-17.11V-6.467h-2.132V-7.853h5.93v1.386h-2.132ZM-5.2-3.937a4.261,4.261,0,0,1-.967,3A3.584,3.584,0,0,1-8.935.107,3.584,3.584,0,0,1-11.706-.94a4.278,4.278,0,0,1-.967-3.008A4.219,4.219,0,0,1-11.7-6.942a3.625,3.625,0,0,1,2.78-1.034A3.575,3.575,0,0,1-6.155-6.934,4.272,4.272,0,0,1-5.2-3.937Zm-5.731,0a3.28,3.28,0,0,0,.5,1.982,1.748,1.748,0,0,0,1.493.666q1.993,0,1.993-2.648T-8.924-6.59a1.76,1.76,0,0,0-1.5.669A3.266,3.266,0,0,0-10.927-3.937ZM-.244,0-2.135-6.161h-.048q.1,1.88.1,2.508V0H-3.569V-7.853H-1.3l1.858,6H.588l1.971-6H4.826V0H3.274V-3.717q0-.263.008-.607T3.354-6.15H3.306L1.281,0ZM11.61,0,11.04-1.869H8.177L7.608,0H5.814L8.586-7.885h2.036L13.4,0Zm-.967-3.266q-.79-2.541-.889-2.874t-.142-.526q-.177.688-1.015,3.4Zm8.384,1.085A2.03,2.03,0,0,1,18.262-.5a3.325,3.325,0,0,1-2.13.612,5,5,0,0,1-2.224-.473V-1.912a9.164,9.164,0,0,0,1.345.5,3.981,3.981,0,0,0,1.007.145,1.432,1.432,0,0,0,.841-.209.716.716,0,0,0,.293-.623.688.688,0,0,0-.129-.411,1.442,1.442,0,0,0-.379-.346,9.739,9.739,0,0,0-1.018-.532,4.824,4.824,0,0,1-1.08-.65,2.44,2.44,0,0,1-.575-.725A2.069,2.069,0,0,1,14-5.731a2.029,2.029,0,0,1,.706-1.638,2.935,2.935,0,0,1,1.952-.6,4.61,4.61,0,0,1,1.168.145,8.03,8.03,0,0,1,1.163.408l-.537,1.294a7.858,7.858,0,0,0-1.039-.36,3.345,3.345,0,0,0-.808-.1,1.07,1.07,0,0,0-.725.22.726.726,0,0,0-.252.575.711.711,0,0,0,.1.384,1.122,1.122,0,0,0,.325.317,10.047,10.047,0,0,0,1.055.551,4.2,4.2,0,0,1,1.509,1.055A2.06,2.06,0,0,1,19.027-2.181ZM-28.491,8.843h.548a1.825,1.825,0,0,0,1.149-.3,1.062,1.062,0,0,0,.381-.884,1.089,1.089,0,0,0-.32-.865,1.5,1.5,0,0,0-1-.279h-.757Zm3.76-1.246a2.4,2.4,0,0,1-.792,1.939,3.388,3.388,0,0,1-2.253.671h-.714V13h-1.665V5.147h2.508a3.336,3.336,0,0,1,2.173.615A2.242,2.242,0,0,1-24.731,7.6Zm7.874-2.449v5.081a2.929,2.929,0,0,1-.389,1.525,2.534,2.534,0,0,1-1.125,1,4.024,4.024,0,0,1-1.74.349,3.332,3.332,0,0,1-2.353-.776,2.753,2.753,0,0,1-.838-2.124V5.147h1.66V9.955a2.013,2.013,0,0,0,.365,1.332,1.518,1.518,0,0,0,1.208.424,1.484,1.484,0,0,0,1.184-.427,2.024,2.024,0,0,0,.368-1.34v-4.8ZM-7.968,13h-2.116L-13.5,7.06h-.048q.1,1.574.1,2.245V13h-1.488V5.147h2.1l3.411,5.881h.038Q-9.467,9.5-9.467,8.864V5.147h1.5Zm5.006,0H-4.627V6.533H-6.76V5.147H-.83V6.533H-2.962ZM7.286,9.063a4.261,4.261,0,0,1-.967,3,3.584,3.584,0,0,1-2.771,1.047A3.584,3.584,0,0,1,.776,12.06,4.278,4.278,0,0,1-.191,9.052,4.219,4.219,0,0,1,.779,6.058a3.625,3.625,0,0,1,2.78-1.034A3.575,3.575,0,0,1,6.327,6.066,4.272,4.272,0,0,1,7.286,9.063Zm-5.731,0a3.28,3.28,0,0,0,.5,1.982,1.748,1.748,0,0,0,1.493.666q1.993,0,1.993-2.648T3.558,6.41a1.76,1.76,0,0,0-1.5.669A3.266,3.266,0,0,0,1.555,9.063Zm11.994,1.756a2.03,2.03,0,0,1-.765,1.676,3.325,3.325,0,0,1-2.13.612,5,5,0,0,1-2.224-.473V11.088a9.164,9.164,0,0,0,1.345.5,3.981,3.981,0,0,0,1.007.145,1.432,1.432,0,0,0,.841-.209.716.716,0,0,0,.293-.623.688.688,0,0,0-.129-.411,1.442,1.442,0,0,0-.379-.346,9.739,9.739,0,0,0-1.018-.532,4.824,4.824,0,0,1-1.08-.65,2.44,2.44,0,0,1-.575-.725,2.069,2.069,0,0,1-.215-.967,2.029,2.029,0,0,1,.706-1.638,2.935,2.935,0,0,1,1.952-.6,4.61,4.61,0,0,1,1.168.145,8.03,8.03,0,0,1,1.163.408l-.537,1.294a7.858,7.858,0,0,0-1.039-.36,3.345,3.345,0,0,0-.808-.1,1.07,1.07,0,0,0-.725.22.726.726,0,0,0-.252.575.711.711,0,0,0,.1.384,1.122,1.122,0,0,0,.325.317,10.047,10.047,0,0,0,1.055.551A4.2,4.2,0,0,1,13.14,9.522,2.06,2.06,0,0,1,13.549,10.819ZM24.344,9a3.867,3.867,0,0,1-1.1,2.97A4.5,4.5,0,0,1,20.053,13H17.829V5.147h2.465a4.152,4.152,0,0,1,2.986,1.015A3.734,3.734,0,0,1,24.344,9Zm-1.729.043q0-2.53-2.234-2.53h-.886v5.113h.714Q22.615,11.625,22.615,9.042ZM30.494,13H25.972V5.147h4.522V6.512H27.637V8.236H30.3V9.6H27.637v2.025h2.857Zm-42.749,5.147h1.681L-13.242,26h-1.815l-2.664-7.853h1.681l1.477,4.673q.124.414.255.964t.164.765a13.758,13.758,0,0,1,.4-1.729ZM-5.062,26H-9.585V18.147h4.522v1.364H-7.92v1.724h2.659V22.6H-7.92v2.025h2.857Zm8.6,0H1.426L-1.99,20.06h-.048q.1,1.574.1,2.245V26H-3.424V18.147h2.1l3.411,5.881h.038q-.081-1.531-.081-2.165V18.147h1.5Zm5.006,0H6.883V19.533H4.751V18.147h5.93v1.386H8.548Zm7.38,0-.569-1.869H12.5L11.927,26H10.133L12.9,18.115H14.94L17.722,26Zm-.967-3.266q-.79-2.541-.889-2.874t-.142-.526q-.177.688-1.015,3.4Z" transform="translate(246.662 388.298) rotate(45)" fill="#fff"/>
      </g>
    </g>
  </g>
</svg>
