<svg xmlns="http://www.w3.org/2000/svg" xmlns:xlink="http://www.w3.org/1999/xlink" width="324.515" height="313.412" viewBox="0 0 324.515 313.412">
  <defs>
    <clipPath id="clip-path">
      <path id="Trazado_18615" data-name="Trazado 18615" d="M499.644,380.615c-3.993-2.142-6.024-7.448-7.018-13.163a84.059,84.059,0,0,1-35.435.077c-1,5.685-3.029,10.954-7,13.086-10.367,5.562-71.63,8.344-65.034,70.456H564.678C571.276,388.959,510.013,386.177,499.644,380.615Z" transform="translate(-384.658 -367.452)" fill="none"/>
    </clipPath>
  </defs>
  <g id="Grupo_14330" data-name="Grupo 14330" transform="translate(-203 -3696)">
    <g id="Grupo_14328" data-name="Grupo 14328" transform="translate(293.842 3450.283)">
      <g id="Grupo_12913" data-name="Grupo 12913" transform="translate(137.009 290.596)">
        <path id="Trazado_18495" data-name="Trazado 18495" d="M167.9,287.388s3,21.375,12,35.625c12.979,20.55-3.751,23.25-.376,37.5s29.249,26.25-1.5,58.875c-20.125,21.351-44.249-20.25-44.249-20.25l-6.75-54.375Z" transform="translate(-127.027 -287.388)" fill="#fc6a5a"/>
        <path id="Trazado_18496" data-name="Trazado 18496" d="M157.972,319.138q-4.87-3.648-9.487-7.524l-21.458,26.594,6.75,48.008a78.576,78.576,0,0,0,14.449,15.9c2.2-2.44,7.378,8.873,10.3,7.861,9.749-3.375,27.374-22.125,14.625-36.374C157.922,356.59,176.15,337.234,157.972,319.138Z" transform="translate(-127.027 -284.36)" fill="#d35450"/>
      </g>
      <g id="Grupo_12916" data-name="Grupo 12916" transform="translate(47.158 363.745)">
        <g id="Grupo_12914" data-name="Grupo 12914" transform="translate(0.001)">
          <path id="Trazado_18497" data-name="Trazado 18497" d="M152.988,382.774c-9.542-5.205-6.94-30.364-6.94-30.364l-14.291.92v-.917l-1.529.458-1.529-.458v.917l-14.291-.92s2.6,25.159-6.94,30.364S41.542,390.582,47.615,448.7H212.843C218.915,390.582,162.53,387.978,152.988,382.774Z" transform="translate(-47.158 -352.41)" fill="#f19c7c"/>
          <path id="Trazado_18498" data-name="Trazado 18498" d="M105.157,376.284q17.121-2.553,34.221-5.266a76.3,76.3,0,0,1-.578-18.608l-14.291.92v-.917l-1.529.458-1.529-.458v.917l-14.291-.92S108.667,367.028,105.157,376.284Z" transform="translate(-39.91 -352.41)" fill="#c47d66"/>
        </g>
        <g id="Grupo_12915" data-name="Grupo 12915" transform="translate(0 32.926)">
          <path id="Trazado_18499" data-name="Trazado 18499" d="M154.989,422.227a89.822,89.822,0,0,1,1.156-38.711c-2.414-.7-4.668-1.3-6.673-1.838-.91,10.5-2.142,21.168-6.094,30.629a51,51,0,0,1-5.485,9.92Z" transform="translate(-35.818 -381.678)" fill="#352c38"/>
          <path id="Trazado_18500" data-name="Trazado 18500" d="M183.7,388.175c-9.435,12.909-29.659,21.836-53.092,21.836s-43.656-8.927-53.091-21.836c-16.791,7.917-33.339,23.1-29.9,56.057H213.591C217.034,411.276,200.487,396.091,183.7,388.175Z" transform="translate(-47.158 -380.866)" fill="#5d8584"/>
          <path id="Trazado_18501" data-name="Trazado 18501" d="M125.623,428.914c33.33,0,62.5-9.64,78.552-24.053-5.708-7.806-13.414-13.025-21.178-16.686-9.435,12.909-29.659,21.836-53.092,21.836s-43.656-8.927-53.091-21.836C67.644,392.5,58.555,399,52.747,409.366,69.5,421.245,95.9,428.914,125.623,428.914Z" transform="translate(-46.459 -380.866)" fill="#6f9b99"/>
        </g>
      </g>
      <g id="Grupo_12921" data-name="Grupo 12921" transform="translate(57.594 261.717)">
        <g id="Grupo_12917" data-name="Grupo 12917" transform="translate(28.118 16.064)">
          <path id="Trazado_18502" data-name="Trazado 18502" d="M98,320.434c-2.811-8.722-9.469-6.7-10.092-6.492-.654.075-7.535,1.1-6.346,10.184,1.2,9.142,6.5,14.095,11.473,12.64C98.157,335.954,100.833,329.208,98,320.434Z" transform="translate(-81.429 -271.298)" fill="#c47d66"/>
          <path id="Trazado_18503" data-name="Trazado 18503" d="M146.193,320.434c2.811-8.722,9.469-6.7,10.092-6.492.654.075,7.535,1.1,6.346,10.184-1.2,9.142-6.5,14.095-11.473,12.64C146.04,335.954,143.364,329.208,146.193,320.434Z" transform="translate(-73.478 -271.298)" fill="#c47d66"/>
          <path id="Trazado_18504" data-name="Trazado 18504" d="M90.151,311.919c3.484-38.238,32.555-36.1,35.3-35.808,2.742-.288,31.812-2.43,35.3,35.808,3.5,38.468-13.629,63.589-35.3,62.208C103.78,375.508,86.646,350.386,90.151,311.919Z" transform="translate(-80.396 -275.997)" fill="#f19c7c"/>
        </g>
        <g id="Grupo_12919" data-name="Grupo 12919">
          <path id="Trazado_18505" data-name="Trazado 18505" d="M102.86,282.909s3.563,29.062,32.437,34.686l-7.124-17.812s2.438,21.562,31.125,20.437c0,0,10.5,4.875,6.75,16.124a23.066,23.066,0,0,0,6.374-23.25c-3.937-14.625,5.25-15.562-9.374-37.124C150.147,256.954,107.922,254.785,102.86,282.909Z" transform="translate(-50.632 -261.717)" fill="#fc6a5a"/>
          <path id="Trazado_18506" data-name="Trazado 18506" d="M116.725,275.564s-13.875-11.25-24.375,1.5-7.875,32.624-17.625,45-8.249,23.25,3.751,34.874-33.749,22.5-19.125,51.374,51,13.5,53.623-9.374,1.125-27.75,1.125-27.75-15.374-12-18-31.125,1.875-28.5,10.125-35.249S121.974,292.064,116.725,275.564Z" transform="translate(-56.434 -260.559)" fill="#fc6a5a"/>
          <g id="Grupo_12918" data-name="Grupo 12918" transform="translate(0 120)">
            <path id="Trazado_18507" data-name="Trazado 18507" d="M66.1,382.638c-3.058-5.9-3.5-10.5-2.411-14.253-6.172,7.083-10.342,15.9-4.339,27.753,14.625,28.875,51,13.5,53.623-9.374.059-.507.112-1,.167-1.485C101.631,394.371,77.389,404.434,66.1,382.638Z" transform="translate(-56.435 -368.385)" fill="#d35450"/>
          </g>
        </g>
        <g id="Grupo_12920" data-name="Grupo 12920" transform="translate(46.139 52.954)">
          <path id="Trazado_18508" data-name="Trazado 18508" d="M126.156,324.922l2.373,11.307-4.4,4.558" transform="translate(-94.113 -306.771)" fill="none" stroke="#a06653" stroke-miterlimit="10" stroke-width="1.661"/>
          <path id="Trazado_18509" data-name="Trazado 18509" d="M137.707,345.131c-6.921,6.728-18.644,6.355-27.524.36" transform="translate(-95.856 -304.246)" fill="#fff"/>
          <path id="Trazado_18510" data-name="Trazado 18510" d="M147.87,313.973s-9.116-11.142-18.233-.76" transform="translate(-93.425 -308.788)" fill="none" stroke="#352c38" stroke-miterlimit="10" stroke-width="2.701"/>
          <path id="Trazado_18511" data-name="Trazado 18511" d="M115.681,313.973s-9.116-11.142-18.233-.76" transform="translate(-97.448 -308.788)" fill="none" stroke="#352c38" stroke-miterlimit="10" stroke-width="2.701"/>
          <path id="Trazado_18512" data-name="Trazado 18512" d="M113.919,326.475s-.524-7.348-6.823-6.823c-5.289.441-4.724,6.823-4.724,6.823" transform="translate(-96.835 -307.433)" fill="none" stroke="#352c38" stroke-miterlimit="10" stroke-width="1.195"/>
          <path id="Trazado_18513" data-name="Trazado 18513" d="M142.845,326.008s-.525-7.347-6.823-6.823c-5.289.441-4.724,6.823-4.724,6.823" transform="translate(-93.22 -307.492)" fill="none" stroke="#352c38" stroke-miterlimit="10" stroke-width="1.195"/>
        </g>
      </g>
    </g>
    <g id="Grupo_14327" data-name="Grupo 14327" transform="translate(203 3696)">
      <g id="Grupo_12897" data-name="Grupo 12897" transform="translate(39.687 69.306)">
        <g id="Grupo_12895" data-name="Grupo 12895" transform="translate(20.976 28.865)">
          <path id="Trazado_18468" data-name="Trazado 18468" d="M108.285,137.427s-17.368,10.948-7.929,27.561,74.755,12.082,41.153-27.561C113.752,104.679,108.285,137.427,108.285,137.427Z" transform="translate(-97.546 -122.872)" fill="#76413b"/>
        </g>
        <g id="Grupo_12896" data-name="Grupo 12896">
          <path id="Trazado_18469" data-name="Trazado 18469" d="M169.337,98.521s-7.551,9.061-6.04,18.122c2.172,13.04-17.745,30.2-38.133,24.541s1.51-43.8,1.51-43.8Z" transform="translate(-74.059 -97.388)" fill="#76413b"/>
          <path id="Trazado_18470" data-name="Trazado 18470" d="M79.027,98.521s7.55,9.061,6.04,18.122c-2.174,13.04,17.745,30.2,38.133,24.541s-1.511-43.8-1.511-43.8Z" transform="translate(-79.027 -97.388)" fill="#76413b"/>
          <path id="Trazado_18471" data-name="Trazado 18471" d="M125.867,127.042a57.511,57.511,0,0,0,27.184-5.866,29.05,29.05,0,0,0,10.171-8.959c.853-7.367,6.107-13.7,6.107-13.7l-42.663-1.133s-9.284,16.178-10.127,29.024A91.29,91.29,0,0,0,125.867,127.042Z" transform="translate(-74.051 -97.388)" fill="#965450"/>
          <path id="Trazado_18472" data-name="Trazado 18472" d="M85.236,115.062a102.39,102.39,0,0,0,45.606,11.98c.336,0,.672-.011,1.007-.011-.574-12.939-10.16-29.643-10.16-29.643L79.027,98.521S85.718,106.558,85.236,115.062Z" transform="translate(-79.027 -97.388)" fill="#965450"/>
        </g>
      </g>
      <g id="Grupo_12901" data-name="Grupo 12901" transform="translate(0 101.045)">
        <g id="Grupo_12898" data-name="Grupo 12898" transform="translate(1.34)">
          <path id="Trazado_18473" data-name="Trazado 18473" d="M153.973,155.981c-9.607-5.241-6.987-30.571-6.987-30.571l-14.388.927v-.923l-1.539.462-1.539-.462v.923l-14.388-.927s2.62,25.331-6.987,30.571-68.643,7.861-62.53,66.377H216.5C222.616,163.842,163.58,161.221,153.973,155.981Z" transform="translate(-45.171 -125.41)" fill="#ffac9d"/>
          <path id="Trazado_18474" data-name="Trazado 18474" d="M105.157,149.447q17.238-2.571,34.454-5.3a76.821,76.821,0,0,1-.582-18.735l-14.388.927v-.923l-1.539.462-1.539-.462v.923l-14.388-.927S108.691,140.128,105.157,149.447Z" transform="translate(-37.214 -125.41)" fill="#cc887f"/>
        </g>
        <g id="Grupo_12900" data-name="Grupo 12900" transform="translate(0 35.078)">
          <path id="Trazado_18475" data-name="Trazado 18475" d="M173.669,156.38c-8.41,7.62-20.82,12.9-34.988,14.265l-7.632,27.474-4.038-27.256c-15.352-.888-28.873-6.354-37.843-14.482-19.95,6.393-49.094,20.252-44.745,61.87H218.415C222.763,176.632,193.62,162.773,173.669,156.38Z" transform="translate(-43.988 -156.38)" fill="#5d8584"/>
          <g id="Grupo_12899" data-name="Grupo 12899" transform="translate(34.598)">
            <path id="Trazado_18476" data-name="Trazado 18476" d="M124,177.85l-1.035-6.988c-15.352-.888-28.873-6.354-37.843-14.482a101.4,101.4,0,0,0-10.583,4.013C81.61,170.009,100.867,177.086,124,177.85Z" transform="translate(-74.534 -156.38)" fill="#78a8a5"/>
            <path id="Trazado_18477" data-name="Trazado 18477" d="M174.571,160.924a98.849,98.849,0,0,0-11.757-4.544c-8.41,7.62-20.82,12.9-34.988,14.265l-2,7.195C148.386,177.035,167.222,170.226,174.571,160.924Z" transform="translate(-67.73 -156.38)" fill="#78a8a5"/>
          </g>
          <path id="Trazado_18478" data-name="Trazado 18478" d="M119.326,199.46a3.173,3.173,0,1,0,3.173-3.174A3.172,3.172,0,0,0,119.326,199.46Z" transform="translate(-33.995 -151.087)" fill="#78a8a5"/>
        </g>
      </g>
      <g id="Grupo_12911" data-name="Grupo 12911" transform="translate(33.024 0)">
        <g id="Grupo_12904" data-name="Grupo 12904" transform="translate(9.383 14.495)">
          <g id="Grupo_12902" data-name="Grupo 12902">
            <path id="Trazado_18479" data-name="Trazado 18479" d="M98.118,93.481c-2.83-8.781-9.534-6.748-10.161-6.537-.658.077-7.586,1.105-6.389,10.254,1.2,9.2,6.544,14.191,11.551,12.726C98.272,109.107,100.965,102.314,98.118,93.481Z" transform="translate(-81.429 -44.009)" fill="#cc887f"/>
            <path id="Trazado_18480" data-name="Trazado 18480" d="M146.2,93.481c2.83-8.781,9.533-6.748,10.161-6.537.658.077,7.586,1.105,6.389,10.254-1.2,9.2-6.543,14.191-11.551,12.726C146.046,109.107,143.353,102.314,146.2,93.481Z" transform="translate(-72.99 -44.009)" fill="#cc887f"/>
            <path id="Trazado_18481" data-name="Trazado 18481" d="M90.154,85.164c3.508-38.5,32.777-36.342,35.537-36.052,2.76-.29,32.029-2.447,35.537,36.052,3.528,38.73-13.722,64.023-35.537,62.632C103.876,149.187,86.626,123.893,90.154,85.164Z" transform="translate(-80.332 -48.997)" fill="#ffac9d"/>
          </g>
          <g id="Grupo_12903" data-name="Grupo 12903" transform="translate(8.583 31.344)">
            <path id="Trazado_18482" data-name="Trazado 18482" d="M89.03,88.81s-1.888,50.592,27.938,56.255,48.327-19.255,45.684-58.9l-3.776-.377s-2.453,40.02-11.515,40.4,4.341-12.459-13.025-13.213-25.963-6.544-27.373,8.117c-.943,9.817-13.025-6.984-14.535-33.035S89.03,88.81,89.03,88.81Z" transform="translate(-89.006 -76.67)" fill="#965450"/>
            <path id="Trazado_18483" data-name="Trazado 18483" d="M93.858,99.681a90.2,90.2,0,0,1-1.431-11.626c-1.511-26.051-3.4.754-3.4.754a102.361,102.361,0,0,0,.587,13.058C91.035,101.148,92.447,100.414,93.858,99.681Z" transform="translate(-89.006 -76.67)" fill="#76413b"/>
            <path id="Trazado_18484" data-name="Trazado 18484" d="M154.646,98.948a104.384,104.384,0,0,0-.034-13.849l-3.776-.377s-.338,5.481-1.219,12.4Q152.137,98.02,154.646,98.948Z" transform="translate(-80.966 -75.601)" fill="#76413b"/>
          </g>
        </g>
        <g id="Grupo_12905" data-name="Grupo 12905" transform="translate(27.527 47.103)">
          <path id="Trazado_18485" data-name="Trazado 18485" d="M126.435,84.914l2.389,21.585-6.694,4.589" transform="translate(-94.174 -76.84)" fill="none" stroke="#cc887f" stroke-miterlimit="10" stroke-width="1.661"/>
          <path id="Trazado_18486" data-name="Trazado 18486" d="M147.994,83.005s-9.178-11.218-18.357-.765" transform="translate(-93.178 -77.785)" fill="none" stroke="#352c38" stroke-miterlimit="10" stroke-width="2.701"/>
          <path id="Trazado_18487" data-name="Trazado 18487" d="M115.8,83.005s-9.178-11.218-18.357-.765" transform="translate(-97.448 -77.785)" fill="none" stroke="#352c38" stroke-miterlimit="10" stroke-width="2.701"/>
          <path id="Trazado_18488" data-name="Trazado 18488" d="M114,95.52s-.528-7.4-6.87-6.871c-5.325.444-4.756,6.871-4.756,6.871" transform="translate(-96.797 -76.348)" fill="none" stroke="#352c38" stroke-miterlimit="10" stroke-width="1.195"/>
          <path id="Trazado_18489" data-name="Trazado 18489" d="M142.924,95.053s-.529-7.4-6.87-6.87c-5.325.444-4.756,6.87-4.756,6.87" transform="translate(-92.96 -76.41)" fill="none" stroke="#352c38" stroke-miterlimit="10" stroke-width="1.195"/>
          <path id="Trazado_18490" data-name="Trazado 18490" d="M137.894,114.129c-6.968,6.773-18.771,6.4-27.711.361" transform="translate(-95.759 -72.964)" fill="#fff"/>
        </g>
        <g id="Grupo_12910" data-name="Grupo 12910">
          <g id="Grupo_12906" data-name="Grupo 12906">
            <path id="Trazado_18491" data-name="Trazado 18491" d="M128.409,56.424s-21.143-3.775-24.541,9.438,1.51,30.96-13.969,28.316c0,0-11.225,2.265-4.051,20.01,0,0-21.245-20.388-8.786-35.112,10.164-12.012,6.042-38.133,30.96-42.285S128.409,51.516,128.409,56.424Z" transform="translate(-73.145 -36.199)" fill="#76413b"/>
          </g>
          <g id="Grupo_12907" data-name="Grupo 12907">
            <path id="Trazado_18492" data-name="Trazado 18492" d="M128.409,56.424s-21.143-3.775-24.541,9.438,1.51,30.96-13.969,28.316c0,0-11.225,2.265-4.051,20.01,0,0-21.245-20.388-8.786-35.112,10.164-12.012,6.042-38.133,30.96-42.285S128.409,51.516,128.409,56.424Z" transform="translate(-73.145 -36.199)" fill="#965450"/>
          </g>
          <g id="Grupo_12908" data-name="Grupo 12908" transform="translate(53.016)">
            <path id="Trazado_18493" data-name="Trazado 18493" d="M120.274,56.424s21.143-3.775,24.541,9.438-1.511,30.96,13.969,28.316c0,0,11.225,2.265,4.051,20.01,0,0,21.244-20.388,8.785-35.112-10.163-12.012-6.04-38.133-30.959-42.285S120.274,51.516,120.274,56.424Z" transform="translate(-119.952 -36.199)" fill="#965450"/>
          </g>
          <g id="Grupo_12909" data-name="Grupo 12909" transform="translate(53.044 18.635)">
            <path id="Trazado_18494" data-name="Trazado 18494" d="M119.976,52.662S142,51.815,144.219,65.278s-4.244,30.7,11.409,29.441c0,0,6.769.6,6.678,5.9" transform="translate(-119.976 -52.652)" fill="none" stroke="#965450" stroke-miterlimit="10" stroke-width="2.721"/>
          </g>
        </g>
      </g>
    </g>
    <g id="Grupo_14326" data-name="Grupo 14326" transform="translate(269 3770)">
      <g id="Grupo_12878" data-name="Grupo 12878" transform="translate(0 103.591)">
        <g id="Grupo_12874" data-name="Grupo 12874" transform="translate(1.121)">
          <path id="Trazado_18416" data-name="Trazado 18416" d="M490.911,155.178c-9.355-5.1-6.8-29.768-6.8-29.768l-14.01.9v-.9l-1.5.45-1.5-.45v.9l-14.01-.9s2.551,24.665-6.8,29.768-64.633,7.654-58.68,64.633H549.591C555.545,162.833,500.266,160.28,490.911,155.178Z" transform="translate(-387.158 -125.41)" fill="#ffac9d"/>
          <path id="Trazado_18417" data-name="Trazado 18417" d="M445.157,148.816q16.785-2.5,33.549-5.163a74.8,74.8,0,0,1-.567-18.243l-14.01.9v-.9l-1.5.45-1.5-.45v.9l-14.011-.9S448.6,139.741,445.157,148.816Z" transform="translate(-381.19 -125.41)" fill="#cc887f"/>
        </g>
        <g id="Grupo_12877" data-name="Grupo 12877" transform="translate(0 11.579)">
          <path id="Trazado_18418" data-name="Trazado 18418" d="M493.927,153.66c-4.671-2.548-6.391-9.938-6.942-16.742-4.112,1.554-12.332,2.461-17.609,2.461-6.335,0-14.352-1.3-18.882-3.47-.46,7.067-2.111,15.077-7.013,17.751-9.419,5.137-62.864,7.706-56.871,65.071H549.694C555.687,161.366,503.344,158.8,493.927,153.66Z" transform="translate(-386.142 -135.909)" fill="#d68950"/>
          <path id="Trazado_18419" data-name="Trazado 18419" d="M463.92,166.951c12.86,0,24.394-4.275,32.276-11.041a36.23,36.23,0,0,1-6.506-2.25c-4.671-2.548-6.391-9.938-6.942-16.742-4.112,1.554-12.332,2.461-17.609,2.461-6.335,0-14.352-1.3-18.882-3.47-.46,7.067-2.111,15.077-7.014,17.751a40.886,40.886,0,0,1-7.35,2.468C439.769,162.77,451.2,166.951,463.92,166.951Z" transform="translate(-381.434 -135.909)" fill="#ffa65b"/>
          <g id="Grupo_12875" data-name="Grupo 12875" transform="translate(22.85 67.438)">
            <path id="Trazado_18420" data-name="Trazado 18420" d="M406.86,205.648l9.1-8.593,8.594,8.593" transform="translate(-406.86 -197.055)" fill="none" stroke="#765e69" stroke-miterlimit="10" stroke-width="1.833"/>
            <path id="Trazado_18421" data-name="Trazado 18421" d="M499.664,205.307l10.372-8.252,8.594,8.593" transform="translate(-397.31 -197.055)" fill="none" stroke="#765e69" stroke-miterlimit="10" stroke-width="1.833"/>
            <path id="Trazado_18422" data-name="Trazado 18422" d="M484.148,205.362l9.793-8.307,8.593,8.593" transform="translate(-398.907 -197.055)" fill="none" stroke="#765e69" stroke-miterlimit="10" stroke-width="1.833"/>
            <path id="Trazado_18423" data-name="Trazado 18423" d="M469.193,205.648l9.1-8.593,8.593,8.593" transform="translate(-400.446 -197.055)" fill="none" stroke="#765e69" stroke-miterlimit="10" stroke-width="1.833"/>
            <path id="Trazado_18424" data-name="Trazado 18424" d="M452.821,205.469l9.97-8.415,9.3,8.36" transform="translate(-402.13 -197.055)" fill="none" stroke="#765e69" stroke-miterlimit="10" stroke-width="1.833"/>
            <path id="Trazado_18425" data-name="Trazado 18425" d="M438.027,205.648l9.1-8.593,8.593,8.593" transform="translate(-403.653 -197.055)" fill="none" stroke="#765e69" stroke-miterlimit="10" stroke-width="1.833"/>
            <path id="Trazado_18426" data-name="Trazado 18426" d="M421.788,205.469l9.822-8.415,9.181,8.252" transform="translate(-405.324 -197.055)" fill="none" stroke="#765e69" stroke-miterlimit="10" stroke-width="1.833"/>
          </g>
          <g id="Grupo_12876" data-name="Grupo 12876" transform="translate(22.85 58.983)">
            <path id="Trazado_18427" data-name="Trazado 18427" d="M406.86,197.982l9.1-8.593,8.594,8.593" transform="translate(-406.86 -189.388)" fill="none" stroke="#765e69" stroke-miterlimit="10" stroke-width="1"/>
            <path id="Trazado_18428" data-name="Trazado 18428" d="M499.664,197.641l10.372-8.253,8.594,8.593" transform="translate(-397.31 -189.388)" fill="none" stroke="#765e69" stroke-miterlimit="10" stroke-width="1"/>
            <path id="Trazado_18429" data-name="Trazado 18429" d="M484.148,197.695l9.793-8.307,8.593,8.593" transform="translate(-398.907 -189.388)" fill="none" stroke="#765e69" stroke-miterlimit="10" stroke-width="1"/>
            <path id="Trazado_18430" data-name="Trazado 18430" d="M469.193,197.982l9.1-8.593,8.593,8.593" transform="translate(-400.446 -189.388)" fill="none" stroke="#765e69" stroke-miterlimit="10" stroke-width="1"/>
            <path id="Trazado_18431" data-name="Trazado 18431" d="M452.821,197.8l9.97-8.415,9.3,8.361" transform="translate(-402.13 -189.388)" fill="none" stroke="#765e69" stroke-miterlimit="10" stroke-width="1"/>
            <path id="Trazado_18432" data-name="Trazado 18432" d="M438.027,197.982l9.1-8.593,8.593,8.593" transform="translate(-403.653 -189.388)" fill="none" stroke="#765e69" stroke-miterlimit="10" stroke-width="1"/>
            <path id="Trazado_18433" data-name="Trazado 18433" d="M421.788,197.8l9.822-8.415,9.181,8.253" transform="translate(-405.324 -189.388)" fill="none" stroke="#765e69" stroke-miterlimit="10" stroke-width="1"/>
          </g>
          <path id="Trazado_18434" data-name="Trazado 18434" d="M411.749,195.169a116.356,116.356,0,0,0-3.754-30.7c-13.237,8.592-24.289,23.522-21.385,51.319h23.571A130.986,130.986,0,0,0,411.749,195.169Z" transform="translate(-386.142 -132.97)" fill="#ffa65b"/>
          <path id="Trazado_18435" data-name="Trazado 18435" d="M515.247,164.062c-2.42,8.359-3.887,19.24-3.887,31.149a131,131,0,0,0,1.568,20.623h23.88C539.764,187.537,528.524,172.579,515.247,164.062Z" transform="translate(-373.257 -133.012)" fill="#ffa65b"/>
        </g>
      </g>
      <g id="Grupo_12882" data-name="Grupo 12882" transform="translate(38.917)">
        <g id="Grupo_12879" data-name="Grupo 12879" transform="translate(0 19.314)">
          <path id="Trazado_18436" data-name="Trazado 18436" d="M437.679,93.3c-2.756-8.551-9.283-6.571-9.894-6.365-.641.075-7.387,1.076-6.221,9.985,1.172,8.962,6.373,13.818,11.247,12.392C437.829,108.515,440.452,101.9,437.679,93.3Z" transform="translate(-421.429 -45.128)" fill="#cc887f"/>
          <path id="Trazado_18437" data-name="Trazado 18437" d="M486.17,93.3c2.756-8.551,9.283-6.571,9.894-6.365.641.075,7.387,1.076,6.221,9.985-1.172,8.962-6.371,13.818-11.247,12.392C486.02,108.515,483.4,101.9,486.17,93.3Z" transform="translate(-414.882 -45.128)" fill="#cc887f"/>
          <path id="Trazado_18438" data-name="Trazado 18438" d="M430.142,84.214c3.416-37.488,31.916-35.388,34.6-35.105,2.688-.282,31.188-2.382,34.6,35.105,3.435,37.713-13.362,62.342-34.6,60.987C443.5,146.555,426.706,121.927,430.142,84.214Z" transform="translate(-420.578 -48.997)" fill="#ffac9d"/>
        </g>
        <g id="Grupo_12880" data-name="Grupo 12880" transform="translate(2.108)">
          <path id="Trazado_18439" data-name="Trazado 18439" d="M429.251,57.056s-7.72,4.963-2.206,22.058l3.309,19.3,2.757.551s-1.1-29.227,8.272-35.844S429.251,57.056,429.251,57.056Z" transform="translate(-423.163 -28.854)" fill="#d35450"/>
          <path id="Trazado_18440" data-name="Trazado 18440" d="M488.433,62.444s-36.947,21.507-56.8,4.412,1.1-25.918,9.375-24.815c0,0-2.757-9.375,8.272-10.478s8.823,9.926,25.367,9.926,24.815,1.1,23.161,14.889c0,0,8.272-4.963,11.029,4.412s-7.72,40.256-7.72,40.256l-1.1,4.963h-2.757V79.539S486.779,82.847,488.433,62.444Z" transform="translate(-423.34 -31.485)" fill="#fc6a5a"/>
          <path id="Trazado_18441" data-name="Trazado 18441" d="M503.285,59.717c-2.757-9.375-11.029-4.412-11.029-4.412.953-7.939-1.392-11.667-6.706-13.406A51.793,51.793,0,0,1,477.3,64.229c3.466-1.63,5.583-2.858,5.583-2.858-1.654,20.4,8.823,17.1,8.823,17.1v26.47h2.757l1.1-4.963S506.042,69.092,503.285,59.717Z" transform="translate(-417.787 -30.413)" fill="#d35450"/>
        </g>
        <g id="Grupo_12881" data-name="Grupo 12881" transform="translate(6.66 51.065)">
          <path id="Trazado_18442" data-name="Trazado 18442" d="M466.322,84.914l2.326,21.018L462.13,110.4" transform="translate(-423.9 -77.052)" fill="none" stroke="#cc887f" stroke-miterlimit="10" stroke-width="1.661"/>
          <path id="Trazado_18443" data-name="Trazado 18443" d="M477.167,114.129c-6.785,6.6-18.278,6.229-26.984.352" transform="translate(-425.129 -74.045)" fill="#fff"/>
          <path id="Trazado_18444" data-name="Trazado 18444" d="M487.512,82.868s-8.937-10.923-17.875-.744" transform="translate(-423.128 -77.785)" fill="none" stroke="#352c38" stroke-miterlimit="10" stroke-width="2.701"/>
          <path id="Trazado_18445" data-name="Trazado 18445" d="M455.323,82.868s-8.937-10.923-17.875-.744" transform="translate(-426.44 -77.785)" fill="none" stroke="#352c38" stroke-miterlimit="10" stroke-width="2.701"/>
          <path id="Trazado_18446" data-name="Trazado 18446" d="M427.467,85.981l9.591,7.382,24.1.755s6.2-8.709,11.383,0h24.842l7.463-7" transform="translate(-427.467 -76.942)" fill="none" stroke="#765e69" stroke-miterlimit="10" stroke-width="1.434"/>
          <circle id="Elipse_682" data-name="Elipse 682" cx="12.421" cy="12.421" r="12.421" transform="translate(8.852 4.756)" fill="#a9c7db" stroke="#765e69" stroke-miterlimit="10" stroke-width="1.434"/>
          <circle id="Elipse_683" data-name="Elipse 683" cx="12.421" cy="12.421" r="12.421" transform="translate(45.077 4.756)" fill="#a9c7db" stroke="#765e69" stroke-miterlimit="10" stroke-width="1.434"/>
          <path id="Trazado_18447" data-name="Trazado 18447" d="M453.692,95.339s-.514-7.2-6.689-6.69c-5.185.432-4.631,6.69-4.631,6.69" transform="translate(-425.935 -76.67)" fill="none" stroke="#352c38" stroke-miterlimit="10" stroke-width="1.195"/>
          <path id="Trazado_18448" data-name="Trazado 18448" d="M482.618,94.872s-.515-7.2-6.689-6.689c-5.185.432-4.631,6.689-4.631,6.689" transform="translate(-422.958 -76.718)" fill="none" stroke="#352c38" stroke-miterlimit="10" stroke-width="1.195"/>
        </g>
      </g>
    </g>
    <g id="Grupo_14329" data-name="Grupo 14329" transform="translate(-37.658 3540.408)">
      <g id="Grupo_12958" data-name="Grupo 12958" transform="translate(406.498 341.148)">
        <path id="Trazado_18608" data-name="Trazado 18608" d="M438.27,330.379s-9.631-2.139-11.057,6.065,4.28,9.988,4.28,9.988-8.561-9.631-14.624-2.854,3.923,12.485,3.923,12.485-11.057-6.065-13.2,1.426,6.777,12.128,6.777,12.128-9.631-.714-9.274,3.567,9.631.714,9.631.714-13.554,2.5-11.415,13.2,12.842,4.637,12.842,4.637-8.2,4.281-6.064,17.836,63.135-13.912,63.135-13.912l1.07-36.74Z" transform="translate(-403.085 -330.128)" fill="#352c38"/>
        <path id="Trazado_18609" data-name="Trazado 18609" d="M497.8,330.379s9.631-2.139,11.058,6.065-4.281,9.988-4.281,9.988,8.561-9.631,14.625-2.854-3.924,12.485-3.924,12.485,11.058-6.065,13.2,1.426-6.778,12.128-6.778,12.128,9.631-.714,9.274,3.567-9.631.714-9.631.714,13.555,2.5,11.415,13.2-12.841,4.637-12.841,4.637,8.2,4.281,6.064,17.836-63.136-13.912-63.136-13.912l-1.07-36.74Z" transform="translate(-392.216 -330.128)" fill="#352c38"/>
        <path id="Trazado_18610" data-name="Trazado 18610" d="M438.27,330.379s-9.631-2.139-11.057,6.065,4.28,9.988,4.28,9.988-8.561-9.631-14.624-2.854,3.923,12.485,3.923,12.485-11.057-6.065-13.2,1.426,6.777,12.128,6.777,12.128-9.631-.714-9.274,3.567,9.631.714,9.631.714-13.554,2.5-11.415,13.2,12.842,4.637,12.842,4.637-8.2,4.281-6.064,17.836,63.135-13.912,63.135-13.912l1.07-36.74Z" transform="translate(-403.085 -330.128)" fill="#2a242d"/>
        <path id="Trazado_18611" data-name="Trazado 18611" d="M497.8,330.379s9.631-2.139,11.058,6.065-4.281,9.988-4.281,9.988,8.561-9.631,14.625-2.854-3.924,12.485-3.924,12.485,11.058-6.065,13.2,1.426-6.778,12.128-6.778,12.128,9.631-.714,9.274,3.567-9.631.714-9.631.714,13.555,2.5,11.415,13.2-12.841,4.637-12.841,4.637,8.2,4.281,6.064,17.836-63.136-13.912-63.136-13.912l-1.07-36.74Z" transform="translate(-392.216 -330.128)" fill="#2a242d"/>
      </g>
      <g id="Grupo_12964" data-name="Grupo 12964" transform="translate(384.658 367.557)">
        <g id="Grupo_12959" data-name="Grupo 12959" transform="translate(2.964)">
          <path id="Trazado_18612" data-name="Trazado 18612" d="M498.654,384.4c-10.053-5.484-7.312-31.99-7.312-31.99l-15.056.969v-.966l-1.611.482-1.611-.482v.966l-15.056-.969s2.741,26.506-7.312,31.99-69.457,8.225-63.059,69.457H561.713C568.111,392.625,508.707,389.883,498.654,384.4Z" transform="translate(-387.158 -352.41)" fill="#965450"/>
          <path id="Trazado_18613" data-name="Trazado 18613" d="M445.157,377.562q18.038-2.69,36.053-5.548c-1.689-9.14-.609-19.6-.609-19.6l-15.056.969v-.966l-1.611.482-1.611-.482v.966l-15.057-.969S448.855,367.811,445.157,377.562Z" transform="translate(-376.417 -352.41)" fill="#76413b"/>
        </g>
        <g id="Grupo_12963" data-name="Grupo 12963" transform="translate(0 17.828)">
          <path id="Trazado_18614" data-name="Trazado 18614" d="M499.644,380.615c-3.993-2.142-6.024-7.448-7.018-13.163a84.059,84.059,0,0,1-35.435.077c-1,5.685-3.029,10.954-7,13.086-10.367,5.562-71.63,8.344-65.034,70.456H564.678C571.276,388.959,510.013,386.177,499.644,380.615Z" transform="translate(-384.658 -367.452)" fill="#fc6a5a"/>
          <g id="Grupo_12962" data-name="Grupo 12962" opacity="0.9">
            <g id="Grupo_12961" data-name="Grupo 12961" clip-path="url(#clip-path)">
              <g id="Grupo_12960" data-name="Grupo 12960" transform="translate(-10.167 8.332)">
                <line id="Línea_187" data-name="Línea 187" x2="197.123" fill="none" stroke="#fdedee" stroke-miterlimit="10" stroke-width="3.058"/>
                <line id="Línea_188" data-name="Línea 188" x2="197.123" transform="translate(0 9.612)" fill="none" stroke="#fdedee" stroke-miterlimit="10" stroke-width="3.058"/>
                <line id="Línea_189" data-name="Línea 189" x2="197.123" transform="translate(0 19.223)" fill="none" stroke="#fdedee" stroke-miterlimit="10" stroke-width="3.058"/>
                <line id="Línea_190" data-name="Línea 190" x2="197.123" transform="translate(0 28.834)" fill="none" stroke="#fdedee" stroke-miterlimit="10" stroke-width="3.058"/>
                <line id="Línea_191" data-name="Línea 191" x2="197.123" transform="translate(0 38.446)" fill="none" stroke="#fdedee" stroke-miterlimit="10" stroke-width="3.058"/>
                <line id="Línea_192" data-name="Línea 192" x2="197.123" transform="translate(0 48.057)" fill="none" stroke="#fdedee" stroke-miterlimit="10" stroke-width="3.058"/>
                <line id="Línea_193" data-name="Línea 193" x2="197.123" transform="translate(0 57.669)" fill="none" stroke="#fdedee" stroke-miterlimit="10" stroke-width="3.058"/>
                <line id="Línea_194" data-name="Línea 194" x2="197.123" transform="translate(0 67.28)" fill="none" stroke="#fdedee" stroke-miterlimit="10" stroke-width="3.058"/>
              </g>
            </g>
          </g>
          <path id="Trazado_18616" data-name="Trazado 18616" d="M390,444.906h173.69c2.164-20.378-2.976-34.371-11.226-44.169C497.962,414.08,444.313,430.781,390,444.906Z" transform="translate(-383.669 -361.287)" fill="#2a242d" opacity="0.3"/>
        </g>
      </g>
      <g id="Grupo_12968" data-name="Grupo 12968" transform="translate(428.239 270.624)">
        <g id="Grupo_12965" data-name="Grupo 12965" transform="translate(0 6.367)">
          <path id="Trazado_18617" data-name="Trazado 18617" d="M438.892,320.8c-2.962-9.189-9.976-7.061-10.632-6.84-.689.079-7.939,1.157-6.686,10.73,1.26,9.631,6.848,14.849,12.087,13.317C439.053,337.151,441.872,330.044,438.892,320.8Z" transform="translate(-421.429 -269.033)" fill="#76413b"/>
          <path id="Trazado_18618" data-name="Trazado 18618" d="M486.254,320.8c2.962-9.189,9.976-7.061,10.633-6.84.689.079,7.939,1.157,6.686,10.73-1.26,9.631-6.847,14.849-12.087,13.317C486.093,337.151,483.274,330.044,486.254,320.8Z" transform="translate(-409.646 -269.033)" fill="#76413b"/>
          <path id="Trazado_18619" data-name="Trazado 18619" d="M430.175,313.842c3.671-40.285,34.3-38.029,37.186-37.725,2.888-.3,33.515-2.56,37.186,37.725,3.692,40.527-14.359,66.994-37.186,65.538C444.534,380.836,426.483,354.369,430.175,313.842Z" transform="translate(-419.898 -275.997)" fill="#965450"/>
        </g>
        <g id="Grupo_12966" data-name="Grupo 12966" transform="translate(18.986 44.046)">
          <path id="Trazado_18620" data-name="Trazado 18620" d="M466.264,323.922l2.5,11.913-4.632,4.8" transform="translate(-432.506 -304.799)" fill="none" stroke="#76413b" stroke-miterlimit="10" stroke-width="1.661"/>
          <path id="Trazado_18621" data-name="Trazado 18621" d="M479.18,344.131c-7.291,7.088-19.642,6.694-29,.378" transform="translate(-435.089 -301.056)" fill="#fff"/>
          <path id="Trazado_18622" data-name="Trazado 18622" d="M488.846,313.25s-9.6-11.738-19.209-.8" transform="translate(-431.486 -307.787)" fill="none" stroke="#352c38" stroke-miterlimit="10" stroke-width="2.701"/>
          <path id="Trazado_18623" data-name="Trazado 18623" d="M456.657,313.25s-9.6-11.738-19.209-.8" transform="translate(-437.448 -307.787)" fill="none" stroke="#352c38" stroke-miterlimit="10" stroke-width="2.701"/>
          <path id="Trazado_18624" data-name="Trazado 18624" d="M454.538,325.841s-.552-7.741-7.188-7.188c-5.572.465-4.977,7.188-4.977,7.188" transform="translate(-436.539 -305.78)" fill="none" stroke="#352c38" stroke-miterlimit="10" stroke-width="1.195"/>
          <path id="Trazado_18625" data-name="Trazado 18625" d="M483.464,325.375s-.554-7.742-7.188-7.188c-5.572.465-4.977,7.188-4.977,7.188" transform="translate(-431.182 -305.866)" fill="none" stroke="#352c38" stroke-miterlimit="10" stroke-width="1.195"/>
        </g>
        <g id="Grupo_12967" data-name="Grupo 12967" transform="translate(3)">
          <path id="Trazado_18626" data-name="Trazado 18626" d="M469.61,277.112s1.892,24.695-35.562,35.039c0,0,1.07,12.484-2.139,24.255,0,0-12.128-17.478-6.421-38.167S460.11,260.978,469.61,277.112Z" transform="translate(-423.96 -270.624)" fill="#352c38"/>
          <path id="Trazado_18627" data-name="Trazado 18627" d="M459.986,277.112s-.706,24.695,36.747,35.039c0,0-1.784,15.695,1.427,27.466,0,0,12.841-20.689,7.134-41.378S469.486,260.978,459.986,277.112Z" transform="translate(-417.288 -270.624)" fill="#352c38"/>
          <path id="Trazado_18628" data-name="Trazado 18628" d="M439.707,306.363a47.885,47.885,0,0,1-13.588-14.129c-.233.663-.446,1.331-.632,2-5.707,20.689,6.421,38.167,6.421,38.167,3.21-11.771,2.139-24.255,2.139-24.255C436.052,307.6,437.921,306.993,439.707,306.363Z" transform="translate(-423.96 -266.622)" fill="#2a242d"/>
        </g>
      </g>
    </g>
  </g>
</svg>
