<svg xmlns="http://www.w3.org/2000/svg" width="789.873" height="769.121" viewBox="0 0 789.873 769.121">
  <g id="Grupo_14562" data-name="Grupo 14562" transform="translate(-330 -2014)">
    <g id="Grupo_14451" data-name="Grupo 14451" transform="translate(-842.97 1430.248)">
      <rect id="Rectángulo_3853" data-name="Rectángulo 3853" width="8.142" height="3.277" transform="translate(1172.97 927.078) rotate(-83.94)" fill="none"/>
      <rect id="Rectángulo_3854" data-name="Rectángulo 3854" width="3.275" height="8.142" transform="translate(1189.379 1083.191) rotate(-18.094)" fill="none"/>
      <rect id="Rectángulo_3855" data-name="Rectángulo 3855" width="3.257" height="8.143" transform="translate(1958.738 919.328) rotate(-6.11)" fill="none"/>
      <rect id="Rectángulo_3856" data-name="Rectángulo 3856" width="8.142" height="3.25" transform="translate(1940.823 1089.937) rotate(-72.119)" fill="none"/>
      <rect id="Rectángulo_3857" data-name="Rectángulo 3857" width="8.143" height="3.266" transform="translate(1222.342 769.674) rotate(-60.095)" fill="none"/>
      <path id="Trazado_23938" data-name="Trazado 23938" d="M1177.029,752.839l140.869,14.8,140.868,14.8,1.873,17.77,1.872,17.77-134.718,43.762-134.718,43.762-8.023-76.334Z" transform="translate(4.203 175.111)" fill="#ffd200"/>
      <path id="Trazado_23939" data-name="Trazado 23939" d="M1186.143,876.173l134.723-43.764,134.723-43.764,8.927,15.466,8.928,15.466-105.264,94.793-105.264,94.793-38.387-66.495Z" transform="translate(13.642 212.192)" fill="#ffd200"/>
      <path id="Trazado_23940" data-name="Trazado 23940" d="M1226.535,996.4l105.268-94.8,105.268-94.8,14.448,10.5,14.448,10.5-57.615,129.41-57.615,129.41-62.1-45.116Z" transform="translate(55.473 231.003)" fill="#ffd200"/>
      <path id="Trazado_23941" data-name="Trazado 23941" d="M1291.2,1077.573l57.614-129.409,57.614-129.409,17.479,3.721,17.478,3.721v283.3l-75.092-15.962Z" transform="translate(122.446 243.376)" fill="#ffd200"/>
      <path id="Trazado_23942" data-name="Trazado 23942" d="M1368.982,826.2l17.478-3.721,17.478-3.721,57.614,129.409,57.614,129.409-75.092,15.962-75.091,15.962V826.2Z" transform="translate(202.995 243.376)" fill="#ffd200"/>
      <path id="Trazado_23943" data-name="Trazado 23943" d="M1389.807,827.814l14.448-10.5,14.448-10.5,105.267,94.8,105.267,94.8-62.1,45.116-62.1,45.116-57.615-129.41Z" transform="translate(224.562 231.003)" fill="#ffd200"/>
      <path id="Trazado_23944" data-name="Trazado 23944" d="M1406.683,819.577l8.928-15.466,8.928-15.466,134.728,43.772,134.728,43.772L1655.6,942.675l-38.393,66.487-105.263-94.793Z" transform="translate(242.04 212.192)" fill="#ffd200"/>
      <path id="Trazado_23945" data-name="Trazado 23945" d="M1416.691,817.983l1.873-17.77,1.872-17.77,140.879-14.8,140.879-14.8-8.023,76.344-8.024,76.344-134.728-43.772Z" transform="translate(252.404 175.111)" fill="#ffd200"/>
      <path id="Trazado_23946" data-name="Trazado 23946" d="M1412.685,818.789l122.674-70.835,122.674-70.835,23.732,73.019,23.732,73.02-140.882,14.8-140.882,14.8-5.524-16.987Z" transform="translate(248.255 96.693)" fill="#ffd200"/>
      <path id="Trazado_23947" data-name="Trazado 23947" d="M1398.942,846.82l83.263-114.607,83.263-114.607,51.364,57.047L1668.2,731.7,1545.52,802.536,1422.845,873.37,1410.893,860.1Z" transform="translate(234.022 35.06)" fill="#ffd200"/>
      <path id="Trazado_23948" data-name="Trazado 23948" d="M1379.674,861.694l29.455-138.555,29.455-138.555L1508.71,615.8l70.125,31.218-83.264,114.606-83.264,114.606-16.317-7.269Z" transform="translate(214.069 0.861)" fill="#ffd200"/>
      <path id="Trazado_23949" data-name="Trazado 23949" d="M1388.181,860.862l-58.91-277.109H1482.82l-58.91,277.109Z" transform="translate(161.87)" fill="#ffd200"/>
      <path id="Trazado_23950" data-name="Trazado 23950" d="M1256.452,647.019l70.135-31.218,70.135-31.218,29.455,138.555,29.455,138.555-16.327,7.27-16.327,7.27-83.263-114.607Z" transform="translate(86.456 0.861)" fill="#ffd200"/>
      <path id="Trazado_23951" data-name="Trazado 23951" d="M1202.75,731.7l51.365-57.047,51.365-57.047,83.263,114.607L1472,846.82,1460.053,860.1,1448.1,873.37l-122.676-70.835Z" transform="translate(30.84 35.06)" fill="#ffd200"/>
      <path id="Trazado_23952" data-name="Trazado 23952" d="M1177.444,823.158l23.721-73.019,23.721-73.019,122.675,70.834,122.675,70.835-5.525,16.987-5.525,16.987-140.872-14.8Z" transform="translate(4.633 96.693)" fill="#ffd200"/>
      <path id="Trazado_23953" data-name="Trazado 23953" d="M1416.313,916.793l39.652-8.428,32.8-23.828,20.269-35.107,4.238-40.316-12.527-38.554-27.125-30.126-37.034-16.489h-40.538l-37.034,16.489-27.125,30.126-12.527,38.554,4.238,40.316,20.269,35.107,32.8,23.828Z" transform="translate(151.603 145.187)" fill="#ffd200"/>
      <path id="Trazado_24238" data-name="Trazado 24238" d="M30.163-32.7a9.911,9.911,0,0,1-2.391,6.712,12.394,12.394,0,0,1-6.712,3.8v.173q5.1.634,7.721,3.1a8.675,8.675,0,0,1,2.622,6.64,11.251,11.251,0,0,1-4.408,9.464Q22.586.576,14.4.576A30.569,30.569,0,0,1,2.247-1.7V-9.276A27.477,27.477,0,0,0,7.634-7.26a22.669,22.669,0,0,0,5.819.778q4.408,0,6.511-1.5a5.5,5.5,0,0,0,2.1-4.811A4.345,4.345,0,0,0,19.647-17q-2.42-1.239-7.721-1.239h-3.2v-6.828h3.255q4.9,0,7.159-1.282A4.629,4.629,0,0,0,21.4-30.739q0-4.782-5.992-4.782a13.714,13.714,0,0,0-4.22.691,20.617,20.617,0,0,0-4.768,2.391L2.3-38.575a22.89,22.89,0,0,1,13.742-4.148q6.54,0,10.328,2.65A8.5,8.5,0,0,1,30.163-32.7ZM35.751-17.89q0-12.5,5.286-18.61t15.83-6.107a28.723,28.723,0,0,1,5.646.432v7.116a23.072,23.072,0,0,0-5.07-.576,17.408,17.408,0,0,0-7.476,1.383,9.3,9.3,0,0,0-4.336,4.091,18.786,18.786,0,0,0-1.7,7.692h.375q2.852-4.9,9.132-4.9,5.646,0,8.844,3.543t3.2,9.795q0,6.741-3.8,10.674T51.135.576A15.083,15.083,0,0,1,43-1.584a14.034,14.034,0,0,1-5.358-6.309A24.025,24.025,0,0,1,35.751-17.89ZM50.962-6.54a5.272,5.272,0,0,0,4.379-1.916,8.573,8.573,0,0,0,1.527-5.459,7.533,7.533,0,0,0-1.426-4.854,5.2,5.2,0,0,0-4.307-1.772,6.6,6.6,0,0,0-4.624,1.757A5.4,5.4,0,0,0,44.6-14.692,9.272,9.272,0,0,0,46.4-8.9,5.515,5.515,0,0,0,50.962-6.54Zm47.966-14.52q0,11.034-3.615,16.334T84.179.576Q76.89.576,73.188-4.9t-3.7-16.162q0-11.149,3.6-16.435t11.091-5.286q7.289,0,11.019,5.531T98.929-21.059Zm-20.6,0q0,7.75,1.34,11.106T84.179-6.6q3.111,0,4.494-3.4t1.383-11.062q0-7.75-1.4-11.135t-4.48-3.385q-3.14,0-4.494,3.385T78.331-21.059ZM122.264-32.15q0,4.926-2.636,7.706a9.469,9.469,0,0,1-7.217,2.78,9.245,9.245,0,0,1-7.073-2.838,10.722,10.722,0,0,1-2.665-7.649,10.865,10.865,0,0,1,2.578-7.663,9.4,9.4,0,0,1,7.274-2.794,9.256,9.256,0,0,1,7.058,2.838A10.646,10.646,0,0,1,122.264-32.15Zm-13.742,0a8.1,8.1,0,0,0,.936,4.336,3.313,3.313,0,0,0,3.01,1.455,3.243,3.243,0,0,0,2.982-1.455,8.31,8.31,0,0,0,.907-4.336,8.148,8.148,0,0,0-.907-4.307,3.264,3.264,0,0,0-2.982-1.426,3.336,3.336,0,0,0-3.01,1.426A7.942,7.942,0,0,0,108.522-32.15Z" transform="translate(1502.866 978.845)"/>
      <path id="Trazado_24229" data-name="Trazado 24229" d="M6.692-9.9a2.078,2.078,0,0,0-1.633.661,3.058,3.058,0,0,0-.677,1.875h4.6a2.731,2.731,0,0,0-.634-1.875A2.146,2.146,0,0,0,6.692-9.9ZM7.154.215a6.2,6.2,0,0,1-4.533-1.6A6.06,6.06,0,0,1,.988-5.919,6.666,6.666,0,0,1,2.5-10.586a5.374,5.374,0,0,1,4.173-1.649,5.29,5.29,0,0,1,3.964,1.45,5.486,5.486,0,0,1,1.418,4.007v1.59H4.308a3.154,3.154,0,0,0,.827,2.181,2.91,2.91,0,0,0,2.17.784,9.008,9.008,0,0,0,2.052-.226,10.266,10.266,0,0,0,2.02-.72V-.634A7.693,7.693,0,0,1,9.539.005,11.582,11.582,0,0,1,7.154.215ZM17.134,0,12.558-12.01h3.427L18.3-5.167a12.21,12.21,0,0,1,.483,2.46h.064a10.7,10.7,0,0,1,.483-2.46l2.31-6.843h3.427L20.5,0ZM31.765-9.9a2.078,2.078,0,0,0-1.633.661,3.058,3.058,0,0,0-.677,1.875h4.6a2.731,2.731,0,0,0-.634-1.875A2.146,2.146,0,0,0,31.765-9.9ZM32.227.215a6.2,6.2,0,0,1-4.533-1.6,6.06,6.06,0,0,1-1.633-4.533,6.666,6.666,0,0,1,1.509-4.667,5.374,5.374,0,0,1,4.173-1.649,5.29,5.29,0,0,1,3.964,1.45,5.486,5.486,0,0,1,1.418,4.007v1.59H29.38a3.154,3.154,0,0,0,.827,2.181,2.91,2.91,0,0,0,2.17.784,9.008,9.008,0,0,0,2.052-.226,10.266,10.266,0,0,0,2.02-.72V-.634a7.693,7.693,0,0,1-1.837.639A11.582,11.582,0,0,1,32.227.215ZM50.875,0H47.6V-7.015a3.369,3.369,0,0,0-.462-1.95,1.681,1.681,0,0,0-1.472-.65,2.213,2.213,0,0,0-1.987.918,5.7,5.7,0,0,0-.612,3.045V0H39.789V-12.01h2.5l.44,1.536h.183a3.462,3.462,0,0,1,1.509-1.316,5.139,5.139,0,0,1,2.186-.446A4.2,4.2,0,0,1,49.79-11.1a4.548,4.548,0,0,1,1.085,3.271Zm8.433-2.4a7.1,7.1,0,0,0,2.063-.376V-.333a7.354,7.354,0,0,1-3.008.548A3.681,3.681,0,0,1,55.5-.779a4.325,4.325,0,0,1-.9-2.981V-9.55H53.034v-1.386l1.8-1.1.945-2.535h2.095v2.557h3.362v2.46H57.879v5.79a1.279,1.279,0,0,0,.392,1.031A1.547,1.547,0,0,0,59.308-2.4Zm7.1-3.631a5.041,5.041,0,0,0,.585,2.7,2.094,2.094,0,0,0,1.907.913,2.06,2.06,0,0,0,1.885-.908,5.113,5.113,0,0,0,.575-2.7A4.961,4.961,0,0,0,70.78-8.7a2.1,2.1,0,0,0-1.9-.892,2.091,2.091,0,0,0-1.891.886A4.956,4.956,0,0,0,66.408-6.026Zm8.3,0a6.454,6.454,0,0,1-1.547,4.587A5.609,5.609,0,0,1,68.857.215a6.026,6.026,0,0,1-3.051-.757,5.039,5.039,0,0,1-2.03-2.175,7.31,7.31,0,0,1-.709-3.309A6.418,6.418,0,0,1,64.6-10.6a5.641,5.641,0,0,1,4.318-1.633,6.06,6.06,0,0,1,3.051.752A5.019,5.019,0,0,1,74-9.324,7.242,7.242,0,0,1,74.712-6.026ZM85.8-3.566A3.307,3.307,0,0,1,84.514-.752a6.343,6.343,0,0,1-3.84.967A12.062,12.062,0,0,1,78.439.038,8.452,8.452,0,0,1,76.71-.483V-3.19a11.422,11.422,0,0,0,2.057.72,8.33,8.33,0,0,0,2.014.29q1.783,0,1.783-1.031a.861.861,0,0,0-.236-.628,3.427,3.427,0,0,0-.816-.548q-.58-.306-1.547-.714a9.717,9.717,0,0,1-2.036-1.074,3.024,3.024,0,0,1-.945-1.133,3.741,3.741,0,0,1-.3-1.574,2.853,2.853,0,0,1,1.241-2.476,6.044,6.044,0,0,1,3.518-.875,9.986,9.986,0,0,1,4.222.945l-.988,2.363q-.9-.387-1.687-.634a5.3,5.3,0,0,0-1.6-.247q-1.45,0-1.45.784a.922.922,0,0,0,.467.763,12.708,12.708,0,0,0,2.046.956A9.507,9.507,0,0,1,84.52-6.241,3.145,3.145,0,0,1,85.486-5.1,3.5,3.5,0,0,1,85.8-3.566Z" transform="translate(1572.34 770.65) rotate(-90)"/>
      <path id="Trazado_24230" data-name="Trazado 24230" d="M-15.412.205q-5.353,0-5.353-5.875a6.267,6.267,0,0,1,1.456-4.466,5.462,5.462,0,0,1,4.173-1.543,7.956,7.956,0,0,1,3.568.779l-.923,2.42q-.738-.3-1.374-.487a4.427,4.427,0,0,0-1.271-.19q-2.44,0-2.44,3.466,0,3.363,2.44,3.363a5.564,5.564,0,0,0,1.671-.241,6.035,6.035,0,0,0,1.538-.754V-.646a5.04,5.04,0,0,1-1.533.667A8.621,8.621,0,0,1-15.412.205ZM-9.4-14.427q0-1.528,1.7-1.528T-6-14.427a1.49,1.49,0,0,1-.426,1.133,1.789,1.789,0,0,1-1.277.405Q-9.4-12.889-9.4-14.427ZM-6.142,0H-9.27V-11.464h3.127ZM7.721,0H4.594V-6.7a3.216,3.216,0,0,0-.441-1.861,1.6,1.6,0,0,0-1.4-.62,2.112,2.112,0,0,0-1.9.877A5.437,5.437,0,0,0,.267-5.394V0H-2.861V-11.464H-.472L-.051-10H.123a3.305,3.305,0,0,1,1.441-1.256,4.906,4.906,0,0,1,2.087-.426A4.009,4.009,0,0,1,6.686-10.6,4.341,4.341,0,0,1,7.721-7.475Zm7.967-9.454a1.984,1.984,0,0,0-1.559.631,2.919,2.919,0,0,0-.646,1.789h4.389a2.607,2.607,0,0,0-.6-1.789A2.048,2.048,0,0,0,15.688-9.454ZM16.129.205A5.917,5.917,0,0,1,11.8-1.323,5.785,5.785,0,0,1,10.244-5.65a6.363,6.363,0,0,1,1.441-4.455,5.13,5.13,0,0,1,3.984-1.574,5.049,5.049,0,0,1,3.784,1.384A5.237,5.237,0,0,1,20.805-6.47v1.518H13.412a3.01,3.01,0,0,0,.79,2.082,2.778,2.778,0,0,0,2.071.749,8.6,8.6,0,0,0,1.958-.215,9.8,9.8,0,0,0,1.928-.687V-.6a7.344,7.344,0,0,1-1.753.61A11.055,11.055,0,0,1,16.129.205Z" transform="translate(1466.168 742.143) rotate(66)"/>
      <path id="Trazado_24231" data-name="Trazado 24231" d="M-27.932.205A3.8,3.8,0,0,1-31.1-1.261h-.164Q-31.1.174-31.1.4V5.045h-3.127V-11.464h2.543l.441,1.487h.144a3.618,3.618,0,0,1,3.25-1.7,3.72,3.72,0,0,1,3.179,1.569,7.256,7.256,0,0,1,1.148,4.358,8.605,8.605,0,0,1-.538,3.189A4.473,4.473,0,0,1-25.594-.5,3.928,3.928,0,0,1-27.932.205Zm-.923-9.382a1.975,1.975,0,0,0-1.692.713A4.092,4.092,0,0,0-31.1-6.111v.338a4.83,4.83,0,0,0,.549,2.646,1.958,1.958,0,0,0,1.738.8q2.1,0,2.1-3.466a4.949,4.949,0,0,0-.518-2.538A1.767,1.767,0,0,0-28.854-9.177Zm14.314-2.5a5.044,5.044,0,0,1,1.056.092l-.236,2.933a3.583,3.583,0,0,0-.923-.1,3.316,3.316,0,0,0-2.333.769,2.78,2.78,0,0,0-.836,2.153V0h-3.127V-11.464h2.369l.461,1.928h.154a4.309,4.309,0,0,1,1.441-1.553A3.552,3.552,0,0,1-14.54-11.679Zm7.465,2.225a1.984,1.984,0,0,0-1.559.631A2.919,2.919,0,0,0-9.28-7.034h4.389a2.607,2.607,0,0,0-.6-1.789A2.048,2.048,0,0,0-7.075-9.454ZM-6.634.205a5.917,5.917,0,0,1-4.327-1.528A5.785,5.785,0,0,1-12.52-5.65a6.363,6.363,0,0,1,1.441-4.455A5.13,5.13,0,0,1-7.1-11.679a5.049,5.049,0,0,1,3.784,1.384A5.237,5.237,0,0,1-1.958-6.47v1.518H-9.352a3.01,3.01,0,0,0,.79,2.082,2.778,2.778,0,0,0,2.071.749,8.6,8.6,0,0,0,1.958-.215A9.8,9.8,0,0,0-2.6-3.025V-.6a7.344,7.344,0,0,1-1.753.61A11.055,11.055,0,0,1-6.634.205ZM11.167,0H8.039V-6.7A3.216,3.216,0,0,0,7.6-8.557a1.6,1.6,0,0,0-1.4-.62A2.112,2.112,0,0,0,4.3-8.3a5.437,5.437,0,0,0-.584,2.907V0H.584V-11.464H2.974L3.394-10h.174a3.305,3.305,0,0,1,1.441-1.256A4.906,4.906,0,0,1,7.1-11.679,4.009,4.009,0,0,1,10.131-10.6a4.341,4.341,0,0,1,1.036,3.122ZM22.384-3.4A3.156,3.156,0,0,1,21.159-.718a6.054,6.054,0,0,1-3.666.923A11.514,11.514,0,0,1,15.36.036a8.067,8.067,0,0,1-1.651-.5V-3.045a10.9,10.9,0,0,0,1.964.687,7.951,7.951,0,0,0,1.923.277q1.7,0,1.7-.984a.822.822,0,0,0-.226-.6,3.271,3.271,0,0,0-.779-.523q-.554-.292-1.477-.682A9.276,9.276,0,0,1,14.873-5.9a2.886,2.886,0,0,1-.9-1.082,3.571,3.571,0,0,1-.282-1.5,2.723,2.723,0,0,1,1.184-2.364,5.769,5.769,0,0,1,3.358-.836,9.532,9.532,0,0,1,4.03.9l-.943,2.256q-.861-.369-1.61-.6a5.055,5.055,0,0,0-1.528-.236q-1.384,0-1.384.749a.88.88,0,0,0,.446.728,12.13,12.13,0,0,0,1.953.913,9.075,9.075,0,0,1,1.969,1.015,3,3,0,0,1,.923,1.087A3.34,3.34,0,0,1,22.384-3.4ZM32.1,0l-.6-1.559h-.082A4.619,4.619,0,0,1,29.793-.179a5.252,5.252,0,0,1-2.179.385,3.523,3.523,0,0,1-2.6-.943,3.623,3.623,0,0,1-.948-2.687,3.025,3.025,0,0,1,1.277-2.692,7.4,7.4,0,0,1,3.85-.959l1.989-.062v-.5A1.559,1.559,0,0,0,29.4-9.382a8.131,8.131,0,0,0-3.23.831l-1.036-2.112A9.32,9.32,0,0,1,29.521-11.7a5.467,5.467,0,0,1,3.538,1,3.714,3.714,0,0,1,1.23,3.056V0Zm-.923-5.312-1.21.041a3.875,3.875,0,0,0-2.03.492A1.546,1.546,0,0,0,27.275-3.4q0,1.323,1.518,1.323a2.4,2.4,0,0,0,1.738-.625,2.2,2.2,0,0,0,.651-1.661Z" transform="translate(1382.884 801.163) rotate(42)"/>
      <path id="Trazado_24232" data-name="Trazado 24232" d="M-46.891-9.454a1.984,1.984,0,0,0-1.559.631A2.919,2.919,0,0,0-49.1-7.034h4.389a2.607,2.607,0,0,0-.6-1.789A2.048,2.048,0,0,0-46.891-9.454ZM-46.45.205a5.917,5.917,0,0,1-4.327-1.528A5.785,5.785,0,0,1-52.336-5.65,6.363,6.363,0,0,1-50.9-10.105a5.13,5.13,0,0,1,3.984-1.574,5.049,5.049,0,0,1,3.784,1.384A5.237,5.237,0,0,1-41.774-6.47v1.518h-7.393a3.01,3.01,0,0,0,.79,2.082,2.778,2.778,0,0,0,2.071.749,8.6,8.6,0,0,0,1.958-.215,9.8,9.8,0,0,0,1.928-.687V-.6a7.344,7.344,0,0,1-1.753.61A11.055,11.055,0,0,1-46.45.205Zm9.146-6.06L-41-11.464h3.548l2.225,3.65,2.246-3.65h3.548l-3.732,5.609L-29.254,0h-3.558l-2.41-3.927L-37.642,0H-41.19Zm14.622,3.568a6.779,6.779,0,0,0,1.969-.359V-.318a7.02,7.02,0,0,1-2.871.523,3.514,3.514,0,0,1-2.733-.948,4.128,4.128,0,0,1-.856-2.845V-9.116h-1.5v-1.323l1.723-1.046.9-2.42h2v2.44h3.209v2.348h-3.209v5.527a1.221,1.221,0,0,0,.374.984A1.477,1.477,0,0,0-22.682-2.287Zm9.034-7.167a1.984,1.984,0,0,0-1.559.631,2.919,2.919,0,0,0-.646,1.789h4.389a2.607,2.607,0,0,0-.6-1.789A2.048,2.048,0,0,0-13.648-9.454Zm.441,9.659a5.917,5.917,0,0,1-4.327-1.528A5.785,5.785,0,0,1-19.093-5.65a6.363,6.363,0,0,1,1.441-4.455,5.13,5.13,0,0,1,3.984-1.574,5.049,5.049,0,0,1,3.784,1.384A5.237,5.237,0,0,1-8.531-6.47v1.518h-7.393a3.01,3.01,0,0,0,.79,2.082,2.778,2.778,0,0,0,2.071.749A8.6,8.6,0,0,0-11.1-2.338a9.8,9.8,0,0,0,1.928-.687V-.6a7.344,7.344,0,0,1-1.753.61A11.055,11.055,0,0,1-13.207.205ZM.41-11.679a5.044,5.044,0,0,1,1.056.092L1.23-8.654a3.583,3.583,0,0,0-.923-.1,3.316,3.316,0,0,0-2.333.769,2.78,2.78,0,0,0-.836,2.153V0H-5.988V-11.464H-3.62l.461,1.928H-3A4.309,4.309,0,0,1-1.564-11.09,3.552,3.552,0,0,1,.41-11.679Zm3-2.748q0-1.528,1.7-1.528t1.7,1.528a1.49,1.49,0,0,1-.426,1.133,1.789,1.789,0,0,1-1.277.405Q3.415-12.889,3.415-14.427ZM6.675,0H3.548V-11.464H6.675Zm5.773-5.752a4.812,4.812,0,0,0,.559,2.574,2,2,0,0,0,1.82.872,1.967,1.967,0,0,0,1.8-.866,4.881,4.881,0,0,0,.549-2.579,4.735,4.735,0,0,0-.554-2.553,2,2,0,0,0-1.815-.851,2,2,0,0,0-1.8.846A4.731,4.731,0,0,0,12.448-5.752Zm7.926,0A6.16,6.16,0,0,1,18.9-1.374,5.354,5.354,0,0,1,14.786.205a5.752,5.752,0,0,1-2.912-.723A4.81,4.81,0,0,1,9.936-2.594a6.977,6.977,0,0,1-.677-3.158,6.126,6.126,0,0,1,1.466-4.368,5.385,5.385,0,0,1,4.122-1.559,5.784,5.784,0,0,1,2.912.718A4.791,4.791,0,0,1,19.7-8.9,6.913,6.913,0,0,1,20.375-5.752Zm8.982-5.927a5.044,5.044,0,0,1,1.056.092l-.236,2.933a3.583,3.583,0,0,0-.923-.1,3.316,3.316,0,0,0-2.333.769,2.78,2.78,0,0,0-.836,2.153V0H22.958V-11.464h2.369l.461,1.928h.154a4.309,4.309,0,0,1,1.441-1.553A3.552,3.552,0,0,1,29.357-11.679Zm7.465,2.225a1.984,1.984,0,0,0-1.559.631,2.919,2.919,0,0,0-.646,1.789h4.389a2.607,2.607,0,0,0-.6-1.789A2.048,2.048,0,0,0,36.822-9.454ZM37.263.205a5.917,5.917,0,0,1-4.327-1.528A5.785,5.785,0,0,1,31.377-5.65a6.363,6.363,0,0,1,1.441-4.455A5.13,5.13,0,0,1,36.8-11.679a5.049,5.049,0,0,1,3.784,1.384A5.237,5.237,0,0,1,41.938-6.47v1.518H34.545a3.01,3.01,0,0,0,.79,2.082,2.778,2.778,0,0,0,2.071.749,8.6,8.6,0,0,0,1.958-.215,9.8,9.8,0,0,0,1.928-.687V-.6a7.344,7.344,0,0,1-1.753.61A11.055,11.055,0,0,1,37.263.205ZM52.479-3.4A3.156,3.156,0,0,1,51.254-.718a6.054,6.054,0,0,1-3.666.923A11.514,11.514,0,0,1,45.456.036a8.067,8.067,0,0,1-1.651-.5V-3.045a10.9,10.9,0,0,0,1.964.687,7.951,7.951,0,0,0,1.923.277q1.7,0,1.7-.984a.822.822,0,0,0-.226-.6,3.271,3.271,0,0,0-.779-.523q-.554-.292-1.477-.682A9.276,9.276,0,0,1,44.969-5.9a2.886,2.886,0,0,1-.9-1.082,3.571,3.571,0,0,1-.282-1.5,2.723,2.723,0,0,1,1.184-2.364,5.769,5.769,0,0,1,3.358-.836,9.532,9.532,0,0,1,4.03.9l-.943,2.256q-.861-.369-1.61-.6a5.055,5.055,0,0,0-1.528-.236q-1.384,0-1.384.749a.88.88,0,0,0,.446.728,12.13,12.13,0,0,0,1.953.913,9.075,9.075,0,0,1,1.969,1.015,3,3,0,0,1,.923,1.087A3.34,3.34,0,0,1,52.479-3.4Z" transform="translate(1329.145 889.583) rotate(18)"/>
      <path id="Trazado_24233" data-name="Trazado 24233" d="M-40.7,0l-.634-1.633h-.086a4.839,4.839,0,0,1-1.7,1.445,5.5,5.5,0,0,1-2.283.4,3.691,3.691,0,0,1-2.723-.988,3.8,3.8,0,0,1-.994-2.814,3.169,3.169,0,0,1,1.337-2.82,7.75,7.75,0,0,1,4.034-1l2.084-.064V-8a1.633,1.633,0,0,0-1.869-1.826,8.518,8.518,0,0,0-3.384.87L-48-11.172a9.763,9.763,0,0,1,4.6-1.085A5.727,5.727,0,0,1-39.7-11.2,3.891,3.891,0,0,1-38.409-8V0Zm-.967-5.564-1.268.043a4.059,4.059,0,0,0-2.127.516,1.619,1.619,0,0,0-.7,1.439q0,1.386,1.59,1.386a2.518,2.518,0,0,0,1.821-.655,2.3,2.3,0,0,0,.682-1.74Zm11.5,5.779q-5.607,0-5.607-6.155a6.566,6.566,0,0,1,1.525-4.678,5.722,5.722,0,0,1,4.372-1.617,8.335,8.335,0,0,1,3.738.816L-27.1-8.884q-.773-.312-1.439-.51a4.638,4.638,0,0,0-1.332-.2q-2.557,0-2.557,3.631,0,3.523,2.557,3.523a5.829,5.829,0,0,0,1.751-.252,6.322,6.322,0,0,0,1.611-.79v2.8a5.281,5.281,0,0,1-1.606.7A9.031,9.031,0,0,1-30.159.215ZM-15.216,0l-.44-1.536h-.172A3.457,3.457,0,0,1-17.322-.242a5.1,5.1,0,0,1-2.2.457,4.193,4.193,0,0,1-3.19-1.133,4.56,4.56,0,0,1-1.074-3.26V-12.01h3.276V-5a3.369,3.369,0,0,0,.462,1.95,1.681,1.681,0,0,0,1.472.65,2.213,2.213,0,0,0,1.987-.918,5.7,5.7,0,0,0,.612-3.045v-5.65H-12.7V0ZM-4.292-9.9a2.078,2.078,0,0,0-1.633.661A3.058,3.058,0,0,0-6.6-7.369H-2a2.731,2.731,0,0,0-.634-1.875A2.146,2.146,0,0,0-4.292-9.9ZM-3.83.215a6.2,6.2,0,0,1-4.533-1.6A6.06,6.06,0,0,1-10-5.919a6.666,6.666,0,0,1,1.509-4.667,5.374,5.374,0,0,1,4.173-1.649,5.29,5.29,0,0,1,3.964,1.45A5.486,5.486,0,0,1,1.069-6.778v1.59H-6.676a3.154,3.154,0,0,0,.827,2.181,2.91,2.91,0,0,0,2.17.784,9.008,9.008,0,0,0,2.052-.226,10.266,10.266,0,0,0,2.02-.72V-.634A7.693,7.693,0,0,1-1.445.005,11.582,11.582,0,0,1-3.83.215Zm14.266-12.45a5.284,5.284,0,0,1,1.106.1L11.3-9.066a3.753,3.753,0,0,0-.967-.107,3.474,3.474,0,0,0-2.444.806,2.912,2.912,0,0,0-.875,2.256V0H3.733V-12.01H6.214L6.7-9.99h.161a4.515,4.515,0,0,1,1.509-1.627A3.722,3.722,0,0,1,10.436-12.235ZM17.085.215a3.9,3.9,0,0,1-3.325-1.644,7.556,7.556,0,0,1-1.208-4.555,7.563,7.563,0,0,1,1.23-4.6,4,4,0,0,1,3.389-1.649,3.918,3.918,0,0,1,3.459,1.762h.107a13.394,13.394,0,0,1-.247-2.4v-3.846h3.287V0H21.264L20.63-1.558h-.14A3.749,3.749,0,0,1,17.085.215ZM18.235-2.4a2.22,2.22,0,0,0,1.842-.73,4.249,4.249,0,0,0,.639-2.481v-.354a4.911,4.911,0,0,0-.6-2.771,2.214,2.214,0,0,0-1.939-.838,1.923,1.923,0,0,0-1.7.929,4.957,4.957,0,0,0-.607,2.7,4.7,4.7,0,0,0,.612,2.659A2,2,0,0,0,18.235-2.4Zm11.58-3.631a5.041,5.041,0,0,0,.585,2.7,2.094,2.094,0,0,0,1.907.913,2.06,2.06,0,0,0,1.885-.908,5.113,5.113,0,0,0,.575-2.7,4.961,4.961,0,0,0-.58-2.675,2.1,2.1,0,0,0-1.9-.892,2.091,2.091,0,0,0-1.891.886A4.956,4.956,0,0,0,29.815-6.026Zm8.3,0a6.454,6.454,0,0,1-1.547,4.587A5.609,5.609,0,0,1,32.264.215a6.026,6.026,0,0,1-3.051-.757,5.039,5.039,0,0,1-2.03-2.175,7.31,7.31,0,0,1-.709-3.309A6.418,6.418,0,0,1,28.01-10.6a5.641,5.641,0,0,1,4.318-1.633,6.06,6.06,0,0,1,3.051.752,5.019,5.019,0,0,1,2.03,2.159A7.242,7.242,0,0,1,38.119-6.026ZM49.2-3.566A3.307,3.307,0,0,1,47.921-.752a6.343,6.343,0,0,1-3.84.967A12.062,12.062,0,0,1,41.846.038a8.451,8.451,0,0,1-1.729-.521V-3.19a11.421,11.421,0,0,0,2.057.72,8.33,8.33,0,0,0,2.014.29q1.783,0,1.783-1.031a.861.861,0,0,0-.236-.628,3.426,3.426,0,0,0-.816-.548q-.58-.306-1.547-.714a9.717,9.717,0,0,1-2.036-1.074,3.024,3.024,0,0,1-.945-1.133,3.741,3.741,0,0,1-.3-1.574,2.853,2.853,0,0,1,1.241-2.476,6.044,6.044,0,0,1,3.518-.875,9.986,9.986,0,0,1,4.222.945l-.988,2.363q-.9-.387-1.687-.634a5.3,5.3,0,0,0-1.6-.247q-1.45,0-1.45.784a.922.922,0,0,0,.467.763,12.708,12.708,0,0,0,2.046.956,9.507,9.507,0,0,1,2.063,1.063A3.145,3.145,0,0,1,48.893-5.1,3.5,3.5,0,0,1,49.2-3.566Z" transform="translate(1322.559 994.681) rotate(-6)"/>
      <path id="Trazado_24234" data-name="Trazado 24234" d="M-58.556-15.114q0-1.6,1.783-1.6t1.783,1.6a1.56,1.56,0,0,1-.446,1.187,1.874,1.874,0,0,1-1.337.424Q-58.556-13.5-58.556-15.114ZM-55.14,0h-3.276V-12.01h3.276Zm14.523,0h-3.276V-7.015a3.369,3.369,0,0,0-.462-1.95,1.681,1.681,0,0,0-1.472-.65,2.213,2.213,0,0,0-1.987.918,5.7,5.7,0,0,0-.612,3.045V0H-51.7V-12.01h2.5l.44,1.536h.183a3.462,3.462,0,0,1,1.509-1.316,5.139,5.139,0,0,1,2.186-.446A4.2,4.2,0,0,1-41.7-11.1a4.548,4.548,0,0,1,1.085,3.271Zm8.433-2.4a7.1,7.1,0,0,0,2.063-.376V-.333a7.354,7.354,0,0,1-3.008.548,3.681,3.681,0,0,1-2.863-.994,4.325,4.325,0,0,1-.9-2.981V-9.55h-1.568v-1.386l1.8-1.1.945-2.535h2.095v2.557h3.362v2.46h-3.362v5.79a1.279,1.279,0,0,0,.392,1.031A1.547,1.547,0,0,0-32.184-2.4ZM-22.72-9.9a2.078,2.078,0,0,0-1.633.661,3.058,3.058,0,0,0-.677,1.875h4.6a2.731,2.731,0,0,0-.634-1.875A2.146,2.146,0,0,0-22.72-9.9ZM-22.258.215a6.2,6.2,0,0,1-4.533-1.6,6.06,6.06,0,0,1-1.633-4.533,6.666,6.666,0,0,1,1.509-4.667,5.374,5.374,0,0,1,4.173-1.649,5.29,5.29,0,0,1,3.964,1.45,5.486,5.486,0,0,1,1.418,4.007v1.59H-25.1a3.154,3.154,0,0,0,.827,2.181,2.91,2.91,0,0,0,2.17.784,9.008,9.008,0,0,0,2.052-.226,10.266,10.266,0,0,0,2.02-.72V-.634a7.693,7.693,0,0,1-1.837.639A11.582,11.582,0,0,1-22.258.215Zm14.266-12.45a5.284,5.284,0,0,1,1.106.1l-.247,3.072A3.753,3.753,0,0,0-8.1-9.174a3.474,3.474,0,0,0-2.444.806,2.912,2.912,0,0,0-.875,2.256V0H-14.7V-12.01h2.481l.483,2.02h.161a4.515,4.515,0,0,1,1.509-1.627A3.722,3.722,0,0,1-7.992-12.235ZM2.481,0,1.848-1.633H1.762A4.839,4.839,0,0,1,.059-.188a5.5,5.5,0,0,1-2.283.4A3.691,3.691,0,0,1-4.947-.773,3.8,3.8,0,0,1-5.94-3.588,3.169,3.169,0,0,1-4.6-6.408a7.75,7.75,0,0,1,4.034-1l2.084-.064V-8A1.633,1.633,0,0,0-.354-9.829a8.518,8.518,0,0,0-3.384.87l-1.085-2.213a9.763,9.763,0,0,1,4.6-1.085A5.727,5.727,0,0,1,3.48-11.2,3.891,3.891,0,0,1,4.77-8V0ZM1.515-5.564.247-5.521a4.059,4.059,0,0,0-2.127.516,1.619,1.619,0,0,0-.7,1.439q0,1.386,1.59,1.386A2.518,2.518,0,0,0,.833-2.836a2.3,2.3,0,0,0,.682-1.74ZM13.02.215Q7.412.215,7.412-5.94a6.566,6.566,0,0,1,1.525-4.678,5.722,5.722,0,0,1,4.372-1.617,8.335,8.335,0,0,1,3.738.816l-.967,2.535q-.773-.312-1.439-.51a4.638,4.638,0,0,0-1.332-.2q-2.557,0-2.557,3.631,0,3.523,2.557,3.523a5.829,5.829,0,0,0,1.751-.252,6.322,6.322,0,0,0,1.611-.79v2.8a5.281,5.281,0,0,1-1.606.7A9.031,9.031,0,0,1,13.02.215ZM24.514-2.4a7.1,7.1,0,0,0,2.063-.376V-.333a7.354,7.354,0,0,1-3.008.548,3.681,3.681,0,0,1-2.863-.994,4.325,4.325,0,0,1-.9-2.981V-9.55H18.24v-1.386l1.8-1.1.945-2.535h2.095v2.557h3.362v2.46H23.085v5.79a1.279,1.279,0,0,0,.392,1.031A1.547,1.547,0,0,0,24.514-2.4Zm4.351-12.719q0-1.6,1.783-1.6t1.783,1.6a1.56,1.56,0,0,1-.446,1.187,1.874,1.874,0,0,1-1.337.424Q28.864-13.5,28.864-15.114ZM32.28,0H29V-12.01H32.28Zm6.295,0L34-12.01h3.427l2.32,6.843a12.21,12.21,0,0,1,.483,2.46h.064a10.7,10.7,0,0,1,.483-2.46l2.31-6.843h3.427L41.938,0ZM50.843-6.026a5.041,5.041,0,0,0,.585,2.7,2.094,2.094,0,0,0,1.907.913,2.06,2.06,0,0,0,1.885-.908,5.113,5.113,0,0,0,.575-2.7,4.961,4.961,0,0,0-.58-2.675,2.1,2.1,0,0,0-1.9-.892,2.091,2.091,0,0,0-1.891.886A4.956,4.956,0,0,0,50.843-6.026Zm8.3,0A6.454,6.454,0,0,1,57.6-1.439,5.609,5.609,0,0,1,53.292.215a6.026,6.026,0,0,1-3.051-.757,5.039,5.039,0,0,1-2.03-2.175A7.31,7.31,0,0,1,47.5-6.026,6.418,6.418,0,0,1,49.038-10.6a5.641,5.641,0,0,1,4.318-1.633,6.06,6.06,0,0,1,3.051.752,5.019,5.019,0,0,1,2.03,2.159A7.242,7.242,0,0,1,59.146-6.026Z" transform="translate(1354.24 1093.088) rotate(-30)"/>
      <path id="Trazado_24235" data-name="Trazado 24235" d="M-29.482-12.01v1.665l-1.88.483a3.277,3.277,0,0,1,.516,1.8,3.643,3.643,0,0,1-1.348,3.013,5.839,5.839,0,0,1-3.744,1.08L-36.529-4l-.483-.054a1.09,1.09,0,0,0-.5.859q0,.709,1.8.709h2.041a4.656,4.656,0,0,1,3.013.849A3.033,3.033,0,0,1-29.622.859a3.7,3.7,0,0,1-1.756,3.266,9.147,9.147,0,0,1-5.043,1.16,6.982,6.982,0,0,1-3.84-.875,2.78,2.78,0,0,1-1.327-2.455A2.57,2.57,0,0,1-40.912.14,3.843,3.843,0,0,1-38.924-.9a2.193,2.193,0,0,1-.881-.7,1.672,1.672,0,0,1-.376-1.037,1.68,1.68,0,0,1,.4-1.144,4.6,4.6,0,0,1,1.149-.9,3.224,3.224,0,0,1-1.5-1.311,3.988,3.988,0,0,1-.553-2.127,3.751,3.751,0,0,1,1.278-3.04,5.528,5.528,0,0,1,3.652-1.074,9.348,9.348,0,0,1,1.2.091q.693.091.886.134ZM-38.752,1.7a1.187,1.187,0,0,0,.65,1.063,3.576,3.576,0,0,0,1.821.387,6.45,6.45,0,0,0,2.761-.483,1.473,1.473,0,0,0,1-1.321.935.935,0,0,0-.591-.935A4.838,4.838,0,0,0-34.939.15h-1.7a2.57,2.57,0,0,0-1.509.424A1.309,1.309,0,0,0-38.752,1.7Zm1.192-9.775a2.445,2.445,0,0,0,.446,1.547,1.619,1.619,0,0,0,1.359.569A1.586,1.586,0,0,0-34.4-6.531a2.511,2.511,0,0,0,.43-1.547q0-2.17-1.783-2.17Q-37.56-10.248-37.56-8.078ZM-19,0l-.44-1.536h-.172A3.457,3.457,0,0,1-21.1-.242a5.1,5.1,0,0,1-2.2.457A4.193,4.193,0,0,1-26.5-.918a4.56,4.56,0,0,1-1.074-3.26V-12.01h3.276V-5a3.369,3.369,0,0,0,.462,1.95,1.681,1.681,0,0,0,1.472.65,2.213,2.213,0,0,0,1.987-.918,5.7,5.7,0,0,0,.612-3.045v-5.65h3.276V0ZM-8.073-9.9a2.078,2.078,0,0,0-1.633.661,3.058,3.058,0,0,0-.677,1.875h4.6a2.731,2.731,0,0,0-.634-1.875A2.146,2.146,0,0,0-8.073-9.9ZM-7.611.215a6.2,6.2,0,0,1-4.533-1.6,6.06,6.06,0,0,1-1.633-4.533,6.666,6.666,0,0,1,1.509-4.667,5.374,5.374,0,0,1,4.173-1.649,5.29,5.29,0,0,1,3.964,1.45A5.486,5.486,0,0,1-2.712-6.778v1.59h-7.745A3.154,3.154,0,0,0-9.63-3.008a2.91,2.91,0,0,0,2.17.784,9.008,9.008,0,0,0,2.052-.226,10.266,10.266,0,0,0,2.02-.72V-.634A7.693,7.693,0,0,1-5.226.005,11.582,11.582,0,0,1-7.611.215ZM6.655-12.235a5.284,5.284,0,0,1,1.106.1L7.514-9.066a3.753,3.753,0,0,0-.967-.107A3.474,3.474,0,0,0,4.1-8.368a2.912,2.912,0,0,0-.875,2.256V0H-.048V-12.01H2.433l.483,2.02h.161a4.515,4.515,0,0,1,1.509-1.627A3.722,3.722,0,0,1,6.655-12.235ZM9.8-15.114q0-1.6,1.783-1.6t1.783,1.6a1.56,1.56,0,0,1-.446,1.187,1.874,1.874,0,0,1-1.337.424Q9.8-13.5,9.8-15.114ZM13.218,0H9.942V-12.01h3.276Zm6.714,0H16.656V-16.715h3.276Zm6.714,0H23.37V-16.715h3.276ZM37.71,0l-.634-1.633h-.086a4.839,4.839,0,0,1-1.7,1.445,5.5,5.5,0,0,1-2.283.4,3.691,3.691,0,0,1-2.723-.988,3.8,3.8,0,0,1-.994-2.814,3.169,3.169,0,0,1,1.337-2.82,7.75,7.75,0,0,1,4.034-1l2.084-.064V-8a1.633,1.633,0,0,0-1.869-1.826,8.518,8.518,0,0,0-3.384.87l-1.085-2.213A9.763,9.763,0,0,1,35-12.257,5.727,5.727,0,0,1,38.709-11.2,3.891,3.891,0,0,1,40-8V0Zm-.967-5.564-1.268.043a4.059,4.059,0,0,0-2.127.516,1.619,1.619,0,0,0-.7,1.439q0,1.386,1.59,1.386a2.518,2.518,0,0,0,1.821-.655,2.3,2.3,0,0,0,.682-1.74Z" transform="translate(1426.435 1166.95) rotate(-54)"/>
      <path id="Trazado_24236" data-name="Trazado 24236" d="M-62.863.215a3.983,3.983,0,0,1-3.319-1.536h-.172q.172,1.5.172,1.74V5.285h-3.276V-12.01h2.664l.462,1.558h.15a3.79,3.79,0,0,1,3.405-1.783,3.9,3.9,0,0,1,3.33,1.644,7.6,7.6,0,0,1,1.2,4.565,9.015,9.015,0,0,1-.564,3.341A4.686,4.686,0,0,1-60.414-.526,4.115,4.115,0,0,1-62.863.215Zm-.967-9.829a2.069,2.069,0,0,0-1.772.747,4.287,4.287,0,0,0-.58,2.465v.354a5.06,5.06,0,0,0,.575,2.771,2.051,2.051,0,0,0,1.821.838q2.2,0,2.2-3.631a5.185,5.185,0,0,0-.542-2.659A1.852,1.852,0,0,0-63.83-9.614Zm15-2.621a5.284,5.284,0,0,1,1.106.1l-.247,3.072a3.753,3.753,0,0,0-.967-.107,3.474,3.474,0,0,0-2.444.806,2.912,2.912,0,0,0-.875,2.256V0h-3.276V-12.01h2.481l.483,2.02h.161A4.515,4.515,0,0,1-50.9-11.618,3.722,3.722,0,0,1-48.834-12.235Zm5.457,6.209a5.041,5.041,0,0,0,.585,2.7,2.094,2.094,0,0,0,1.907.913A2.06,2.06,0,0,0-39-3.325a5.113,5.113,0,0,0,.575-2.7A4.961,4.961,0,0,0-39-8.7a2.1,2.1,0,0,0-1.9-.892,2.091,2.091,0,0,0-1.891.886A4.956,4.956,0,0,0-43.377-6.026Zm8.3,0A6.454,6.454,0,0,1-36.62-1.439,5.609,5.609,0,0,1-40.928.215a6.026,6.026,0,0,1-3.051-.757,5.039,5.039,0,0,1-2.03-2.175,7.31,7.31,0,0,1-.709-3.309A6.418,6.418,0,0,1-45.182-10.6a5.641,5.641,0,0,1,4.318-1.633,6.06,6.06,0,0,1,3.051.752,5.019,5.019,0,0,1,2.03,2.159A7.242,7.242,0,0,1-35.073-6.026ZM-21.613,0H-24.89V-7.015a3.533,3.533,0,0,0-.435-1.95,1.53,1.53,0,0,0-1.37-.65,1.984,1.984,0,0,0-1.826.924,6.06,6.06,0,0,0-.569,3.04V0h-3.276V-12.01h2.5l.44,1.536h.183a3.329,3.329,0,0,1,1.4-1.294,4.534,4.534,0,0,1,2.095-.467q2.7,0,3.652,1.762h.29a3.245,3.245,0,0,1,1.423-1.3,4.747,4.747,0,0,1,2.122-.462,4.188,4.188,0,0,1,3.088,1.047,4.6,4.6,0,0,1,1.047,3.357V0h-3.287V-7.015a3.533,3.533,0,0,0-.435-1.95,1.53,1.53,0,0,0-1.37-.65,2.043,2.043,0,0,0-1.8.859,4.876,4.876,0,0,0-.6,2.729Zm13.46-6.026a5.041,5.041,0,0,0,.585,2.7,2.094,2.094,0,0,0,1.907.913,2.06,2.06,0,0,0,1.885-.908,5.113,5.113,0,0,0,.575-2.7A4.961,4.961,0,0,0-3.781-8.7a2.1,2.1,0,0,0-1.9-.892,2.091,2.091,0,0,0-1.891.886A4.956,4.956,0,0,0-8.153-6.026Zm8.3,0A6.454,6.454,0,0,1-1.4-1.439,5.609,5.609,0,0,1-5.7.215,6.026,6.026,0,0,1-8.755-.542a5.039,5.039,0,0,1-2.03-2.175,7.31,7.31,0,0,1-.709-3.309A6.418,6.418,0,0,1-9.958-10.6,5.641,5.641,0,0,1-5.64-12.235a6.06,6.06,0,0,1,3.051.752A5.019,5.019,0,0,1-.559-9.324,7.242,7.242,0,0,1,.15-6.026ZM7.734.215Q2.127.215,2.127-5.94a6.566,6.566,0,0,1,1.525-4.678,5.722,5.722,0,0,1,4.372-1.617,8.335,8.335,0,0,1,3.738.816L10.8-8.884q-.773-.312-1.439-.51a4.638,4.638,0,0,0-1.332-.2q-2.557,0-2.557,3.631,0,3.523,2.557,3.523a5.829,5.829,0,0,0,1.751-.252,6.322,6.322,0,0,0,1.611-.79v2.8a5.281,5.281,0,0,1-1.606.7A9.031,9.031,0,0,1,7.734.215Zm6.295-15.329q0-1.6,1.783-1.6t1.783,1.6a1.56,1.56,0,0,1-.446,1.187,1.874,1.874,0,0,1-1.337.424Q14.029-13.5,14.029-15.114ZM17.445,0H14.169V-12.01h3.276Zm6.048-6.026a5.041,5.041,0,0,0,.585,2.7,2.094,2.094,0,0,0,1.907.913,2.06,2.06,0,0,0,1.885-.908,5.113,5.113,0,0,0,.575-2.7,4.961,4.961,0,0,0-.58-2.675,2.1,2.1,0,0,0-1.9-.892,2.091,2.091,0,0,0-1.891.886A4.956,4.956,0,0,0,23.493-6.026Zm8.3,0A6.454,6.454,0,0,1,30.25-1.439,5.609,5.609,0,0,1,25.942.215a6.026,6.026,0,0,1-3.051-.757,5.039,5.039,0,0,1-2.03-2.175,7.31,7.31,0,0,1-.709-3.309A6.418,6.418,0,0,1,21.688-10.6a5.641,5.641,0,0,1,4.318-1.633,6.06,6.06,0,0,1,3.051.752,5.019,5.019,0,0,1,2.03,2.159A7.242,7.242,0,0,1,31.8-6.026ZM45.59,0H42.313V-7.015a3.369,3.369,0,0,0-.462-1.95,1.681,1.681,0,0,0-1.472-.65,2.213,2.213,0,0,0-1.987.918A5.7,5.7,0,0,0,37.78-5.65V0H34.5V-12.01h2.5l.44,1.536h.183a3.462,3.462,0,0,1,1.509-1.316,5.139,5.139,0,0,1,2.186-.446A4.2,4.2,0,0,1,44.5-11.1,4.548,4.548,0,0,1,45.59-7.831Zm8.347-9.9a2.078,2.078,0,0,0-1.633.661,3.058,3.058,0,0,0-.677,1.875h4.6a2.731,2.731,0,0,0-.634-1.875A2.146,2.146,0,0,0,53.937-9.9ZM54.4.215a6.2,6.2,0,0,1-4.533-1.6,6.06,6.06,0,0,1-1.633-4.533,6.666,6.666,0,0,1,1.509-4.667,5.374,5.374,0,0,1,4.173-1.649,5.29,5.29,0,0,1,3.964,1.45A5.486,5.486,0,0,1,59.3-6.778v1.59H51.552a3.154,3.154,0,0,0,.827,2.181,2.91,2.91,0,0,0,2.17.784A9.008,9.008,0,0,0,56.6-2.449a10.266,10.266,0,0,0,2.02-.72V-.634a7.693,7.693,0,0,1-1.837.639A11.582,11.582,0,0,1,54.4.215ZM70.34-3.566A3.307,3.307,0,0,1,69.056-.752a6.343,6.343,0,0,1-3.84.967A12.062,12.062,0,0,1,62.981.038a8.451,8.451,0,0,1-1.729-.521V-3.19a11.421,11.421,0,0,0,2.057.72,8.33,8.33,0,0,0,2.014.29q1.783,0,1.783-1.031a.861.861,0,0,0-.236-.628,3.427,3.427,0,0,0-.816-.548q-.58-.306-1.547-.714a9.717,9.717,0,0,1-2.036-1.074,3.024,3.024,0,0,1-.945-1.133,3.741,3.741,0,0,1-.3-1.574,2.853,2.853,0,0,1,1.241-2.476,6.044,6.044,0,0,1,3.518-.875,9.986,9.986,0,0,1,4.222.945l-.988,2.363q-.9-.387-1.687-.634a5.3,5.3,0,0,0-1.6-.247q-1.45,0-1.45.784a.922.922,0,0,0,.467.763A12.708,12.708,0,0,0,67-7.3a9.507,9.507,0,0,1,2.063,1.063A3.145,3.145,0,0,1,70.028-5.1,3.5,3.5,0,0,1,70.34-3.566Z" transform="matrix(0.208, -0.978, 0.978, 0.208, 1520.145, 1210.439)"/>
      <path id="Trazado_24228" data-name="Trazado 24228" d="M6.778-2.4a7.1,7.1,0,0,0,2.063-.376V-.333A7.354,7.354,0,0,1,5.833.215,3.681,3.681,0,0,1,2.97-.779a4.325,4.325,0,0,1-.9-2.981V-9.55H.5v-1.386l1.8-1.1.945-2.535H5.35v2.557H8.712v2.46H5.35v5.79a1.279,1.279,0,0,0,.392,1.031A1.547,1.547,0,0,0,6.778-2.4ZM14.126,0,9.55-12.01h3.427L15.3-5.167a12.21,12.21,0,0,1,.483,2.46h.064a10.7,10.7,0,0,1,.483-2.46l2.31-6.843h3.427L17.488,0Z" transform="translate(1665.617 756.22) rotate(-66)"/>
      <path id="Trazado_24227" data-name="Trazado 24227" d="M12.472,0H9.2V-7.015a3.533,3.533,0,0,0-.435-1.95,1.53,1.53,0,0,0-1.37-.65,1.984,1.984,0,0,0-1.826.924A6.06,6.06,0,0,0,5-5.65V0H1.719V-12.01h2.5l.44,1.536h.183a3.329,3.329,0,0,1,1.4-1.294,4.534,4.534,0,0,1,2.095-.467q2.7,0,3.652,1.762h.29a3.245,3.245,0,0,1,1.423-1.3,4.747,4.747,0,0,1,2.122-.462,4.188,4.188,0,0,1,3.088,1.047,4.6,4.6,0,0,1,1.047,3.357V0H16.672V-7.015a3.533,3.533,0,0,0-.435-1.95,1.53,1.53,0,0,0-1.37-.65,2.043,2.043,0,0,0-1.8.859,4.876,4.876,0,0,0-.6,2.729ZM30.948,0l-.634-1.633h-.086a4.839,4.839,0,0,1-1.7,1.445,5.5,5.5,0,0,1-2.283.4A3.691,3.691,0,0,1,23.52-.773a3.8,3.8,0,0,1-.994-2.814,3.169,3.169,0,0,1,1.337-2.82,7.75,7.75,0,0,1,4.034-1l2.084-.064V-8a1.633,1.633,0,0,0-1.869-1.826,8.518,8.518,0,0,0-3.384.87l-1.085-2.213a9.763,9.763,0,0,1,4.6-1.085A5.727,5.727,0,0,1,31.947-11.2,3.891,3.891,0,0,1,33.236-8V0Zm-.967-5.564-1.268.043a4.059,4.059,0,0,0-2.127.516,1.619,1.619,0,0,0-.7,1.439q0,1.386,1.59,1.386A2.518,2.518,0,0,0,29.3-2.836a2.3,2.3,0,0,0,.682-1.74Zm13.331-6.671a5.284,5.284,0,0,1,1.106.1l-.247,3.072a3.753,3.753,0,0,0-.967-.107,3.474,3.474,0,0,0-2.444.806,2.912,2.912,0,0,0-.875,2.256V0H36.609V-12.01h2.481l.483,2.02h.161a4.515,4.515,0,0,1,1.509-1.627A3.722,3.722,0,0,1,43.313-12.235Zm6.435,5.7,1.429-1.826,3.362-3.652h3.7L53.464-6.8,58.523,0H54.742L51.283-4.866,49.876-3.738V0H46.6V-16.715h3.276V-9.26L49.7-6.531ZM64.775-9.9a2.078,2.078,0,0,0-1.633.661,3.058,3.058,0,0,0-.677,1.875h4.6a2.731,2.731,0,0,0-.634-1.875A2.146,2.146,0,0,0,64.775-9.9ZM65.237.215a6.2,6.2,0,0,1-4.533-1.6,6.06,6.06,0,0,1-1.633-4.533,6.666,6.666,0,0,1,1.509-4.667,5.374,5.374,0,0,1,4.173-1.649,5.29,5.29,0,0,1,3.964,1.45,5.486,5.486,0,0,1,1.418,4.007v1.59H62.391a3.154,3.154,0,0,0,.827,2.181,2.91,2.91,0,0,0,2.17.784,9.008,9.008,0,0,0,2.052-.226,10.266,10.266,0,0,0,2.02-.72V-.634a7.693,7.693,0,0,1-1.837.639A11.582,11.582,0,0,1,65.237.215ZM77.859-2.4a7.1,7.1,0,0,0,2.063-.376V-.333a7.354,7.354,0,0,1-3.008.548,3.681,3.681,0,0,1-2.863-.994,4.325,4.325,0,0,1-.9-2.981V-9.55H71.586v-1.386l1.8-1.1.945-2.535h2.095v2.557h3.362v2.46H76.431v5.79a1.279,1.279,0,0,0,.392,1.031A1.547,1.547,0,0,0,77.859-2.4ZM82.21-15.114q0-1.6,1.783-1.6t1.783,1.6a1.56,1.56,0,0,1-.446,1.187,1.874,1.874,0,0,1-1.337.424Q82.21-13.5,82.21-15.114ZM85.626,0H82.35V-12.01h3.276Zm14.523,0H96.873V-7.015a3.369,3.369,0,0,0-.462-1.95,1.681,1.681,0,0,0-1.472-.65,2.213,2.213,0,0,0-1.987.918A5.7,5.7,0,0,0,92.34-5.65V0H89.063V-12.01h2.5l.44,1.536h.183A3.462,3.462,0,0,1,93.7-11.79a5.139,5.139,0,0,1,2.186-.446,4.2,4.2,0,0,1,3.18,1.133,4.548,4.548,0,0,1,1.085,3.271Zm13.825-12.01v1.665l-1.88.483a3.277,3.277,0,0,1,.516,1.8,3.643,3.643,0,0,1-1.348,3.013,5.839,5.839,0,0,1-3.744,1.08L106.928-4l-.483-.054a1.09,1.09,0,0,0-.5.859q0,.709,1.8.709h2.041a4.656,4.656,0,0,1,3.013.849A3.033,3.033,0,0,1,113.835.859a3.7,3.7,0,0,1-1.756,3.266,9.147,9.147,0,0,1-5.043,1.16,6.982,6.982,0,0,1-3.84-.875,2.78,2.78,0,0,1-1.327-2.455A2.57,2.57,0,0,1,102.545.14,3.843,3.843,0,0,1,104.532-.9a2.193,2.193,0,0,1-.881-.7,1.672,1.672,0,0,1-.376-1.037,1.68,1.68,0,0,1,.4-1.144,4.6,4.6,0,0,1,1.149-.9,3.224,3.224,0,0,1-1.5-1.311,3.988,3.988,0,0,1-.553-2.127,3.751,3.751,0,0,1,1.278-3.04,5.528,5.528,0,0,1,3.652-1.074,9.348,9.348,0,0,1,1.2.091q.693.091.886.134ZM104.7,1.7a1.187,1.187,0,0,0,.65,1.063,3.576,3.576,0,0,0,1.821.387,6.45,6.45,0,0,0,2.761-.483,1.473,1.473,0,0,0,1-1.321.935.935,0,0,0-.591-.935A4.838,4.838,0,0,0,108.518.15h-1.7a2.57,2.57,0,0,0-1.509.424A1.309,1.309,0,0,0,104.7,1.7ZM105.9-8.078a2.445,2.445,0,0,0,.446,1.547,1.619,1.619,0,0,0,1.359.569,1.586,1.586,0,0,0,1.354-.569,2.511,2.511,0,0,0,.43-1.547q0-2.17-1.783-2.17Q105.9-10.248,105.9-8.078ZM125.469.215a3.9,3.9,0,0,1-3.325-1.644,7.556,7.556,0,0,1-1.208-4.555,7.563,7.563,0,0,1,1.23-4.6,4,4,0,0,1,3.389-1.649,3.918,3.918,0,0,1,3.459,1.762h.107a13.394,13.394,0,0,1-.247-2.4v-3.846h3.287V0h-2.514l-.634-1.558h-.14A3.749,3.749,0,0,1,125.469.215Zm1.149-2.61a2.22,2.22,0,0,0,1.842-.73,4.249,4.249,0,0,0,.639-2.481v-.354a4.911,4.911,0,0,0-.6-2.771,2.214,2.214,0,0,0-1.939-.838,1.923,1.923,0,0,0-1.7.929,4.957,4.957,0,0,0-.607,2.7,4.7,4.7,0,0,0,.612,2.659A2,2,0,0,0,126.618-2.4Zm8.83-12.719q0-1.6,1.783-1.6t1.783,1.6a1.56,1.56,0,0,1-.446,1.187,1.874,1.874,0,0,1-1.337.424Q135.448-13.5,135.448-15.114ZM138.864,0h-3.276V-12.01h3.276ZM149-12.235a5.284,5.284,0,0,1,1.106.1l-.247,3.072a3.753,3.753,0,0,0-.967-.107,3.474,3.474,0,0,0-2.444.806,2.912,2.912,0,0,0-.875,2.256V0H142.3V-12.01h2.481l.483,2.02h.161a4.515,4.515,0,0,1,1.509-1.627A3.722,3.722,0,0,1,149-12.235Zm7.82,2.331a2.078,2.078,0,0,0-1.633.661,3.058,3.058,0,0,0-.677,1.875h4.6a2.731,2.731,0,0,0-.634-1.875A2.146,2.146,0,0,0,156.825-9.9ZM157.287.215a6.2,6.2,0,0,1-4.533-1.6,6.06,6.06,0,0,1-1.633-4.533,6.666,6.666,0,0,1,1.509-4.667,5.374,5.374,0,0,1,4.173-1.649,5.29,5.29,0,0,1,3.964,1.45,5.486,5.486,0,0,1,1.418,4.007v1.59H154.44a3.154,3.154,0,0,0,.827,2.181,2.91,2.91,0,0,0,2.17.784,9.008,9.008,0,0,0,2.052-.226,10.266,10.266,0,0,0,2.02-.72V-.634a7.693,7.693,0,0,1-1.837.639A11.582,11.582,0,0,1,157.287.215Zm12.439,0q-5.607,0-5.607-6.155a6.566,6.566,0,0,1,1.525-4.678,5.722,5.722,0,0,1,4.372-1.617,8.335,8.335,0,0,1,3.738.816l-.967,2.535q-.773-.312-1.439-.51a4.638,4.638,0,0,0-1.332-.2q-2.557,0-2.557,3.631,0,3.523,2.557,3.523a5.829,5.829,0,0,0,1.751-.252,6.322,6.322,0,0,0,1.611-.79v2.8a5.281,5.281,0,0,1-1.606.7A9.031,9.031,0,0,1,169.727.215ZM181.221-2.4a7.1,7.1,0,0,0,2.063-.376V-.333a7.354,7.354,0,0,1-3.008.548,3.681,3.681,0,0,1-2.863-.994,4.325,4.325,0,0,1-.9-2.981V-9.55h-1.568v-1.386l1.8-1.1.945-2.535h2.095v2.557h3.362v2.46h-3.362v5.79a1.279,1.279,0,0,0,.392,1.031A1.547,1.547,0,0,0,181.221-2.4Zm7.1-3.631a5.041,5.041,0,0,0,.585,2.7,2.094,2.094,0,0,0,1.907.913,2.06,2.06,0,0,0,1.885-.908,5.113,5.113,0,0,0,.575-2.7,4.961,4.961,0,0,0-.58-2.675,2.1,2.1,0,0,0-1.9-.892,2.091,2.091,0,0,0-1.891.886A4.956,4.956,0,0,0,188.321-6.026Zm8.3,0a6.454,6.454,0,0,1-1.547,4.587A5.609,5.609,0,0,1,190.771.215a6.026,6.026,0,0,1-3.051-.757,5.039,5.039,0,0,1-2.03-2.175,7.31,7.31,0,0,1-.709-3.309,6.418,6.418,0,0,1,1.536-4.576,5.641,5.641,0,0,1,4.318-1.633,6.06,6.06,0,0,1,3.051.752,5.019,5.019,0,0,1,2.03,2.159A7.242,7.242,0,0,1,196.625-6.026Z" transform="translate(1668.862 879.413) rotate(-42)"/>
      <path id="Trazado_24226" data-name="Trazado 24226" d="M-107.455-10.372v1.438l-1.624.417a2.83,2.83,0,0,1,.445,1.559,3.147,3.147,0,0,1-1.164,2.6,5.043,5.043,0,0,1-3.233.932l-.51-.028-.417-.046a.941.941,0,0,0-.436.742q0,.612,1.559.612h1.763a4.021,4.021,0,0,1,2.6.733,2.62,2.62,0,0,1,.9,2.152,3.192,3.192,0,0,1-1.517,2.82,7.9,7.9,0,0,1-4.356,1,6.03,6.03,0,0,1-3.317-.756,2.4,2.4,0,0,1-1.146-2.12,2.219,2.219,0,0,1,.584-1.568,3.319,3.319,0,0,1,1.716-.9,1.894,1.894,0,0,1-.761-.608,1.444,1.444,0,0,1-.325-.9,1.451,1.451,0,0,1,.343-.988,3.969,3.969,0,0,1,.993-.775,2.784,2.784,0,0,1-1.294-1.132,3.444,3.444,0,0,1-.478-1.837,3.239,3.239,0,0,1,1.1-2.625,4.774,4.774,0,0,1,3.154-.928,8.073,8.073,0,0,1,1.034.079q.6.079.765.116Zm-8.006,11.838a1.025,1.025,0,0,0,.561.918,3.088,3.088,0,0,0,1.573.334,5.57,5.57,0,0,0,2.384-.417,1.272,1.272,0,0,0,.863-1.141.808.808,0,0,0-.51-.807A4.179,4.179,0,0,0-112.168.13h-1.466a2.22,2.22,0,0,0-1.3.366A1.13,1.13,0,0,0-115.461,1.466Zm1.03-8.442a2.112,2.112,0,0,0,.385,1.336,1.4,1.4,0,0,0,1.174.492,1.37,1.37,0,0,0,1.169-.492,2.168,2.168,0,0,0,.371-1.336q0-1.874-1.54-1.874Q-114.431-8.851-114.431-6.977Zm12.979-1.577a1.8,1.8,0,0,0-1.41.571,2.641,2.641,0,0,0-.584,1.619h3.971a2.359,2.359,0,0,0-.547-1.619A1.853,1.853,0,0,0-101.452-8.554Zm.4,8.739A5.353,5.353,0,0,1-104.969-1.2a5.234,5.234,0,0,1-1.41-3.915,5.757,5.757,0,0,1,1.3-4.031,4.641,4.641,0,0,1,3.6-1.424,4.568,4.568,0,0,1,3.423,1.252,4.738,4.738,0,0,1,1.225,3.46v1.373h-6.689A2.724,2.724,0,0,0-102.8-2.6a2.513,2.513,0,0,0,1.874.677,7.78,7.78,0,0,0,1.772-.195,8.866,8.866,0,0,0,1.744-.622V-.547A6.644,6.644,0,0,1-98.994,0,10,10,0,0,1-101.053.186ZM-87.286-3.08A2.856,2.856,0,0,1-88.395-.649a5.478,5.478,0,0,1-3.317.835,10.417,10.417,0,0,1-1.93-.153,7.3,7.3,0,0,1-1.494-.45V-2.755a9.864,9.864,0,0,0,1.777.622,7.194,7.194,0,0,0,1.74.25q1.54,0,1.54-.891a.743.743,0,0,0-.2-.543,2.959,2.959,0,0,0-.705-.473q-.5-.264-1.336-.617a8.392,8.392,0,0,1-1.758-.928,2.611,2.611,0,0,1-.816-.979,3.231,3.231,0,0,1-.255-1.359,2.464,2.464,0,0,1,1.072-2.138,5.22,5.22,0,0,1,3.038-.756A8.624,8.624,0,0,1-87.4-9.75l-.854,2.041q-.779-.334-1.457-.547A4.574,4.574,0,0,0-91.09-8.47q-1.252,0-1.252.677a.8.8,0,0,0,.4.659,10.975,10.975,0,0,0,1.767.826,8.211,8.211,0,0,1,1.781.918,2.716,2.716,0,0,1,.835.983A3.022,3.022,0,0,1-87.286-3.08Zm6.578,1.011a6.134,6.134,0,0,0,1.781-.325V-.288a6.351,6.351,0,0,1-2.6.473A3.179,3.179,0,0,1-84-.673a3.735,3.735,0,0,1-.775-2.574v-5h-1.354v-1.2l1.559-.946.816-2.189h1.809v2.208h2.9v2.125h-2.9v5a1.1,1.1,0,0,0,.339.891A1.336,1.336,0,0,0-80.708-2.069Zm3.757-10.984q0-1.382,1.54-1.382t1.54,1.382a1.348,1.348,0,0,1-.385,1.025,1.618,1.618,0,0,1-1.155.366Q-76.951-11.662-76.951-13.053ZM-74,0h-2.83V-10.372H-74Zm5.223-5.2a4.353,4.353,0,0,0,.506,2.329,1.808,1.808,0,0,0,1.647.789A1.779,1.779,0,0,0-65-2.871,4.416,4.416,0,0,0-64.5-5.2a4.284,4.284,0,0,0-.5-2.31,1.811,1.811,0,0,0-1.642-.77,1.806,1.806,0,0,0-1.633.765A4.28,4.28,0,0,0-68.778-5.2Zm7.171,0a5.574,5.574,0,0,1-1.336,3.961A4.844,4.844,0,0,1-66.662.186,5.2,5.2,0,0,1-69.3-.469a4.352,4.352,0,0,1-1.753-1.879A6.313,6.313,0,0,1-71.663-5.2a5.543,5.543,0,0,1,1.327-3.952,4.872,4.872,0,0,1,3.729-1.41,5.234,5.234,0,0,1,2.635.649,4.335,4.335,0,0,1,1.753,1.865A6.254,6.254,0,0,1-61.606-5.2Zm-6.578-6.309v-.25A26.119,26.119,0,0,0-66-14.556h3.173v.195q-.482.482-1.647,1.433T-66.3-11.513ZM-49.694,0h-2.83V-6.058a2.91,2.91,0,0,0-.4-1.684A1.451,1.451,0,0,0-54.194-8.3a1.911,1.911,0,0,0-1.716.793,4.919,4.919,0,0,0-.529,2.63V0h-2.83V-10.372h2.162l.38,1.327h.158a2.99,2.99,0,0,1,1.3-1.136,4.439,4.439,0,0,1,1.888-.385,3.627,3.627,0,0,1,2.746.979,3.928,3.928,0,0,1,.937,2.825Zm11.133.186a3.369,3.369,0,0,1-2.871-1.419,6.525,6.525,0,0,1-1.044-3.934,6.532,6.532,0,0,1,1.062-3.975,3.45,3.45,0,0,1,2.927-1.424A3.384,3.384,0,0,1-35.5-9.045h.093a11.568,11.568,0,0,1-.213-2.069v-3.321h2.839V0h-2.171L-35.5-1.345h-.121A3.238,3.238,0,0,1-38.561.186Zm.993-2.254A1.917,1.917,0,0,0-35.978-2.7a3.67,3.67,0,0,0,.552-2.143v-.306a4.241,4.241,0,0,0-.515-2.394,1.912,1.912,0,0,0-1.675-.724,1.661,1.661,0,0,0-1.47.8A4.281,4.281,0,0,0-39.61-5.13a4.058,4.058,0,0,0,.529,2.3A1.728,1.728,0,0,0-37.569-2.069Zm12.042-6.485a1.8,1.8,0,0,0-1.41.571,2.641,2.641,0,0,0-.584,1.619h3.971A2.359,2.359,0,0,0-24.1-7.983,1.853,1.853,0,0,0-25.527-8.554Zm.4,8.739A5.353,5.353,0,0,1-29.043-1.2a5.234,5.234,0,0,1-1.41-3.915,5.757,5.757,0,0,1,1.3-4.031,4.641,4.641,0,0,1,3.6-1.424,4.568,4.568,0,0,1,3.423,1.252A4.738,4.738,0,0,1-20.9-5.854v1.373h-6.689A2.724,2.724,0,0,0-26.872-2.6,2.513,2.513,0,0,0-25-1.92a7.78,7.78,0,0,0,1.772-.195,8.866,8.866,0,0,0,1.744-.622V-.547A6.644,6.644,0,0,1-23.068,0,10,10,0,0,1-25.128.186Zm15.679,0q-4.843,0-4.843-5.316a5.67,5.67,0,0,1,1.317-4.04,4.942,4.942,0,0,1,3.776-1.4,7.2,7.2,0,0,1,3.229.705L-6.8-7.672q-.668-.269-1.243-.441A4.006,4.006,0,0,0-9.2-8.285q-2.208,0-2.208,3.136,0,3.043,2.208,3.043a5.034,5.034,0,0,0,1.512-.218,5.46,5.46,0,0,0,1.392-.682V-.584a4.56,4.56,0,0,1-1.387.6A7.8,7.8,0,0,1-9.449.186ZM-1.637-5.2a4.353,4.353,0,0,0,.506,2.329,1.808,1.808,0,0,0,1.647.789,1.779,1.779,0,0,0,1.628-.784,4.416,4.416,0,0,0,.5-2.333,4.284,4.284,0,0,0-.5-2.31A1.811,1.811,0,0,0,.5-8.285a1.806,1.806,0,0,0-1.633.765A4.28,4.28,0,0,0-1.637-5.2Zm7.171,0A5.574,5.574,0,0,1,4.2-1.243,4.844,4.844,0,0,1,.478.186,5.2,5.2,0,0,1-2.157-.469,4.352,4.352,0,0,1-3.91-2.347,6.313,6.313,0,0,1-4.523-5.2,5.543,5.543,0,0,1-3.2-9.157a4.872,4.872,0,0,1,3.729-1.41,5.234,5.234,0,0,1,2.635.649A4.335,4.335,0,0,1,4.922-8.053,6.254,6.254,0,0,1,5.534-5.2ZM17.446,0h-2.83V-6.058a2.91,2.91,0,0,0-.4-1.684A1.451,1.451,0,0,0,12.947-8.3a1.911,1.911,0,0,0-1.716.793A4.919,4.919,0,0,0,10.7-4.88V0H7.872V-10.372h2.162l.38,1.327h.158a2.99,2.99,0,0,1,1.3-1.136,4.439,4.439,0,0,1,1.888-.385,3.627,3.627,0,0,1,2.746.979,3.928,3.928,0,0,1,.937,2.825ZM27.6-3.08A2.856,2.856,0,0,1,26.487-.649,5.478,5.478,0,0,1,23.17.186,10.417,10.417,0,0,1,21.24.032a7.3,7.3,0,0,1-1.494-.45V-2.755a9.864,9.864,0,0,0,1.777.622,7.194,7.194,0,0,0,1.74.25q1.54,0,1.54-.891a.743.743,0,0,0-.2-.543,2.959,2.959,0,0,0-.705-.473q-.5-.264-1.336-.617A8.392,8.392,0,0,1,20.8-5.334a2.611,2.611,0,0,1-.816-.979,3.231,3.231,0,0,1-.255-1.359A2.464,2.464,0,0,1,20.8-9.811a5.22,5.22,0,0,1,3.038-.756,8.624,8.624,0,0,1,3.646.816l-.854,2.041q-.779-.334-1.457-.547a4.574,4.574,0,0,0-1.382-.213q-1.252,0-1.252.677a.8.8,0,0,0,.4.659,10.975,10.975,0,0,0,1.767.826,8.21,8.21,0,0,1,1.781.918,2.716,2.716,0,0,1,.835.983A3.022,3.022,0,0,1,27.6-3.08ZM37.151,0l-.38-1.327h-.148a2.985,2.985,0,0,1-1.29,1.118,4.4,4.4,0,0,1-1.9.394,3.622,3.622,0,0,1-2.755-.979,3.938,3.938,0,0,1-.928-2.816v-6.763h2.83v6.058a2.91,2.91,0,0,0,.4,1.684,1.451,1.451,0,0,0,1.271.561,1.911,1.911,0,0,0,1.716-.793,4.919,4.919,0,0,0,.529-2.63v-4.88h2.83V0ZM51.577,0h-2.83V-6.058a3.052,3.052,0,0,0-.376-1.684A1.322,1.322,0,0,0,47.189-8.3a1.713,1.713,0,0,0-1.577.8A5.233,5.233,0,0,0,45.12-4.88V0h-2.83V-10.372h2.162l.38,1.327h.158A2.875,2.875,0,0,1,46.2-10.163a3.916,3.916,0,0,1,1.809-.4A3.259,3.259,0,0,1,51.16-9.045h.25a2.8,2.8,0,0,1,1.229-1.123,4.1,4.1,0,0,1,1.832-.4,3.617,3.617,0,0,1,2.667.9,3.972,3.972,0,0,1,.9,2.9V0H55.2V-6.058a3.052,3.052,0,0,0-.376-1.684A1.322,1.322,0,0,0,53.646-8.3a1.765,1.765,0,0,0-1.554.742A4.211,4.211,0,0,0,51.577-5.2Zm9.25-13.053q0-1.382,1.54-1.382t1.54,1.382a1.348,1.348,0,0,1-.385,1.025,1.618,1.618,0,0,1-1.155.366Q60.827-11.662,60.827-13.053ZM63.777,0h-2.83V-10.372h2.83ZM70.03.186a3.369,3.369,0,0,1-2.871-1.419,6.525,6.525,0,0,1-1.044-3.934,6.532,6.532,0,0,1,1.062-3.975A3.45,3.45,0,0,1,70.1-10.567a3.384,3.384,0,0,1,2.987,1.521h.093a11.568,11.568,0,0,1-.213-2.069v-3.321H75.81V0H73.639l-.547-1.345h-.121A3.238,3.238,0,0,1,70.03.186Zm.993-2.254A1.917,1.917,0,0,0,72.614-2.7a3.67,3.67,0,0,0,.552-2.143v-.306a4.241,4.241,0,0,0-.515-2.394,1.912,1.912,0,0,0-1.675-.724,1.661,1.661,0,0,0-1.47.8,4.281,4.281,0,0,0-.524,2.333,4.058,4.058,0,0,0,.529,2.3A1.728,1.728,0,0,0,71.023-2.069Zm10-3.136a4.353,4.353,0,0,0,.506,2.329,1.808,1.808,0,0,0,1.647.789A1.779,1.779,0,0,0,84.8-2.871,4.416,4.416,0,0,0,85.3-5.2a4.284,4.284,0,0,0-.5-2.31,1.811,1.811,0,0,0-1.642-.77,1.806,1.806,0,0,0-1.633.765A4.28,4.28,0,0,0,81.024-5.2Zm7.171,0a5.574,5.574,0,0,1-1.336,3.961A4.844,4.844,0,0,1,83.139.186,5.2,5.2,0,0,1,80.5-.469a4.352,4.352,0,0,1-1.753-1.879A6.313,6.313,0,0,1,78.138-5.2a5.543,5.543,0,0,1,1.327-3.952,4.872,4.872,0,0,1,3.729-1.41,5.234,5.234,0,0,1,2.635.649,4.335,4.335,0,0,1,1.753,1.865A6.254,6.254,0,0,1,88.2-5.2Zm8.127-5.362a4.563,4.563,0,0,1,.956.083L97.064-7.83a3.242,3.242,0,0,0-.835-.093,3,3,0,0,0-2.111.7,2.515,2.515,0,0,0-.756,1.948V0h-2.83V-10.372h2.143l.417,1.744h.139a3.9,3.9,0,0,1,1.3-1.406A3.214,3.214,0,0,1,96.322-10.567Zm6.754,2.013a1.8,1.8,0,0,0-1.41.571,2.641,2.641,0,0,0-.584,1.619h3.971a2.359,2.359,0,0,0-.547-1.619A1.853,1.853,0,0,0,103.076-8.554Zm.4,8.739A5.353,5.353,0,0,1,99.56-1.2a5.234,5.234,0,0,1-1.41-3.915,5.757,5.757,0,0,1,1.3-4.031,4.641,4.641,0,0,1,3.6-1.424,4.568,4.568,0,0,1,3.423,1.252,4.738,4.738,0,0,1,1.225,3.46v1.373h-6.689a2.724,2.724,0,0,0,.714,1.883,2.513,2.513,0,0,0,1.874.677,7.78,7.78,0,0,0,1.772-.195,8.866,8.866,0,0,0,1.744-.622V-.547A6.644,6.644,0,0,1,105.534,0,10,10,0,0,1,103.475.186ZM117.242-3.08a2.856,2.856,0,0,1-1.109,2.431,5.478,5.478,0,0,1-3.317.835,10.417,10.417,0,0,1-1.93-.153,7.3,7.3,0,0,1-1.494-.45V-2.755a9.864,9.864,0,0,0,1.777.622,7.194,7.194,0,0,0,1.74.25q1.54,0,1.54-.891a.743.743,0,0,0-.2-.543,2.959,2.959,0,0,0-.705-.473q-.5-.264-1.336-.617a8.392,8.392,0,0,1-1.758-.928,2.611,2.611,0,0,1-.816-.979,3.231,3.231,0,0,1-.255-1.359,2.464,2.464,0,0,1,1.072-2.138,5.22,5.22,0,0,1,3.038-.756,8.624,8.624,0,0,1,3.646.816l-.854,2.041q-.779-.334-1.457-.547a4.574,4.574,0,0,0-1.382-.213q-1.252,0-1.252.677a.8.8,0,0,0,.4.659,10.975,10.975,0,0,0,1.767.826,8.211,8.211,0,0,1,1.781.918,2.716,2.716,0,0,1,.835.983A3.022,3.022,0,0,1,117.242-3.08ZM-59.955,16.8a14.376,14.376,0,0,1,.719-4.6,11.44,11.44,0,0,1,2.073-3.757h2.319a13.359,13.359,0,0,0-1.976,3.934,14.724,14.724,0,0,0-.668,4.407,14.257,14.257,0,0,0,.682,4.393,13.3,13.3,0,0,0,1.944,3.836h-2.3a10.933,10.933,0,0,1-2.078-3.683A14,14,0,0,1-59.955,16.8Zm12.9-3.043h-2.449V22h-2.83V13.752H-53.9V12.389l1.559-.761v-.761a3.4,3.4,0,0,1,.872-2.588,4,4,0,0,1,2.792-.816,7.268,7.268,0,0,1,2.607.436l-.724,2.078a5.274,5.274,0,0,0-1.577-.269,1.021,1.021,0,0,0-.872.357,1.477,1.477,0,0,0-.269.914v.649h2.449Zm1.5-4.806q0-1.382,1.54-1.382t1.54,1.382a1.348,1.348,0,0,1-.385,1.025,1.618,1.618,0,0,1-1.155.366Q-45.556,10.338-45.556,8.947ZM-42.606,22h-2.83V11.628h2.83Zm6.244.186a3.369,3.369,0,0,1-2.871-1.419,6.525,6.525,0,0,1-1.044-3.934,6.532,6.532,0,0,1,1.062-3.975,3.45,3.45,0,0,1,2.927-1.424A3.384,3.384,0,0,1-33.3,12.955h.093a11.568,11.568,0,0,1-.213-2.069V7.564h2.839V22h-2.171l-.547-1.345h-.121A3.238,3.238,0,0,1-36.363,22.186Zm.993-2.254a1.917,1.917,0,0,0,1.591-.631,3.67,3.67,0,0,0,.552-2.143v-.306a4.241,4.241,0,0,0-.515-2.394,1.912,1.912,0,0,0-1.675-.724,1.661,1.661,0,0,0-1.47.8,4.281,4.281,0,0,0-.524,2.333,4.058,4.058,0,0,0,.529,2.3A1.728,1.728,0,0,0-35.37,19.931Zm12.042-6.485a1.8,1.8,0,0,0-1.41.571,2.641,2.641,0,0,0-.584,1.619h3.971a2.359,2.359,0,0,0-.547-1.619A1.853,1.853,0,0,0-23.328,13.446Zm.4,8.739A5.353,5.353,0,0,1-26.844,20.8a5.234,5.234,0,0,1-1.41-3.915,5.757,5.757,0,0,1,1.3-4.031,4.641,4.641,0,0,1,3.6-1.424,4.568,4.568,0,0,1,3.423,1.252,4.738,4.738,0,0,1,1.225,3.46v1.373h-6.689a2.724,2.724,0,0,0,.714,1.883,2.513,2.513,0,0,0,1.874.677,7.78,7.78,0,0,0,1.772-.195,8.866,8.866,0,0,0,1.744-.622v2.189A6.644,6.644,0,0,1-20.869,22,10,10,0,0,1-22.929,22.186ZM-13.568,22H-16.4V7.564h2.83ZM-10.72,8.947q0-1.382,1.54-1.382t1.54,1.382a1.348,1.348,0,0,1-.385,1.025,1.618,1.618,0,0,1-1.155.366Q-10.72,10.338-10.72,8.947ZM-7.77,22H-10.6V11.628h2.83ZM2.417,22H-5.775V20.33L-.969,13.79H-5.488V11.628H2.25v1.837l-4.676,6.374H2.417Zm8.637,0-.547-1.41h-.074a4.179,4.179,0,0,1-1.47,1.248,4.752,4.752,0,0,1-1.971.348,3.188,3.188,0,0,1-2.352-.854A3.278,3.278,0,0,1,3.781,18.9a2.737,2.737,0,0,1,1.155-2.435A6.693,6.693,0,0,1,8.419,15.6l1.8-.056v-.455A1.411,1.411,0,0,0,8.6,13.511a7.356,7.356,0,0,0-2.922.751l-.937-1.911a8.432,8.432,0,0,1,3.971-.937,4.946,4.946,0,0,1,3.2.909,3.36,3.36,0,0,1,1.113,2.765V22Zm-.835-4.806-1.095.037a3.506,3.506,0,0,0-1.837.445,1.4,1.4,0,0,0-.6,1.243q0,1.2,1.373,1.2a2.175,2.175,0,0,0,1.573-.566,1.988,1.988,0,0,0,.589-1.5Zm9.936,4.991q-4.843,0-4.843-5.316a5.67,5.67,0,0,1,1.317-4.04,4.942,4.942,0,0,1,3.776-1.4,7.2,7.2,0,0,1,3.229.705L22.8,14.328q-.668-.269-1.243-.441a4.006,4.006,0,0,0-1.15-.172q-2.208,0-2.208,3.136,0,3.043,2.208,3.043a5.034,5.034,0,0,0,1.512-.218,5.46,5.46,0,0,0,1.392-.682v2.421a4.56,4.56,0,0,1-1.387.6A7.8,7.8,0,0,1,20.155,22.186ZM25.592,8.947q0-1.382,1.54-1.382t1.54,1.382a1.348,1.348,0,0,1-.385,1.025,1.618,1.618,0,0,1-1.155.366Q25.592,10.338,25.592,8.947ZM28.542,22h-2.83V11.628h2.83Zm5.223-5.2a4.353,4.353,0,0,0,.506,2.329,1.808,1.808,0,0,0,1.647.789,1.779,1.779,0,0,0,1.628-.784,4.416,4.416,0,0,0,.5-2.333,4.284,4.284,0,0,0-.5-2.31,2.13,2.13,0,0,0-3.275,0A4.28,4.28,0,0,0,33.765,16.8Zm7.171,0A5.574,5.574,0,0,1,39.6,20.757a4.844,4.844,0,0,1-3.72,1.429,5.2,5.2,0,0,1-2.635-.654,4.352,4.352,0,0,1-1.753-1.879A6.313,6.313,0,0,1,30.88,16.8a5.543,5.543,0,0,1,1.327-3.952,4.872,4.872,0,0,1,3.729-1.41,5.234,5.234,0,0,1,2.635.649,4.335,4.335,0,0,1,1.753,1.865A6.254,6.254,0,0,1,40.936,16.8Zm-6.578-6.309v-.25a26.12,26.12,0,0,0,2.18-2.792h3.173v.195q-.482.482-1.647,1.433t-1.823,1.415ZM52.848,22h-2.83V15.942a2.91,2.91,0,0,0-.4-1.684,1.451,1.451,0,0,0-1.271-.561,1.911,1.911,0,0,0-1.716.793,4.919,4.919,0,0,0-.529,2.63V22h-2.83V11.628h2.162l.38,1.327h.158a2.99,2.99,0,0,1,1.3-1.136,4.439,4.439,0,0,1,1.888-.385,3.627,3.627,0,0,1,2.746.979,3.928,3.928,0,0,1,.937,2.825Zm7.106-5.2a13.98,13.98,0,0,1-.719,4.546,10.874,10.874,0,0,1-2.073,3.665h-2.3A13.394,13.394,0,0,0,56.8,21.179a14.2,14.2,0,0,0,.687-4.4,14.724,14.724,0,0,0-.668-4.407,13.359,13.359,0,0,0-1.976-3.934h2.319a11.381,11.381,0,0,1,2.078,3.771A14.444,14.444,0,0,1,59.955,16.8Z" transform="translate(1789.801 889.934) rotate(-18)"/>
      <path id="Trazado_24225" data-name="Trazado 24225" d="M8.314.215A3.983,3.983,0,0,1,5-1.321H4.823Q5,.183,5,.419V5.285H1.719V-12.01H4.383l.462,1.558H5A3.79,3.79,0,0,1,8.4-12.235a3.9,3.9,0,0,1,3.33,1.644,7.6,7.6,0,0,1,1.2,4.565,9.015,9.015,0,0,1-.564,3.341A4.686,4.686,0,0,1,10.764-.526,4.115,4.115,0,0,1,8.314.215ZM7.348-9.614a2.069,2.069,0,0,0-1.772.747A4.287,4.287,0,0,0,5-6.4v.354A5.06,5.06,0,0,0,5.57-3.276a2.051,2.051,0,0,0,1.821.838q2.2,0,2.2-3.631A5.185,5.185,0,0,0,9.05-8.728,1.852,1.852,0,0,0,7.348-9.614ZM24.148,0l-.44-1.536h-.172A3.457,3.457,0,0,1,22.043-.242a5.1,5.1,0,0,1-2.2.457A4.193,4.193,0,0,1,16.65-.918a4.56,4.56,0,0,1-1.074-3.26V-12.01h3.276V-5a3.369,3.369,0,0,0,.462,1.95,1.681,1.681,0,0,0,1.472.65,2.213,2.213,0,0,0,1.987-.918,5.7,5.7,0,0,0,.612-3.045v-5.65h3.276V0ZM41.186,0H37.909V-7.015a3.369,3.369,0,0,0-.462-1.95,1.681,1.681,0,0,0-1.472-.65,2.213,2.213,0,0,0-1.987.918,5.7,5.7,0,0,0-.612,3.045V0H30.1V-12.01h2.5l.44,1.536h.183a3.462,3.462,0,0,1,1.509-1.316,5.139,5.139,0,0,1,2.186-.446A4.2,4.2,0,0,1,40.1-11.1a4.548,4.548,0,0,1,1.085,3.271Zm8.433-2.4a7.1,7.1,0,0,0,2.063-.376V-.333a7.354,7.354,0,0,1-3.008.548A3.681,3.681,0,0,1,45.81-.779a4.325,4.325,0,0,1-.9-2.981V-9.55H43.345v-1.386l1.8-1.1.945-2.535h2.095v2.557h3.362v2.46H48.189v5.79a1.279,1.279,0,0,0,.392,1.031A1.547,1.547,0,0,0,49.618-2.4Zm7.1-3.631a5.041,5.041,0,0,0,.585,2.7,2.094,2.094,0,0,0,1.907.913A2.06,2.06,0,0,0,61.1-3.325a5.113,5.113,0,0,0,.575-2.7,4.961,4.961,0,0,0-.58-2.675,2.1,2.1,0,0,0-1.9-.892,2.091,2.091,0,0,0-1.891.886A4.956,4.956,0,0,0,56.719-6.026Zm8.3,0a6.454,6.454,0,0,1-1.547,4.587A5.609,5.609,0,0,1,59.168.215a6.026,6.026,0,0,1-3.051-.757,5.039,5.039,0,0,1-2.03-2.175,7.31,7.31,0,0,1-.709-3.309A6.418,6.418,0,0,1,54.914-10.6a5.641,5.641,0,0,1,4.318-1.633,6.06,6.06,0,0,1,3.051.752,5.019,5.019,0,0,1,2.03,2.159A7.242,7.242,0,0,1,65.022-6.026ZM77.247.215a3.9,3.9,0,0,1-3.325-1.644,7.556,7.556,0,0,1-1.208-4.555,7.563,7.563,0,0,1,1.23-4.6,4,4,0,0,1,3.389-1.649,3.918,3.918,0,0,1,3.459,1.762H80.9a13.4,13.4,0,0,1-.247-2.4v-3.846h3.287V0H81.426l-.634-1.558h-.14A3.749,3.749,0,0,1,77.247.215ZM78.4-2.4a2.22,2.22,0,0,0,1.842-.73,4.249,4.249,0,0,0,.639-2.481v-.354a4.911,4.911,0,0,0-.6-2.771,2.214,2.214,0,0,0-1.939-.838,1.923,1.923,0,0,0-1.7.929,4.957,4.957,0,0,0-.607,2.7,4.7,4.7,0,0,0,.612,2.659A2,2,0,0,0,78.4-2.4ZM92.34-9.9a2.078,2.078,0,0,0-1.633.661,3.058,3.058,0,0,0-.677,1.875h4.6a2.731,2.731,0,0,0-.634-1.875A2.146,2.146,0,0,0,92.34-9.9ZM92.8.215a6.2,6.2,0,0,1-4.533-1.6,6.06,6.06,0,0,1-1.633-4.533,6.666,6.666,0,0,1,1.509-4.667,5.374,5.374,0,0,1,4.173-1.649,5.29,5.29,0,0,1,3.964,1.45A5.486,5.486,0,0,1,97.7-6.778v1.59H89.955a3.154,3.154,0,0,0,.827,2.181,2.91,2.91,0,0,0,2.17.784A9.008,9.008,0,0,0,95-2.449a10.266,10.266,0,0,0,2.02-.72V-.634a7.693,7.693,0,0,1-1.837.639A11.582,11.582,0,0,1,92.8.215ZM108.937,0,104.36-12.01h3.427l2.32,6.843a12.21,12.21,0,0,1,.483,2.46h.064a10.7,10.7,0,0,1,.483-2.46l2.31-6.843h3.427L112.3,0Zm14.631-9.9a2.078,2.078,0,0,0-1.633.661,3.058,3.058,0,0,0-.677,1.875h4.6a2.731,2.731,0,0,0-.634-1.875A2.146,2.146,0,0,0,123.567-9.9ZM124.029.215a6.2,6.2,0,0,1-4.533-1.6,6.06,6.06,0,0,1-1.633-4.533,6.666,6.666,0,0,1,1.509-4.667,5.374,5.374,0,0,1,4.173-1.649,5.29,5.29,0,0,1,3.964,1.45,5.486,5.486,0,0,1,1.418,4.007v1.59h-7.745a3.154,3.154,0,0,0,.827,2.181,2.91,2.91,0,0,0,2.17.784,9.008,9.008,0,0,0,2.052-.226,10.266,10.266,0,0,0,2.02-.72V-.634a7.693,7.693,0,0,1-1.837.639A11.582,11.582,0,0,1,124.029.215ZM142.678,0H139.4V-7.015a3.369,3.369,0,0,0-.462-1.95,1.681,1.681,0,0,0-1.472-.65,2.213,2.213,0,0,0-1.987.918,5.7,5.7,0,0,0-.612,3.045V0h-3.276V-12.01h2.5l.44,1.536h.183a3.462,3.462,0,0,1,1.509-1.316,5.139,5.139,0,0,1,2.186-.446,4.2,4.2,0,0,1,3.18,1.133,4.548,4.548,0,0,1,1.085,3.271Zm8.433-2.4a7.1,7.1,0,0,0,2.063-.376V-.333a7.354,7.354,0,0,1-3.008.548A3.681,3.681,0,0,1,147.3-.779a4.325,4.325,0,0,1-.9-2.981V-9.55h-1.568v-1.386l1.8-1.1.945-2.535h2.095v2.557h3.362v2.46h-3.362v5.79a1.279,1.279,0,0,0,.392,1.031A1.547,1.547,0,0,0,151.11-2.4ZM163.228,0l-.634-1.633h-.086a4.839,4.839,0,0,1-1.7,1.445,5.5,5.5,0,0,1-2.283.4A3.691,3.691,0,0,1,155.8-.773a3.8,3.8,0,0,1-.994-2.814,3.169,3.169,0,0,1,1.337-2.82,7.749,7.749,0,0,1,4.034-1l2.084-.064V-8a1.633,1.633,0,0,0-1.869-1.826,8.518,8.518,0,0,0-3.384.87l-1.085-2.213a9.763,9.763,0,0,1,4.6-1.085,5.727,5.727,0,0,1,3.706,1.053A3.891,3.891,0,0,1,165.516-8V0Zm-.967-5.564-1.268.043a4.059,4.059,0,0,0-2.127.516,1.619,1.619,0,0,0-.7,1.439q0,1.386,1.59,1.386a2.518,2.518,0,0,0,1.821-.655,2.3,2.3,0,0,0,.682-1.74Z" transform="translate(1715.937 984.517) rotate(6)"/>
      <path id="Trazado_24224" data-name="Trazado 24224" d="M8.314.215A3.983,3.983,0,0,1,5-1.321H4.823Q5,.183,5,.419V5.285H1.719V-12.01H4.383l.462,1.558H5A3.79,3.79,0,0,1,8.4-12.235a3.9,3.9,0,0,1,3.33,1.644,7.6,7.6,0,0,1,1.2,4.565,9.015,9.015,0,0,1-.564,3.341A4.686,4.686,0,0,1,10.764-.526,4.115,4.115,0,0,1,8.314.215ZM7.348-9.614a2.069,2.069,0,0,0-1.772.747A4.287,4.287,0,0,0,5-6.4v.354A5.06,5.06,0,0,0,5.57-3.276a2.051,2.051,0,0,0,1.821.838q2.2,0,2.2-3.631A5.185,5.185,0,0,0,9.05-8.728,1.852,1.852,0,0,0,7.348-9.614ZM23.268,0l-.634-1.633h-.086a4.839,4.839,0,0,1-1.7,1.445,5.5,5.5,0,0,1-2.283.4,3.691,3.691,0,0,1-2.723-.988,3.8,3.8,0,0,1-.994-2.814,3.169,3.169,0,0,1,1.337-2.82,7.75,7.75,0,0,1,4.034-1L22.3-7.477V-8a1.633,1.633,0,0,0-1.869-1.826,8.518,8.518,0,0,0-3.384.87l-1.085-2.213a9.763,9.763,0,0,1,4.6-1.085A5.727,5.727,0,0,1,24.267-11.2,3.891,3.891,0,0,1,25.556-8V0ZM22.3-5.564l-1.268.043a4.059,4.059,0,0,0-2.127.516,1.619,1.619,0,0,0-.7,1.439q0,1.386,1.59,1.386a2.518,2.518,0,0,0,1.821-.655,2.3,2.3,0,0,0,.682-1.74ZM33.988-2.4a7.1,7.1,0,0,0,2.063-.376V-.333a7.354,7.354,0,0,1-3.008.548A3.681,3.681,0,0,1,30.18-.779a4.325,4.325,0,0,1-.9-2.981V-9.55H27.715v-1.386l1.8-1.1.945-2.535H32.56v2.557h3.362v2.46H32.56v5.79a1.279,1.279,0,0,0,.392,1.031A1.547,1.547,0,0,0,33.988-2.4Zm11.193-9.84a5.284,5.284,0,0,1,1.106.1l-.247,3.072a3.753,3.753,0,0,0-.967-.107,3.474,3.474,0,0,0-2.444.806,2.912,2.912,0,0,0-.875,2.256V0H38.479V-12.01H40.96l.483,2.02H41.6a4.515,4.515,0,0,1,1.509-1.627A3.722,3.722,0,0,1,45.182-12.235Zm5.457,6.209a5.041,5.041,0,0,0,.585,2.7,2.094,2.094,0,0,0,1.907.913,2.06,2.06,0,0,0,1.885-.908,5.113,5.113,0,0,0,.575-2.7,4.961,4.961,0,0,0-.58-2.675,2.1,2.1,0,0,0-1.9-.892,2.091,2.091,0,0,0-1.891.886A4.956,4.956,0,0,0,50.639-6.026Zm8.3,0A6.454,6.454,0,0,1,57.4-1.439,5.609,5.609,0,0,1,53.088.215a6.026,6.026,0,0,1-3.051-.757,5.039,5.039,0,0,1-2.03-2.175A7.31,7.31,0,0,1,47.3-6.026,6.418,6.418,0,0,1,48.834-10.6a5.641,5.641,0,0,1,4.318-1.633,6.06,6.06,0,0,1,3.051.752,5.019,5.019,0,0,1,2.03,2.159A7.242,7.242,0,0,1,58.942-6.026ZM66.526.215q-5.607,0-5.607-6.155a6.566,6.566,0,0,1,1.525-4.678,5.722,5.722,0,0,1,4.372-1.617,8.335,8.335,0,0,1,3.738.816l-.967,2.535q-.773-.312-1.439-.51a4.638,4.638,0,0,0-1.332-.2q-2.557,0-2.557,3.631,0,3.523,2.557,3.523a5.829,5.829,0,0,0,1.751-.252,6.322,6.322,0,0,0,1.611-.79v2.8a5.281,5.281,0,0,1-1.606.7A9.031,9.031,0,0,1,66.526.215Zm6.295-15.329q0-1.6,1.783-1.6t1.783,1.6a1.56,1.56,0,0,1-.446,1.187A1.874,1.874,0,0,1,74.6-13.5Q72.821-13.5,72.821-15.114ZM76.237,0H72.961V-12.01h3.276ZM90.761,0H87.484V-7.015a3.369,3.369,0,0,0-.462-1.95,1.681,1.681,0,0,0-1.472-.65,2.213,2.213,0,0,0-1.987.918,5.7,5.7,0,0,0-.612,3.045V0H79.675V-12.01h2.5l.44,1.536H82.8A3.462,3.462,0,0,1,84.31-11.79a5.139,5.139,0,0,1,2.186-.446,4.2,4.2,0,0,1,3.18,1.133,4.548,4.548,0,0,1,1.085,3.271Zm3.233-15.114q0-1.6,1.783-1.6t1.783,1.6a1.56,1.56,0,0,1-.446,1.187,1.874,1.874,0,0,1-1.337.424Q93.994-13.5,93.994-15.114ZM97.41,0H94.134V-12.01H97.41Zm6.048-6.026a5.041,5.041,0,0,0,.585,2.7,2.094,2.094,0,0,0,1.907.913,2.06,2.06,0,0,0,1.885-.908,5.113,5.113,0,0,0,.575-2.7,4.961,4.961,0,0,0-.58-2.675,2.1,2.1,0,0,0-1.9-.892,2.091,2.091,0,0,0-1.891.886A4.956,4.956,0,0,0,103.458-6.026Zm8.3,0a6.454,6.454,0,0,1-1.547,4.587A5.609,5.609,0,0,1,105.907.215a6.026,6.026,0,0,1-3.051-.757,5.039,5.039,0,0,1-2.03-2.175,7.31,7.31,0,0,1-.709-3.309,6.418,6.418,0,0,1,1.536-4.576,5.641,5.641,0,0,1,4.318-1.633,6.06,6.06,0,0,1,3.051.752,5.019,5.019,0,0,1,2.03,2.159A7.242,7.242,0,0,1,111.762-6.026Zm11.086,2.46a3.307,3.307,0,0,1-1.284,2.814,6.343,6.343,0,0,1-3.84.967,12.062,12.062,0,0,1-2.234-.177,8.452,8.452,0,0,1-1.729-.521V-3.19a11.422,11.422,0,0,0,2.057.72,8.33,8.33,0,0,0,2.014.29q1.783,0,1.783-1.031a.861.861,0,0,0-.236-.628,3.427,3.427,0,0,0-.816-.548q-.58-.306-1.547-.714a9.717,9.717,0,0,1-2.036-1.074,3.024,3.024,0,0,1-.945-1.133,3.741,3.741,0,0,1-.3-1.574,2.853,2.853,0,0,1,1.241-2.476,6.044,6.044,0,0,1,3.518-.875,9.986,9.986,0,0,1,4.222.945l-.988,2.363q-.9-.387-1.687-.634a5.3,5.3,0,0,0-1.6-.247q-1.45,0-1.45.784a.922.922,0,0,0,.467.763,12.708,12.708,0,0,0,2.046.956,9.507,9.507,0,0,1,2.063,1.063,3.145,3.145,0,0,1,.967,1.139A3.5,3.5,0,0,1,122.848-3.566Z" transform="translate(1715.814 1055.044) rotate(30)"/>
      <path id="Trazado_24223" data-name="Trazado 24223" d="M8.422-12.235a5.284,5.284,0,0,1,1.106.1L9.281-9.066a3.753,3.753,0,0,0-.967-.107,3.474,3.474,0,0,0-2.444.806A2.912,2.912,0,0,0,5-6.112V0H1.719V-12.01H4.2l.483,2.02h.161a4.515,4.515,0,0,1,1.509-1.627A3.722,3.722,0,0,1,8.422-12.235ZM16.242-9.9a2.078,2.078,0,0,0-1.633.661,3.058,3.058,0,0,0-.677,1.875h4.6A2.731,2.731,0,0,0,17.9-9.244,2.146,2.146,0,0,0,16.242-9.9ZM16.7.215a6.2,6.2,0,0,1-4.533-1.6,6.06,6.06,0,0,1-1.633-4.533,6.666,6.666,0,0,1,1.509-4.667,5.374,5.374,0,0,1,4.173-1.649,5.29,5.29,0,0,1,3.964,1.45A5.486,5.486,0,0,1,21.6-6.778v1.59H13.857a3.154,3.154,0,0,0,.827,2.181,2.91,2.91,0,0,0,2.17.784,9.008,9.008,0,0,0,2.052-.226,10.266,10.266,0,0,0,2.02-.72V-.634a7.693,7.693,0,0,1-1.837.639A11.582,11.582,0,0,1,16.7.215ZM27.543,0H24.267V-16.715h3.276ZM38.607,0l-.634-1.633h-.086a4.839,4.839,0,0,1-1.7,1.445,5.5,5.5,0,0,1-2.283.4,3.691,3.691,0,0,1-2.723-.988,3.8,3.8,0,0,1-.994-2.814,3.169,3.169,0,0,1,1.337-2.82,7.75,7.75,0,0,1,4.034-1l2.084-.064V-8a1.633,1.633,0,0,0-1.869-1.826,8.518,8.518,0,0,0-3.384.87L31.3-11.172a9.763,9.763,0,0,1,4.6-1.085A5.727,5.727,0,0,1,39.606-11.2,3.891,3.891,0,0,1,40.9-8V0Zm-.967-5.564-1.268.043a4.059,4.059,0,0,0-2.127.516,1.619,1.619,0,0,0-.7,1.439q0,1.386,1.59,1.386a2.518,2.518,0,0,0,1.821-.655,2.3,2.3,0,0,0,.682-1.74ZM49.146.215q-5.607,0-5.607-6.155a6.566,6.566,0,0,1,1.525-4.678,5.722,5.722,0,0,1,4.372-1.617,8.335,8.335,0,0,1,3.738.816l-.967,2.535q-.773-.312-1.439-.51a4.638,4.638,0,0,0-1.332-.2q-2.557,0-2.557,3.631,0,3.523,2.557,3.523a5.829,5.829,0,0,0,1.751-.252A6.322,6.322,0,0,0,52.8-3.48v2.8a5.281,5.281,0,0,1-1.606.7A9.031,9.031,0,0,1,49.146.215ZM55.44-15.114q0-1.6,1.783-1.6t1.783,1.6a1.56,1.56,0,0,1-.446,1.187,1.874,1.874,0,0,1-1.337.424Q55.44-13.5,55.44-15.114ZM58.856,0H55.58V-12.01h3.276ZM64.9-6.026a5.041,5.041,0,0,0,.585,2.7,2.094,2.094,0,0,0,1.907.913,2.06,2.06,0,0,0,1.885-.908,5.113,5.113,0,0,0,.575-2.7,4.961,4.961,0,0,0-.58-2.675,2.1,2.1,0,0,0-1.9-.892,2.091,2.091,0,0,0-1.891.886A4.956,4.956,0,0,0,64.9-6.026Zm8.3,0a6.454,6.454,0,0,1-1.547,4.587A5.609,5.609,0,0,1,67.354.215,6.026,6.026,0,0,1,64.3-.542a5.039,5.039,0,0,1-2.03-2.175,7.31,7.31,0,0,1-.709-3.309A6.418,6.418,0,0,1,63.1-10.6a5.641,5.641,0,0,1,4.318-1.633,6.06,6.06,0,0,1,3.051.752A5.019,5.019,0,0,1,72.5-9.324,7.242,7.242,0,0,1,73.208-6.026ZM87,0H83.725V-7.015a3.369,3.369,0,0,0-.462-1.95,1.681,1.681,0,0,0-1.472-.65A2.213,2.213,0,0,0,79.8-8.7a5.7,5.7,0,0,0-.612,3.045V0H75.915V-12.01h2.5l.44,1.536h.183A3.462,3.462,0,0,1,80.55-11.79a5.139,5.139,0,0,1,2.186-.446,4.2,4.2,0,0,1,3.18,1.133A4.548,4.548,0,0,1,87-7.831Zm8.347-9.9a2.078,2.078,0,0,0-1.633.661,3.058,3.058,0,0,0-.677,1.875h4.6A2.731,2.731,0,0,0,97-9.244,2.146,2.146,0,0,0,95.348-9.9ZM95.81.215a6.2,6.2,0,0,1-4.533-1.6,6.06,6.06,0,0,1-1.633-4.533,6.666,6.666,0,0,1,1.509-4.667,5.374,5.374,0,0,1,4.173-1.649,5.29,5.29,0,0,1,3.964,1.45,5.486,5.486,0,0,1,1.418,4.007v1.59H92.963a3.154,3.154,0,0,0,.827,2.181,2.91,2.91,0,0,0,2.17.784,9.008,9.008,0,0,0,2.052-.226,10.266,10.266,0,0,0,2.02-.72V-.634a7.693,7.693,0,0,1-1.837.639A11.582,11.582,0,0,1,95.81.215Zm15.941-3.781a3.307,3.307,0,0,1-1.284,2.814,6.343,6.343,0,0,1-3.84.967,12.062,12.062,0,0,1-2.234-.177,8.452,8.452,0,0,1-1.729-.521V-3.19a11.422,11.422,0,0,0,2.057.72,8.33,8.33,0,0,0,2.014.29q1.783,0,1.783-1.031a.861.861,0,0,0-.236-.628,3.427,3.427,0,0,0-.816-.548q-.58-.306-1.547-.714a9.717,9.717,0,0,1-2.036-1.074,3.024,3.024,0,0,1-.945-1.133,3.741,3.741,0,0,1-.3-1.574,2.853,2.853,0,0,1,1.241-2.476,6.044,6.044,0,0,1,3.518-.875,9.986,9.986,0,0,1,4.222.945l-.988,2.363q-.9-.387-1.687-.634a5.3,5.3,0,0,0-1.6-.247q-1.45,0-1.45.784a.922.922,0,0,0,.467.763,12.708,12.708,0,0,0,2.046.956,9.507,9.507,0,0,1,2.063,1.063,3.145,3.145,0,0,1,.967,1.139A3.5,3.5,0,0,1,111.751-3.566ZM126.618.215A3.983,3.983,0,0,1,123.3-1.321h-.172q.172,1.5.172,1.74V5.285h-3.276V-12.01h2.664l.462,1.558h.15a3.79,3.79,0,0,1,3.405-1.783,3.9,3.9,0,0,1,3.33,1.644,7.6,7.6,0,0,1,1.2,4.565,9.015,9.015,0,0,1-.564,3.341,4.686,4.686,0,0,1-1.606,2.159A4.115,4.115,0,0,1,126.618.215Zm-.967-9.829a2.069,2.069,0,0,0-1.772.747A4.287,4.287,0,0,0,123.3-6.4v.354a5.06,5.06,0,0,0,.575,2.771,2.051,2.051,0,0,0,1.821.838q2.2,0,2.2-3.631a5.185,5.185,0,0,0-.542-2.659A1.852,1.852,0,0,0,125.651-9.614ZM142.452,0l-.44-1.536h-.172a3.457,3.457,0,0,1-1.493,1.294,5.1,5.1,0,0,1-2.2.457,4.193,4.193,0,0,1-3.19-1.133,4.56,4.56,0,0,1-1.074-3.26V-12.01h3.276V-5a3.369,3.369,0,0,0,.462,1.95,1.681,1.681,0,0,0,1.472.65,2.213,2.213,0,0,0,1.987-.918,5.7,5.7,0,0,0,.612-3.045v-5.65h3.276V0Zm-4.877-13.331v-.29a30.244,30.244,0,0,0,2.524-3.233h3.674v.226q-.559.559-1.907,1.66t-2.111,1.638Zm17.51,1.1a3.885,3.885,0,0,1,3.33,1.66,7.615,7.615,0,0,1,1.2,4.549,7.482,7.482,0,0,1-1.241,4.608A4.016,4.016,0,0,1,155,.215a3.983,3.983,0,0,1-3.319-1.536h-.226L150.906,0h-2.5V-16.715h3.276v3.889q0,.741-.129,2.374h.129A3.79,3.79,0,0,1,155.085-12.235Zm-1.053,2.621a2.069,2.069,0,0,0-1.772.747,4.287,4.287,0,0,0-.58,2.465v.354a5.06,5.06,0,0,0,.575,2.771,2.051,2.051,0,0,0,1.821.838,1.827,1.827,0,0,0,1.606-.929,5.03,5.03,0,0,0,.6-2.7,4.765,4.765,0,0,0-.6-2.659A1.886,1.886,0,0,0,154.032-9.614ZM165.6,0h-3.276V-16.715H165.6Zm3.3-15.114q0-1.6,1.783-1.6t1.783,1.6a1.56,1.56,0,0,1-.446,1.187,1.874,1.874,0,0,1-1.337.424Q168.9-13.5,168.9-15.114ZM172.315,0h-3.276V-12.01h3.276Zm8.314.215q-5.607,0-5.607-6.155a6.566,6.566,0,0,1,1.525-4.678,5.722,5.722,0,0,1,4.372-1.617,8.335,8.335,0,0,1,3.738.816l-.967,2.535q-.773-.312-1.439-.51a4.638,4.638,0,0,0-1.332-.2q-2.557,0-2.557,3.631,0,3.523,2.557,3.523a5.829,5.829,0,0,0,1.751-.252,6.322,6.322,0,0,0,1.611-.79v2.8a5.281,5.281,0,0,1-1.606.7A9.031,9.031,0,0,1,180.63.215ZM194.691,0l-.634-1.633h-.086a4.839,4.839,0,0,1-1.7,1.445,5.5,5.5,0,0,1-2.283.4,3.691,3.691,0,0,1-2.723-.988,3.8,3.8,0,0,1-.994-2.814,3.169,3.169,0,0,1,1.337-2.82,7.749,7.749,0,0,1,4.034-1l2.084-.064V-8a1.633,1.633,0,0,0-1.869-1.826,8.518,8.518,0,0,0-3.384.87l-1.085-2.213a9.763,9.763,0,0,1,4.6-1.085A5.727,5.727,0,0,1,195.69-11.2,3.891,3.891,0,0,1,196.979-8V0Zm-.967-5.564-1.268.043a4.059,4.059,0,0,0-2.127.516,1.619,1.619,0,0,0-.7,1.439q0,1.386,1.59,1.386a2.518,2.518,0,0,0,1.821-.655,2.3,2.3,0,0,0,.682-1.74Zm15.007,2a3.307,3.307,0,0,1-1.284,2.814,6.343,6.343,0,0,1-3.84.967,12.062,12.062,0,0,1-2.234-.177,8.451,8.451,0,0,1-1.729-.521V-3.19a11.421,11.421,0,0,0,2.057.72,8.33,8.33,0,0,0,2.014.29q1.783,0,1.783-1.031a.861.861,0,0,0-.236-.628,3.426,3.426,0,0,0-.816-.548q-.58-.306-1.547-.714a9.717,9.717,0,0,1-2.036-1.074,3.024,3.024,0,0,1-.945-1.133,3.741,3.741,0,0,1-.3-1.574,2.853,2.853,0,0,1,1.241-2.476,6.044,6.044,0,0,1,3.518-.875,9.986,9.986,0,0,1,4.222.945l-.988,2.363q-.9-.387-1.687-.634a5.3,5.3,0,0,0-1.6-.247q-1.45,0-1.45.784a.922.922,0,0,0,.467.763,12.708,12.708,0,0,0,2.046.956,9.507,9.507,0,0,1,2.063,1.063A3.145,3.145,0,0,1,208.42-5.1,3.5,3.5,0,0,1,208.731-3.566Z" transform="translate(1638.171 1068.828) rotate(54)"/>
      <path id="Trazado_24237" data-name="Trazado 24237" d="M8.422-12.235a5.284,5.284,0,0,1,1.106.1L9.281-9.066a3.753,3.753,0,0,0-.967-.107,3.474,3.474,0,0,0-2.444.806A2.912,2.912,0,0,0,5-6.112V0H1.719V-12.01H4.2l.483,2.02h.161a4.515,4.515,0,0,1,1.509-1.627A3.722,3.722,0,0,1,8.422-12.235ZM18.9,0l-.634-1.633h-.086a4.839,4.839,0,0,1-1.7,1.445,5.5,5.5,0,0,1-2.283.4,3.691,3.691,0,0,1-2.723-.988,3.8,3.8,0,0,1-.994-2.814,3.169,3.169,0,0,1,1.337-2.82,7.75,7.75,0,0,1,4.034-1l2.084-.064V-8A1.633,1.633,0,0,0,16.06-9.829a8.518,8.518,0,0,0-3.384.87l-1.085-2.213a9.763,9.763,0,0,1,4.6-1.085A5.727,5.727,0,0,1,19.895-11.2,3.891,3.891,0,0,1,21.184-8V0Zm-.967-5.564-1.268.043a4.059,4.059,0,0,0-2.127.516,1.619,1.619,0,0,0-.7,1.439q0,1.386,1.59,1.386a2.518,2.518,0,0,0,1.821-.655,2.3,2.3,0,0,0,.682-1.74ZM28.359.215a3.9,3.9,0,0,1-3.325-1.644,7.556,7.556,0,0,1-1.208-4.555,7.563,7.563,0,0,1,1.23-4.6,4,4,0,0,1,3.389-1.649A3.918,3.918,0,0,1,31.9-10.474h.107a13.394,13.394,0,0,1-.247-2.4v-3.846h3.287V0H32.538L31.9-1.558h-.14A3.749,3.749,0,0,1,28.359.215ZM29.509-2.4a2.22,2.22,0,0,0,1.842-.73,4.249,4.249,0,0,0,.639-2.481v-.354a4.911,4.911,0,0,0-.6-2.771,2.214,2.214,0,0,0-1.939-.838,1.923,1.923,0,0,0-1.7.929,4.957,4.957,0,0,0-.607,2.7,4.7,4.7,0,0,0,.612,2.659A2,2,0,0,0,29.509-2.4Zm8.83-12.719q0-1.6,1.783-1.6t1.783,1.6a1.56,1.56,0,0,1-.446,1.187,1.874,1.874,0,0,1-1.337.424Q38.339-13.5,38.339-15.114ZM41.755,0H38.479V-12.01h3.276ZM47.8-6.026a5.041,5.041,0,0,0,.585,2.7,2.094,2.094,0,0,0,1.907.913,2.06,2.06,0,0,0,1.885-.908,5.113,5.113,0,0,0,.575-2.7,4.961,4.961,0,0,0-.58-2.675,2.1,2.1,0,0,0-1.9-.892,2.091,2.091,0,0,0-1.891.886A4.956,4.956,0,0,0,47.8-6.026Zm8.3,0A6.454,6.454,0,0,1,54.56-1.439,5.609,5.609,0,0,1,50.252.215,6.026,6.026,0,0,1,47.2-.542a5.039,5.039,0,0,1-2.03-2.175,7.31,7.31,0,0,1-.709-3.309A6.418,6.418,0,0,1,46-10.6a5.641,5.641,0,0,1,4.318-1.633,6.06,6.06,0,0,1,3.051.752A5.019,5.019,0,0,1,55.4-9.324,7.242,7.242,0,0,1,56.106-6.026Z" transform="matrix(0.208, 0.978, -0.978, 0.208, 1607.222, 1171.074)"/>
    </g>
  </g>
</svg>
