<svg xmlns="http://www.w3.org/2000/svg" xmlns:xlink="http://www.w3.org/1999/xlink" width="338.408" height="274.356" viewBox="0 0 338.408 274.356">
  <defs>
    <linearGradient id="linear-gradient" y1="0.5" x2="1" y2="0.5" gradientUnits="objectBoundingBox">
      <stop offset="0" stop-color="#fff" stop-opacity="0.302"/>
      <stop offset="1" stop-color="#fff" stop-opacity="0"/>
    </linearGradient>
  </defs>
  <g id="Grupo_14325" data-name="Grupo 14325" transform="translate(-38.701 -104)">
    <path id="Trazado_23486" data-name="Trazado 23486" d="M379.391,233.27c-12.66,62.289-77.553,120.743-153.857,120.719-70.9-.022-140.3-52.9-153.857-120.719C61.507,182.379,81.7,117.577,115.9,108.494c35.662-9.471,53.027,62.9,115.418,71.279,60.349,8.108,96.954-50.945,129.1-32.311C384.648,161.506,384.7,207.138,379.391,233.27Z" transform="translate(-6.783 -0.814)" fill="#f5e3ff"/>
    <g id="Grupo_14307" data-name="Grupo 14307" transform="translate(165.7 239.795)">
      <g id="Grupo_14305" data-name="Grupo 14305" transform="translate(0 87.372)">
        <path id="Trazado_23487" data-name="Trazado 23487" d="M250.39,414.1a16.9,16.9,0,0,1,2.541,1.253c1.066.574,2.132,1.147,3.193,1.728q2.624,1.438,5.243,2.884a.431.431,0,0,0,.164.015q2.425,1.334,4.85,2.667a1.8,1.8,0,0,1,1.074,1.688,1.489,1.489,0,0,1-.171.636,3.875,3.875,0,0,1-1.11,2.1,1.72,1.72,0,0,1-2.269.675q-6.587-3.56-13.174-7.122c-.809-.437-1.616-.881-2.426-1.317-.2-.108-.411-.2-.448-.461-.026-.352.234-.577.376-.851.582-1.123,1.188-2.232,1.777-3.35A1.373,1.373,0,0,1,250.39,414.1Z" transform="translate(-212.461 -396.496)" fill="#a8bade"/>
        <path id="Trazado_23488" data-name="Trazado 23488" d="M271.45,430.2l1.109-2.1c.129.37.571.49.661.932a.926.926,0,0,1-.225.971,1.071,1.071,0,0,1-1.13.25A.5.5,0,0,0,271.45,430.2Z" transform="translate(-217.736 -399.626)" fill="#206194"/>
        <path id="Trazado_23489" data-name="Trazado 23489" d="M241.663,413.557c.561-1.11,1.237-2.16,1.706-3.318-.226-.127-.448-.26-.676-.382-.987-.526-1.991-1.023-2.96-1.581-2.054-1.181-4.174-2.235-6.237-3.4-1.376-.776-2.77-1.534-4.191-2.235-1.1-.543-2.153-1.193-3.233-1.784-1.52-.831-3.05-1.647-4.571-2.478-.922-.5-1.869-.966-2.742-1.559-.05.266.141.52-.029.809-.809,1.376-1.449,2.847-2.278,4.213.593.313,1.187.622,1.778.939a13.556,13.556,0,0,1,4.11,2.346c.214-.043.478.13.7.25,1.978,1.074,3.962,2.134,5.931,3.223,1.2.662,2.384,1.354,3.595,1.983,2.177,1.132,4.308,2.349,6.482,3.484a17.006,17.006,0,0,0,1.789.914C241.114,414.509,241.416,414.047,241.663,413.557Z" transform="translate(-205.44 -392.633)" fill="#206194"/>
        <path id="Trazado_23490" data-name="Trazado 23490" d="M215.589,395.617c.3.33.238.6.016.987-.7,1.212-1.262,2.506-1.988,3.709-.089.147-.138.3-.335.326a32.691,32.691,0,0,1-6.859-5.064c-1.012-.933-2.062-1.824-3.1-2.722-.338-.291-.509-.745-.953-.934-.137-.058-.1-.228-.058-.356.056-.184.2-.137.324-.106,1.864.482,3.732.953,5.59,1.457,1.165.316,2.328.648,3.471,1.036a19.261,19.261,0,0,1,3.488,1.5A3.387,3.387,0,0,0,215.589,395.617Z" transform="translate(-202.269 -391.427)" fill="#a8bade"/>
        <path id="Trazado_23491" data-name="Trazado 23491" d="M225.7,404.943a.75.75,0,0,1-.724-.085c-1.3-.706-2.624-1.355-3.87-2.151-.325-.208-.491-.488-.314-.846.207-.415.432-.858,1.03-.742a1.916,1.916,0,0,1,.526.188c1.142.612,2.284,1.225,3.416,1.856.366.2.714.474.631.962A.912.912,0,0,1,225.7,404.943Z" transform="translate(-206.393 -393.589)" fill="#a8bade"/>
      </g>
      <g id="Grupo_14306" data-name="Grupo 14306" transform="translate(91.73)">
        <path id="Trazado_23492" data-name="Trazado 23492" d="M360.141,279.285l79.042,55.933a2.15,2.15,0,0,1,.533,2.964L403.3,390.659a2.1,2.1,0,0,1-2.94.505L321.32,335.231a2.149,2.149,0,0,1-.533-2.964L357.2,279.791A2.1,2.1,0,0,1,360.141,279.285Z" transform="translate(-320.412 -278.896)" fill="#a8bade"/>
        <path id="Trazado_23493" data-name="Trazado 23493" d="M362.359,287.162l59.87,42.367-33.72,48.594-59.87-42.366Z" transform="translate(-322.251 -280.744)" fill="#206194"/>
        <path id="Trazado_23494" data-name="Trazado 23494" d="M414.8,401.14l9.705,6.868a2.15,2.15,0,0,1,.533,2.964l-1.069,1.541a2.1,2.1,0,0,1-2.941.505l-9.705-6.868a2.15,2.15,0,0,1-.533-2.964l1.069-1.541A2.1,2.1,0,0,1,414.8,401.14Z" transform="translate(-340.534 -306.139)" fill="#206194"/>
        <path id="Trazado_23495" data-name="Trazado 23495" d="M421.006,392.194l9.705,6.868a2.15,2.15,0,0,1,.533,2.964l-1.07,1.541a2.1,2.1,0,0,1-2.94.506l-9.705-6.868a2.149,2.149,0,0,1-.533-2.964l1.07-1.541A2.1,2.1,0,0,1,421.006,392.194Z" transform="translate(-341.921 -304.139)" fill="#206194"/>
        <path id="Trazado_23496" data-name="Trazado 23496" d="M427.214,383.249l9.7,6.868a2.15,2.15,0,0,1,.533,2.964l-1.069,1.541a2.1,2.1,0,0,1-2.941.505l-9.705-6.868a2.15,2.15,0,0,1-.533-2.964l1.069-1.541A2.1,2.1,0,0,1,427.214,383.249Z" transform="translate(-343.309 -302.139)" fill="#206194"/>
        <path id="Trazado_23497" data-name="Trazado 23497" d="M440.387,364.265l9.705,6.867a2.15,2.15,0,0,1,.533,2.964l-1.07,1.541a2.1,2.1,0,0,1-2.94.506l-9.705-6.868a2.149,2.149,0,0,1-.533-2.964l1.07-1.541A2.1,2.1,0,0,1,440.387,364.265Z" transform="translate(-346.254 -297.895)" fill="#206194"/>
        <path id="Trazado_23498" data-name="Trazado 23498" d="M446.6,355.319l9.7,6.868a2.149,2.149,0,0,1,.533,2.964l-1.069,1.541a2.1,2.1,0,0,1-2.941.505l-9.705-6.868a2.15,2.15,0,0,1-.533-2.964l1.069-1.54A2.1,2.1,0,0,1,446.6,355.319Z" transform="translate(-347.642 -295.895)" fill="#206194"/>
        <path id="Trazado_23499" data-name="Trazado 23499" d="M452.8,346.374l9.705,6.867a2.15,2.15,0,0,1,.533,2.964l-1.069,1.54a2.1,2.1,0,0,1-2.941.506l-9.7-6.868a2.149,2.149,0,0,1-.533-2.964l1.069-1.541A2.1,2.1,0,0,1,452.8,346.374Z" transform="translate(-349.03 -293.895)" fill="#206194"/>
        <ellipse id="Elipse_892" data-name="Elipse 892" cx="4.162" cy="4.212" rx="4.162" ry="4.212" transform="matrix(0.868, -0.497, 0.497, 0.868, 85.609, 77.515)" fill="#206194"/>
      </g>
    </g>
    <g id="Grupo_14308" data-name="Grupo 14308" transform="translate(38.701 184.263)">
      <path id="Trazado_23500" data-name="Trazado 23500" d="M142.7,207.375Q90.679,231.85,38.7,256.3c.275.113.711.315,1.158.476Q75.725,269.69,111.6,282.6c3.627,1.305,3.628,1.287,4.962-2.419q12.808-35.567,25.6-71.133C142.39,208.408,142.83,207.786,142.7,207.375Zm-36.685,60.237q-12.54-4.5-25.082-9.023L70.417,254.8c16.937-7.972,33.966-15.987,50.918-23.964-4.281,11.9-8.665,24.026-13,36.175C107.787,268.56,106.9,267.932,106.014,267.612Z" transform="translate(-38.701 -207.375)" fill="#065b88"/>
      <path id="Trazado_23501" data-name="Trazado 23501" d="M76.369,279.491c-.453.674-.435,1.95-1.478,1.468-1.075-.5-.213-1.485.024-2.2.214-.641.307-1.852,1.36-1.38C77.434,277.9,76.234,278.828,76.369,279.491Z" transform="translate(-46.674 -223.003)" fill="#3d9bd2"/>
      <path id="Trazado_23502" data-name="Trazado 23502" d="M84.537,282.422c-.357.654-.4,1.846-1.422,1.447-1.187-.461-.281-1.442-.065-2.134.2-.645.282-1.841,1.335-1.441C85.583,280.749,84.58,281.707,84.537,282.422Z" transform="translate(-48.497 -223.66)" fill="#3a98cf"/>
      <path id="Trazado_23503" data-name="Trazado 23503" d="M68.178,276.614c-.413.537-.309,1.835-1.4,1.37-1.12-.479-.316-1.467-.07-2.181.224-.648.312-1.843,1.37-1.388C69.221,274.9,68.215,275.85,68.178,276.614Z" transform="translate(-44.849 -222.341)" fill="#3a98cf"/>
      <path id="Trazado_23504" data-name="Trazado 23504" d="M100.558,288.111c-.38.607-.332,1.855-1.319,1.575-1.21-.343-.52-1.4-.234-2.11.275-.686.275-2.012,1.492-1.5C101.481,286.494,100.641,287.412,100.558,288.111Z" transform="translate(-52.081 -224.945)" fill="#3997ce"/>
      <path id="Trazado_23505" data-name="Trazado 23505" d="M132.861,299.881c-.428.545-.321,1.852-1.409,1.384-1.115-.48-.308-1.47-.064-2.186.222-.649.306-1.846,1.374-1.382C133.9,298.191,132.892,299.129,132.861,299.881Z" transform="translate(-59.309 -227.545)" fill="#3a99d0"/>
      <path id="Trazado_23506" data-name="Trazado 23506" d="M115.249,293.469c.465-.709.422-1.955,1.492-1.54,1.2.464.318,1.446.106,2.162-.2.686-.373,1.821-1.4,1.429C114.2,295.04,115.431,294.09,115.249,293.469Z" transform="translate(-55.733 -226.26)" fill="#3590c7"/>
      <path id="Trazado_23507" data-name="Trazado 23507" d="M107.2,290.459c.387-.572.284-1.793,1.346-1.479,1.127.333.429,1.285.191,1.91-.26.682-.261,1.975-1.426,1.556C106.282,292.076,107.133,291.151,107.2,290.459Z" transform="translate(-53.927 -225.608)" fill="#3d9bd3"/>
      <path id="Trazado_23508" data-name="Trazado 23508" d="M92.474,285.135c-.4.543-.268,1.756-1.148,1.489-1.148-.346-.245-1.282-.058-1.892.18-.585.2-1.739,1.07-1.479C93.523,283.606,92.39,284.5,92.474,285.135Z" transform="translate(-50.338 -224.331)" fill="#47a9e3"/>
      <path id="Trazado_23509" data-name="Trazado 23509" d="M60.193,273.418c-.462.619-.332,1.833-1.21,1.563-1.143-.35-.24-1.287-.055-1.9.177-.586.192-1.74,1.074-1.478C61.229,271.965,59.952,272.861,60.193,273.418Z" transform="translate(-43.108 -221.726)" fill="#44a9e3"/>
      <path id="Trazado_23510" data-name="Trazado 23510" d="M124.85,296.663c-.436.542-.212,1.849-1.23,1.6-1-.242-.3-1.18-.078-1.732.252-.633.193-1.863,1.179-1.627C125.729,295.148,124.874,296.038,124.85,296.663Z" transform="translate(-57.57 -226.938)" fill="#45a9e3"/>
    </g>
    <g id="Grupo_14310" data-name="Grupo 14310" transform="translate(58.018 108.895)">
      <path id="Trazado_23511" data-name="Trazado 23511" d="M210.266,195.255c.493-1.619,2.068-2.035,3.239-2.812,5.357-3.559,10.792-7,16.2-10.48.456-.293.872-.73,1.495-.431-1.612,3.308-4.239,5.7-7.093,7.84C219.978,192.47,215.477,194.733,210.266,195.255Z" transform="translate(-96.375 -126.206)" fill="#ffd600"/>
      <path id="Trazado_23512" data-name="Trazado 23512" d="M78.681,218.369c1.615.389,3.277.289,4.815,1.613,1.164.992,1.542,2.755,2.089,4.283,4.579,12.752,9.221,25.458,13.806,38.2,6.254,17.379,12.57,34.717,18.811,52.1.376,1.047.96,2.077.66,3.311v.005c.118,2.865-1.458,4.467-2.02,6.825q-10.486-28.886-20.972-57.76-8.674-23.936-17.31-47.895A4.632,4.632,0,0,1,78.681,218.369Z" transform="translate(-66.929 -134.465)" fill="#003160"/>
      <path id="Trazado_23513" data-name="Trazado 23513" d="M99.47,220.5q16.039,45.135,32.072,90.271c.177.5.325,1.013.485,1.517-1.367.844-2.725,1.717-4.375.768h0v-.005c-.96-.578-1.2-1.909-1.606-3.04q-11.134-31.259-22.2-62.56c-2.735-7.731-5.44-15.477-8.2-23.193A4.786,4.786,0,0,1,95.1,221.2,2.671,2.671,0,0,1,99.47,220.5Z" transform="translate(-70.604 -134.756)" fill="#003160"/>
      <path id="Trazado_23514" data-name="Trazado 23514" d="M162.954,147.89c-.191,1.6-.045,3.28-.882,4.763-.627,1.123-1.818,1.422-2.842,1.9-8.538,4.007-17.04,8.081-25.573,12.1-11.634,5.475-23.239,11.014-34.878,16.477-.7.329-1.38.869-2.242.509h0c-1.96-.015-3.133-1.674-4.777-2.347q19.333-9.194,38.659-18.386,16.022-7.6,32.06-15.166A2.564,2.564,0,0,1,162.954,147.89Z" transform="translate(-69.879 -118.673)" fill="#003160"/>
      <path id="Trazado_23515" data-name="Trazado 23515" d="M164.883,168.658q-30.225,14.016-60.452,28.027c-.332.155-.68.28-1.019.417-.642-1.412-1.3-2.818-.731-4.432v0h0c.352-.938,1.255-1.12,2.012-1.472q20.932-9.734,41.9-19.394c5.178-2.388,10.368-4.746,15.533-7.164.648-.307,1.289-.776,2.075-.4C165.383,164.934,165.749,167.317,164.883,168.658Z" transform="translate(-72.273 -122.331)" fill="#003160"/>
      <path id="Trazado_23516" data-name="Trazado 23516" d="M201.9,183.382c-18.05,8.395-13.276,15.258-21.66-1.9-17.488-43.336-.6-41.054,15.813-53.154,18.19.534,33.506,18.917,41.03,30C229.4,167.941,212.783,174.755,201.9,183.382Z" transform="translate(-88.007 -114.334)" fill="#007ff1"/>
      <path id="Trazado_23517" data-name="Trazado 23517" d="M172.637,132.211c-1.088-1.71-2.252-3.376-3.249-5.138A11.251,11.251,0,0,1,172.7,112.3a10.963,10.963,0,0,1,14.947,2.22c.873,1.1,1.543,2.365,2.361,3.514.485.682.707,1.607,1.616,1.931.1.909-.71,1.076-1.218,1.406-5.373,3.494-10.761,6.964-16.112,10.493C173.8,132.187,173.3,132.655,172.637,132.211Z" transform="translate(-86.907 -110.305)" fill="#007ff1"/>
      <path id="Trazado_23518" data-name="Trazado 23518" d="M173.716,134.874q7.278-4.656,14.555-9.317c1.489-.957,2.954-1.952,4.43-2.929.68-.59,1.172-.592,1.663.31.724,1.329,1.583,2.583,2.385,3.869-4.285,3.239-8.929,5.925-13.409,8.862a73.562,73.562,0,0,1-7.9,4.939,31.5,31.5,0,0,0-2.138-3.37C172.418,136.159,172.6,135.486,173.716,134.874Z" transform="translate(-87.985 -112.968)" fill="#003160"/>
      <ellipse id="Elipse_893" data-name="Elipse 893" cx="16.688" cy="16.889" rx="16.688" ry="16.889" transform="translate(0 59.462)" fill="#003160"/>
      <g id="Grupo_14309" data-name="Grupo 14309" transform="translate(42.076 170.724)">
        <path id="Trazado_23519" data-name="Trazado 23519" d="M133.358,363.092h0a12.6,12.6,0,0,1-14.29-10.639l-1.153-7.658a12.713,12.713,0,0,1,10.513-14.463h0a12.6,12.6,0,0,1,14.291,10.639l1.152,7.657A12.712,12.712,0,0,1,133.358,363.092Z" transform="translate(-117.772 -330.189)" fill="#007ff1"/>
      </g>
      <path id="Trazado_23520" data-name="Trazado 23520" d="M158.652,358.686c4.006.052,7.876-.991,11.8-1.542,1.366-.192,2.032-.029,2.088,1.512.072,2.023,1.541,4.541.456,5.863-.946,1.153-3.641.859-5.57,1.157q-42.207,6.52-84.408,13.064c-1.661.259-2.291-.073-2.373-1.787a26.067,26.067,0,0,0-.657-4.405c-.261-1.174.164-1.5,1.242-1.639,3.155-.42,6.3-.953,9.444-1.426,2.406-.362,4.838-.606,7.048-1.766A17.137,17.137,0,0,0,99.9,367.6q27.374-4.272,54.761-8.463C155.985,358.933,157.318,358.805,158.652,358.686Z" transform="translate(-67.233 -165.476)" fill="#003160"/>
      <path id="Trazado_23521" data-name="Trazado 23521" d="M120.564,361.76a188.421,188.421,0,0,1,23.323-3.607,95.7,95.7,0,0,1,18.123.332c.6.078,1.18.252,1.77.381a8.838,8.838,0,0,1-2.961.908q-27.963,4.287-55.921,8.6c-.731.113-1.557.519-2.044-.481,4.174-2.361,8.76-3.6,13.289-4.992C117.6,362.458,119.089,362.138,120.564,361.76Z" transform="translate(-72.36 -165.656)" fill="#003160"/>
    </g>
    <g id="Grupo_14312" data-name="Grupo 14312" transform="translate(207.056 130.306)">
      <path id="Trazado_23522" data-name="Trazado 23522" d="M282.005,239.7l12.72-94.623a2.615,2.615,0,0,1,2.948-2.252l17.5,2.495a2.668,2.668,0,0,1,2.244,2.992L304.7,242.937a2.615,2.615,0,0,1-2.948,2.252l-17.5-2.495A2.668,2.668,0,0,1,282.005,239.7Z" transform="translate(-261.446 -138.981)" fill="#fdfdfc"/>
      <path id="Trazado_23523" data-name="Trazado 23523" d="M317.165,161.535c-.169.233-.4.144-.588.118q-3.029-.412-6.058-.842c-2.683-.384-5.359-.82-8.05-1.152-.8-.1-1.593-.235-2.4-.29a.678.678,0,0,1-.714-.832c.218-1.583.509-3.157.678-4.745.215-2.032.537-4.048.777-6.075.148-1.252.1-1.276,1.358-1.1,3.5.481,7,.981,10.5,1.472,1.888.265,3.775.539,5.665.784.384.05.519.172.465.573-.3,2.231-.538,4.47-.9,6.693-.193,1.183-.283,2.384-.437,3.575C317.386,160.326,317.265,160.937,317.165,161.535Z" transform="translate(-265.328 -139.816)" fill="#ffef4d"/>
      <path id="Trazado_23524" data-name="Trazado 23524" d="M314.9,179.631c-.171.165-.352.116-.535.09-4.533-.66-9.06-1.368-13.6-1.938a1.907,1.907,0,0,1-1.822-1.485c-.354-1.055-.8-2.078-1.225-3.11a3.324,3.324,0,0,1,.076-1.781c.262-2.094.61-4.177.833-6.274.068-.642.341-.662.8-.6,1.728.249,3.455.506,5.184.749,2.315.326,4.631.64,6.947.965q2.217.311,4.433.642c.424.063.618.242.542.755-.415,2.8-.792,5.6-1.171,8.4-.127.943-.222,1.891-.337,2.836C314.989,179.144,314.938,179.394,314.9,179.631Z" transform="translate(-264.939 -143.834)" fill="#ffee2b"/>
      <path id="Trazado_23525" data-name="Trazado 23525" d="M313.166,197.937c-1.478-.351-2.992-.454-4.487-.685-.659-.1-1.32-.195-1.982-.273a.555.555,0,0,1-.492-.412q-2.629-6.523-5.274-13.04a.51.51,0,0,1-.008-.419q6.956.988,13.917,1.969c.394.055.616.2.559.617q-.823,6.029-1.656,12.056A.405.405,0,0,1,313.166,197.937Z" transform="translate(-265.671 -147.992)" fill="#ffd600"/>
      <path id="Trazado_23526" data-name="Trazado 23526" d="M290.3,237.046l-34.585-89.121a2.653,2.653,0,0,1,1.48-3.425l16.435-6.442a2.631,2.631,0,0,1,3.4,1.514l34.585,89.12a2.652,2.652,0,0,1-1.48,3.425l-16.435,6.442A2.63,2.63,0,0,1,290.3,237.046Z" transform="translate(-255.533 -137.88)" fill="#fdfdfc"/>
      <path id="Trazado_23527" data-name="Trazado 23527" d="M269.951,177.3l-.154-.394c-1.159-3.013-2.3-6.034-3.493-9.034-.252-.633-.144-.865.48-1.106q7.672-2.963,15.314-6c.584-.232.794-.1,1.008.463,1.343,3.52,2.72,7.026,4.081,10.538.292.755.217.929-.53,1.2-5.073,1.823-10.045,3.909-15.076,5.839-.89.342-.886.346-1.23-.529C270.223,177.948,270.085,177.626,269.951,177.3Z" transform="translate(-257.912 -142.973)" fill="#ff444b"/>
      <path id="Trazado_23528" data-name="Trazado 23528" d="M300.595,206.562q-8.121,3.189-16.238,6.391c-.464.183-.583.015-.731-.373q-1.31-3.436-2.655-6.857c-.6-1.523-1.205-3.04-1.808-4.559.086-.275.356-.269.557-.349q7.772-3.056,15.547-6.1c.725-.283.761-.266,1.054.487q2.08,5.357,4.152,10.718C300.549,206.119,300.759,206.312,300.595,206.562Z" transform="translate(-260.816 -150.549)" fill="#ff000e"/>
      <path id="Trazado_23529" data-name="Trazado 23529" d="M267.813,146.78c2.538-1,5.083-1.976,7.612-3,.584-.235.859-.134,1.091.475q2.021,5.308,4.106,10.591c.2.5.131.736-.392.939q-7.755,3.009-15.492,6.07c-.5.2-.726.12-.926-.4q-2.05-5.371-4.16-10.72c-.207-.526-.089-.737.412-.928C262.653,148.815,265.23,147.792,267.813,146.78Z" transform="translate(-256.432 -139.174)" fill="#ff6078"/>
      <path id="Trazado_23530" data-name="Trazado 23530" d="M277.241,196.083a.146.146,0,0,0-.066-.1,1.359,1.359,0,0,1-.356-.589q-1.023-2.633-2.044-5.268a1.463,1.463,0,0,1-.142-.675q-.888-2.294-1.776-4.589c-.436-.578-.379-.919.22-1.1,1.018-.315,1.992-.745,2.982-1.131q6.3-2.459,12.6-4.935c.74-.29.76-.28,1.055.48,1.381,3.554,2.752,7.113,4.148,10.662.2.512.181.786-.391,1.008-5.241,2.032-10.471,4.092-15.706,6.14C277.6,196.045,277.441,196.18,277.241,196.083Z" transform="translate(-259.342 -146.742)" fill="#f83036"/>
      <g id="Grupo_14311" data-name="Grupo 14311" transform="translate(23.291 8.618)">
        <path id="Trazado_23531" data-name="Trazado 23531" d="M286.486,237.284l73.2-61.294a2.616,2.616,0,0,1,3.7.325l11.24,13.643a2.668,2.668,0,0,1-.362,3.722l-73.2,61.294a2.616,2.616,0,0,1-3.7-.326l-11.239-13.643A2.666,2.666,0,0,1,286.486,237.284Z" transform="translate(-285.531 -154.881)" fill="#fcfdfd"/>
        <path id="Trazado_23532" data-name="Trazado 23532" d="M381.833,200.848c-.283.057-.388-.16-.513-.31q-1.96-2.347-3.9-4.707c-1.724-2.092-3.4-4.219-5.168-6.28-.523-.612-1.018-1.248-1.575-1.832a.677.677,0,0,1,.033-1.1c1.228-1.022,2.5-1.988,3.7-3.047,1.529-1.355,3.126-2.627,4.67-3.961.953-.824.938-.872,1.747.1q3.393,4.076,6.764,8.17c1.216,1.468,2.424,2.943,3.654,4.4.25.3.267.477-.043.736-1.727,1.444-3.412,2.938-5.178,4.335-.941.743-1.817,1.57-2.734,2.345C382.811,200.1,382.31,200.474,381.833,200.848Z" transform="translate(-304.507 -155.69)" fill="#4dddff"/>
        <path id="Trazado_23533" data-name="Trazado 23533" d="M368.295,212.582c-.237.007-.338-.151-.456-.293-2.9-3.544-5.767-7.12-8.738-10.6a1.906,1.906,0,0,1-.344-2.325c.45-1.018.809-2.076,1.193-3.123.227-.621.808-.881,1.257-1.264,1.606-1.369,3.267-2.672,4.846-4.071.483-.428.7-.259.99.1,1.108,1.349,2.21,2.7,3.322,4.049,1.489,1.8,2.989,3.6,4.479,5.4q1.428,1.726,2.839,3.464c.271.332.294.6-.109.923-2.193,1.786-4.362,3.6-6.532,5.416-.731.611-1.44,1.248-2.162,1.868C368.688,212.283,368.483,212.434,368.295,212.582Z" transform="translate(-301.847 -158.295)" fill="#2bd6ff"/>
        <path id="Trazado_23534" data-name="Trazado 23534" d="M355.246,224.683c-.855-1.256-1.9-2.353-2.852-3.532-.418-.519-.843-1.033-1.28-1.537a.556.556,0,0,1-.087-.636q2.459-6.591,4.9-13.186a.509.509,0,0,1,.276-.314q4.471,5.421,8.948,10.839c.254.307.318.566,0,.833q-4.673,3.9-9.352,7.785A.405.405,0,0,1,355.246,224.683Z" transform="translate(-300.16 -161.611)" fill="#00d2ff"/>
        <path id="Trazado_23535" data-name="Trazado 23535" d="M301.571,239.812l34.56-89.13a2.653,2.653,0,0,1,3.4-1.531l16.48,6.326a2.632,2.632,0,0,1,1.487,3.409l-34.56,89.13a2.653,2.653,0,0,1-3.4,1.531l-16.48-6.326A2.632,2.632,0,0,1,301.571,239.812Z" transform="translate(-289.077 -148.98)" fill="#fcfdfd"/>
        <path id="Trazado_23536" data-name="Trazado 23536" d="M336.157,181.677l.152-.4c1.176-3.006,2.37-6.006,3.512-9.026.241-.637.478-.735,1.1-.493q7.662,2.985,15.355,5.895c.589.223.653.464.432,1.022-1.382,3.5-2.73,7.022-4.093,10.533-.293.755-.466.834-1.2.528-4.975-2.075-10.053-3.888-15.07-5.855-.887-.348-.887-.342-.551-1.22C335.922,182.338,336.037,182.006,336.157,181.677Z" transform="translate(-296.722 -154.046)" fill="#7c44ff"/>
        <path id="Trazado_23537" data-name="Trazado 23537" d="M339.066,223.957q-8.149-3.121-16.3-6.232c-.466-.176-.44-.381-.288-.767q1.349-3.421,2.663-6.854c.588-1.526,1.161-3.057,1.74-4.586.249-.145.445.041.647.118q7.8,2.984,15.592,5.981c.727.28.741.316.45,1.07q-2.077,5.359-4.161,10.715C339.331,223.6,339.356,223.883,339.066,223.957Z" transform="translate(-293.768 -161.608)" fill="#4c00ff"/>
        <path id="Trazado_23538" data-name="Trazado 23538" d="M355.177,157.691c2.546.977,5.086,1.968,7.642,2.921.59.22.724.48.484,1.086q-2.087,5.282-4.11,10.59c-.193.5-.4.632-.923.429q-7.757-3.007-15.533-5.965c-.5-.192-.616-.4-.411-.924q2.108-5.349,4.157-10.722c.2-.527.432-.6.93-.407C349.994,155.715,352.587,156.7,355.177,157.691Z" transform="translate(-298.207 -150.237)" fill="#8c60ff"/>
        <path id="Trazado_23539" data-name="Trazado 23539" d="M328.856,200.473a.144.144,0,0,0,.017-.118,1.366,1.366,0,0,1,.135-.675l2.043-5.269a1.458,1.458,0,0,1,.351-.594l1.783-4.587c.068-.721.34-.935.907-.668.964.454,1.974.793,2.965,1.176q6.312,2.436,12.633,4.854c.742.285.75.305.456,1.066-1.377,3.556-2.764,7.108-4.127,10.67-.2.515-.4.7-.968.481-5.241-2.033-10.492-4.04-15.738-6.058C329.146,200.687,328.938,200.679,328.856,200.473Z" transform="translate(-295.217 -157.804)" fill="#6d30f8"/>
      </g>
    </g>
    <g id="Grupo_14315" data-name="Grupo 14315" transform="translate(140.692 188.407)">
      <path id="Trazado_23540" data-name="Trazado 23540" d="M238.512,359.481c-.979-.07-1.959-.2-2.938-.2-19.741-.012-39.481-.085-59.221.06-3.86.028-6.607-1.947-6.263-6.375a89.8,89.8,0,0,0,.015-10.583c-.077-1.894.641-2.365,2.36-2.291,2.653.114,5.314.034,7.971.034l159.443,0c3.508,0,3.5,0,3.5,3.443-.006,3.377.021,6.753-.01,10.13-.036,3.825-1.755,5.564-5.557,5.566q-30.408.016-60.815.007c-.98,0-1.959.135-2.939.207a4.948,4.948,0,0,1-3.047.64q-14.725.013-29.45,0A4.827,4.827,0,0,1,238.512,359.481Z" transform="translate(-170.06 -241.189)" fill="#fdfdfc"/>
      <path id="Trazado_23541" data-name="Trazado 23541" d="M251.357,382.186a112.739,112.739,0,0,0,4.089-12.028,6.317,6.317,0,0,1,.951-2.292,5.191,5.191,0,0,1,3.2-.932q15.115.007,30.229.012a3.682,3.682,0,0,1,2.947.905,1.155,1.155,0,0,1,.794.734,122.757,122.757,0,0,0,4.092,12.444,3.99,3.99,0,0,1,.116,1.129c-.645.976-1.655.98-2.642.983q-20.561.063-41.122,0C253.029,383.139,252.019,383.143,251.357,382.186Z" transform="translate(-188.236 -247.191)" fill="#d0d0d0"/>
      <path id="Trazado_23542" data-name="Trazado 23542" d="M249.817,386.57l46.422-.029,5.871.066-.009-.007c.544,2.19-.377,2.711-2.473,2.7-17.519-.076-35.038-.045-52.557-.047-.455,0-.91,0-1.365-.016a1.3,1.3,0,0,1,.018-2.6C247.087,386.6,248.452,386.59,249.817,386.57Z" transform="translate(-186.696 -251.575)" fill="#f6f9f9"/>
      <path id="Trazado_23543" data-name="Trazado 23543" d="M294.229,367.362l-36.381.016a4.78,4.78,0,0,0,.41-2.383,22.422,22.422,0,0,1,5.185-.192q13.812-.037,27.621,0c.9,0,1.8.122,2.7.187Q293.994,366.176,294.229,367.362Z" transform="translate(-189.687 -246.703)" fill="#9b9b9e"/>
      <path id="Trazado_23544" data-name="Trazado 23544" d="M280.9,355.53a2.235,2.235,0,0,1,2.453,2.44,2.358,2.358,0,1,1-2.453-2.44Z" transform="translate(-194.336 -244.642)" fill="#353537"/>
      <g id="Grupo_14314" data-name="Grupo 14314" transform="translate(0.198)">
        <g id="Grupo_14313" data-name="Grupo 14313">
          <path id="Trazado_23545" data-name="Trazado 23545" d="M340.33,212.712H173.421a3.115,3.115,0,0,0-3.106,3.106V318.524a3.115,3.115,0,0,0,3.106,3.106H340.33a3.115,3.115,0,0,0,3.106-3.106V215.818A3.115,3.115,0,0,0,340.33,212.712Zm-117.443,7.857H190.021" transform="translate(-170.315 -212.712)" fill="#004476"/>
        </g>
        <path id="Trazado_23546" data-name="Trazado 23546" d="M337.41,225.557v85.555a2.732,2.732,0,0,1-2.718,2.725H181.06a2.734,2.734,0,0,1-2.725-2.725V225.557a2.734,2.734,0,0,1,2.725-2.725H334.692A2.732,2.732,0,0,1,337.41,225.557Z" transform="translate(-172.108 -214.975)" fill="#18395b"/>
        <path id="Trazado_23547" data-name="Trazado 23547" d="M291.941,313.907H258.858l-.047-.07L195.7,222.832h32.866l63.333,91.005Z" transform="translate(-175.989 -214.974)" fill="url(#linear-gradient)"/>
      </g>
      <path id="Trazado_23548" data-name="Trazado 23548" d="M331.347,313.837H317.806l-64.071-91.005h13.192Z" transform="translate(-188.768 -214.974)" fill="url(#linear-gradient)"/>
      <path id="Trazado_23549" data-name="Trazado 23549" d="M370.928,317.354l-10.536-3.517-67.107-91.005h8.781l61.043,83.792Z" transform="translate(-197.61 -214.974)" fill="url(#linear-gradient)"/>
    </g>
    <g id="Grupo_14316" data-name="Grupo 14316" transform="translate(49.557 252.044)">
      <path id="Trazado_23550" data-name="Trazado 23550" d="M81.666,333.695a1.145,1.145,0,0,0,.009-.165,1.272,1.272,0,0,0-.445-.8c-1.332-1.192-2.7-2.343-4.086-3.471a1.06,1.06,0,0,0-.954-.255c-.3.339-.6.671-.887,1.016Q65.66,341.668,56.02,353.313C55.2,354.3,54.4,355.3,53.6,356.3c.006.1-.03.232.034.3a16.691,16.691,0,0,0,5.3,4.343,1.44,1.44,0,0,0,.189-.052,53.128,53.128,0,0,0,5.271,4.412c.141-.154.287-.3.42-.461q10.765-12.994,21.526-25.99c.2-.239.372-.5.557-.752Z" transform="translate(-52.887 -302.343)" fill="#ffd600"/>
      <path id="Trazado_23551" data-name="Trazado 23551" d="M112.324,296.288l6.666,5.655a1.513,1.513,0,0,1-.453,1.228c-1.544,1.873-3.063,3.769-4.659,5.6a3.47,3.47,0,0,1-4.461.875,4.257,4.257,0,0,0-1.537-1.2,3.734,3.734,0,0,1-1.4-5.708c1.511-2.067,3.225-3.976,4.87-5.937A1.32,1.32,0,0,1,112.324,296.288Z" transform="translate(-64.534 -295.034)" fill="#fff7bd"/>
      <path id="Trazado_23552" data-name="Trazado 23552" d="M95.018,333.494c-.269.325.012.761-.265,1.175L84.648,326.1c.779-.162,1.528-.289,2.262-.477,2.56-.655,5.063-1.433,7.054-3.336.269-.257.532-.709,1.047-.431,1.059.021,1.589.85,2.234,1.5a1.01,1.01,0,0,1,.176,1.327C95.787,327.388,95.517,330.472,95.018,333.494Z" transform="translate(-59.83 -300.73)" fill="#cbcbcb"/>
      <path id="Trazado_23553" data-name="Trazado 23553" d="M117.626,301.582c-1.769,2.136-3.526,4.283-5.312,6.4a3.139,3.139,0,0,1-4.044.98h0a13,13,0,0,0-1.9-1.422,3.333,3.333,0,0,1-1.522-3.553,6.882,6.882,0,0,1,1.269-2.235c1.643-1.918,3.233-3.883,4.843-5.829-.334-.3-.652-.623-1.005-.9a1.232,1.232,0,0,0-1.9.2q-4.236,5.13-8.46,10.272a1.523,1.523,0,0,0,.7,1.09q1.594,1.384,3.218,2.731a2.66,2.66,0,0,0,1.293.8,1.236,1.236,0,0,0,.163-.009,1.2,1.2,0,0,0,.512.865c1.248,1.1,2.518,2.169,3.8,3.227a1.226,1.226,0,0,0,1.038.356L119.1,303.98C119.415,302.673,118.448,302.173,117.626,301.582Z" transform="translate(-63.171 -294.673)" fill="#ffd600"/>
      <path id="Trazado_23554" data-name="Trazado 23554" d="M104.715,313.129l5.348,4.556c-.073.117-.137.242-.221.352-.859,1.13-.857,1.127-1.97.187q-4.082-3.444-8.166-6.883c-.093-.1-.18-.2-.28-.293-1.287-1.172-1.287-1.171-.089-2.421Z" transform="translate(-62.915 -297.792)" fill="#004476"/>
      <path id="Trazado_23555" data-name="Trazado 23555" d="M100.577,322.921l-.42.41L98,321.5c1-2.077,2.732-1.079,4.325-1.03C101.945,321.479,101.042,322.047,100.577,322.921Z" transform="translate(-62.814 -300.377)" fill="#ffd600"/>
      <path id="Trazado_23556" data-name="Trazado 23556" d="M93.179,337.641l-10.163-8.779a.951.951,0,0,1-.1-1.325l.061-.071a.924.924,0,0,1,1.309-.1l10.163,8.78a.95.95,0,0,1,.1,1.325l-.061.071A.923.923,0,0,1,93.179,337.641Z" transform="translate(-59.392 -301.931)" fill="#004476"/>
      <path id="Trazado_23557" data-name="Trazado 23557" d="M63.17,373.22l-10.163-8.78a.95.95,0,0,1-.1-1.325l.061-.071a.923.923,0,0,1,1.309-.1l10.163,8.779a.95.95,0,0,1,.1,1.325l-.06.071A.925.925,0,0,1,63.17,373.22Z" transform="translate(-52.683 -309.885)" fill="#004476"/>
    </g>
    <g id="Grupo_14317" data-name="Grupo 14317" transform="translate(197.798 202.517)">
      <path id="Trazado_23558" data-name="Trazado 23558" d="M269.242,294.578c0-5.316-2.5-9.415-6.2-12.9-1.044-.985-1.585-1.808-.8-3.351,4.361-8.53,8.608-17.119,12.911-25.679.12-.24.432-.38,1.013-.869v7.545c0,3.779-.026,7.559.012,11.337a3.374,3.374,0,0,1-1.333,3.193c-2,1.524-1.95,3.9-.238,5.732a4.176,4.176,0,0,0,5.481.31c1.736-1.62,1.927-4.617,0-6.036a3.556,3.556,0,0,1-1.438-3.412q.006-8.5,0-17.007A1.907,1.907,0,0,1,279.2,252c1.308,2.507,2.641,5,3.919,7.524,3.139,6.189,6.22,12.409,9.4,18.574.722,1.4.714,2.29-.55,3.422-3.852,3.45-6.334,7.68-6.493,13.051-.544,1.1-1.566,1.143-2.576,1.16q-5.541.092-11.082,0C270.811,295.718,269.789,295.677,269.242,294.578Z" transform="translate(-247.692 -235.555)" fill="#eaf8f9"/>
      <path id="Trazado_23559" data-name="Trazado 23559" d="M270.566,306.9l16.238,0c1.429.046,2.648.407,2.728,2.156.068,1.484-.057,2.88-1.992,3.089-1.215.131-1.12,1.115-1.13,1.969q-.036,2.944-.017,5.889c.011,1.894-.681,2.857-2.769,2.777-3.331-.127-6.673-.07-10.007.033-2.025.062-2.837-.942-2.86-2.815-.024-2.04,0-4.082.03-6.124.012-.826.019-1.528-1.053-1.755-1.734-.366-2.106-1.7-1.882-3.242S269.192,306.9,270.566,306.9Z" transform="translate(-249.016 -247.878)" fill="#ffd600"/>
      <path id="Trazado_23560" data-name="Trazado 23560" d="M300.589,260.483A27.486,27.486,0,0,0,278.5,234.306v-3.422H269v2.831c-.062.147-.117.309-.17.479a27.478,27.478,0,0,0-22.714,26.578h-2.508v9.618h9.5v-9.618h-2.758a23.214,23.214,0,0,1,18.617-22.247c.009.032.021.057.029.092V240.5h1.432a4.377,4.377,0,0,0,.929.063c1.322-.03,2.645-.029,3.968-.023a4.42,4.42,0,0,0,.651-.04H278.5v-1.813a23.225,23.225,0,0,1,17.846,21.794h-2.938V270.1h4.257a8.071,8.071,0,0,0,1.891,0h3.356v-9.618Z" transform="translate(-243.609 -230.884)" fill="#eaf8f9"/>
    </g>
    <g id="Grupo_14318" data-name="Grupo 14318" transform="translate(96.741 323.263)">
      <path id="Trazado_23561" data-name="Trazado 23561" d="M135.174,395.743c3.618,2.235,7.293,4.384,10.838,6.731,2.926,1.937,3.179,3.634,1.362,6.663-3.77,6.286-3.8,6.309-9.89,2.534-3.028-1.878-6.013-3.825-9.017-5.742C130.035,402.094,131.815,398.4,135.174,395.743Z" transform="translate(-116.81 -388.488)" fill="#258fde"/>
      <path id="Trazado_23562" data-name="Trazado 23562" d="M124.268,403.413c-3.006-1.867-5.994-3.762-9.025-5.586-1.158-.7-2.024-1.441-1.732-2.96a12.479,12.479,0,0,1,5.2-8.083c1.236-.882,2.151-.047,3.1.537,3.011,1.859,6.006,3.744,9.006,5.619A22.137,22.137,0,0,1,124.268,403.413Z" transform="translate(-113.453 -386.399)" fill="#f12d00"/>
      <path id="Trazado_23563" data-name="Trazado 23563" d="M127.382,405.3l6.547-10.473,1,.714c-2.148,3.454-4.076,7.052-6.708,10.186Z" transform="translate(-116.567 -388.283)" fill="#a5c8df"/>
    </g>
    <g id="Grupo_14319" data-name="Grupo 14319" transform="translate(305.642 104)">
      <path id="Trazado_23564" data-name="Trazado 23564" d="M411.382,151.018q-7.2-1.829-14.394-3.657c-4.53-1.154-9.057-2.318-13.59-3.463-1.1-.277-1.056-.783-.55-1.656,2.381-4.1,4.7-8.239,7.047-12.365,2.877-5.069,5.736-10.147,8.635-15.2,1.9-3.321,3.912-6.582,5.774-9.925.6-1.068.888-.884,1.608-.137q9.637,9.987,19.346,19.9a1.813,1.813,0,0,1,.62,1.473,2.017,2.017,0,0,1-.308,1.967c-3.915,7.361-8.191,14.517-12.372,21.725C412.822,150.333,412.493,151.267,411.382,151.018Z" transform="translate(-382.507 -104)" fill="#065b88"/>
      <path id="Trazado_23565" data-name="Trazado 23565" d="M419.34,156.291c3.1-5.278,6.222-10.546,9.3-15.838,1.769-3.042,3.467-6.124,5.2-9.189.113-.075.283-.122.33-.224,2.207-4.814,3.33-3.76,6.77-1.811,5.034,2.852,10.018,5.791,15.024,8.691,1.808,1.047,2.194,2.692,1.028,4.578a20.187,20.187,0,0,0-2.077,3.773,4.928,4.928,0,0,1-.981,2.9c-2.965,4.911-5.676,9.969-8.63,14.886-.453.754-.766,1.66-1.768,1.919-.964,1.561-1.936,3.117-2.889,4.684-1,1.646-2.187,2.336-4.035,1.1-1.573-1.054-3.259-1.939-4.9-2.9a.953.953,0,0,1-.794.127,40.356,40.356,0,0,1-9.62-5.61c-.159-.116-.189-.361-.227-.567C417.515,160.81,417.434,160.5,419.34,156.291Z" transform="translate(-390.465 -109.274)" fill="#007ff1"/>
      <path id="Trazado_23566" data-name="Trazado 23566" d="M419.616,172.95,430.255,179a1.28,1.28,0,0,1-.5,1.423c-3.942,3.426-7.841,6.9-11.757,10.355a3.933,3.933,0,0,1-6.414-3.1,4.758,4.758,0,0,1,.664-2.375c2.2-3.969,4.466-7.9,6.729-11.837C419.106,173.241,419.4,173.118,419.616,172.95Z" transform="translate(-389.008 -119.415)" fill="#065b88"/>
      <path id="Trazado_23567" data-name="Trazado 23567" d="M450.855,171.352a74.676,74.676,0,0,1,5.2-9.413c2.023-3.45,3.72-7.1,6.182-10.292,2.6,1.6,3.51,4.353,2.095,6.92-2.124,3.853-4.318,7.672-6.615,11.424A4.554,4.554,0,0,1,450.855,171.352Z" transform="translate(-397.788 -114.653)" fill="#065b88"/>
      <path id="Trazado_23568" data-name="Trazado 23568" d="M399.929,116.858c-2.742,4.659-5.515,9.248-8.135,13.922-.568,1.012-.843.76-1.492.26-4.588-3.543-3.91-11.531,1.231-14.246A8.126,8.126,0,0,1,399.929,116.858Z" transform="translate(-383.564 -106.606)" fill="#007ff1"/>
    </g>
    <g id="Grupo_14320" data-name="Grupo 14320" transform="translate(321.627 182.222)">
      <path id="Trazado_23569" data-name="Trazado 23569" d="M416.813,249.283c-.471-2.41.039-4.461.108-6.509a2.78,2.78,0,0,0-1.585-2.872c-3.229-1.773-6.407-3.641-9.6-5.484-2.8-1.617-3.361-3.4-1.755-6.252q6-10.651,12.13-21.224a4.239,4.239,0,0,1,6.156-1.46q14.712,8.558,29.421,17.118c2.735,1.589,3.35,3.273,1.805,6.036q-6.022,10.768-12.227,21.433a4.121,4.121,0,0,1-5.961,1.477c-3.382-1.937-6.724-3.946-10.066-5.952a2.426,2.426,0,0,0-3.056.045C420.541,246.872,418.787,247.957,416.813,249.283Z" transform="translate(-403.094 -204.746)" fill="#fe5159"/>
      <path id="Trazado_23570" data-name="Trazado 23570" d="M443.822,231.845c.116,3.5-2.225,5.042-4.8,6.058a29.536,29.536,0,0,1-8.625,1.987,1.64,1.64,0,0,1-1.934-1.061c-1.377-3.43-2.716-6.867-2.672-10.647a5.813,5.813,0,0,1,3.662-5.539,6.151,6.151,0,0,1,6.657,1.716,4.2,4.2,0,0,0,3.04,1.792C441.818,226.41,443.834,229.1,443.822,231.845Z" transform="translate(-408.167 -208.666)" fill="#f5fafd"/>
    </g>
    <g id="Grupo_14321" data-name="Grupo 14321" transform="translate(232.132 331.535)">
      <path id="Trazado_23571" data-name="Trazado 23571" d="M355.912,409.4l-20.051-3.4a1.315,1.315,0,0,1-1.013-.69c-.142-.062-.15-.179-.12-.353l.021-.124c0-.012,0-.023,0-.035a1.04,1.04,0,0,1,.055-.277c.159-.922.311-1.844.472-2.765a1.051,1.051,0,0,0-.424-1.067,2.4,2.4,0,0,0-1.184-.459q-7.121-1.209-14.241-2.415a3.155,3.155,0,0,0-.8-.05,1.221,1.221,0,0,0-1.252,1.055c-.139,1.014-.346,2.019-.5,3.032-.049.328-.151.412-.491.353-3.381-.584-6.765-1.148-10.148-1.718a.888.888,0,0,0-.547-.2c-.5-.082-.61,0-.707.505-.063.331-.111.665-.175,1a.541.541,0,0,1-.057.159l-2.412-.408a1.428,1.428,0,0,1,.013-.155c.049-.357.124-.71.173-1.068.061-.44-.03-.568-.465-.644-.858-.149-1.717-.293-2.577-.437a.539.539,0,0,0-.406.031c-1.043-.178-2.085-.353-3.127-.536-.21-.036-.35-.033-.394.235-.342,2.089-.694,4.176-1.043,6.264.136.03.27.066.408.089l2.207.374a2.761,2.761,0,0,0,1.57.856l42.442,7.187a2.751,2.751,0,0,0,1.64-.227q5.781.975,11.562,1.957c.492.083.533.061.617-.434q.474-2.749.933-5.5C355.9,409.493,355.907,409.446,355.912,409.4Z" transform="translate(-289.324 -397.211)" fill="#d0d0d0"/>
      <rect id="Rectángulo_3797" data-name="Rectángulo 3797" width="61.151" height="15.035" transform="translate(4.827 8.104) rotate(9.611)" fill="#222"/>
      <rect id="Rectángulo_3798" data-name="Rectángulo 3798" width="61.151" height="15.035" transform="translate(2.51 21.789) rotate(9.611)" fill="#d0d0d0"/>
      <circle id="Elipse_894" data-name="Elipse 894" cx="15.617" cy="15.617" r="15.617" transform="translate(17.735 10.4)" fill="#d1d2d4"/>
      <path id="Trazado_23572" data-name="Trazado 23572" d="M314.294,424.8a12.412,12.412,0,1,1,10.126,14.33A12.386,12.386,0,0,1,314.294,424.8Z" transform="translate(-293.703 -400.937)" fill="#414143"/>
      <path id="Trazado_23573" data-name="Trazado 23573" d="M328.735,415.882a11.453,11.453,0,1,1-13.282,9.407A11.414,11.414,0,0,1,328.735,415.882Z" transform="translate(-293.971 -401.219)" fill="#202221"/>
      <path id="Trazado_23574" data-name="Trazado 23574" d="M328.821,403.864c.151-.893.31-1.786.45-2.681.036-.228.1-.311.349-.267q4.256.734,8.514,1.447c.146.025.308.018.263.259-.172.925-.332,1.852-.5,2.777a.349.349,0,0,1-.27.025c-.89-.166-1.788-.282-2.683-.418-.046-.007-.092-.016-.137-.026-.132-.03-.252-.08-.253-.241a.238.238,0,0,1,.267-.259c.381.036.438-.206.48-.491.061-.414.137-.825.207-1.238a.31.31,0,0,0-.29-.416c-.951-.161-1.9-.324-2.852-.481a.313.313,0,0,0-.418.291c-.081.47-.158.94-.24,1.409a.309.309,0,0,0,.292.414c.526.091,1.055.173,1.58.272.17.033.352.057.4.276a.526.526,0,0,1-.794.266,2.02,2.02,0,0,0-.721-.231q-1.63-.276-3.261-.554A.586.586,0,0,1,328.821,403.864Z" transform="translate(-296.994 -397.914)" fill="#211f20"/>
      <path id="Trazado_23575" data-name="Trazado 23575" d="M334.725,404.734c-.082-.127-.223-.111-.344-.132-.606-.106-1.213-.211-1.822-.3-.224-.033-.292-.127-.251-.349.111-.594.211-1.19.3-1.787.036-.232.14-.318.377-.276q1.631.285,3.263.552c.21.035.267.134.23.335-.109.594-.218,1.19-.307,1.787-.037.252-.13.346-.388.283-.116-.027-.313-.134-.35.072-.044.239.2.182.321.2.972.172,1.947.332,2.919.5a.127.127,0,0,1-.011.064,4.785,4.785,0,0,1-1.29-.187c-.555-.129-1.124-.011-1.675-.157-.221-.059-.435-.112-.519-.348S334.855,404.86,334.725,404.734Z" transform="translate(-297.771 -398.131)" fill="#544a4f"/>
      <path id="Trazado_23576" data-name="Trazado 23576" d="M327.082,435.047a6.6,6.6,0,1,1,7.622-5.362A6.564,6.564,0,0,1,327.082,435.047Z" transform="translate(-295.385 -402.618)" fill="#065b88"/>
      <path id="Trazado_23577" data-name="Trazado 23577" d="M329.726,426.99a2.646,2.646,0,1,1-2.169-3.1A2.635,2.635,0,0,1,329.726,426.99Z" transform="translate(-296.024 -403.044)" fill="#85c4d9"/>
      <path id="Trazado_23578" data-name="Trazado 23578" d="M339,402.259a.875.875,0,0,0-.076-.527.742.742,0,0,0-.151-.254c-.142-.169-.349-.165-.54-.2-1.381-.224-2.754-.493-4.141-.682-.009.008-.013.017-.022.025l-2.694-.458c-.008-.012-.009-.023-.018-.035-.715-.153-1.44-.248-2.159-.382a.659.659,0,0,0-.339.042c-.016.005-.026.016-.04.022a.434.434,0,0,0-.1.054.91.91,0,0,0-.374.618c-.2,1-.371,2.013-.519,3.025a.877.877,0,0,0,.077.528.749.749,0,0,0,.15.253c.142.169.349.165.54.2,1.38.224,2.754.493,4.14.682.009-.008.014-.016.022-.024l2.694.457c.007.012.009.023.017.036.716.152,1.441.247,2.159.381a.66.66,0,0,0,.339-.042c.016-.005.025-.016.04-.022a.422.422,0,0,0,.1-.054.908.908,0,0,0,.374-.618C338.682,404.282,338.85,403.271,339,402.259Zm-1.922,2.607c-1.868-.308-3.736-.618-5.6-.942-.755-.131-1.512-.256-2.266-.391-.2-.036-.38-.092-.336-.347.129-.76.216-1.528.405-2.279.08-.062.213-.047.473,0,1.868.308,3.735.618,5.6.943.755.131,1.512.255,2.266.391.2.035.38.091.336.346-.13.76-.216,1.528-.405,2.279C337.469,404.924,337.336,404.909,337.076,404.866Z" transform="translate(-296.77 -397.654)" fill="#a7a8ac"/>
      <rect id="Rectángulo_3799" data-name="Rectángulo 3799" width="9.435" height="4.062" rx="2.031" transform="translate(9.394 0) rotate(9.611)" fill="#648faa"/>
    </g>
    <g id="Grupo_14322" data-name="Grupo 14322" transform="translate(136.27 281.983)">
      <path id="Trazado_23579" data-name="Trazado 23579" d="M186.666,371.475l-1.187.366a.516.516,0,0,1-.741.068,18.934,18.934,0,0,1-4.01.167c-2.326.045-4.659.12-6.977.084-1.808-.029-3.623.106-5.434-.065-1.007-.095-2.022.1-3.047.019-.731-.055-.9-.27-.9-.96q.03-11.424.012-22.847c0-4.7.019-9.407-.017-14.111-.006-.779.24-.957.981-.956q18.43.028,36.86-.008c.826,0,1,.268,1,1.038q-.033,15.6.011,31.2a1.16,1.16,0,0,1-.81,1.208.456.456,0,0,1-.53.1c-.488-.625-1.089-1.151-1.59-1.765a.922.922,0,0,0-1.408-.223c-3.5,2.476-7.486,4.044-11.308,5.915a1.441,1.441,0,0,0-.739.572A1.288,1.288,0,0,1,186.666,371.475Z" transform="translate(-164.365 -333.232)" fill="#fe8ccb"/>
      <path id="Trazado_23580" data-name="Trazado 23580" d="M206.478,376.319c-3.276.993-6.545,2.006-9.83,2.97a21.853,21.853,0,0,1-3.565.934c-.374-.557.262-.62.447-.688,2.83-1.026,5.337-2.722,8.117-3.86a16.2,16.2,0,0,0,3.62-2.267c.551-.424,1.024-.4,1.386.148.478.722,1.477,1.036,1.58,2.04l-1.19.548C206.908,376.371,206.7,376.369,206.478,376.319Z" transform="translate(-170.759 -342.149)" fill="#fe74b9"/>
    </g>
    <g id="Grupo_14324" data-name="Grupo 14324" transform="translate(121.208 223.354)">
      <path id="Trazado_23581" data-name="Trazado 23581" d="M199.911,282.917c-.132.074-.261.429-.4.157-.342-.663-1-.916-1.545-1.3q-13.672-9.547-27.364-19.064a3.919,3.919,0,0,0-1.188-.717c-.252-.067-.233-.247-.132-.436a18.275,18.275,0,0,0,2.023-2.766c.347-.5.593-.543,1.093-.193q14.507,10.132,29.041,20.224c.588.408.7.742.262,1.348a16.975,16.975,0,0,0-1.793,2.7Z" transform="translate(-150.386 -257.867)" fill="#fdeb3f"/>
      <g id="Grupo_14323" data-name="Grupo 14323" transform="translate(0)">
        <path id="Trazado_23582" data-name="Trazado 23582" d="M163.676,300.831a6.564,6.564,0,0,0-2.208-.929,9.811,9.811,0,0,1-2.406-1.352c-4.52-3.137-9.023-6.3-13.555-9.415-.633-.436-.7-.731-.254-1.373q10.252-14.676,20.466-29.38c.181-.26.263-.661.7-.662a1.973,1.973,0,0,1-.006.339,22.186,22.186,0,0,1-1.618,2.473c-.178.282-.45.522-.4.9.132.4.5.547.8.755q13.737,9.564,27.472,19.13c.588.408,1.152.845,1.707,1.3a.626.626,0,0,1,.258.22q-6.2,8.924-12.407,17.846c-.959,1.379-1.942,2.742-2.864,4.144a.957.957,0,0,1-1.226.5c-.528-.164-1.067-.3-1.6-.443l.035-.127a.569.569,0,0,1,.575-.235c.9.226.736-.256.572-.793a2.839,2.839,0,0,1-.069-1.561c.142-.547,0-.814-.631-.781a37.269,37.269,0,0,1-5.381-.05c-1.513-.138-3.029-.276-4.519-.56a23.915,23.915,0,0,1-5.232-1.141c.852.492,1.814.272,2.335,1.077C164.119,301.119,163.869,300.847,163.676,300.831Z" transform="translate(-144.965 -257.721)" fill="#fcf46c"/>
        <path id="Trazado_23583" data-name="Trazado 23583" d="M181.42,316.864c-1.822-.565-3.648-1.113-5.463-1.7-1.9-.613-3.786-1.251-5.671-1.9-.431-.148-.94-.076-1.294-.448-.765-.6-1.81-.585-2.578-1.207,2.077.515,4.194.759,6.3,1.08a38.622,38.622,0,0,0,9.452.459c.467-.043.686.136.585.561a4.454,4.454,0,0,0,.2,2.72c.162.424.009.806-.559.488A1,1,0,0,0,181.42,316.864Z" transform="translate(-149.761 -269.769)" fill="#fbe722"/>
        <path id="Trazado_23584" data-name="Trazado 23584" d="M199.925,282.775a7.034,7.034,0,0,1,1.542-2.49c.495-.709.5-1.1-.263-1.634q-14.293-9.9-28.535-19.876c-.738-.517-1.047-.366-1.513.3a7.611,7.611,0,0,1-1.856,2.381l2.452-3.534q14.74,10.273,29.479,20.551c1.28.894,1.244.617.344,1.931C201.032,281.2,200.476,281.986,199.925,282.775Z" transform="translate(-150.406 -257.767)" fill="#feec01"/>
      </g>
    </g>
    <path id="Trazado_23585" data-name="Trazado 23585" d="M387.858,251.776" transform="translate(-78.061 -33.038)" fill="#e0dcff"/>
  </g>
</svg>
