<svg xmlns="http://www.w3.org/2000/svg" width="455" height="455" viewBox="0 0 455 455">
  <g id="Grupo_14564" data-name="Grupo 14564" transform="translate(-473 -949)">
    <g id="Grupo_14542" data-name="Grupo 14542" transform="translate(-3405.138 207.227)">
      <circle id="Elipse_907" data-name="Elipse 907" cx="227.5" cy="227.5" r="227.5" transform="translate(3878.138 741.773)" fill="#91cff4"/>
      <circle id="Elipse_908" data-name="Elipse 908" cx="168.565" cy="168.565" r="168.565" transform="translate(3937.073 800.708)" fill="#71b3e1"/>
      <g id="Grupo_14537" data-name="Grupo 14537" transform="translate(4023.985 763.893)">
        <g id="Grupo_14536" data-name="Grupo 14536">
          <path id="Trazado_24079" data-name="Trazado 24079" d="M4019.846,777.9a6.026,6.026,0,0,0-3.664,3.7,8.167,8.167,0,0,0,.489,5.8,8.329,8.329,0,0,0,3.705,4.525,6.032,6.032,0,0,0,5.225-.022,16.507,16.507,0,0,0,3.805-2.321l.717,1.738a13.57,13.57,0,0,1-4.1,2.47,8.006,8.006,0,0,1-6.758.114q-2.99-1.441-4.728-5.652a11.085,11.085,0,0,1-.921-5.025A7.663,7.663,0,0,1,4015.2,779a9.321,9.321,0,0,1,3.937-2.88,11.412,11.412,0,0,1,5.094-.957l-.137,2.051A9.769,9.769,0,0,0,4019.846,777.9Z" transform="translate(-4013.596 -761.333)" fill="#4674b8"/>
          <path id="Trazado_24080" data-name="Trazado 24080" d="M4041.559,780.435a7.629,7.629,0,0,1-.026,5.548,6,6,0,0,1-3.912,3.234,6.249,6.249,0,0,1-3.4.166,5.729,5.729,0,0,1-2.873-1.71,8.693,8.693,0,0,1-1.9-3.395,7.613,7.613,0,0,1,.019-5.532,5.974,5.974,0,0,1,3.9-3.218,5.848,5.848,0,0,1,4.979.445A7.6,7.6,0,0,1,4041.559,780.435Zm-10.042,3.188a6.576,6.576,0,0,0,2.232,3.527,4.209,4.209,0,0,0,5.95-1.882,6.538,6.538,0,0,0-.208-4.177,6.419,6.419,0,0,0-2.229-3.5,3.742,3.742,0,0,0-3.414-.352,3.68,3.68,0,0,0-2.55,2.226A6.5,6.5,0,0,0,4031.517,783.623Z" transform="translate(-4012.419 -761.33)" fill="#4674b8"/>
          <path id="Trazado_24081" data-name="Trazado 24081" d="M4055.024,784.4l-1.99-8.721a3.607,3.607,0,0,0-1.312-2.289,3.131,3.131,0,0,0-2.534-.276,3.971,3.971,0,0,0-2.839,1.851,5.921,5.921,0,0,0-.123,4l1.614,7.074-2.043.465-3.076-13.481,1.662-.38.752,1.77.1-.023a4.263,4.263,0,0,1,1.406-1.945,5.858,5.858,0,0,1,2.4-1.123,5.253,5.253,0,0,1,3.935.338,5.135,5.135,0,0,1,2.087,3.478l2.007,8.8Z" transform="translate(-4011.362 -761.642)" fill="#4674b8"/>
          <path id="Trazado_24082" data-name="Trazado 24082" d="M4070.613,774.881a7.629,7.629,0,0,1-.942,5.467,6,6,0,0,1-4.391,2.544,6.232,6.232,0,0,1-3.383-.4,5.743,5.743,0,0,1-2.552-2.16,8.74,8.74,0,0,1-1.312-3.662,7.626,7.626,0,0,1,.931-5.455,5.977,5.977,0,0,1,4.38-2.529,5.853,5.853,0,0,1,4.838,1.26A7.6,7.6,0,0,1,4070.613,774.881Zm-10.43,1.486a6.561,6.561,0,0,0,1.619,3.848,4.206,4.206,0,0,0,6.178-.874,6.533,6.533,0,0,0,.485-4.154,6.442,6.442,0,0,0-1.621-3.816,3.749,3.749,0,0,0-3.31-.911,3.685,3.685,0,0,0-2.882,1.775A6.484,6.484,0,0,0,4060.183,776.367Z" transform="translate(-4010.197 -761.834)" fill="#4674b8"/>
          <path id="Trazado_24083" data-name="Trazado 24083" d="M4079.325,781.461a5.9,5.9,0,0,1-4.766-1.525,7.593,7.593,0,0,1-2-5.1,7.837,7.837,0,0,1,1.3-5.464,6.021,6.021,0,0,1,4.621-2.216,9.419,9.419,0,0,1,2,.078,6.65,6.65,0,0,1,1.6.4l-.52,1.82a9.8,9.8,0,0,0-1.543-.355,6.742,6.742,0,0,0-1.459-.083q-4.206.291-3.835,5.653a6.394,6.394,0,0,0,1.3,3.831,3.573,3.573,0,0,0,3.133,1.15,9.311,9.311,0,0,0,3.486-.986l.127,1.851A7.547,7.547,0,0,1,4079.325,781.461Z" transform="translate(-4009.076 -761.948)" fill="#4674b8"/>
          <path id="Trazado_24084" data-name="Trazado 24084" d="M4084.439,763.73a1.392,1.392,0,0,1,.333-1.06,1.3,1.3,0,0,1,1.753-.029,1.362,1.362,0,0,1,.387,1.039,1.381,1.381,0,0,1-.344,1.061,1.282,1.282,0,0,1-1.754.037A1.421,1.421,0,0,1,4084.439,763.73Zm2.623,17.528-2.093.042-.277-13.827,2.093-.041Z" transform="translate(-4008.162 -762.317)" fill="#4674b8"/>
          <path id="Trazado_24085" data-name="Trazado 24085" d="M4108.273,781.679l.528-8.981a3.737,3.737,0,0,0-.561-2.516,2.724,2.724,0,0,0-2.142-.953,3.542,3.542,0,0,0-2.951.95,5.343,5.343,0,0,0-1.134,3.4l-.455,7.708-2.09-.123.528-8.981a3.731,3.731,0,0,0-.559-2.517,2.757,2.757,0,0,0-2.156-.955,3.422,3.422,0,0,0-2.948,1.009,6.386,6.386,0,0,0-1.141,3.807l-.426,7.242-2.091-.123.813-13.8,1.7.1.229,1.909.1.005a4.131,4.131,0,0,1,1.763-1.476,5.1,5.1,0,0,1,2.447-.425q3.237.191,4.092,2.593l.1.005a4.41,4.41,0,0,1,1.89-1.607,5.559,5.559,0,0,1,2.708-.473,4.682,4.682,0,0,1,3.437,1.408,5.394,5.394,0,0,1,.939,3.917l-.53,9.005Z" transform="translate(-4007.683 -761.97)" fill="#4674b8"/>
          <path id="Trazado_24086" data-name="Trazado 24086" d="M4114.662,783.041l-2.075-.289,1.908-13.7,2.075.29Zm.175-17.721a1.385,1.385,0,0,1,.5-.994,1.306,1.306,0,0,1,1.735.248,1.365,1.365,0,0,1,.218,1.089,1.387,1.387,0,0,1-.508.993,1.279,1.279,0,0,1-1.736-.242A1.419,1.419,0,0,1,4114.837,765.32Z" transform="translate(-4006.003 -762.18)" fill="#4674b8"/>
          <path id="Trazado_24087" data-name="Trazado 24087" d="M4124.021,784.527a6.35,6.35,0,0,1-4.39-2.764,7.231,7.231,0,0,1-.742-5.431,8.014,8.014,0,0,1,2.638-4.895,5.47,5.47,0,0,1,4.718-1.081,5.207,5.207,0,0,1,3.707,2.47,6.54,6.54,0,0,1,.619,4.717l-.256,1.3-9.347-1.833a5.478,5.478,0,0,0,.5,3.864,4.249,4.249,0,0,0,2.982,1.871,11.126,11.126,0,0,0,4.513-.067l-.358,1.833a11.145,11.145,0,0,1-2.2.27A11.725,11.725,0,0,1,4124.021,784.527Zm1.862-12.454a3.419,3.419,0,0,0-2.815.553,5.007,5.007,0,0,0-1.723,2.722l7.095,1.391a4.6,4.6,0,0,0-.283-3.146A3.109,3.109,0,0,0,4125.883,772.073Z" transform="translate(-4005.536 -761.71)" fill="#4674b8"/>
          <path id="Trazado_24088" data-name="Trazado 24088" d="M4140.333,788.39l2.417-8.614a3.615,3.615,0,0,0-.06-2.637,3.133,3.133,0,0,0-2.095-1.453,3.977,3.977,0,0,0-3.378.27,5.914,5.914,0,0,0-2.019,3.457l-1.961,6.984-2.017-.565,3.736-13.314,1.641.46-.183,1.914.1.027a4.28,4.28,0,0,1,2.166-1.037,5.853,5.853,0,0,1,2.643.159,5.255,5.255,0,0,1,3.293,2.175,5.123,5.123,0,0,1,.173,4.053l-2.436,8.686Z" transform="translate(-4004.574 -761.534)" fill="#4674b8"/>
          <path id="Trazado_24089" data-name="Trazado 24089" d="M4149.712,790.23a6.664,6.664,0,0,0,1.039.28,6.961,6.961,0,0,0,.83.113l-.534,1.511a3.9,3.9,0,0,1-1.037-.078,7.5,7.5,0,0,1-1.16-.3q-3.781-1.336-2.375-5.322l2.741-7.756-1.868-.659.336-.952,2.158-.163,1.817-2.488,1.141.4-1.067,3.022,3.784,1.336-.543,1.535-3.783-1.337-2.71,7.674a2.8,2.8,0,0,0-.081,2.006A2.064,2.064,0,0,0,4149.712,790.23Z" transform="translate(-4003.433 -761.389)" fill="#4674b8"/>
          <path id="Trazado_24090" data-name="Trazado 24090" d="M4166.41,790.912a7.623,7.623,0,0,1-3.643,4.182,6,6,0,0,1-5.075-.107,6.235,6.235,0,0,1-2.684-2.1,5.742,5.742,0,0,1-1.057-3.172,8.693,8.693,0,0,1,.781-3.81,7.611,7.611,0,0,1,3.628-4.177,5.976,5.976,0,0,1,5.057.114,5.851,5.851,0,0,1,3.48,3.591A7.593,7.593,0,0,1,4166.41,790.912Zm-9.684-4.15a6.562,6.562,0,0,0-.616,4.129,4.205,4.205,0,0,0,5.733,2.462,6.522,6.522,0,0,0,2.573-3.3,6.425,6.425,0,0,0,.6-4.1,3.747,3.747,0,0,0-2.355-2.5,3.689,3.689,0,0,0-3.384.018A6.5,6.5,0,0,0,4156.727,786.762Z" transform="translate(-4002.831 -760.867)" fill="#4674b8"/>
        </g>
      </g>
      <circle id="Elipse_909" data-name="Elipse 909" cx="109.574" cy="109.574" r="109.574" transform="translate(3996.064 859.699)" fill="#4674b8"/>
      <g id="Grupo_14539" data-name="Grupo 14539" transform="translate(4026.232 826.455)">
        <g id="Grupo_14538" data-name="Grupo 14538">
          <path id="Trazado_24091" data-name="Trazado 24091" d="M4021.024,836.971a6.038,6.038,0,0,0-3.033,4.238,8.17,8.17,0,0,0,1.4,5.647,8.334,8.334,0,0,0,4.373,3.882,6.036,6.036,0,0,0,5.157-.848,16.5,16.5,0,0,0,3.391-2.9l.983,1.6a13.6,13.6,0,0,1-3.655,3.089,8,8,0,0,1-6.655,1.182q-3.18-.95-5.563-4.831a11.084,11.084,0,0,1-1.706-4.816,7.651,7.651,0,0,1,.895-4.429,9.324,9.324,0,0,1,3.43-3.468,11.458,11.458,0,0,1,4.878-1.75l.189,2.046A9.8,9.8,0,0,0,4021.024,836.971Z" transform="translate(-4015.682 -819.414)" fill="#333b8c"/>
          <path id="Trazado_24092" data-name="Trazado 24092" d="M4043.192,836.4a7.633,7.633,0,0,1,.655,5.509,6,6,0,0,1-3.485,3.689,6.216,6.216,0,0,1-3.356.583,5.734,5.734,0,0,1-3.06-1.344,8.69,8.69,0,0,1-2.3-3.136,7.612,7.612,0,0,1-.661-5.493,5.983,5.983,0,0,1,3.479-3.673,5.856,5.856,0,0,1,5-.169A7.6,7.6,0,0,1,4043.192,836.4Zm-9.575,4.4a6.558,6.558,0,0,0,2.648,3.227,4.207,4.207,0,0,0,5.673-2.6,6.534,6.534,0,0,0-.718-4.119,6.423,6.423,0,0,0-2.64-3.2,3.747,3.747,0,0,0-3.433.07,3.689,3.689,0,0,0-2.258,2.521A6.492,6.492,0,0,0,4033.617,840.8Z" transform="translate(-4014.529 -819.544)" fill="#333b8c"/>
          <path id="Trazado_24093" data-name="Trazado 24093" d="M4057.014,839.128l-2.743-8.515a3.612,3.612,0,0,0-1.505-2.166,3.137,3.137,0,0,0-2.549-.054,3.978,3.978,0,0,0-2.667,2.092,5.932,5.932,0,0,0,.228,4l2.224,6.906-1.994.641-4.239-13.162,1.621-.523.9,1.7.1-.031a4.288,4.288,0,0,1,1.232-2.061,5.857,5.857,0,0,1,2.29-1.326,5.247,5.247,0,0,1,3.948-.006,5.127,5.127,0,0,1,2.383,3.283l2.766,8.586Z" transform="translate(-4013.528 -819.977)" fill="#333b8c"/>
          <path id="Trazado_24094" data-name="Trazado 24094" d="M4064.7,837.3l-7.925-12.49,2.2-.452,4.566,7.435a39.1,39.1,0,0,1,1.915,3.42l.1-.019a28.083,28.083,0,0,1,.3-2.89q.3-2.206,1.4-9.646l2.2-.452-2.359,14.6Z" transform="translate(-4012.53 -820.286)" fill="#333b8c"/>
          <path id="Trazado_24095" data-name="Trazado 24095" d="M4078.722,835.316a6.354,6.354,0,0,1-5-1.378,7.233,7.233,0,0,1-2.279-4.984,8.021,8.021,0,0,1,1.112-5.45,5.468,5.468,0,0,1,4.2-2.4,5.21,5.21,0,0,1,4.263,1.293,6.54,6.54,0,0,1,1.954,4.338l.132,1.318-9.479.946a5.475,5.475,0,0,0,1.59,3.555,4.261,4.261,0,0,0,3.4.93,11.139,11.139,0,0,0,4.3-1.369l.186,1.859a11.214,11.214,0,0,1-2.022.893A11.874,11.874,0,0,1,4078.722,835.316Zm-1.813-12.462a3.415,3.415,0,0,0-2.536,1.344,5,5,0,0,0-.864,3.1l7.195-.718a4.607,4.607,0,0,0-1.18-2.931A3.107,3.107,0,0,0,4076.909,822.854Z" transform="translate(-4011.41 -820.373)" fill="#333b8c"/>
          <path id="Trazado_24096" data-name="Trazado 24096" d="M4091.894,820.424a8.158,8.158,0,0,1,1.655.125l-.258,1.948a7.158,7.158,0,0,0-1.517-.166,3.688,3.688,0,0,0-2.848,1.409,4.972,4.972,0,0,0-1.137,3.413l.119,7.417-2.093.036-.225-13.828,1.728-.027.282,2.557.1,0a6.083,6.083,0,0,1,1.82-2.111A4.187,4.187,0,0,1,4091.894,820.424Z" transform="translate(-4010.32 -820.423)" fill="#333b8c"/>
          <path id="Trazado_24097" data-name="Trazado 24097" d="M4104.506,831.545a3.462,3.462,0,0,1-1.667,2.856,6.755,6.755,0,0,1-4.106.728,8.791,8.791,0,0,1-4.21-1.2l.153-1.937a10.368,10.368,0,0,0,2.069.96,8.991,8.991,0,0,0,2.172.462,5,5,0,0,0,2.557-.325,1.8,1.8,0,0,0,.416-2.954,11.041,11.041,0,0,0-2.617-1.566,14.8,14.8,0,0,1-2.639-1.467,3.753,3.753,0,0,1-1.112-1.308,3.183,3.183,0,0,1-.268-1.654,3.1,3.1,0,0,1,1.579-2.553,6.408,6.408,0,0,1,3.837-.679,11.021,11.021,0,0,1,4.282,1.248l-.876,1.639a10.031,10.031,0,0,0-3.693-1.15,4.321,4.321,0,0,0-2.275.29,1.441,1.441,0,0,0-.856,1.224,1.562,1.562,0,0,0,.209.965,2.8,2.8,0,0,0,.854.814,20.269,20.269,0,0,0,2.335,1.208,9.1,9.1,0,0,1,3.173,2.059A3.19,3.19,0,0,1,4104.506,831.545Z" transform="translate(-4009.635 -820.388)" fill="#333b8c"/>
          <path id="Trazado_24098" data-name="Trazado 24098" d="M4114.634,837.065l-.06-2.01-.1-.017a5.819,5.819,0,0,1-2.342,1.365,6.283,6.283,0,0,1-2.609,0,4.613,4.613,0,0,1-2.985-1.615,3.868,3.868,0,0,1-.613-3.174q.743-4.123,7.374-3.133l2.322.341.152-.844a3.5,3.5,0,0,0-.263-2.489,2.884,2.884,0,0,0-2.066-1.162,9.145,9.145,0,0,0-4.038.35l-.349-1.691a9.931,9.931,0,0,1,2.359-.46,9.7,9.7,0,0,1,2.459.124,5.264,5.264,0,0,1,3.413,1.73,4.58,4.58,0,0,1,.548,3.676l-1.674,9.288Zm-4.395-2.292a4.248,4.248,0,0,0,3.213-.509,3.965,3.965,0,0,0,1.632-2.757l.222-1.229-2.077-.285a7.614,7.614,0,0,0-3.684.124,2.342,2.342,0,0,0-1.465,1.91,2.152,2.152,0,0,0,.371,1.823A2.843,2.843,0,0,0,4110.24,834.773Z" transform="translate(-4008.768 -820.264)" fill="#333b8c"/>
          <path id="Trazado_24099" data-name="Trazado 24099" d="M4124.1,839.791a5.9,5.9,0,0,1-3.959-3.058,7.6,7.6,0,0,1-.142-5.482,7.834,7.834,0,0,1,3.083-4.693,6.017,6.017,0,0,1,5.1-.508,9.521,9.521,0,0,1,1.857.756,6.57,6.57,0,0,1,1.365.916l-1.109,1.533a9.832,9.832,0,0,0-1.329-.86,6.781,6.781,0,0,0-1.344-.576q-4.052-1.161-5.532,4.008a6.4,6.4,0,0,0-.089,4.042,3.577,3.577,0,0,0,2.554,2.15,9.321,9.321,0,0,0,3.614.262l-.511,1.782A7.572,7.572,0,0,1,4124.1,839.791Z" transform="translate(-4007.714 -820.016)" fill="#333b8c"/>
          <path id="Trazado_24100" data-name="Trazado 24100" d="M4131.5,842.4l-1.967-.718,4.745-12.99,1.967.718Zm3.9-17.289a1.39,1.39,0,0,1,.693-.869,1.306,1.306,0,0,1,1.644.608,1.364,1.364,0,0,1-.014,1.109,1.39,1.39,0,0,1-.705.864,1.283,1.283,0,0,1-1.648-.6A1.417,1.417,0,0,1,4135.393,825.112Z" transform="translate(-4006.951 -820.137)" fill="#333b8c"/>
          <path id="Trazado_24101" data-name="Trazado 24101" d="M4148.573,842.213a7.623,7.623,0,0,1-3.765,4.074,6,6,0,0,1-5.069-.255,6.234,6.234,0,0,1-2.621-2.175,5.748,5.748,0,0,1-.966-3.2,8.734,8.734,0,0,1,.893-3.787,7.617,7.617,0,0,1,3.75-4.068,5.975,5.975,0,0,1,5.051.262,5.85,5.85,0,0,1,3.374,3.691A7.591,7.591,0,0,1,4148.573,842.213Zm-9.558-4.43a6.558,6.558,0,0,0-.737,4.109,4.206,4.206,0,0,0,5.658,2.629,6.526,6.526,0,0,0,2.667-3.221,6.406,6.406,0,0,0,.717-4.083,3.737,3.737,0,0,0-2.28-2.565,3.68,3.68,0,0,0-3.383-.081A6.494,6.494,0,0,0,4139.015,837.783Zm6-7.19q.88-.454,1.981-1.168a21.954,21.954,0,0,0,1.813-1.287l2.313,1.071-.112.24a18.573,18.573,0,0,1-2.35,1.137,18.808,18.808,0,0,1-2.508.882l-1.27-.589Z" transform="translate(-4006.442 -819.831)" fill="#333b8c"/>
          <path id="Trazado_24102" data-name="Trazado 24102" d="M4155.6,854.271l4.7-7.615a3.611,3.611,0,0,0,.668-2.552,3.137,3.137,0,0,0-1.614-1.974,3.975,3.975,0,0,0-3.323-.669,5.926,5.926,0,0,0-2.893,2.767l-3.806,6.176-1.783-1.1,7.256-11.771,1.45.894-.7,1.789.086.053a4.282,4.282,0,0,1,2.366-.4,5.864,5.864,0,0,1,2.5.88,5.249,5.249,0,0,1,2.567,3,5.13,5.13,0,0,1-.948,3.943l-4.733,7.68Z" transform="translate(-4005.568 -819.11)" fill="#333b8c"/>
        </g>
      </g>
      <circle id="Elipse_910" data-name="Elipse 910" cx="48.001" cy="48.001" r="48.001" transform="translate(4057.636 921.271)" fill="#333b8c"/>
      <path id="Trazado_24249" data-name="Trazado 24249" d="M-31.084-5.981a1.542,1.542,0,0,0-1.323.642,2.987,2.987,0,0,0-.469,1.79q0,2.388,1.792,2.388a5.665,5.665,0,0,0,1.821-.376v1.27A5.058,5.058,0,0,1-31.226.1a2.994,2.994,0,0,1-2.383-.945,4,4,0,0,1-.825-2.712,4.429,4.429,0,0,1,.405-1.951,2.929,2.929,0,0,1,1.165-1.284,3.445,3.445,0,0,1,1.78-.447,4.8,4.8,0,0,1,2.09.5l-.488,1.23a8.083,8.083,0,0,0-.806-.332A2.4,2.4,0,0,0-31.084-5.981Zm9.619,2.4a3.874,3.874,0,0,1-.879,2.725A3.258,3.258,0,0,1-24.863.1a3.258,3.258,0,0,1-2.52-.952,3.889,3.889,0,0,1-.879-2.734,3.836,3.836,0,0,1,.881-2.722,3.3,3.3,0,0,1,2.527-.94,3.25,3.25,0,0,1,2.517.947A3.884,3.884,0,0,1-21.465-3.579Zm-5.21,0a2.982,2.982,0,0,0,.454,1.8,1.589,1.589,0,0,0,1.357.605q1.812,0,1.812-2.407t-1.8-2.412a1.6,1.6,0,0,0-1.362.608A2.969,2.969,0,0,0-26.675-3.579ZM-13.652,0h-1.924l-3.105-5.4h-.044q.093,1.431.093,2.041V0h-1.353V-7.139h1.909l3.1,5.347h.034q-.073-1.392-.073-1.968V-7.139h1.362Zm6.011-1.982a1.845,1.845,0,0,1-.7,1.523A3.023,3.023,0,0,1-10.273.1a4.547,4.547,0,0,1-2.021-.43V-1.738a8.33,8.33,0,0,0,1.223.454,3.619,3.619,0,0,0,.916.132,1.3,1.3,0,0,0,.764-.19.651.651,0,0,0,.266-.566.625.625,0,0,0-.117-.374A1.311,1.311,0,0,0-9.587-2.6a8.853,8.853,0,0,0-.925-.483,4.386,4.386,0,0,1-.981-.591,2.218,2.218,0,0,1-.522-.659,1.881,1.881,0,0,1-.2-.879A1.845,1.845,0,0,1-11.57-6.7a2.668,2.668,0,0,1,1.775-.542,4.191,4.191,0,0,1,1.062.132,7.3,7.3,0,0,1,1.057.371l-.488,1.177a7.144,7.144,0,0,0-.945-.327,3.041,3.041,0,0,0-.735-.093.973.973,0,0,0-.659.2.66.66,0,0,0-.229.522.647.647,0,0,0,.093.349,1.02,1.02,0,0,0,.3.288,9.134,9.134,0,0,0,.959.5,3.818,3.818,0,0,1,1.372.959A1.873,1.873,0,0,1-7.642-1.982Zm7.1-5.156V-2.52A2.663,2.663,0,0,1-.891-1.133,2.3,2.3,0,0,1-1.914-.22,3.658,3.658,0,0,1-3.5.1,3.029,3.029,0,0,1-5.635-.608,2.5,2.5,0,0,1-6.4-2.539v-4.6h1.509v4.37a1.83,1.83,0,0,0,.332,1.211,1.38,1.38,0,0,0,1.1.386A1.35,1.35,0,0,0-2.38-1.56a1.84,1.84,0,0,0,.334-1.218v-4.36ZM4.233,0,2.515-5.6H2.471q.093,1.709.093,2.28V0H1.211V-7.139H3.271L4.961-1.68H4.99L6.782-7.139H8.843V0H7.432V-3.379q0-.239.007-.552T7.5-5.591H7.461L5.62,0ZM10.64,0V-7.139h1.514V0Zm9.233-3.638a3.515,3.515,0,0,1-1,2.7,4.092,4.092,0,0,1-2.9.938H13.95V-7.139h2.241a3.774,3.774,0,0,1,2.715.923A3.4,3.4,0,0,1,19.873-3.638ZM18.3-3.6q0-2.3-2.031-2.3h-.806V-1.25h.649Q18.3-1.25,18.3-3.6Zm9.531.02a3.874,3.874,0,0,1-.879,2.725A3.258,3.258,0,0,1,24.434.1a3.258,3.258,0,0,1-2.52-.952,3.889,3.889,0,0,1-.879-2.734,3.836,3.836,0,0,1,.881-2.722,3.3,3.3,0,0,1,2.527-.94A3.25,3.25,0,0,1,26.96-6.3,3.884,3.884,0,0,1,27.832-3.579Zm-5.21,0a2.982,2.982,0,0,0,.454,1.8,1.589,1.589,0,0,0,1.357.605q1.812,0,1.812-2.407t-1.8-2.412a1.6,1.6,0,0,0-1.362.608A2.969,2.969,0,0,0,22.622-3.579Zm8.2-.391h.488a1.868,1.868,0,0,0,1.06-.239.854.854,0,0,0,.342-.752.781.781,0,0,0-.349-.723A2.119,2.119,0,0,0,31.284-5.9h-.459Zm0,1.23V0H29.312V-7.139h2.08a3.56,3.56,0,0,1,2.153.53A1.891,1.891,0,0,1,34.243-5,1.894,1.894,0,0,1,33.9-3.879a2.294,2.294,0,0,1-.981.769Q34.526-.7,35.015,0h-1.68l-1.7-2.739Z" transform="translate(4102.953 971.465)" fill="#fff"/>
      <g id="Grupo_14541" data-name="Grupo 14541" transform="translate(4036.937 880.161)">
        <g id="Grupo_14540" data-name="Grupo 14540">
          <path id="Trazado_24103" data-name="Trazado 24103" d="M4046.19,906.207l-6.922,7.6-13.643-12.416,6.923-7.606,1.408,1.282-5.478,6.019,4.394,4,5.147-5.654,1.4,1.274-5.147,5.655,5.02,4.57,5.478-6.019Z" transform="translate(-4025.625 -868.502)" fill="#fff"/>
          <path id="Trazado_24104" data-name="Trazado 24104" d="M4045.886,897.124l-7.9-2.493,1.9-1.436,6.1,2.033-.293-6.419,1.883-1.421.23,8.284,8.3,2.6-1.893,1.429-6.466-2.137.253,6.828-1.893,1.429Z" transform="translate(-4024.678 -868.993)" fill="#fff"/>
          <path id="Trazado_24105" data-name="Trazado 24105" d="M4062.664,895.2a5.952,5.952,0,0,1-2.437.624,4.626,4.626,0,0,1-2.354-.564l-.137.066a18.416,18.416,0,0,1,1.136,2l2.477,5.124-1.886.911-8.718-18.041,1.534-.741,1.084,1.578.091-.044a4.852,4.852,0,0,1,.979-2.294,5.721,5.721,0,0,1,2-1.526,5.121,5.121,0,0,1,4.642-.155,10.017,10.017,0,0,1,4.575,9.526A5.119,5.119,0,0,1,4062.664,895.2Zm-5.734-11.172a3.718,3.718,0,0,0-2.25,2.391,6.046,6.046,0,0,0,.75,3.786l.2.42a6.916,6.916,0,0,0,2.688,3.331,3.7,3.7,0,0,0,3.353-.225,3.241,3.241,0,0,0,1.9-2.528,6.884,6.884,0,0,0-.825-4.044,6.632,6.632,0,0,0-2.641-3.13A3.342,3.342,0,0,0,4056.93,884.033Z" transform="translate(-4023.699 -869.432)" fill="#fff"/>
          <path id="Trazado_24106" data-name="Trazado 24106" d="M4074.922,890.859a6.349,6.349,0,0,1-5.147-.634,7.222,7.222,0,0,1-2.98-4.6,8.02,8.02,0,0,1,.306-5.554,5.468,5.468,0,0,1,3.811-2.985,5.216,5.216,0,0,1,4.406.659,6.546,6.546,0,0,1,2.564,4.006l.323,1.286-9.242,2.316a5.487,5.487,0,0,0,2.093,3.287,4.251,4.251,0,0,0,3.5.424,11.114,11.114,0,0,0,4.056-1.979l.455,1.811a11.139,11.139,0,0,1-1.87,1.179A11.85,11.85,0,0,1,4074.922,890.859Zm-3.608-12.063a3.424,3.424,0,0,0-2.313,1.7,5.009,5.009,0,0,0-.4,3.2l7.014-1.758a4.614,4.614,0,0,0-1.595-2.728A3.111,3.111,0,0,0,4071.313,878.8Z" transform="translate(-4022.494 -869.799)" fill="#fff"/>
          <path id="Trazado_24107" data-name="Trazado 24107" d="M4086.729,874.794a8.236,8.236,0,0,1,1.659.023l-.138,1.96a7.142,7.142,0,0,0-1.524-.071,3.687,3.687,0,0,0-2.755,1.582,4.976,4.976,0,0,0-.925,3.478l.578,7.4-2.087.164-1.077-13.788,1.724-.135.438,2.536.1-.008a6.065,6.065,0,0,1,1.687-2.219A4.169,4.169,0,0,1,4086.729,874.794Z" transform="translate(-4021.419 -869.961)" fill="#fff"/>
          <path id="Trazado_24108" data-name="Trazado 24108" d="M4092.865,889.293l-2.093-.073.48-13.82,2.093.073Zm-1.66-17.644a1.392,1.392,0,0,1,.39-1.041,1.309,1.309,0,0,1,1.753.067,1.371,1.371,0,0,1,.329,1.061,1.39,1.39,0,0,1-.4,1.04,1.224,1.224,0,0,1-.883.317,1.209,1.209,0,0,1-.87-.378A1.418,1.418,0,0,1,4091.2,871.649Z" transform="translate(-4020.629 -870.303)" fill="#fff"/>
          <path id="Trazado_24109" data-name="Trazado 24109" d="M4101.964,890.249a6.353,6.353,0,0,1-4.439-2.682,7.228,7.228,0,0,1-.842-5.415,8.019,8.019,0,0,1,2.548-4.944,5.468,5.468,0,0,1,4.7-1.167,5.217,5.217,0,0,1,3.752,2.4,6.555,6.555,0,0,1,.706,4.706l-.231,1.3-9.381-1.661a5.486,5.486,0,0,0,.568,3.856,4.253,4.253,0,0,0,3.016,1.814,11.132,11.132,0,0,0,4.511-.149l-.325,1.838a11.038,11.038,0,0,1-2.188.311A11.75,11.75,0,0,1,4101.964,890.249Zm1.633-12.485a3.422,3.422,0,0,0-2.8.605,5.008,5.008,0,0,0-1.672,2.754l7.119,1.26a4.6,4.6,0,0,0-.341-3.142A3.109,3.109,0,0,0,4103.6,877.764Z" transform="translate(-4020.188 -869.872)" fill="#fff"/>
          <path id="Trazado_24110" data-name="Trazado 24110" d="M4117.437,894.936l3.313-8.309a3.612,3.612,0,0,0,.219-2.629,3.138,3.138,0,0,0-1.929-1.667,3.978,3.978,0,0,0-3.39-.087,5.928,5.928,0,0,0-2.372,3.225l-2.687,6.738-1.945-.775,5.121-12.845,1.583.631-.384,1.884.095.037a4.286,4.286,0,0,1,2.261-.8,5.871,5.871,0,0,1,2.611.436,5.255,5.255,0,0,1,3.046,2.512,5.135,5.135,0,0,1-.255,4.048l-3.342,8.38Z" transform="translate(-4019.257 -869.668)" fill="#fff"/>
          <path id="Trazado_24111" data-name="Trazado 24111" d="M4125.827,900.02a5.9,5.9,0,0,1-2.923-4.06,7.6,7.6,0,0,1,1.429-5.294,7.839,7.839,0,0,1,4.3-3.619,6.026,6.026,0,0,1,5.034.97,9.523,9.523,0,0,1,1.564,1.254,6.59,6.59,0,0,1,1.045,1.267l-1.5,1.153a9.94,9.94,0,0,0-1.027-1.2,6.691,6.691,0,0,0-1.124-.937q-3.551-2.269-6.445,2.261a6.382,6.382,0,0,0-1.24,3.849,3.577,3.577,0,0,0,1.833,2.789,9.3,9.3,0,0,0,3.39,1.281l-1,1.564A7.559,7.559,0,0,1,4125.827,900.02Z" transform="translate(-4018.169 -869.035)" fill="#fff"/>
          <path id="Trazado_24112" data-name="Trazado 24112" d="M4131.975,904.657l-1.61-1.339,8.846-10.629,1.611,1.339Zm9.5-14.963a1.39,1.39,0,0,1,.945-.584,1.308,1.308,0,0,1,1.344,1.126,1.36,1.36,0,0,1-.389,1.039,1.386,1.386,0,0,1-.955.576,1.279,1.279,0,0,1-1.348-1.122A1.408,1.408,0,0,1,4141.473,889.694Z" transform="translate(-4017.592 -868.861)" fill="#fff"/>
          <path id="Trazado_24113" data-name="Trazado 24113" d="M4140.262,912.7l1.177-1.631-.067-.075a5.814,5.814,0,0,1-2.69-.342,6.262,6.262,0,0,1-2.067-1.591,4.615,4.615,0,0,1-1.385-3.1,3.868,3.868,0,0,1,1.446-2.892q3.1-2.817,7.755,2l1.635,1.686.635-.578a3.512,3.512,0,0,0,1.309-2.134,2.888,2.888,0,0,0-.934-2.179,9.136,9.136,0,0,0-3.415-2.183l.753-1.553a10.061,10.061,0,0,1,4.026,2.665,5.273,5.273,0,0,1,1.653,3.452,4.581,4.581,0,0,1-1.8,3.25l-6.984,6.348Zm-2.088-4.494a4.25,4.25,0,0,0,2.86,1.553,3.97,3.97,0,0,0,2.974-1.194l.924-.84-1.474-1.491a7.62,7.62,0,0,0-3-2.143,2.338,2.338,0,0,0-2.324.621,2.153,2.153,0,0,0-.817,1.671A2.853,2.853,0,0,0,4138.174,908.2Z" transform="translate(-4017.219 -868.169)" fill="#fff"/>
        </g>
      </g>
    </g>
  </g>
</svg>
