<svg xmlns="http://www.w3.org/2000/svg" width="135.948" height="135.948" viewBox="0 0 135.948 135.948">
  <g id="Grupo_14446" data-name="Grupo 14446" transform="translate(-1488.555 -42.393)">
    <circle id="Elipse_902" data-name="Elipse 902" cx="67.974" cy="67.974" r="67.974" transform="translate(1488.555 42.393)" fill="#175d76"/>
    <g id="Grupo_14441" data-name="Grupo 14441">
      <path id="Trazado_23886" data-name="Trazado 23886" d="M1536.6,111.553a5,5,0,0,1,1.881.7,5.584,5.584,0,0,1,1.465,1.332,6.286,6.286,0,0,1,.965,1.814,6.532,6.532,0,0,1,.35,2.148,5.977,5.977,0,0,1-.666,2.829,6.2,6.2,0,0,1-1.881,2.148,8.9,8.9,0,0,1-2.98,1.348,15.5,15.5,0,0,1-3.961.466,14.414,14.414,0,0,1-4.528-.649,10.532,10.532,0,0,1-3.563-2.014l3.23-4.594a6.506,6.506,0,0,0,2.047,1.115,8.07,8.07,0,0,0,2.481.349,4.608,4.608,0,0,0,2.48-.516,1.831,1.831,0,0,0,.783-1.648,1.908,1.908,0,0,0-1-1.814,7.149,7.149,0,0,0-3.263-.55h-1.032v-4.394h1.165a4.71,4.71,0,0,0,2.564-.616,1.9,1.9,0,0,0,.965-1.682,1.5,1.5,0,0,0-.566-1.248,2.511,2.511,0,0,0-1.6-.45,4.315,4.315,0,0,0-2.181.583,5.333,5.333,0,0,0-1.781,1.748l-3.995-4.695a6.567,6.567,0,0,1,1.515-1.215,11.106,11.106,0,0,1,2.064-.949,14.994,14.994,0,0,1,2.447-.616,16.2,16.2,0,0,1,2.663-.216,12.779,12.779,0,0,1,3.363.416,8.016,8.016,0,0,1,2.6,1.181,5.63,5.63,0,0,1,1.665,1.848,4.9,4.9,0,0,1,.6,2.414,5.418,5.418,0,0,1-.333,1.9,6.14,6.14,0,0,1-.9,1.631,5.294,5.294,0,0,1-1.348,1.232A4.677,4.677,0,0,1,1536.6,111.553Z" fill="#ffdc00"/>
      <path id="Trazado_23887" data-name="Trazado 23887" d="M1561.339,116.014a8.051,8.051,0,0,1-.666,3.279,7.876,7.876,0,0,1-1.865,2.631,9,9,0,0,1-2.813,1.764,9.326,9.326,0,0,1-3.512.65,7.752,7.752,0,0,1-6.575-3.063q-2.314-3.063-2.314-8.59a19.428,19.428,0,0,1,.649-5.244,11.565,11.565,0,0,1,1.881-3.929,8.369,8.369,0,0,1,3-2.48,8.957,8.957,0,0,1,4-.865,10.3,10.3,0,0,1,7.524,3.2l-3.5,4.061a5.679,5.679,0,0,0-4.128-1.8,3.418,3.418,0,0,0-2.58.983,4.062,4.062,0,0,0-1.016,2.78,5.213,5.213,0,0,1,3.6-1.132,9.171,9.171,0,0,1,3.313.582,8,8,0,0,1,2.63,1.632,7.62,7.62,0,0,1,1.748,2.463A7.473,7.473,0,0,1,1561.339,116.014Zm-8.856,3.03a2.465,2.465,0,0,0,1.082-.25,2.956,2.956,0,0,0,.9-.666,3.371,3.371,0,0,0,.616-.965,2.92,2.92,0,0,0,.233-1.149,2.67,2.67,0,0,0-.833-1.981,2.853,2.853,0,0,0-3.995,0,2.67,2.67,0,0,0-.832,1.981,2.9,2.9,0,0,0,.233,1.149,3.31,3.31,0,0,0,.616.965,2.945,2.945,0,0,0,.9.666A2.458,2.458,0,0,0,1552.483,119.044Z" fill="#ffdc00"/>
    </g>
    <g id="Grupo_14442" data-name="Grupo 14442">
      <path id="Trazado_23888" data-name="Trazado 23888" d="M1553.015,105.626a5.681,5.681,0,0,1,4.129,1.8l3.5-4.061a10.3,10.3,0,0,0-7.525-3.2c-.192,0-.382,0-.569.014v5.47C1552.7,105.636,1552.853,105.626,1553.015,105.626Z" fill="#ffc000"/>
      <path id="Trazado_23889" data-name="Trazado 23889" d="M1560.706,112.934a7.62,7.62,0,0,0-1.748-2.464,7.973,7.973,0,0,0-2.63-1.631,9.163,9.163,0,0,0-3.313-.583c-.161,0-.316.007-.469.015v4.949a2.74,2.74,0,0,1,1.934.813,2.67,2.67,0,0,1,.833,1.981,2.916,2.916,0,0,1-.233,1.148,3.363,3.363,0,0,1-.616.966,2.972,2.972,0,0,1-.9.666,2.459,2.459,0,0,1-1.019.246v5.3a9.316,9.316,0,0,0,3.449-.648,9.014,9.014,0,0,0,2.813-1.765,7.872,7.872,0,0,0,1.865-2.63,8.075,8.075,0,0,0,.666-3.28A7.457,7.457,0,0,0,1560.706,112.934Z" fill="#ffc000"/>
      <path id="Trazado_23890" data-name="Trazado 23890" d="M1583.651,112.218a14.244,14.244,0,0,1-.8,4.859,11.872,11.872,0,0,1-2.22,3.84,10.03,10.03,0,0,1-3.36,2.52,10.341,10.341,0,0,1-8.439,0,10.029,10.029,0,0,1-3.36-2.52,11.829,11.829,0,0,1-2.22-3.84,15.161,15.161,0,0,1,0-9.719,11.839,11.839,0,0,1,2.22-3.84,10.276,10.276,0,0,1,3.36-2.54,10.136,10.136,0,0,1,8.439,0,10.263,10.263,0,0,1,3.36,2.54,11.872,11.872,0,0,1,2.22,3.84A14.237,14.237,0,0,1,1583.651,112.218Zm-7.68,0a7.563,7.563,0,0,0-.819-3.76,2.407,2.407,0,0,0-2.1-1.44,2.454,2.454,0,0,0-2.179,1.44,7.552,7.552,0,0,0-.82,3.76,7.433,7.433,0,0,0,.82,3.739,2.455,2.455,0,0,0,2.179,1.42,2.408,2.408,0,0,0,2.1-1.42A7.444,7.444,0,0,0,1575.971,112.218Z" fill="#ffc000"/>
      <path id="Trazado_23891" data-name="Trazado 23891" d="M1584.775,102.251a4.6,4.6,0,1,1,4.6-4.6A4.6,4.6,0,0,1,1584.775,102.251Zm0-5.722a1.124,1.124,0,1,0,1.124,1.124A1.126,1.126,0,0,0,1584.775,96.529Z" fill="#ffc000"/>
    </g>
    <g id="Grupo_14443" data-name="Grupo 14443">
      <line id="Línea_449" data-name="Línea 449" y1="6.088" x2="22.721" transform="translate(1592.392 94.823)" fill="none" stroke="#fff" stroke-linecap="round" stroke-linejoin="round" stroke-width="1.062"/>
      <line id="Línea_450" data-name="Línea 450" x1="6.088" y1="22.721" transform="translate(1540.785 51.582)" fill="none" stroke="#fff" stroke-linecap="round" stroke-linejoin="round" stroke-width="1.062"/>
      <line id="Línea_451" data-name="Línea 451" y1="20.371" x2="11.761" transform="translate(1575.143 57.809)" fill="none" stroke="#fff" stroke-linecap="round" stroke-linejoin="round" stroke-width="1.062"/>
      <line id="Línea_452" data-name="Línea 452" x2="20.371" y2="11.761" transform="translate(1588.515 129.182)" fill="none" stroke="#fff" stroke-linecap="round" stroke-linejoin="round" stroke-width="1.062"/>
      <line id="Línea_453" data-name="Línea 453" x2="6.088" y2="22.721" transform="translate(1565.784 146.43)" fill="none" stroke="#fff" stroke-linecap="round" stroke-linejoin="round" stroke-width="1.062"/>
      <line id="Línea_454" data-name="Línea 454" x1="11.761" y2="20.371" transform="translate(1525.752 142.553)" fill="none" stroke="#fff" stroke-linecap="round" stroke-linejoin="round" stroke-width="1.062"/>
      <line id="Línea_455" data-name="Línea 455" x1="22.721" y2="6.088" transform="translate(1497.543 119.822)" fill="none" stroke="#fff" stroke-linecap="round" stroke-linejoin="round" stroke-width="1.062"/>
      <line id="Línea_456" data-name="Línea 456" x1="20.371" y1="11.761" transform="translate(1503.77 79.791)" fill="none" stroke="#fff" stroke-linecap="round" stroke-linejoin="round" stroke-width="1.062"/>
    </g>
    <g id="Grupo_14444" data-name="Grupo 14444">
      <line id="Línea_457" data-name="Línea 457" x2="22.721" y2="6.088" transform="translate(1592.288 120.21)" fill="none" stroke="#fff" stroke-linecap="round" stroke-linejoin="round" stroke-width="1.062"/>
      <line id="Línea_458" data-name="Línea 458" y1="22.721" x2="6.088" transform="translate(1566.171 51.686)" fill="none" stroke="#fff" stroke-linecap="round" stroke-linejoin="round" stroke-width="1.062"/>
      <line id="Línea_459" data-name="Línea 459" y1="11.761" x2="20.371" transform="translate(1588.716 80.138)" fill="none" stroke="#fff" stroke-linecap="round" stroke-linejoin="round" stroke-width="1.062"/>
      <line id="Línea_460" data-name="Línea 460" x2="11.761" y2="20.371" transform="translate(1574.795 142.754)" fill="none" stroke="#fff" stroke-linecap="round" stroke-linejoin="round" stroke-width="1.062"/>
      <line id="Línea_461" data-name="Línea 461" x1="6.088" y2="22.721" transform="translate(1540.397 146.326)" fill="none" stroke="#fff" stroke-linecap="round" stroke-linejoin="round" stroke-width="1.062"/>
      <line id="Línea_462" data-name="Línea 462" x1="20.371" y2="11.761" transform="translate(1503.569 128.834)" fill="none" stroke="#fff" stroke-linecap="round" stroke-linejoin="round" stroke-width="1.062"/>
      <line id="Línea_463" data-name="Línea 463" x1="22.721" y1="6.088" transform="translate(1497.647 94.436)" fill="none" stroke="#fff" stroke-linecap="round" stroke-linejoin="round" stroke-width="1.062"/>
      <line id="Línea_464" data-name="Línea 464" x1="11.761" y1="20.371" transform="translate(1526.1 57.608)" fill="none" stroke="#fff" stroke-linecap="round" stroke-linejoin="round" stroke-width="1.062"/>
    </g>
    <g id="Grupo_14445" data-name="Grupo 14445">
      <line id="Línea_465" data-name="Línea 465" x2="23.523" transform="translate(1593.61 110.568)" fill="none" stroke="#fff" stroke-linecap="round" stroke-linejoin="round" stroke-width="1.062"/>
      <line id="Línea_466" data-name="Línea 466" y1="23.523" transform="translate(1556.529 49.562)" fill="none" stroke="#fff" stroke-linecap="round" stroke-linejoin="round" stroke-width="1.062"/>
      <line id="Línea_467" data-name="Línea 467" y1="16.633" x2="16.633" transform="translate(1582.832 67.513)" fill="none" stroke="#fff" stroke-linecap="round" stroke-linejoin="round" stroke-width="1.062"/>
      <line id="Línea_468" data-name="Línea 468" x2="16.633" y2="16.633" transform="translate(1582.549 136.871)" fill="none" stroke="#fff" stroke-linecap="round" stroke-linejoin="round" stroke-width="1.062"/>
      <line id="Línea_469" data-name="Línea 469" y2="23.523" transform="translate(1556.128 147.649)" fill="none" stroke="#fff" stroke-linecap="round" stroke-linejoin="round" stroke-width="1.062"/>
      <line id="Línea_470" data-name="Línea 470" x1="16.633" y2="16.633" transform="translate(1513.191 136.587)" fill="none" stroke="#fff" stroke-linecap="round" stroke-linejoin="round" stroke-width="1.062"/>
      <line id="Línea_471" data-name="Línea 471" x1="23.523" transform="translate(1495.524 110.166)" fill="none" stroke="#fff" stroke-linecap="round" stroke-linejoin="round" stroke-width="1.062"/>
      <line id="Línea_472" data-name="Línea 472" x1="16.633" y1="16.633" transform="translate(1513.475 67.229)" fill="none" stroke="#fff" stroke-linecap="round" stroke-linejoin="round" stroke-width="1.062"/>
    </g>
  </g>
</svg>
