<svg xmlns="http://www.w3.org/2000/svg" width="645" height="645" viewBox="0 0 645 645">
  <g id="Grupo_14568" data-name="Grupo 14568" transform="translate(-142.5 -3625.5)">
    <g id="Grupo_14547" data-name="Grupo 14547" transform="translate(144.03 3627.208)">
      <circle id="Elipse_923" data-name="Elipse 923" cx="321" cy="321" r="321" transform="translate(-0.03 -0.208)" fill="#fff" stroke="#91cff4" stroke-miterlimit="10" stroke-width="3"/>
      <ellipse id="Elipse_924" data-name="Elipse 924" cx="238.031" cy="238.03" rx="238.031" ry="238.03" transform="translate(82.834 82.758)" fill="#fff" stroke="#71b3e1" stroke-miterlimit="10" stroke-width="3"/>
      <ellipse id="Elipse_925" data-name="Elipse 925" cx="154.729" cy="154.729" rx="154.729" ry="154.729" transform="translate(166.135 166.06)" fill="#fff" stroke="#4674b8" stroke-miterlimit="10" stroke-width="3"/>
      <ellipse id="Elipse_926" data-name="Elipse 926" cx="67.783" cy="67.783" rx="67.783" ry="67.783" transform="translate(253.082 253.006)" fill="#333b8c"/>
      <path id="Trazado_24279" data-name="Trazado 24279" d="M-28.238,0l-2.234-7.281h-.057q.121,2.222.121,2.964V0h-1.758V-9.28h2.679l2.2,7.1h.038l2.33-7.1h2.679V0H-24.08V-4.393q0-.311.01-.717t.086-2.158h-.057L-26.435,0Zm13.673,0h-5.345V-9.28h5.345v1.612h-3.377V-5.63H-14.8v1.612h-3.142v2.393h3.377ZM-4.4,0H-6.9l-4.037-7.021h-.057q.121,1.86.121,2.653V0h-1.758V-9.28h2.482L-6.116-2.33h.044q-.1-1.809-.1-2.558V-9.28H-4.4ZM3.418-2.577a2.4,2.4,0,0,1-.9,1.98A3.929,3.929,0,0,1,0,.127,5.911,5.911,0,0,1-2.631-.432V-2.26a10.83,10.83,0,0,0,1.59.59A4.705,4.705,0,0,0,.149-1.5a1.692,1.692,0,0,0,.993-.248.847.847,0,0,0,.346-.736.813.813,0,0,0-.152-.486,1.7,1.7,0,0,0-.448-.409,11.51,11.51,0,0,0-1.2-.628A5.7,5.7,0,0,1-1.59-4.773a2.883,2.883,0,0,1-.679-.857,2.445,2.445,0,0,1-.254-1.143,2.4,2.4,0,0,1,.835-1.936,3.468,3.468,0,0,1,2.307-.7A5.449,5.449,0,0,1,2-9.242a9.49,9.49,0,0,1,1.374.482L2.739-7.23a9.287,9.287,0,0,0-1.228-.425,3.954,3.954,0,0,0-.955-.121,1.265,1.265,0,0,0-.857.26.858.858,0,0,0-.3.679.841.841,0,0,0,.121.454A1.326,1.326,0,0,0-.1-6.008a11.874,11.874,0,0,0,1.247.651A4.963,4.963,0,0,1,2.936-4.11,2.434,2.434,0,0,1,3.418-2.577ZM10.781,0l-.673-2.209H6.725L6.052,0H3.932L7.208-9.318H9.614L12.9,0ZM9.639-3.859q-.933-3-1.051-3.4T8.42-7.877q-.209.812-1.2,4.018Zm5.148,6.589a4.3,4.3,0,0,1-1.162-.14V.952a3.849,3.849,0,0,0,.927.127,1.047,1.047,0,0,0,.927-.4,2.244,2.244,0,0,0,.279-1.26v-8.7h1.968V-.6a3.658,3.658,0,0,1-.743,2.476A2.759,2.759,0,0,1,14.787,2.729ZM25.406,0H20.062V-9.28h5.345v1.612H22.03V-5.63h3.142v1.612H22.03v2.393h3.377Zm7.414-2.577a2.4,2.4,0,0,1-.9,1.98A3.929,3.929,0,0,1,29.4.127a5.911,5.911,0,0,1-2.628-.559V-2.26a10.83,10.83,0,0,0,1.59.59,4.705,4.705,0,0,0,1.19.171,1.692,1.692,0,0,0,.993-.248.847.847,0,0,0,.346-.736.813.813,0,0,0-.152-.486,1.7,1.7,0,0,0-.448-.409,11.51,11.51,0,0,0-1.2-.628,5.7,5.7,0,0,1-1.276-.768,2.883,2.883,0,0,1-.679-.857,2.445,2.445,0,0,1-.254-1.143,2.4,2.4,0,0,1,.835-1.936,3.468,3.468,0,0,1,2.307-.7,5.449,5.449,0,0,1,1.381.171,9.49,9.49,0,0,1,1.374.482l-.635,1.53a9.287,9.287,0,0,0-1.228-.425,3.954,3.954,0,0,0-.955-.121,1.265,1.265,0,0,0-.857.26.858.858,0,0,0-.3.679.841.841,0,0,0,.121.454,1.326,1.326,0,0,0,.384.375,11.874,11.874,0,0,0,1.247.651A4.963,4.963,0,0,1,32.338-4.11,2.434,2.434,0,0,1,32.821-2.577ZM-46.865,15-49.1,7.719h-.057q.121,2.222.121,2.964V15h-1.758V5.72h2.679l2.2,7.1h.038l2.33-7.1h2.679V15h-1.834V10.607q0-.311.01-.717t.086-2.158h-.057L-45.062,15Zm16.751-4.653a5.036,5.036,0,0,1-1.143,3.542,4.236,4.236,0,0,1-3.275,1.238,4.236,4.236,0,0,1-3.275-1.238,5.055,5.055,0,0,1-1.143-3.555A4.987,4.987,0,0,1-37.8,6.8a4.285,4.285,0,0,1,3.285-1.222,4.225,4.225,0,0,1,3.272,1.231A5.049,5.049,0,0,1-30.113,10.347Zm-6.773,0a3.877,3.877,0,0,0,.59,2.342,2.066,2.066,0,0,0,1.765.787q2.355,0,2.355-3.129t-2.342-3.136A2.08,2.08,0,0,0-36.29,8,3.86,3.86,0,0,0-36.886,10.347Zm1.358-5.37V4.806A17.871,17.871,0,0,0-34.036,2.9h2.171v.133q-.33.33-1.127.981t-1.247.968Zm12.5.743h1.987L-24.191,15h-2.146l-3.148-9.28H-27.5l1.746,5.522q.146.489.3,1.139t.194.9a16.259,16.259,0,0,1,.476-2.044ZM-19.868,15V5.72H-17.9V15Zm4.3,0V5.72H-13.6v7.655h3.764V15Zm9.94-2.691V10.722h3.409v1.587ZM11.14,10.347A5.036,5.036,0,0,1,10,13.889a4.236,4.236,0,0,1-3.275,1.238,4.236,4.236,0,0,1-3.275-1.238A5.055,5.055,0,0,1,2.3,10.334,4.987,4.987,0,0,1,3.45,6.8,4.285,4.285,0,0,1,6.735,5.574a4.225,4.225,0,0,1,3.272,1.231A5.049,5.049,0,0,1,11.14,10.347Zm-6.773,0a3.877,3.877,0,0,0,.59,2.342,2.066,2.066,0,0,0,1.765.787q2.355,0,2.355-3.129T6.735,7.211A2.08,2.08,0,0,0,4.964,8,3.86,3.86,0,0,0,4.367,10.347ZM21.3,15H18.8L14.758,7.979H14.7q.121,1.86.121,2.653V15H13.063V5.72h2.482l4.031,6.951h.044q-.1-1.809-.1-2.558V5.72H21.3Zm2.336,0V5.72H25.6v7.655h3.764V15Zm7.344,0V5.72h1.968V15Zm12.537,0h-2.5L36.975,7.979h-.057q.121,1.86.121,2.653V15H35.28V5.72h2.482l4.031,6.951h.044q-.1-1.809-.1-2.558V5.72h1.771Zm7.681,0H45.849V5.72h5.345V7.332H47.817V9.37h3.142v1.612H47.817v2.393h3.377Z" transform="translate(318.046 288.495)" fill="#fff"/>
      <path id="Trazado_24280" data-name="Trazado 24280" d="M-9.639-8.566h2.666a5.138,5.138,0,0,1,2.646.519A1.805,1.805,0,0,1-3.5-6.4a2.078,2.078,0,0,1-.36,1.26,1.439,1.439,0,0,1-.958.592v.059a1.887,1.887,0,0,1,1.175.68,2.211,2.211,0,0,1,.36,1.324A2.182,2.182,0,0,1-4.134-.656,3.662,3.662,0,0,1-6.434,0H-9.639Zm1.816,3.393h1.055A1.928,1.928,0,0,0-5.7-5.4a.852.852,0,0,0,.331-.756.756.756,0,0,0-.36-.706,2.316,2.316,0,0,0-1.14-.214h-.955Zm0,1.441V-1.5h1.184a1.756,1.756,0,0,0,1.107-.287,1.06,1.06,0,0,0,.357-.879q0-1.066-1.523-1.066ZM1.371,0H-.445V-7.055H-2.771V-8.566H3.7v1.512H1.371ZM5.016,0V-8.566H6.832V-1.5h3.475V0ZM-28.737,9.189h3.4v4.441a9.581,9.581,0,0,1-1.556.378,10.133,10.133,0,0,1-1.491.108,3.773,3.773,0,0,1-2.962-1.14A4.741,4.741,0,0,1-32.37,9.705a4.316,4.316,0,0,1,1.187-3.234,4.505,4.505,0,0,1,3.29-1.16,6.366,6.366,0,0,1,2.543.527l-.6,1.453a4.31,4.31,0,0,0-1.951-.469,2.41,2.41,0,0,0-1.887.791A3.068,3.068,0,0,0-30.5,9.74a3.416,3.416,0,0,0,.571,2.13,1.977,1.977,0,0,0,1.661.735,5.876,5.876,0,0,0,1.154-.117V10.7h-1.623Zm12.41-3.756v5.543a3.2,3.2,0,0,1-.425,1.664,2.765,2.765,0,0,1-1.228,1.1,4.39,4.39,0,0,1-1.9.381,3.635,3.635,0,0,1-2.566-.847,3,3,0,0,1-.914-2.317V5.434h1.811v5.244a2.2,2.2,0,0,0,.4,1.453,1.656,1.656,0,0,0,1.318.463,1.619,1.619,0,0,0,1.292-.466,2.208,2.208,0,0,0,.4-1.462V5.434ZM-9.3,14h-4.934V5.434H-9.3V6.922h-3.117V8.8h2.9v1.488h-2.9V12.5H-9.3Zm3.6-4.764h.586a2.242,2.242,0,0,0,1.271-.287,1.025,1.025,0,0,0,.41-.9.937.937,0,0,0-.419-.867,2.542,2.542,0,0,0-1.3-.258h-.551Zm0,1.477V14H-7.509V5.434h2.5a4.272,4.272,0,0,1,2.584.636A2.269,2.269,0,0,1-1.591,8a2.273,2.273,0,0,1-.416,1.345,2.753,2.753,0,0,1-1.178.923Q-1.251,13.156-.665,14H-2.681l-2.045-3.287ZM2.229,9.236h.586a2.242,2.242,0,0,0,1.271-.287,1.025,1.025,0,0,0,.41-.9.937.937,0,0,0-.419-.867,2.542,2.542,0,0,0-1.3-.258H2.229Zm0,1.477V14H.413V5.434h2.5a4.272,4.272,0,0,1,2.584.636A2.269,2.269,0,0,1,6.331,8a2.273,2.273,0,0,1-.416,1.345,2.753,2.753,0,0,1-1.178.923Q6.671,13.156,7.257,14H5.241L3.2,10.713ZM8.335,14V5.434h1.816V14Zm3.973,0V5.434h1.816V12.5H17.6V14Zm6.779,0V5.434H20.9V12.5h3.475V14ZM31.11,14l-.621-2.039H27.366L26.745,14H24.788l3.023-8.6h2.221L33.067,14Zm-1.055-3.562q-.861-2.771-.97-3.135t-.155-.574q-.193.75-1.107,3.709Z" transform="translate(321.292 336.962)" fill="#fff"/>
    </g>
  </g>
</svg>
