<svg xmlns="http://www.w3.org/2000/svg" width="930" height="930" viewBox="0 0 930 930">
  <g id="Grupo_14569" data-name="Grupo 14569" transform="translate(-6233.551 -741.773)">
    <circle id="Elipse_927" data-name="Elipse 927" cx="465" cy="465" r="465" transform="translate(6233.551 741.773)" fill="#91cff4"/>
    <circle id="Elipse_928" data-name="Elipse 928" cx="344.539" cy="344.539" r="344.539" transform="translate(6354.011 862.233)" fill="#71b3e1"/>
    <path id="Trazado_24287" data-name="Trazado 24287" d="M-35.132-7.275a7.031,7.031,0,0,1-2.007,5.4A8.184,8.184,0,0,1-42.935,0h-4.043V-14.277H-42.5a7.548,7.548,0,0,1,5.43,1.846A6.789,6.789,0,0,1-35.132-7.275Zm-3.145.078q0-4.6-4.062-4.6H-43.95v9.3h1.3Q-38.276-2.5-38.276-7.2Zm9.131-.742h.977a3.736,3.736,0,0,0,2.119-.479,1.708,1.708,0,0,0,.684-1.5,1.562,1.562,0,0,0-.7-1.445,4.237,4.237,0,0,0-2.163-.43h-.918Zm0,2.461V0h-3.027V-14.277h4.16a7.12,7.12,0,0,1,4.307,1.06A3.782,3.782,0,0,1-22.31-10,3.788,3.788,0,0,1-23-7.759a4.588,4.588,0,0,1-1.963,1.538q3.223,4.814,4.2,6.221h-3.359l-3.408-5.479Zm18.4-2.461h.977a3.736,3.736,0,0,0,2.119-.479,1.708,1.708,0,0,0,.684-1.5,1.562,1.562,0,0,0-.7-1.445,4.237,4.237,0,0,0-2.163-.43h-.918Zm0,2.461V0h-3.027V-14.277h4.16a7.12,7.12,0,0,1,4.307,1.06A3.782,3.782,0,0,1-3.911-10,3.788,3.788,0,0,1-4.6-7.759,4.588,4.588,0,0,1-6.567-6.221Q-3.345-1.406-2.368,0H-5.728L-9.136-5.479ZM8.169,0,7.134-3.4H1.929L.894,0H-2.368L2.671-14.336h3.7L11.431,0ZM6.411-5.937q-1.436-4.619-1.616-5.225t-.259-.957q-.322,1.25-1.846,6.182ZM25.073-7.275a7.031,7.031,0,0,1-2.007,5.4A8.184,8.184,0,0,1,17.271,0H13.228V-14.277H17.71a7.548,7.548,0,0,1,5.43,1.846A6.789,6.789,0,0,1,25.073-7.275ZM21.929-7.2q0-4.6-4.062-4.6H16.255v9.3h1.3Q21.929-2.5,21.929-7.2Zm6.1,7.2V-14.277H31.06V0Zm19.58-7.158a7.747,7.747,0,0,1-1.758,5.449A6.517,6.517,0,0,1,40.815.2a6.517,6.517,0,0,1-5.039-1.9,7.778,7.778,0,0,1-1.758-5.469,7.672,7.672,0,0,1,1.763-5.444,6.592,6.592,0,0,1,5.054-1.88,6.5,6.5,0,0,1,5.034,1.895A7.767,7.767,0,0,1,47.612-7.158Zm-10.42,0a5.964,5.964,0,0,0,.908,3.6,3.178,3.178,0,0,0,2.715,1.211q3.623,0,3.623-4.814t-3.6-4.824a3.2,3.2,0,0,0-2.725,1.216A5.939,5.939,0,0,0,37.192-7.158Z" transform="translate(6497.75 1013.834) rotate(-45)"/>
    <path id="Trazado_24289" data-name="Trazado 24289" d="M-56.6-12.561a3.239,3.239,0,0,0-2.779,1.348,6.273,6.273,0,0,0-.984,3.758q0,5.014,3.763,5.014a11.9,11.9,0,0,0,3.825-.79V-.564A10.622,10.622,0,0,1-56.9.205a6.287,6.287,0,0,1-5-1.984,8.4,8.4,0,0,1-1.733-5.7,9.3,9.3,0,0,1,.851-4.1,6.151,6.151,0,0,1,2.446-2.7,7.235,7.235,0,0,1,3.738-.938,10.088,10.088,0,0,1,4.389,1.056l-1.025,2.584a16.973,16.973,0,0,0-1.692-.7A5.047,5.047,0,0,0-56.6-12.561Zm20.2,5.045a8.135,8.135,0,0,1-1.846,5.722,6.842,6.842,0,0,1-5.291,2,6.842,6.842,0,0,1-5.291-2,8.167,8.167,0,0,1-1.846-5.742,8.055,8.055,0,0,1,1.851-5.717,6.921,6.921,0,0,1,5.306-1.974,6.825,6.825,0,0,1,5.286,1.989A8.156,8.156,0,0,1-36.4-7.516Zm-10.941,0a6.262,6.262,0,0,0,.954,3.784,3.337,3.337,0,0,0,2.851,1.271q3.8,0,3.8-5.055t-3.784-5.065A3.359,3.359,0,0,0-46.378-11.3,6.236,6.236,0,0,0-47.342-7.516ZM-20,0h-4.04l-6.521-11.341h-.092q.195,3,.195,4.286V0h-2.84V-14.991h4.009l6.511,11.228h.072q-.154-2.922-.154-4.132v-7.1H-20ZM-9.854-12.561a3.239,3.239,0,0,0-2.779,1.348,6.273,6.273,0,0,0-.984,3.758q0,5.014,3.763,5.014a11.9,11.9,0,0,0,3.825-.79V-.564a10.622,10.622,0,0,1-4.122.769,6.287,6.287,0,0,1-5-1.984,8.4,8.4,0,0,1-1.733-5.7,9.3,9.3,0,0,1,.851-4.1,6.151,6.151,0,0,1,2.446-2.7,7.235,7.235,0,0,1,3.738-.938A10.088,10.088,0,0,1-5.465-14.15l-1.025,2.584a16.973,16.973,0,0,0-1.692-.7A5.047,5.047,0,0,0-9.854-12.561Zm19.216-2.43v9.7a5.592,5.592,0,0,1-.743,2.912A4.838,4.838,0,0,1,6.47-.461,7.682,7.682,0,0,1,3.148.205,6.361,6.361,0,0,1-1.343-1.277a5.256,5.256,0,0,1-1.6-4.055v-9.659H.226v9.177a3.844,3.844,0,0,0,.7,2.543,2.9,2.9,0,0,0,2.307.81,2.834,2.834,0,0,0,2.261-.815,3.864,3.864,0,0,0,.7-2.558v-9.157Zm6.85,6.655h1.025a3.923,3.923,0,0,0,2.225-.5,1.793,1.793,0,0,0,.718-1.579,1.64,1.64,0,0,0-.733-1.518,4.449,4.449,0,0,0-2.271-.451h-.964Zm0,2.584V0H13.033V-14.991H17.4a7.476,7.476,0,0,1,4.522,1.113A3.971,3.971,0,0,1,23.389-10.5a3.977,3.977,0,0,1-.728,2.353A4.817,4.817,0,0,1,20.6-6.532Q23.984-1.477,25.009,0H21.482L17.9-5.752ZM35.745-4.163a3.875,3.875,0,0,1-1.461,3.2A6.347,6.347,0,0,1,30.218.205a9.548,9.548,0,0,1-4.245-.9V-3.65a17.494,17.494,0,0,0,2.569.954,7.6,7.6,0,0,0,1.923.277,2.734,2.734,0,0,0,1.6-.4,1.368,1.368,0,0,0,.559-1.189,1.313,1.313,0,0,0-.246-.784,2.754,2.754,0,0,0-.723-.661A18.592,18.592,0,0,0,29.716-6.47a9.21,9.21,0,0,1-2.061-1.241,4.658,4.658,0,0,1-1.1-1.384,3.95,3.95,0,0,1-.41-1.846A3.874,3.874,0,0,1,27.5-14.068a5.6,5.6,0,0,1,3.727-1.138,8.8,8.8,0,0,1,2.23.277,15.33,15.33,0,0,1,2.22.779l-1.025,2.471a15,15,0,0,0-1.984-.687,6.386,6.386,0,0,0-1.543-.195,2.043,2.043,0,0,0-1.384.42,1.387,1.387,0,0,0-.482,1.1,1.358,1.358,0,0,0,.195.733,2.142,2.142,0,0,0,.62.6,19.181,19.181,0,0,0,2.015,1.051,8.017,8.017,0,0,1,2.881,2.015A3.932,3.932,0,0,1,35.745-4.163ZM52.069-7.516a8.135,8.135,0,0,1-1.846,5.722,6.842,6.842,0,0,1-5.291,2,6.842,6.842,0,0,1-5.291-2A8.167,8.167,0,0,1,37.8-7.537a8.055,8.055,0,0,1,1.851-5.717,6.921,6.921,0,0,1,5.306-1.974,6.825,6.825,0,0,1,5.286,1.989A8.156,8.156,0,0,1,52.069-7.516Zm-10.941,0a6.262,6.262,0,0,0,.954,3.784,3.337,3.337,0,0,0,2.851,1.271q3.8,0,3.8-5.055t-3.784-5.065A3.359,3.359,0,0,0,42.092-11.3,6.236,6.236,0,0,0,41.128-7.516Zm22.9,3.353a3.875,3.875,0,0,1-1.461,3.2A6.347,6.347,0,0,1,58.5.205a9.548,9.548,0,0,1-4.245-.9V-3.65a17.494,17.494,0,0,0,2.569.954,7.6,7.6,0,0,0,1.923.277,2.734,2.734,0,0,0,1.6-.4,1.368,1.368,0,0,0,.559-1.189,1.313,1.313,0,0,0-.246-.784,2.754,2.754,0,0,0-.723-.661A18.592,18.592,0,0,0,58-6.47a9.21,9.21,0,0,1-2.061-1.241,4.658,4.658,0,0,1-1.1-1.384,3.95,3.95,0,0,1-.41-1.846,3.874,3.874,0,0,1,1.348-3.127A5.6,5.6,0,0,1,59.5-15.207a8.8,8.8,0,0,1,2.23.277,15.33,15.33,0,0,1,2.22.779l-1.025,2.471a15,15,0,0,0-1.984-.687,6.386,6.386,0,0,0-1.543-.195,2.043,2.043,0,0,0-1.384.42,1.387,1.387,0,0,0-.482,1.1,1.358,1.358,0,0,0,.195.733,2.142,2.142,0,0,0,.62.6,19.181,19.181,0,0,0,2.015,1.051,8.017,8.017,0,0,1,2.881,2.015A3.932,3.932,0,0,1,64.025-4.163Z" transform="translate(6903.5 1413.382) rotate(-45)"/>
    <path id="Trazado_24288" data-name="Trazado 24288" d="M-77.9-7.937h1.046a3.483,3.483,0,0,0,2.194-.579,2.028,2.028,0,0,0,.728-1.687,2.079,2.079,0,0,0-.61-1.651,2.859,2.859,0,0,0-1.912-.533H-77.9Zm7.178-2.379a4.582,4.582,0,0,1-1.512,3.7,6.469,6.469,0,0,1-4.3,1.282H-77.9V0h-3.179V-14.991h4.789a6.369,6.369,0,0,1,4.148,1.174A4.281,4.281,0,0,1-70.726-10.315Zm6.009,1.979h1.025a3.923,3.923,0,0,0,2.225-.5,1.793,1.793,0,0,0,.718-1.579,1.64,1.64,0,0,0-.733-1.518,4.449,4.449,0,0,0-2.271-.451h-.964Zm0,2.584V0H-67.9V-14.991h4.368a7.476,7.476,0,0,1,4.522,1.113A3.971,3.971,0,0,1-57.54-10.5a3.977,3.977,0,0,1-.728,2.353,4.817,4.817,0,0,1-2.061,1.615Q-56.945-1.477-55.92,0h-3.527l-3.579-5.752Zm24.292-1.764a8.135,8.135,0,0,1-1.846,5.722,6.842,6.842,0,0,1-5.291,2,6.842,6.842,0,0,1-5.291-2A8.167,8.167,0,0,1-54.7-7.537a8.055,8.055,0,0,1,1.851-5.717,6.921,6.921,0,0,1,5.306-1.974,6.825,6.825,0,0,1,5.286,1.989A8.156,8.156,0,0,1-40.426-7.516Zm-10.941,0a6.262,6.262,0,0,0,.954,3.784,3.337,3.337,0,0,0,2.851,1.271q3.8,0,3.8-5.055t-3.784-5.065A3.359,3.359,0,0,0-50.4-11.3,6.236,6.236,0,0,0-51.367-7.516Zm19.739-.9h5.947V-.646A16.767,16.767,0,0,1-28.4.015a17.733,17.733,0,0,1-2.61.19A6.6,6.6,0,0,1-36.2-1.789a8.3,8.3,0,0,1-1.789-5.727,7.553,7.553,0,0,1,2.076-5.66,7.884,7.884,0,0,1,5.758-2.03,11.14,11.14,0,0,1,4.45.923l-1.056,2.543a7.543,7.543,0,0,0-3.415-.82,4.217,4.217,0,0,0-3.3,1.384,5.37,5.37,0,0,0-1.241,3.722,5.978,5.978,0,0,0,1,3.727A3.459,3.459,0,0,0-30.808-2.44a10.283,10.283,0,0,0,2.02-.205V-5.773h-2.84Zm12.694.082h1.025a3.923,3.923,0,0,0,2.225-.5,1.793,1.793,0,0,0,.718-1.579,1.64,1.64,0,0,0-.733-1.518,4.449,4.449,0,0,0-2.271-.451h-.964Zm0,2.584V0h-3.179V-14.991h4.368a7.476,7.476,0,0,1,4.522,1.113A3.971,3.971,0,0,1-11.756-10.5a3.977,3.977,0,0,1-.728,2.353,4.817,4.817,0,0,1-2.061,1.615Q-11.161-1.477-10.136,0h-3.527l-3.579-5.752ZM.928,0-.159-3.568H-5.624L-6.711,0h-3.425l5.291-15.053H-.959L4.353,0ZM-.918-6.234q-1.507-4.85-1.7-5.486t-.272-1q-.338,1.313-1.938,6.491ZM12.587,0,8.977-11.761H8.885q.195,3.589.195,4.789V0H6.24V-14.991h4.327L14.115-3.527h.062l3.763-11.464h4.327V0H19.3V-7.1q0-.5.015-1.159t.138-3.486h-.092L15.5,0Zm22.63,0L34.13-3.568H28.665L27.578,0H24.153l5.291-15.053H33.33L38.642,0ZM33.371-6.234q-1.507-4.85-1.7-5.486t-.272-1q-.338,1.313-1.938,6.491ZM49.378-4.163a3.875,3.875,0,0,1-1.461,3.2A6.347,6.347,0,0,1,43.851.205a9.548,9.548,0,0,1-4.245-.9V-3.65a17.494,17.494,0,0,0,2.569.954A7.6,7.6,0,0,0,44.1-2.42a2.734,2.734,0,0,0,1.6-.4,1.368,1.368,0,0,0,.559-1.189,1.313,1.313,0,0,0-.246-.784,2.754,2.754,0,0,0-.723-.661A18.592,18.592,0,0,0,43.348-6.47a9.21,9.21,0,0,1-2.061-1.241A4.658,4.658,0,0,1,40.19-9.1a3.95,3.95,0,0,1-.41-1.846,3.874,3.874,0,0,1,1.348-3.127,5.6,5.6,0,0,1,3.727-1.138,8.8,8.8,0,0,1,2.23.277,15.33,15.33,0,0,1,2.22.779l-1.025,2.471a15,15,0,0,0-1.984-.687,6.386,6.386,0,0,0-1.543-.195,2.043,2.043,0,0,0-1.384.42,1.387,1.387,0,0,0-.482,1.1,1.358,1.358,0,0,0,.195.733,2.142,2.142,0,0,0,.62.6,19.181,19.181,0,0,0,2.015,1.051A8.017,8.017,0,0,1,48.6-6.639,3.932,3.932,0,0,1,49.378-4.163Zm20.61-3.476a7.382,7.382,0,0,1-2.107,5.67A8.593,8.593,0,0,1,61.8,0H57.55V-14.991h4.707a7.926,7.926,0,0,1,5.7,1.938A7.129,7.129,0,0,1,69.988-7.639Zm-3.3.082q0-4.83-4.266-4.83H60.729v9.762h1.364Q66.686-2.625,66.686-7.557ZM81.729,0H73.095V-14.991h8.634v2.6H76.274V-9.1h5.076v2.6H76.274v3.866h5.455ZM-67.46,25h-3.127V10.009H-62v2.6H-67.46v3.866h5.086v2.594H-67.46Zm8.4,0V10.009h3.179V25Zm19.39-7.639a7.382,7.382,0,0,1-2.107,5.67A8.593,8.593,0,0,1-47.865,25H-52.11V10.009H-47.4a7.926,7.926,0,0,1,5.7,1.938A7.129,7.129,0,0,1-39.672,17.361Zm-3.3.082q0-4.83-4.266-4.83h-1.692v9.762h1.364Q-42.974,22.375-42.974,17.443ZM-27.932,25h-8.634V10.009h8.634v2.6h-5.455V15.9h5.076v2.6h-5.076v3.866h5.455Zm3.127,0V10.009h3.179V22.375h6.081V25Zm11.864,0V10.009h3.179V25ZM3.784,25H-7.373V22.939L-.185,12.634H-7.178V10.009H3.589V12.06L-3.589,22.375H3.784ZM15.35,25l-1.087-3.568H8.8L7.711,25H4.286L9.577,9.947h3.886L18.775,25ZM13.5,18.766q-1.507-4.85-1.7-5.486t-.272-1Q11.2,13.587,9.6,18.766Zm13.1-6.327a3.239,3.239,0,0,0-2.779,1.348,6.273,6.273,0,0,0-.984,3.758q0,5.014,3.763,5.014a11.9,11.9,0,0,0,3.825-.79v2.666a10.622,10.622,0,0,1-4.122.769,6.287,6.287,0,0,1-5-1.984,8.4,8.4,0,0,1-1.733-5.7,9.3,9.3,0,0,1,.851-4.1,6.151,6.151,0,0,1,2.446-2.7,7.235,7.235,0,0,1,3.738-.938A10.088,10.088,0,0,1,31,10.85l-1.025,2.584a16.973,16.973,0,0,0-1.692-.7A5.047,5.047,0,0,0,26.609,12.439ZM33.623,25V10.009H36.8V25Zm20.559-7.516a8.135,8.135,0,0,1-1.846,5.722,6.842,6.842,0,0,1-5.291,2,6.842,6.842,0,0,1-5.291-2,8.167,8.167,0,0,1-1.846-5.742,8.055,8.055,0,0,1,1.851-5.717,6.921,6.921,0,0,1,5.306-1.974,6.825,6.825,0,0,1,5.286,1.989A8.156,8.156,0,0,1,54.182,17.484Zm-10.941,0a6.262,6.262,0,0,0,.954,3.784,3.337,3.337,0,0,0,2.851,1.271q3.8,0,3.8-5.055t-3.784-5.065A3.359,3.359,0,0,0,44.2,13.7,6.236,6.236,0,0,0,43.241,17.484Zm2.194-8.675V8.532a28.869,28.869,0,0,0,2.41-3.086h3.507v.215q-.533.533-1.82,1.584T47.517,8.809ZM70.588,25h-4.04L60.026,13.659h-.092q.195,3,.195,4.286V25h-2.84V10.009H61.3l6.511,11.228h.072q-.154-2.922-.154-4.132v-7.1h2.861Z" transform="translate(6905.223 1001.551) rotate(45)"/>
    <circle id="Elipse_929" data-name="Elipse 929" cx="223.964" cy="223.964" r="223.964" transform="translate(6474.588 982.809)" fill="#4674b8"/>
    <circle id="Elipse_930" data-name="Elipse 930" cx="98.113" cy="98.113" r="98.113" transform="translate(6600.438 1108.66)" fill="#333b8c"/>
    <path id="Trazado_24282" data-name="Trazado 24282" d="M-62.567,0h-3.784V-14.7H-71.2v-3.149h13.477V-14.7h-4.846ZM-44.7,0H-54.974V-17.847H-44.7v3.1H-51.19v3.918h6.042v3.1H-51.19v4.6H-44.7Zm3.723,0V-17.847h3.784V-3.125h7.239V0Zm24.4,0H-26.849V-17.847h10.278v3.1h-6.494v3.918h6.042v3.1h-6.042v4.6h6.494Zm13.9-17.847H1.154L-4.913,0H-9.039l-6.055-17.847h3.821l3.357,10.62q.281.94.58,2.191t.372,1.74a31.267,31.267,0,0,1,.916-3.931ZM3.4,0V-17.847H7.184V0ZM22.211-4.956a4.613,4.613,0,0,1-1.74,3.809A7.556,7.556,0,0,1,15.631.244,11.367,11.367,0,0,1,10.577-.83V-4.346A20.826,20.826,0,0,0,13.635-3.21a9.048,9.048,0,0,0,2.289.33,3.254,3.254,0,0,0,1.91-.476A1.628,1.628,0,0,0,18.5-4.773a1.563,1.563,0,0,0-.293-.934,3.278,3.278,0,0,0-.861-.787A22.134,22.134,0,0,0,15.033-7.7,10.964,10.964,0,0,1,12.579-9.18a5.545,5.545,0,0,1-1.306-1.648,4.7,4.7,0,0,1-.488-2.2,4.612,4.612,0,0,1,1.605-3.723A6.67,6.67,0,0,1,16.827-18.1a10.478,10.478,0,0,1,2.655.33,18.25,18.25,0,0,1,2.643.928L20.9-13.9a17.86,17.86,0,0,0-2.362-.818,7.6,7.6,0,0,0-1.837-.232,2.433,2.433,0,0,0-1.648.5,1.651,1.651,0,0,0-.574,1.306,1.616,1.616,0,0,0,.232.873,2.55,2.55,0,0,0,.739.72,22.835,22.835,0,0,0,2.4,1.251,9.544,9.544,0,0,1,3.43,2.4A4.681,4.681,0,0,1,22.211-4.956ZM25.446,0V-17.847H29.23V0ZM49.921-8.948q0,4.431-2.2,6.812a8.146,8.146,0,0,1-6.3,2.38,8.146,8.146,0,0,1-6.3-2.38q-2.2-2.38-2.2-6.836t2.2-6.805a8.24,8.24,0,0,1,6.317-2.35,8.125,8.125,0,0,1,6.293,2.368Q49.921-13.391,49.921-8.948Zm-13.025,0a7.455,7.455,0,0,0,1.135,4.5A3.972,3.972,0,0,0,41.425-2.93q4.529,0,4.529-6.018t-4.5-6.03a4,4,0,0,0-3.406,1.52A7.423,7.423,0,0,0,36.9-8.948Zm2.612-10.327v-.33a34.368,34.368,0,0,0,2.869-3.674h4.175v.256q-.635.635-2.167,1.886t-2.4,1.862ZM69.452,0h-4.81L56.879-13.5h-.11Q57-9.924,57-8.4V0H53.619V-17.847h4.773L66.144-4.48h.085q-.183-3.479-.183-4.919v-8.447h3.406Z" transform="translate(6695.723 813.891)"/>
    <path id="Trazado_24284" data-name="Trazado 24284" d="M-75.213,0h-3.936V-15.285h-5.04v-3.275h14.016v3.275h-5.04Zm11.832-10.321h1.27a4.857,4.857,0,0,0,2.755-.622,2.22,2.22,0,0,0,.889-1.955,2.031,2.031,0,0,0-.908-1.879,5.508,5.508,0,0,0-2.812-.559h-1.193Zm0,3.2V0h-3.936V-18.561h5.408q3.783,0,5.6,1.377A4.916,4.916,0,0,1-54.495-13a4.924,4.924,0,0,1-.9,2.914,5.964,5.964,0,0,1-2.552,2Q-53.758-1.828-52.489,0h-4.367l-4.431-7.122ZM-38.791,0l-1.346-4.418H-46.9L-48.249,0h-4.24l6.551-18.637h4.812L-34.55,0Zm-2.285-7.719q-1.866-6-2.1-6.792t-.336-1.244q-.419,1.625-2.4,8.036ZM-15.749,0h-5l-8.074-14.041h-.114q.241,3.72.241,5.307V0h-3.517V-18.561h4.964l8.062,13.9h.089q-.19-3.618-.19-5.116v-8.785h3.542ZM-.121-5.154A4.8,4.8,0,0,1-1.93-1.193,7.859,7.859,0,0,1-6.963.254,11.822,11.822,0,0,1-12.219-.863V-4.52a21.659,21.659,0,0,0,3.18,1.181A9.41,9.41,0,0,0-6.659-3a3.384,3.384,0,0,0,1.987-.5A1.693,1.693,0,0,0-3.98-4.964a1.626,1.626,0,0,0-.3-.971,3.409,3.409,0,0,0-.9-.819A23.019,23.019,0,0,0-7.585-8.011a11.4,11.4,0,0,1-2.552-1.536A5.767,5.767,0,0,1-11.5-11.261,4.891,4.891,0,0,1-12-13.546a4.8,4.8,0,0,1,1.669-3.872,6.937,6.937,0,0,1,4.615-1.409,10.9,10.9,0,0,1,2.761.343,18.98,18.98,0,0,1,2.749.965l-1.27,3.06a18.574,18.574,0,0,0-2.457-.851,7.907,7.907,0,0,0-1.911-.241,2.53,2.53,0,0,0-1.714.521,1.717,1.717,0,0,0-.6,1.358,1.681,1.681,0,0,0,.241.908,2.652,2.652,0,0,0,.768.749,23.748,23.748,0,0,0,2.495,1.3A9.926,9.926,0,0,1-1.085-8.22,4.869,4.869,0,0,1-.121-5.154Zm7.3-4.672H8.474a4.312,4.312,0,0,0,2.717-.717,2.51,2.51,0,0,0,.9-2.088,2.574,2.574,0,0,0-.755-2.044,3.539,3.539,0,0,0-2.368-.66H7.179Zm8.887-2.945a5.673,5.673,0,0,1-1.873,4.583A8.009,8.009,0,0,1,8.868-6.6H7.179V0H3.244V-18.561H9.172a7.886,7.886,0,0,1,5.135,1.454A5.3,5.3,0,0,1,16.066-12.771ZM36.417-9.306q0,4.608-2.285,7.084A8.471,8.471,0,0,1,27.581.254,8.471,8.471,0,0,1,21.03-2.222Q18.745-4.7,18.745-9.331t2.292-7.078a8.569,8.569,0,0,1,6.57-2.444A8.45,8.45,0,0,1,34.15-16.39Q36.417-13.927,36.417-9.306Zm-13.546,0a7.753,7.753,0,0,0,1.181,4.685,4.131,4.131,0,0,0,3.529,1.574q4.71,0,4.71-6.259t-4.685-6.271A4.159,4.159,0,0,0,24.064-14,7.72,7.72,0,0,0,22.871-9.306ZM44.2-10.321h1.27a4.857,4.857,0,0,0,2.755-.622,2.22,2.22,0,0,0,.889-1.955,2.031,2.031,0,0,0-.908-1.879,5.508,5.508,0,0,0-2.812-.559H44.2Zm0,3.2V0H40.263V-18.561h5.408q3.783,0,5.6,1.377A4.916,4.916,0,0,1,53.085-13a4.924,4.924,0,0,1-.9,2.914,5.964,5.964,0,0,1-2.552,2Q53.822-1.828,55.091,0H50.724L46.293-7.122ZM64.587,0H60.652V-15.285h-5.04v-3.275H69.627v3.275h-5.04ZM83.173,0H72.484V-18.561H83.173v3.225H76.419v4.075H82.7v3.225H76.419V-3.25h6.754ZM-50.47,21.174h1.295a4.312,4.312,0,0,0,2.717-.717,2.51,2.51,0,0,0,.9-2.088,2.574,2.574,0,0,0-.755-2.044,3.539,3.539,0,0,0-2.368-.66h-1.79Zm8.887-2.945a5.673,5.673,0,0,1-1.873,4.583A8.009,8.009,0,0,1-48.782,24.4H-50.47V31h-3.936V12.439h5.929a7.886,7.886,0,0,1,5.135,1.454A5.3,5.3,0,0,1-41.583,18.229Zm18.611-5.789v12.01a6.924,6.924,0,0,1-.92,3.605,5.99,5.99,0,0,1-2.66,2.374,9.512,9.512,0,0,1-4.113.825,7.876,7.876,0,0,1-5.561-1.834,6.508,6.508,0,0,1-1.98-5.021V12.439h3.923V23.8a4.759,4.759,0,0,0,.863,3.148,3.589,3.589,0,0,0,2.856,1,3.509,3.509,0,0,0,2.8-1.009,4.784,4.784,0,0,0,.87-3.167V12.439Zm-9.8-1.485v-.343A35.743,35.743,0,0,0-29.79,6.79h4.342v.267q-.66.66-2.253,1.961T-30.2,10.954Zm14.346,1.485h5.776q3.948,0,5.732,1.124a3.911,3.911,0,0,1,1.784,3.574,4.5,4.5,0,0,1-.781,2.729,3.119,3.119,0,0,1-2.076,1.282v.127a4.089,4.089,0,0,1,2.545,1.473,4.791,4.791,0,0,1,.781,2.869A4.728,4.728,0,0,1-6.5,29.578,7.934,7.934,0,0,1-11.483,31h-6.944Zm3.936,7.351h2.285a4.178,4.178,0,0,0,2.317-.5,1.847,1.847,0,0,0,.717-1.638,1.639,1.639,0,0,0-.781-1.53,5.018,5.018,0,0,0-2.469-.463h-2.069Zm0,3.123V27.75h2.564a3.8,3.8,0,0,0,2.4-.622,2.3,2.3,0,0,0,.774-1.9q0-2.311-3.3-2.311ZM-.958,31V12.439H2.977V27.75h7.528V31ZM13.73,31V12.439h3.936V31ZM30.221,15.448a4.01,4.01,0,0,0-3.44,1.669,7.767,7.767,0,0,0-1.219,4.653q0,6.208,4.659,6.208A14.728,14.728,0,0,0,34.957,27v3.3a13.151,13.151,0,0,1-5.1.952,7.784,7.784,0,0,1-6.2-2.457q-2.146-2.457-2.146-7.052a11.516,11.516,0,0,1,1.054-5.072,7.616,7.616,0,0,1,3.028-3.339,8.957,8.957,0,0,1,4.627-1.162,12.489,12.489,0,0,1,5.434,1.308l-1.27,3.2a21.015,21.015,0,0,0-2.095-.863A6.249,6.249,0,0,0,30.221,15.448Zm25.01,6.246q0,4.608-2.285,7.084A8.471,8.471,0,0,1,46.4,31.254a8.471,8.471,0,0,1-6.551-2.476q-2.285-2.476-2.285-7.109t2.292-7.078a8.569,8.569,0,0,1,6.57-2.444,8.45,8.45,0,0,1,6.544,2.463Q55.231,17.073,55.231,21.694Zm-13.546,0a7.753,7.753,0,0,0,1.181,4.685A4.131,4.131,0,0,0,46.4,27.953q4.71,0,4.71-6.259T46.42,15.423A4.159,4.159,0,0,0,42.878,17,7.72,7.72,0,0,0,41.685,21.694Z" transform="translate(6697.72 1606.885)"/>
    <path id="Trazado_24285" data-name="Trazado 24285" d="M-19.44-14.954a3.856,3.856,0,0,0-3.308,1.605A7.468,7.468,0,0,0-23.92-8.875q0,5.969,4.48,5.969a14.162,14.162,0,0,0,4.553-.94V-.671a12.645,12.645,0,0,1-4.907.916,7.484,7.484,0,0,1-5.957-2.362Q-27.814-4.48-27.814-8.9A11.073,11.073,0,0,1-26.8-13.776a7.323,7.323,0,0,1,2.911-3.21A8.613,8.613,0,0,1-19.44-18.1a12.009,12.009,0,0,1,5.225,1.257l-1.221,3.076a20.207,20.207,0,0,0-2.014-.83A6.009,6.009,0,0,0-19.44-14.954ZM-11.09,0V-17.847h3.784V0ZM13.019,0H8.209L.446-13.5H.336Q.568-9.924.568-8.4V0H-2.814V-17.847H1.959L9.711-4.48H9.8Q9.613-7.959,9.613-9.4v-8.447h3.406ZM27.789,0H17.511V-17.847H27.789v3.1H21.3v3.918h6.042v3.1H21.3v4.6h6.494Z" transform="translate(6452.109 1543.398) rotate(36)"/>
    <path id="Trazado_24283" data-name="Trazado 24283" d="M-50.244-9.924h1.221a4.67,4.67,0,0,0,2.649-.6,2.135,2.135,0,0,0,.854-1.88,1.953,1.953,0,0,0-.873-1.807,5.3,5.3,0,0,0-2.7-.537h-1.147Zm0,3.076V0h-3.784V-17.847h5.2a8.9,8.9,0,0,1,5.383,1.324A4.727,4.727,0,0,1-41.7-12.5a4.735,4.735,0,0,1-.867,2.8A5.735,5.735,0,0,1-45.02-7.776Q-40.991-1.758-39.771,0h-4.2l-4.26-6.848Zm23,6.848H-37.524V-17.847h10.278v3.1H-33.74v3.918H-27.7v3.1H-33.74v4.6h6.494Zm13.9-17.847h3.821L-15.588,0h-4.126l-6.055-17.847h3.821l3.357,10.62q.281.94.58,2.191t.372,1.74a31.267,31.267,0,0,1,.916-3.931ZM-7.275,0V-17.847h3.784V0ZM11.536-4.956A4.613,4.613,0,0,1,9.8-1.147,7.556,7.556,0,0,1,4.956.244,11.367,11.367,0,0,1-.1-.83V-4.346A20.826,20.826,0,0,0,2.96-3.21a9.048,9.048,0,0,0,2.289.33,3.254,3.254,0,0,0,1.91-.476,1.628,1.628,0,0,0,.665-1.416,1.563,1.563,0,0,0-.293-.934,3.278,3.278,0,0,0-.861-.787A22.134,22.134,0,0,0,4.358-7.7,10.964,10.964,0,0,1,1.9-9.18,5.545,5.545,0,0,1,.6-10.828a4.7,4.7,0,0,1-.488-2.2,4.612,4.612,0,0,1,1.605-3.723A6.67,6.67,0,0,1,6.152-18.1a10.478,10.478,0,0,1,2.655.33,18.25,18.25,0,0,1,2.643.928L10.229-13.9a17.86,17.86,0,0,0-2.362-.818,7.6,7.6,0,0,0-1.837-.232,2.433,2.433,0,0,0-1.648.5,1.651,1.651,0,0,0-.574,1.306,1.616,1.616,0,0,0,.232.873,2.55,2.55,0,0,0,.739.72,22.835,22.835,0,0,0,2.4,1.251,9.544,9.544,0,0,1,3.43,2.4A4.681,4.681,0,0,1,11.536-4.956ZM21.655,0H17.871V-14.7H13.025v-3.149H26.5V-14.7H21.655ZM38.428,0,37.134-4.248H30.627L29.333,0H25.256l6.3-17.92h4.626L42.5,0Zm-2.2-7.422q-1.794-5.774-2.02-6.531t-.323-1.2q-.4,1.563-2.307,7.727ZM55.286-4.956a4.613,4.613,0,0,1-1.74,3.809A7.556,7.556,0,0,1,48.706.244,11.367,11.367,0,0,1,43.652-.83V-4.346A20.826,20.826,0,0,0,46.71-3.21,9.048,9.048,0,0,0,49-2.881a3.254,3.254,0,0,0,1.91-.476,1.628,1.628,0,0,0,.665-1.416,1.563,1.563,0,0,0-.293-.934,3.278,3.278,0,0,0-.861-.787A22.133,22.133,0,0,0,48.108-7.7,10.964,10.964,0,0,1,45.654-9.18a5.545,5.545,0,0,1-1.306-1.648,4.7,4.7,0,0,1-.488-2.2,4.612,4.612,0,0,1,1.605-3.723A6.67,6.67,0,0,1,49.9-18.1a10.478,10.478,0,0,1,2.655.33,18.25,18.25,0,0,1,2.643.928L53.979-13.9a17.86,17.86,0,0,0-2.362-.818,7.6,7.6,0,0,0-1.837-.232,2.433,2.433,0,0,0-1.648.5,1.651,1.651,0,0,0-.574,1.306,1.616,1.616,0,0,0,.232.873,2.55,2.55,0,0,0,.739.72,22.835,22.835,0,0,0,2.4,1.251,9.544,9.544,0,0,1,3.43,2.4A4.681,4.681,0,0,1,55.286-4.956Z" transform="translate(7082.711 1090.652) rotate(72)"/>
    <path id="Trazado_24286" data-name="Trazado 24286" d="M-31.451-9.13h1.123a4.3,4.3,0,0,0,2.437-.55A1.964,1.964,0,0,0-27.1-11.41a1.8,1.8,0,0,0-.8-1.662,4.873,4.873,0,0,0-2.488-.494h-1.056Zm0,2.83V0h-3.481V-16.419h4.784A8.188,8.188,0,0,1-25.2-15.2a4.349,4.349,0,0,1,1.606,3.7,4.356,4.356,0,0,1-.8,2.577,5.276,5.276,0,0,1-2.257,1.769Q-22.938-1.617-21.815,0h-3.863L-29.6-6.3ZM-9.7,0l-1.19-3.908h-5.986L-18.064,0h-3.751l5.795-16.486h4.256L-5.947,0Zm-2.021-6.828q-1.651-5.312-1.859-6.008t-.3-1.1Q-14.246-12.5-16-6.828ZM9.742-8.367a8.085,8.085,0,0,1-2.308,6.21Q5.127,0,.769,0H-3.88V-16.419H1.275A8.68,8.68,0,0,1,7.519-14.3,7.808,7.808,0,0,1,9.742-8.367Zm-3.616.09q0-5.29-4.672-5.29H-.4V-2.875H1.095Q6.126-2.875,6.126-8.277ZM13.145,0V-16.419h3.481V0ZM35.662-8.232a8.909,8.909,0,0,1-2.021,6.267A7.494,7.494,0,0,1,27.846.225a7.494,7.494,0,0,1-5.795-2.19A8.944,8.944,0,0,1,20.03-8.254q0-4.1,2.027-6.261a7.58,7.58,0,0,1,5.812-2.162A7.475,7.475,0,0,1,33.658-14.5,8.932,8.932,0,0,1,35.662-8.232Zm-11.983,0a6.859,6.859,0,0,0,1.044,4.144A3.654,3.654,0,0,0,27.846-2.7q4.167,0,4.167-5.537T27.868-13.78a3.679,3.679,0,0,0-3.133,1.4A6.83,6.83,0,0,0,23.679-8.232Z" transform="translate(6309.862 1333.448) rotate(72)"/>
    <path id="Trazado_24290" data-name="Trazado 24290" d="M-33.93,0h-2.725V-10.582h-3.489V-12.85h9.7v2.268H-33.93Zm12.076,0-.932-3.059H-27.47L-28.4,0h-2.936L-26.8-12.9h3.331L-18.918,0Zm-1.582-5.344q-1.292-4.157-1.455-4.7t-.233-.861q-.29,1.125-1.661,5.563Zm8.859-1.8h.879a3.362,3.362,0,0,0,1.907-.431,1.537,1.537,0,0,0,.615-1.354,1.406,1.406,0,0,0-.628-1.3,3.813,3.813,0,0,0-1.947-.387h-.826Zm0,2.215V0H-17.3V-12.85h3.744a6.408,6.408,0,0,1,3.876.954A3.4,3.4,0,0,1-8.424-9a3.409,3.409,0,0,1-.624,2.017A4.129,4.129,0,0,1-10.815-5.6q2.9,4.333,3.779,5.6h-3.023l-3.067-4.931Zm7.813,8.71a5.958,5.958,0,0,1-1.608-.193V1.318a5.33,5.33,0,0,0,1.283.176A1.449,1.449,0,0,0-5.805.936,3.108,3.108,0,0,0-5.418-.809V-12.85h2.725V-.826A5.065,5.065,0,0,1-3.722,2.6,3.821,3.821,0,0,1-6.763,3.779ZM7.941,0H.541V-12.85h7.4v2.232H3.265V-7.8H7.616v2.232H3.265V-2.25H7.941Zm7.638,0H12.854V-10.582H9.365V-12.85h9.7v2.268H15.579ZM27.655,0l-.932-3.059H22.039L21.107,0H18.171l4.535-12.9h3.331L30.59,0ZM26.073-5.344q-1.292-4.157-1.455-4.7t-.233-.861q-.29,1.125-1.661,5.563Zm13.72,1.775A3.322,3.322,0,0,1,38.54-.826a5.441,5.441,0,0,1-3.485,1A8.184,8.184,0,0,1,31.417-.6V-3.129a15,15,0,0,0,2.2.817,6.515,6.515,0,0,0,1.648.237,2.343,2.343,0,0,0,1.375-.343,1.172,1.172,0,0,0,.479-1.02,1.125,1.125,0,0,0-.211-.672,2.36,2.36,0,0,0-.62-.567,15.936,15.936,0,0,0-1.666-.87,7.894,7.894,0,0,1-1.767-1.063,3.992,3.992,0,0,1-.94-1.187,3.386,3.386,0,0,1-.352-1.582,3.321,3.321,0,0,1,1.156-2.681,4.8,4.8,0,0,1,3.195-.976,7.544,7.544,0,0,1,1.912.237,13.14,13.14,0,0,1,1.9.668l-.879,2.118a12.859,12.859,0,0,0-1.7-.589,5.474,5.474,0,0,0-1.323-.167,1.752,1.752,0,0,0-1.187.36,1.189,1.189,0,0,0-.413.94,1.164,1.164,0,0,0,.167.628,1.836,1.836,0,0,0,.532.519,16.441,16.441,0,0,0,1.727.9,6.872,6.872,0,0,1,2.47,1.727A3.371,3.371,0,0,1,39.792-3.568ZM-29.47,22H-32.15V9.15h7.365v2.232H-29.47V14.7h4.359V16.92H-29.47Zm14.6,0h-7.4V9.15h7.4v2.232h-4.676V14.2H-15.2v2.232h-4.351V19.75h4.676Zm8.139-10.767a2.776,2.776,0,0,0-2.382,1.156,5.377,5.377,0,0,0-.844,3.221q0,4.3,3.226,4.3a10.2,10.2,0,0,0,3.278-.677v2.285a9.1,9.1,0,0,1-3.533.659,5.389,5.389,0,0,1-4.289-1.7,7.2,7.2,0,0,1-1.485-4.882,7.973,7.973,0,0,1,.729-3.511,5.272,5.272,0,0,1,2.1-2.312,6.2,6.2,0,0,1,3.2-.8,8.646,8.646,0,0,1,3.762.905l-.879,2.215a14.549,14.549,0,0,0-1.45-.6A4.326,4.326,0,0,0-6.732,11.233ZM9.809,22H7.093V16.454H2V22H-.721V9.15H2v5.036H7.093V9.15H9.809Zm11.109,0-.932-3.059H15.3L14.37,22H11.435L15.97,9.1H19.3L23.854,22Zm-1.582-5.344q-1.292-4.157-1.455-4.7t-.233-.861q-.29,1.125-1.661,5.563Zm13.72,1.775A3.322,3.322,0,0,1,31.8,21.174a5.441,5.441,0,0,1-3.485,1A8.184,8.184,0,0,1,24.68,21.4V18.871a15,15,0,0,0,2.2.817,6.515,6.515,0,0,0,1.648.237,2.343,2.343,0,0,0,1.375-.343,1.172,1.172,0,0,0,.479-1.02,1.125,1.125,0,0,0-.211-.672,2.36,2.36,0,0,0-.62-.567,15.936,15.936,0,0,0-1.666-.87,7.894,7.894,0,0,1-1.767-1.063,3.992,3.992,0,0,1-.94-1.187,3.386,3.386,0,0,1-.352-1.582,3.321,3.321,0,0,1,1.156-2.681,4.8,4.8,0,0,1,3.195-.976,7.544,7.544,0,0,1,1.912.237,13.14,13.14,0,0,1,1.9.668l-.879,2.118a12.859,12.859,0,0,0-1.7-.589,5.474,5.474,0,0,0-1.323-.167,1.752,1.752,0,0,0-1.187.36,1.189,1.189,0,0,0-.413.94,1.164,1.164,0,0,0,.167.628,1.836,1.836,0,0,0,.532.519,16.441,16.441,0,0,0,1.727.9,6.872,6.872,0,0,1,2.47,1.727A3.371,3.371,0,0,1,33.056,18.432ZM-41.678,44h-7.4V31.15h7.4v2.232h-4.676V36.2H-42v2.232h-4.351V41.75h4.676Zm10.266-3.568a3.322,3.322,0,0,1-1.252,2.742,5.441,5.441,0,0,1-3.485,1,8.184,8.184,0,0,1-3.639-.773V40.871a15,15,0,0,0,2.2.817,6.515,6.515,0,0,0,1.648.237,2.343,2.343,0,0,0,1.375-.343,1.172,1.172,0,0,0,.479-1.02,1.125,1.125,0,0,0-.211-.672,2.36,2.36,0,0,0-.62-.567,15.936,15.936,0,0,0-1.666-.87,7.894,7.894,0,0,1-1.767-1.063,3.992,3.992,0,0,1-.94-1.187,3.386,3.386,0,0,1-.352-1.582,3.321,3.321,0,0,1,1.156-2.681,4.8,4.8,0,0,1,3.195-.976,7.544,7.544,0,0,1,1.912.237,13.14,13.14,0,0,1,1.9.668l-.879,2.118a12.859,12.859,0,0,0-1.7-.589,5.474,5.474,0,0,0-1.323-.167,1.752,1.752,0,0,0-1.187.36,1.189,1.189,0,0,0-.413.94,1.164,1.164,0,0,0,.167.628,1.836,1.836,0,0,0,.532.519,16.441,16.441,0,0,0,1.727.9,6.872,6.872,0,0,1,2.47,1.727A3.371,3.371,0,0,1-31.412,40.432Zm5.054-3.234h.9a2.986,2.986,0,0,0,1.881-.5,1.738,1.738,0,0,0,.624-1.446,1.782,1.782,0,0,0-.523-1.415,2.45,2.45,0,0,0-1.639-.457h-1.239Zm6.152-2.039a3.927,3.927,0,0,1-1.3,3.173,5.544,5.544,0,0,1-3.687,1.1h-1.169V44h-2.725V31.15h4.1a5.459,5.459,0,0,1,3.555,1.006A3.669,3.669,0,0,1-20.206,35.158ZM-10.38,44h-7.4V31.15h7.4v2.232h-4.676V36.2h4.351v2.232h-4.351V41.75h4.676Zm8.139-10.767a2.776,2.776,0,0,0-2.382,1.156,5.377,5.377,0,0,0-.844,3.221q0,4.3,3.226,4.3a10.2,10.2,0,0,0,3.278-.677v2.285a9.1,9.1,0,0,1-3.533.659,5.389,5.389,0,0,1-4.289-1.7,7.2,7.2,0,0,1-1.485-4.882,7.973,7.973,0,0,1,.729-3.511,5.272,5.272,0,0,1,2.1-2.312,6.2,6.2,0,0,1,3.2-.8,8.646,8.646,0,0,1,3.762.905L.642,34.086a14.549,14.549,0,0,0-1.45-.6A4.326,4.326,0,0,0-2.241,33.233ZM3.771,44V31.15H6.5V44ZM17.6,44l-.932-3.059H11.979L11.048,44H8.112l4.535-12.9h3.331L20.531,44Zm-1.582-5.344q-1.292-4.157-1.455-4.7t-.233-.861q-.29,1.125-1.661,5.563ZM22.148,44V31.15h2.725v10.6h5.212V44Zm17.569,0h-7.4V31.15h7.4v2.232H35.042V36.2h4.351v2.232H35.042V41.75h4.676Zm10.266-3.568a3.322,3.322,0,0,1-1.252,2.742,5.441,5.441,0,0,1-3.485,1,8.184,8.184,0,0,1-3.639-.773V40.871a15,15,0,0,0,2.2.817,6.515,6.515,0,0,0,1.648.237,2.343,2.343,0,0,0,1.375-.343,1.172,1.172,0,0,0,.479-1.02,1.125,1.125,0,0,0-.211-.672,2.36,2.36,0,0,0-.62-.567,15.936,15.936,0,0,0-1.666-.87,7.894,7.894,0,0,1-1.767-1.063,3.992,3.992,0,0,1-.94-1.187,3.386,3.386,0,0,1-.352-1.582,3.321,3.321,0,0,1,1.156-2.681,4.8,4.8,0,0,1,3.195-.976,7.544,7.544,0,0,1,1.912.237,13.14,13.14,0,0,1,1.9.668l-.879,2.118a12.859,12.859,0,0,0-1.7-.589,5.474,5.474,0,0,0-1.323-.167,1.752,1.752,0,0,0-1.187.36,1.189,1.189,0,0,0-.413.94,1.164,1.164,0,0,0,.167.628,1.836,1.836,0,0,0,.532.519,16.441,16.441,0,0,0,1.727.9,6.872,6.872,0,0,1,2.47,1.727A3.371,3.371,0,0,1,49.983,40.432Z" transform="translate(6793.259 1304.268) rotate(-45)" fill="#fff"/>
    <path id="Trazado_24291" data-name="Trazado 24291" d="M-35.834-3.767A3.506,3.506,0,0,1-37.156-.872,5.743,5.743,0,0,1-40.834.186a8.639,8.639,0,0,1-3.841-.816V-3.3a15.828,15.828,0,0,0,2.324.863,6.877,6.877,0,0,0,1.74.25,2.473,2.473,0,0,0,1.452-.362,1.238,1.238,0,0,0,.506-1.076,1.188,1.188,0,0,0-.223-.71,2.492,2.492,0,0,0-.654-.6,16.821,16.821,0,0,0-1.758-.918,8.333,8.333,0,0,1-1.865-1.123,4.214,4.214,0,0,1-.993-1.252,3.574,3.574,0,0,1-.371-1.67,3.505,3.505,0,0,1,1.22-2.83,5.069,5.069,0,0,1,3.372-1.03,7.963,7.963,0,0,1,2.018.25A13.87,13.87,0,0,1-35.9-12.8l-.928,2.236a13.574,13.574,0,0,0-1.8-.622,5.778,5.778,0,0,0-1.4-.176,1.849,1.849,0,0,0-1.252.38,1.255,1.255,0,0,0-.436.993,1.229,1.229,0,0,0,.176.663,1.938,1.938,0,0,0,.561.547,17.354,17.354,0,0,0,1.823.951,7.254,7.254,0,0,1,2.607,1.823A3.558,3.558,0,0,1-35.834-3.767ZM-30.5-7.181h.946A3.151,3.151,0,0,0-27.568-7.7a1.834,1.834,0,0,0,.659-1.526,1.881,1.881,0,0,0-.552-1.494,2.586,2.586,0,0,0-1.73-.482H-30.5Zm6.494-2.152a4.146,4.146,0,0,1-1.368,3.349,5.852,5.852,0,0,1-3.892,1.16H-30.5V0h-2.876V-13.563h4.333A5.763,5.763,0,0,1-25.29-12.5,3.873,3.873,0,0,1-24.005-9.333ZM-9.134-6.8A7.36,7.36,0,0,1-10.8-1.624,6.191,6.191,0,0,1-15.591.186a6.191,6.191,0,0,1-4.787-1.809,7.389,7.389,0,0,1-1.67-5.2,7.288,7.288,0,0,1,1.675-5.172,6.262,6.262,0,0,1,4.8-1.786,6.175,6.175,0,0,1,4.782,1.8A7.379,7.379,0,0,1-9.134-6.8Zm-9.9,0a5.666,5.666,0,0,0,.863,3.423,3.019,3.019,0,0,0,2.579,1.15q3.442,0,3.442-4.574t-3.423-4.583a3.039,3.039,0,0,0-2.588,1.155A5.642,5.642,0,0,0-19.032-6.8ZM5.71,0H2.055l-5.9-10.261h-.083q.176,2.718.176,3.878V0h-2.57V-13.563H-2.7L3.2-3.4h.065q-.139-2.644-.139-3.739v-6.42H5.71Zm11.42-3.767A3.506,3.506,0,0,1,15.809-.872,5.743,5.743,0,0,1,12.13.186,8.639,8.639,0,0,1,8.289-.631V-3.3a15.828,15.828,0,0,0,2.324.863,6.877,6.877,0,0,0,1.74.25A2.473,2.473,0,0,0,13.8-2.551a1.238,1.238,0,0,0,.506-1.076,1.188,1.188,0,0,0-.223-.71,2.492,2.492,0,0,0-.654-.6,16.822,16.822,0,0,0-1.758-.918A8.333,8.333,0,0,1,9.811-6.977a4.214,4.214,0,0,1-.993-1.252A3.574,3.574,0,0,1,8.447-9.9a3.505,3.505,0,0,1,1.22-2.83,5.069,5.069,0,0,1,3.372-1.03,7.963,7.963,0,0,1,2.018.25,13.87,13.87,0,0,1,2.009.705l-.928,2.236a13.574,13.574,0,0,0-1.8-.622,5.778,5.778,0,0,0-1.4-.176,1.849,1.849,0,0,0-1.252.38,1.255,1.255,0,0,0-.436.993,1.229,1.229,0,0,0,.176.663A1.938,1.938,0,0,0,12-8.781a17.354,17.354,0,0,0,1.823.951,7.254,7.254,0,0,1,2.607,1.823A3.558,3.558,0,0,1,17.131-3.767ZM31.9-6.8a7.36,7.36,0,0,1-1.67,5.177A6.191,6.191,0,0,1,25.443.186a6.191,6.191,0,0,1-4.787-1.809,7.389,7.389,0,0,1-1.67-5.2,7.288,7.288,0,0,1,1.675-5.172,6.262,6.262,0,0,1,4.8-1.786,6.175,6.175,0,0,1,4.782,1.8A7.379,7.379,0,0,1,31.9-6.8ZM22-6.8a5.666,5.666,0,0,0,.863,3.423,3.019,3.019,0,0,0,2.579,1.15q3.442,0,3.442-4.574t-3.423-4.583a3.039,3.039,0,0,0-2.588,1.155A5.642,5.642,0,0,0,22-6.8Zm15.586-.742h.928A3.549,3.549,0,0,0,40.528-8a1.623,1.623,0,0,0,.649-1.429,1.484,1.484,0,0,0-.663-1.373,4.025,4.025,0,0,0-2.055-.408h-.872Zm0,2.338V0H34.711V-13.563h3.952a6.764,6.764,0,0,1,4.091,1.007A3.593,3.593,0,0,1,44.081-9.5a3.6,3.6,0,0,1-.659,2.129A4.358,4.358,0,0,1,41.558-5.91Q44.619-1.336,45.547,0H42.356L39.118-5.2Z" transform="translate(6808.098 1102.367) rotate(45)" fill="#fff"/>
    <path id="Trazado_24292" data-name="Trazado 24292" d="M-26.677,0h-2.876V-11.17h-3.683v-2.394h10.242v2.394h-3.683Zm17.7-6.8a7.36,7.36,0,0,1-1.67,5.177A6.191,6.191,0,0,1-15.433.186,6.191,6.191,0,0,1-20.22-1.624a7.389,7.389,0,0,1-1.67-5.2,7.288,7.288,0,0,1,1.675-5.172,6.262,6.262,0,0,1,4.8-1.786,6.175,6.175,0,0,1,4.782,1.8A7.379,7.379,0,0,1-8.976-6.8Zm-9.9,0a5.666,5.666,0,0,0,.863,3.423,3.019,3.019,0,0,0,2.579,1.15q3.442,0,3.442-4.574t-3.423-4.583A3.039,3.039,0,0,0-18-10.228,5.642,5.642,0,0,0-18.875-6.8ZM-.422,0-3.688-10.641h-.083q.176,3.247.176,4.333V0h-2.57V-13.563H-2.25L.96-3.191h.056l3.4-10.372H8.336V0H5.655V-6.42q0-.455.014-1.048t.125-3.154H5.71L2.213,0ZM20.053,0,19.07-3.229H14.125L13.141,0h-3.1L14.83-13.619h3.516L23.152,0Zm-1.67-5.641q-1.364-4.388-1.535-4.963t-.246-.909q-.306,1.188-1.753,5.873ZM32.865-3.767A3.506,3.506,0,0,1,31.543-.872,5.743,5.743,0,0,1,27.865.186a8.639,8.639,0,0,1-3.841-.816V-3.3a15.828,15.828,0,0,0,2.324.863,6.877,6.877,0,0,0,1.74.25,2.473,2.473,0,0,0,1.452-.362,1.238,1.238,0,0,0,.506-1.076,1.188,1.188,0,0,0-.223-.71,2.492,2.492,0,0,0-.654-.6,16.822,16.822,0,0,0-1.758-.918,8.333,8.333,0,0,1-1.865-1.123,4.214,4.214,0,0,1-.993-1.252,3.574,3.574,0,0,1-.371-1.67,3.505,3.505,0,0,1,1.22-2.83,5.069,5.069,0,0,1,3.372-1.03,7.963,7.963,0,0,1,2.018.25A13.87,13.87,0,0,1,32.8-12.8l-.928,2.236a13.574,13.574,0,0,0-1.8-.622,5.778,5.778,0,0,0-1.4-.176,1.849,1.849,0,0,0-1.252.38,1.255,1.255,0,0,0-.436.993,1.229,1.229,0,0,0,.176.663,1.938,1.938,0,0,0,.561.547,17.355,17.355,0,0,0,1.823.951A7.254,7.254,0,0,1,32.16-6.007,3.558,3.558,0,0,1,32.865-3.767ZM-49.212,15.819h.946A3.151,3.151,0,0,0-46.28,15.3a1.834,1.834,0,0,0,.659-1.526,1.881,1.881,0,0,0-.552-1.494,2.586,2.586,0,0,0-1.73-.482h-1.308Zm6.494-2.152a4.146,4.146,0,0,1-1.368,3.349,5.852,5.852,0,0,1-3.892,1.16h-1.234V23h-2.876V9.437h4.333A5.763,5.763,0,0,1-44,10.5,3.873,3.873,0,0,1-42.718,13.667Zm13.6-4.23v8.776a5.06,5.06,0,0,1-.673,2.635,4.377,4.377,0,0,1-1.944,1.735,6.951,6.951,0,0,1-3.006.6A5.756,5.756,0,0,1-38.8,21.845a4.756,4.756,0,0,1-1.447-3.669V9.437h2.867v8.3a3.478,3.478,0,0,0,.631,2.3,2.623,2.623,0,0,0,2.087.733,2.564,2.564,0,0,0,2.046-.738,3.5,3.5,0,0,0,.635-2.315V9.437ZM-13.763,23h-3.655l-5.9-10.261H-23.4q.176,2.718.176,3.878V23H-25.8V9.437h3.627L-16.277,19.6h.065q-.139-2.644-.139-3.739V9.437h2.588Zm8.646,0H-7.992V11.83h-3.683V9.437H-1.433V11.83H-5.116Zm17.7-6.8a7.36,7.36,0,0,1-1.67,5.177,6.191,6.191,0,0,1-4.787,1.809,6.191,6.191,0,0,1-4.787-1.809,7.389,7.389,0,0,1-1.67-5.2,7.288,7.288,0,0,1,1.675-5.172,6.262,6.262,0,0,1,4.8-1.786,6.175,6.175,0,0,1,4.782,1.8A7.379,7.379,0,0,1,12.585,16.2Zm-9.9,0a5.666,5.666,0,0,0,.863,3.423,3.019,3.019,0,0,0,2.579,1.15q3.442,0,3.442-4.574T6.146,11.617a3.039,3.039,0,0,0-2.588,1.155A5.642,5.642,0,0,0,2.686,16.2ZM23.4,19.233a3.506,3.506,0,0,1-1.322,2.895A5.743,5.743,0,0,1,18.4,23.186a8.639,8.639,0,0,1-3.841-.816V19.7a15.828,15.828,0,0,0,2.324.863,6.877,6.877,0,0,0,1.74.25,2.473,2.473,0,0,0,1.452-.362,1.238,1.238,0,0,0,.506-1.076,1.188,1.188,0,0,0-.223-.71,2.492,2.492,0,0,0-.654-.6,16.821,16.821,0,0,0-1.758-.918,8.333,8.333,0,0,1-1.865-1.123,4.214,4.214,0,0,1-.993-1.252,3.574,3.574,0,0,1-.371-1.67,3.505,3.505,0,0,1,1.22-2.83,5.069,5.069,0,0,1,3.372-1.03,7.963,7.963,0,0,1,2.018.25,13.87,13.87,0,0,1,2.009.705l-.928,2.236a13.574,13.574,0,0,0-1.8-.622,5.778,5.778,0,0,0-1.4-.176,1.849,1.849,0,0,0-1.252.38,1.255,1.255,0,0,0-.436.993,1.229,1.229,0,0,0,.176.663,1.938,1.938,0,0,0,.561.547,17.355,17.355,0,0,0,1.823.951A7.254,7.254,0,0,1,22.7,16.993,3.558,3.558,0,0,1,23.4,19.233ZM42.05,16.088a6.679,6.679,0,0,1-1.906,5.13A7.775,7.775,0,0,1,34.637,23H30.8V9.437h4.258a7.171,7.171,0,0,1,5.158,1.753A6.45,6.45,0,0,1,42.05,16.088Zm-2.987.074q0-4.37-3.859-4.37H33.672v8.832h1.234Q39.062,20.625,39.062,16.163ZM52.672,23H44.861V9.437h7.812v2.356H47.737v2.978h4.592v2.356H47.737v3.5h4.936Zm-73.838,9.437h2.9L-22.873,46h-3.136l-4.6-13.563h2.9l2.551,8.071q.213.714.441,1.665t.283,1.322a23.763,23.763,0,0,1,.7-2.987ZM-8.744,46h-7.812V32.437h7.812v2.356h-4.936v2.978h4.592v2.356h-4.592v3.5h4.936ZM6.118,46H2.463l-5.9-10.261h-.083q.176,2.718.176,3.878V46h-2.57V32.437h3.627L3.6,42.6h.065q-.139-2.644-.139-3.739v-6.42H6.118Zm8.646,0H11.889V34.83H8.206V32.437H18.448V34.83H14.765Zm12.747,0-.983-3.229H21.584L20.6,46H17.5l4.787-13.619H25.8L30.611,46Zm-1.67-5.641q-1.364-4.388-1.535-4.963t-.246-.909q-.306,1.188-1.753,5.873Z" transform="translate(6601.977 1305.858) rotate(45)" fill="#fff"/>
    <path id="Trazado_24281" data-name="Trazado 24281" d="M-45.615,0l-3.609-11.761h-.092q.195,3.589.195,4.789V0h-2.84V-14.991h4.327l3.548,11.464h.062l3.763-11.464h4.327V0H-38.9V-7.1q0-.5.015-1.159t.138-3.486h-.092L-42.7,0Zm22.087,0h-8.634V-14.991h8.634v2.6h-5.455V-9.1h5.076v2.6h-5.076v3.866h5.455ZM-7.1,0h-4.04l-6.521-11.341h-.092q.195,3,.195,4.286V0H-20.4V-14.991h4.009L-9.88-3.763h.072Q-9.962-6.686-9.962-7.9v-7.1H-7.1ZM5.522-4.163a3.875,3.875,0,0,1-1.461,3.2A6.347,6.347,0,0,1-.005.205,9.548,9.548,0,0,1-4.25-.7V-3.65A17.494,17.494,0,0,0-1.682-2.7,7.6,7.6,0,0,0,.241-2.42a2.734,2.734,0,0,0,1.6-.4A1.368,1.368,0,0,0,2.4-4.009a1.313,1.313,0,0,0-.246-.784,2.754,2.754,0,0,0-.723-.661A18.592,18.592,0,0,0-.508-6.47,9.21,9.21,0,0,1-2.569-7.711,4.658,4.658,0,0,1-3.666-9.1a3.95,3.95,0,0,1-.41-1.846,3.874,3.874,0,0,1,1.348-3.127A5.6,5.6,0,0,1,1-15.207a8.8,8.8,0,0,1,2.23.277,15.33,15.33,0,0,1,2.22.779L4.425-11.679a15,15,0,0,0-1.984-.687A6.386,6.386,0,0,0,.9-12.561a2.043,2.043,0,0,0-1.384.42,1.387,1.387,0,0,0-.482,1.1,1.358,1.358,0,0,0,.195.733,2.142,2.142,0,0,0,.62.6A19.181,19.181,0,0,0,1.861-8.654,8.017,8.017,0,0,1,4.742-6.639,3.932,3.932,0,0,1,5.522-4.163ZM17.416,0,16.329-3.568H10.864L9.777,0H6.352l5.291-15.053H15.53L20.841,0ZM15.571-6.234q-1.507-4.85-1.7-5.486t-.272-1q-.338,1.313-1.938,6.491ZM23.886,4.409a6.951,6.951,0,0,1-1.876-.226V1.538a6.218,6.218,0,0,0,1.5.205A1.691,1.691,0,0,0,25,1.092a3.626,3.626,0,0,0,.451-2.035V-14.991h3.179V-.964a5.91,5.91,0,0,1-1.2,4A4.457,4.457,0,0,1,23.886,4.409ZM41.041,0H32.407V-14.991h8.634v2.6H35.586V-9.1h5.076v2.6H35.586v3.866h5.455ZM53.018-4.163a3.875,3.875,0,0,1-1.461,3.2A6.347,6.347,0,0,1,47.491.205a9.548,9.548,0,0,1-4.245-.9V-3.65a17.494,17.494,0,0,0,2.569.954,7.6,7.6,0,0,0,1.923.277,2.734,2.734,0,0,0,1.6-.4A1.368,1.368,0,0,0,49.9-4.009a1.313,1.313,0,0,0-.246-.784,2.754,2.754,0,0,0-.723-.661A18.592,18.592,0,0,0,46.989-6.47a9.21,9.21,0,0,1-2.061-1.241A4.658,4.658,0,0,1,43.83-9.1a3.95,3.95,0,0,1-.41-1.846,3.874,3.874,0,0,1,1.348-3.127A5.6,5.6,0,0,1,48.5-15.207a8.8,8.8,0,0,1,2.23.277,15.33,15.33,0,0,1,2.22.779l-1.025,2.471a15,15,0,0,0-1.984-.687,6.386,6.386,0,0,0-1.543-.195,2.043,2.043,0,0,0-1.384.42,1.387,1.387,0,0,0-.482,1.1,1.358,1.358,0,0,0,.195.733,2.142,2.142,0,0,0,.62.6,19.181,19.181,0,0,0,2.015,1.051,8.017,8.017,0,0,1,2.881,2.015A3.932,3.932,0,0,1,53.018-4.163ZM-75.7,25l-3.609-11.761h-.092q.195,3.589.195,4.789V25h-2.84V10.009h4.327l3.548,11.464h.062l3.763-11.464h4.327V25h-2.963V17.9q0-.5.015-1.159t.138-3.486h-.092L-72.792,25Zm27.06-7.516a8.135,8.135,0,0,1-1.846,5.722,6.842,6.842,0,0,1-5.291,2,6.842,6.842,0,0,1-5.291-2,8.167,8.167,0,0,1-1.846-5.742,8.055,8.055,0,0,1,1.851-5.717,6.921,6.921,0,0,1,5.306-1.974,6.825,6.825,0,0,1,5.286,1.989A8.156,8.156,0,0,1-48.645,17.484Zm-10.941,0a6.262,6.262,0,0,0,.954,3.784,3.337,3.337,0,0,0,2.851,1.271q3.8,0,3.8-5.055t-3.784-5.065A3.359,3.359,0,0,0-58.622,13.7,6.236,6.236,0,0,0-59.585,17.484Zm2.194-8.675V8.532a28.869,28.869,0,0,0,2.41-3.086h3.507v.215q-.533.533-1.82,1.584T-55.31,8.809Zm20.2,1.2h3.209L-39.078,25h-3.466l-5.086-14.991h3.209l2.82,8.921q.236.79.487,1.841t.313,1.461a26.265,26.265,0,0,1,.769-3.3ZM-32.095,25V10.009h3.179V25Zm6.952,0V10.009h3.179V22.375h6.081V25Zm16.058-4.348V18.089h5.506v2.563ZM18,17.484a8.135,8.135,0,0,1-1.846,5.722,6.842,6.842,0,0,1-5.291,2,6.842,6.842,0,0,1-5.291-2,8.167,8.167,0,0,1-1.846-5.742,8.055,8.055,0,0,1,1.851-5.717,6.921,6.921,0,0,1,5.306-1.974,6.825,6.825,0,0,1,5.286,1.989A8.156,8.156,0,0,1,18,17.484Zm-10.941,0a6.262,6.262,0,0,0,.954,3.784,3.337,3.337,0,0,0,2.851,1.271q3.8,0,3.8-5.055t-3.784-5.065A3.359,3.359,0,0,0,8.019,13.7,6.236,6.236,0,0,0,7.055,17.484ZM34.4,25h-4.04L23.84,13.659h-.092q.195,3,.195,4.286V25H21.1V10.009h4.009l6.511,11.228h.072q-.154-2.922-.154-4.132v-7.1H34.4Zm3.773,0V10.009h3.179V22.375h6.081V25Zm11.864,0V10.009h3.179V25Zm20.251,0H66.25L59.729,13.659h-.092q.195,3,.195,4.286V25h-2.84V10.009H61l6.511,11.228h.072q-.154-2.922-.154-4.132v-7.1h2.861ZM82.7,25H74.064V10.009H82.7v2.6H77.243V15.9h5.076v2.6H77.243v3.866H82.7Z" transform="translate(6698.52 1191.765)" fill="#fff"/>
  </g>
</svg>
