<svg xmlns="http://www.w3.org/2000/svg" width="642" height="642" viewBox="0 0 642 642">
  <g id="Grupo_14565" data-name="Grupo 14565" transform="translate(-141 -1524)">
    <g id="Grupo_14543" data-name="Grupo 14543" transform="translate(141.03 1524)">
      <circle id="Elipse_911" data-name="Elipse 911" cx="321" cy="321" r="321" transform="translate(-0.03 -0.001)" fill="#91cff4"/>
      <ellipse id="Elipse_912" data-name="Elipse 912" cx="238.03" cy="238.03" rx="238.03" ry="238.03" transform="translate(82.834 83.222)" fill="#fff" stroke="#71b3e1" stroke-miterlimit="10" stroke-width="3"/>
      <ellipse id="Elipse_913" data-name="Elipse 913" cx="154.729" cy="154.729" rx="154.729" ry="154.729" transform="translate(166.135 166.523)" fill="#fff" stroke="#4674b8" stroke-miterlimit="10" stroke-width="3"/>
      <ellipse id="Elipse_914" data-name="Elipse 914" cx="67.783" cy="67.783" rx="67.783" ry="67.783" transform="translate(253.081 253.469)" fill="#333b8c"/>
      <path id="Trazado_24250" data-name="Trazado 24250" d="M-34.192-6.58a1.7,1.7,0,0,0-1.456.706A3.286,3.286,0,0,0-36.164-3.9q0,2.626,1.971,2.626a6.231,6.231,0,0,0,2-.414V-.3a5.564,5.564,0,0,1-2.159.4A3.293,3.293,0,0,1-36.969-.932a4.4,4.4,0,0,1-.908-2.984,4.872,4.872,0,0,1,.446-2.146A3.222,3.222,0,0,1-36.15-7.474a3.79,3.79,0,0,1,1.958-.491,5.284,5.284,0,0,1,2.3.553l-.537,1.354a8.891,8.891,0,0,0-.886-.365A2.644,2.644,0,0,0-34.192-6.58Zm10.581,2.643a4.261,4.261,0,0,1-.967,3A3.584,3.584,0,0,1-27.35.107,3.584,3.584,0,0,1-30.121-.94a4.278,4.278,0,0,1-.967-3.008,4.219,4.219,0,0,1,.969-2.994,3.625,3.625,0,0,1,2.78-1.034A3.575,3.575,0,0,1-24.57-6.934,4.272,4.272,0,0,1-23.611-3.937Zm-5.731,0a3.28,3.28,0,0,0,.5,1.982,1.748,1.748,0,0,0,1.493.666q1.993,0,1.993-2.648T-27.339-6.59a1.76,1.76,0,0,0-1.5.669A3.266,3.266,0,0,0-29.342-3.937ZM-15.018,0h-2.116L-20.55-5.94H-20.6q.1,1.574.1,2.245V0h-1.488V-7.853h2.1l3.411,5.881h.038q-.081-1.531-.081-2.165V-7.853h1.5Zm6.612-2.181A2.03,2.03,0,0,1-9.171-.5,3.325,3.325,0,0,1-11.3.107a5,5,0,0,1-2.224-.473V-1.912a9.164,9.164,0,0,0,1.345.5,3.981,3.981,0,0,0,1.007.145,1.432,1.432,0,0,0,.841-.209.716.716,0,0,0,.293-.623.688.688,0,0,0-.129-.411,1.442,1.442,0,0,0-.379-.346,9.739,9.739,0,0,0-1.018-.532,4.824,4.824,0,0,1-1.08-.65,2.44,2.44,0,0,1-.575-.725,2.069,2.069,0,0,1-.215-.967,2.029,2.029,0,0,1,.706-1.638,2.935,2.935,0,0,1,1.952-.6,4.61,4.61,0,0,1,1.168.145,8.03,8.03,0,0,1,1.163.408L-8.98-6.118a7.858,7.858,0,0,0-1.039-.36,3.345,3.345,0,0,0-.808-.1,1.07,1.07,0,0,0-.725.22.726.726,0,0,0-.252.575.711.711,0,0,0,.1.384,1.122,1.122,0,0,0,.325.317,10.047,10.047,0,0,0,1.055.551A4.2,4.2,0,0,1-8.814-3.478,2.06,2.06,0,0,1-8.406-2.181ZM-.591-7.853v5.081A2.929,2.929,0,0,1-.98-1.246a2.534,2.534,0,0,1-1.125,1,4.024,4.024,0,0,1-1.74.349A3.332,3.332,0,0,1-6.2-.669a2.753,2.753,0,0,1-.838-2.124v-5.06h1.66v4.807a2.013,2.013,0,0,0,.365,1.332A1.518,1.518,0,0,0-3.8-1.289a1.484,1.484,0,0,0,1.184-.427,2.024,2.024,0,0,0,.368-1.34v-4.8ZM4.657,0,2.766-6.161H2.718q.1,1.88.1,2.508V0H1.332V-7.853H3.6l1.858,6h.032l1.971-6H9.727V0H8.175V-3.717q0-.263.008-.607T8.255-6.15H8.207L6.182,0ZM11.7,0V-7.853h1.665V0ZM21.86-4a3.867,3.867,0,0,1-1.1,2.97A4.5,4.5,0,0,1,17.569,0H15.345V-7.853h2.465A4.152,4.152,0,0,1,20.8-6.837,3.734,3.734,0,0,1,21.86-4Zm-1.729.043q0-2.53-2.234-2.53H17.01v5.113h.714Q20.131-1.375,20.131-3.958Zm10.484.021a4.261,4.261,0,0,1-.967,3A3.584,3.584,0,0,1,26.877.107,3.584,3.584,0,0,1,24.105-.94a4.278,4.278,0,0,1-.967-3.008,4.219,4.219,0,0,1,.969-2.994,3.625,3.625,0,0,1,2.78-1.034,3.575,3.575,0,0,1,2.769,1.042A4.272,4.272,0,0,1,30.615-3.937Zm-5.731,0a3.28,3.28,0,0,0,.5,1.982,1.748,1.748,0,0,0,1.493.666q1.993,0,1.993-2.648T26.888-6.59a1.76,1.76,0,0,0-1.5.669A3.266,3.266,0,0,0,24.884-3.937Zm9.023-.43h.537A2.055,2.055,0,0,0,35.61-4.63a.939.939,0,0,0,.376-.827.859.859,0,0,0-.384-.795,2.33,2.33,0,0,0-1.19-.236h-.5Zm0,1.354V0H32.243V-7.853h2.288A3.916,3.916,0,0,1,36.9-7.27a2.08,2.08,0,0,1,.768,1.77,2.083,2.083,0,0,1-.381,1.233,2.523,2.523,0,0,1-1.08.846Q37.979-.773,38.516,0H36.668L34.794-3.013Z" transform="translate(315.649 325.815)" fill="#fff"/>
      <path id="Trazado_24251" data-name="Trazado 24251" d="M-37.54,0h-2.271V-8.818h-2.908v-1.89h8.086v1.89H-37.54Zm10.723,0h-6.167V-10.708h6.167v1.86h-3.9V-6.5h3.625v1.86h-3.625v2.761h3.9Zm2.234,0V-10.708h2.271v8.833h4.343V0ZM-9.943,0H-16.11V-10.708h6.167v1.86h-3.9V-6.5h3.625v1.86h-3.625v2.761h3.9ZM-1.6-10.708H.692L-2.948,0H-5.424L-9.056-10.708h2.292L-4.75-4.336q.168.564.348,1.315t.223,1.044a18.76,18.76,0,0,1,.549-2.358ZM2.04,0V-10.708H4.31V0ZM13.326-2.974A2.768,2.768,0,0,1,12.283-.688a4.534,4.534,0,0,1-2.9.835A6.82,6.82,0,0,1,6.346-.5V-2.607a12.5,12.5,0,0,0,1.835.681,5.429,5.429,0,0,0,1.373.2A1.953,1.953,0,0,0,10.7-2.014a.977.977,0,0,0,.4-.85.938.938,0,0,0-.176-.56,1.967,1.967,0,0,0-.516-.472A13.28,13.28,0,0,0,9.02-4.622a6.579,6.579,0,0,1-1.472-.886A3.327,3.327,0,0,1,6.764-6.5a2.822,2.822,0,0,1-.293-1.318,2.767,2.767,0,0,1,.963-2.234,4,4,0,0,1,2.662-.813,6.287,6.287,0,0,1,1.593.2,10.95,10.95,0,0,1,1.586.557l-.732,1.765a10.716,10.716,0,0,0-1.417-.491,4.562,4.562,0,0,0-1.1-.139,1.46,1.46,0,0,0-.989.3.991.991,0,0,0-.344.784.97.97,0,0,0,.139.524,1.53,1.53,0,0,0,.443.432,13.7,13.7,0,0,0,1.439.751A5.727,5.727,0,0,1,12.77-4.742,2.809,2.809,0,0,1,13.326-2.974ZM15.267,0V-10.708h2.271V0ZM29.952-5.369a5.81,5.81,0,0,1-1.318,4.087A4.887,4.887,0,0,1,24.855.146a4.887,4.887,0,0,1-3.779-1.428,5.833,5.833,0,0,1-1.318-4.1,5.754,5.754,0,0,1,1.322-4.083,4.944,4.944,0,0,1,3.79-1.41,4.875,4.875,0,0,1,3.776,1.421A5.825,5.825,0,0,1,29.952-5.369Zm-7.815,0a4.473,4.473,0,0,0,.681,2.7,2.383,2.383,0,0,0,2.036.908q2.717,0,2.717-3.611t-2.7-3.618a2.4,2.4,0,0,0-2.043.912A4.454,4.454,0,0,0,22.137-5.369Zm1.567-6.2v-.2a20.621,20.621,0,0,0,1.721-2.2h2.5v.154q-.381.381-1.3,1.132t-1.439,1.117ZM41.671,0H38.785L34.127-8.1h-.066q.139,2.146.139,3.062V0H32.172V-10.708h2.864l4.651,8.02h.051q-.11-2.087-.11-2.952v-5.068h2.043Z" transform="translate(312.168 47.17)"/>
      <path id="Trazado_24256" data-name="Trazado 24256" d="M-43.392,0h-2.271V-8.818h-2.908v-1.89h8.086v1.89h-2.908Zm6.826-5.955h.732a2.8,2.8,0,0,0,1.589-.359,1.281,1.281,0,0,0,.513-1.128,1.172,1.172,0,0,0-.524-1.084,3.178,3.178,0,0,0-1.622-.322h-.688Zm0,1.846V0h-2.271V-10.708h3.12a5.34,5.34,0,0,1,3.23.795A2.836,2.836,0,0,1-31.439-7.5a2.841,2.841,0,0,1-.52,1.681,3.441,3.441,0,0,1-1.472,1.154Q-31.014-1.055-30.282,0H-32.8l-2.556-4.109ZM-22.379,0l-.776-2.549h-3.9L-27.836,0h-2.446L-26.5-10.752h2.776L-19.933,0ZM-23.7-4.453q-1.077-3.464-1.212-3.918t-.194-.718q-.242.938-1.384,4.636ZM-9.086,0h-2.886L-16.63-8.1H-16.7q.139,2.146.139,3.062V0h-2.029V-10.708h2.864l4.651,8.02h.051q-.11-2.087-.11-2.952v-5.068h2.043ZM-.07-2.974A2.768,2.768,0,0,1-1.113-.688a4.534,4.534,0,0,1-2.9.835A6.82,6.82,0,0,1-7.05-.5V-2.607a12.5,12.5,0,0,0,1.835.681,5.429,5.429,0,0,0,1.373.2A1.953,1.953,0,0,0-2.7-2.014a.977.977,0,0,0,.4-.85.938.938,0,0,0-.176-.56A1.967,1.967,0,0,0-2.988-3.9a13.28,13.28,0,0,0-1.388-.725,6.579,6.579,0,0,1-1.472-.886A3.327,3.327,0,0,1-6.632-6.5a2.822,2.822,0,0,1-.293-1.318,2.767,2.767,0,0,1,.963-2.234A4,4,0,0,1-3.3-10.862a6.287,6.287,0,0,1,1.593.2,10.95,10.95,0,0,1,1.586.557L-.853-8.342a10.716,10.716,0,0,0-1.417-.491,4.562,4.562,0,0,0-1.1-.139,1.46,1.46,0,0,0-.989.3.991.991,0,0,0-.344.784.97.97,0,0,0,.139.524,1.53,1.53,0,0,0,.443.432,13.7,13.7,0,0,0,1.439.751A5.727,5.727,0,0,1-.626-4.742,2.809,2.809,0,0,1-.07-2.974Zm4.211-2.7h.747a2.488,2.488,0,0,0,1.567-.414,1.448,1.448,0,0,0,.52-1.2,1.485,1.485,0,0,0-.436-1.179,2.042,2.042,0,0,0-1.366-.381H4.142Zm5.127-1.7a3.273,3.273,0,0,1-1.08,2.644,4.62,4.62,0,0,1-3.073.916H4.142V0H1.871V-10.708h3.42a4.549,4.549,0,0,1,2.963.839A3.058,3.058,0,0,1,9.269-7.368Zm11.741,2a5.81,5.81,0,0,1-1.318,4.087A4.887,4.887,0,0,1,15.912.146a4.887,4.887,0,0,1-3.779-1.428,5.833,5.833,0,0,1-1.318-4.1,5.754,5.754,0,0,1,1.322-4.083,4.944,4.944,0,0,1,3.79-1.41A4.875,4.875,0,0,1,19.7-9.456,5.825,5.825,0,0,1,21.01-5.369Zm-7.815,0a4.473,4.473,0,0,0,.681,2.7,2.383,2.383,0,0,0,2.036.908q2.717,0,2.717-3.611t-2.7-3.618a2.4,2.4,0,0,0-2.043.912A4.454,4.454,0,0,0,13.195-5.369Zm12.3-.586h.732a2.8,2.8,0,0,0,1.589-.359,1.281,1.281,0,0,0,.513-1.128,1.172,1.172,0,0,0-.524-1.084,3.178,3.178,0,0,0-1.622-.322H25.5Zm0,1.846V0H23.229V-10.708h3.12a5.34,5.34,0,0,1,3.23.795A2.836,2.836,0,0,1,30.626-7.5a2.841,2.841,0,0,1-.52,1.681,3.441,3.441,0,0,1-1.472,1.154Q31.051-1.055,31.783,0h-2.52L26.708-4.109ZM37.262,0H34.991V-8.818H32.084v-1.89H40.17v1.89H37.262ZM47.985,0H41.818V-10.708h6.167v1.86h-3.9V-6.5h3.625v1.86H44.088v2.761h3.9Zm-77.1,11.331h.747a2.488,2.488,0,0,0,1.567-.414,1.448,1.448,0,0,0,.52-1.2,1.485,1.485,0,0,0-.436-1.179,2.042,2.042,0,0,0-1.366-.381h-1.033Zm5.127-1.7a3.273,3.273,0,0,1-1.08,2.644,4.62,4.62,0,0,1-3.073.916h-.974V17h-2.271V6.292h3.42A4.549,4.549,0,0,1-25,7.131,3.058,3.058,0,0,1-23.99,9.632Zm10.737-3.34v6.929a3.994,3.994,0,0,1-.531,2.08,3.456,3.456,0,0,1-1.534,1.37,5.487,5.487,0,0,1-2.373.476A4.544,4.544,0,0,1-20.9,16.088a3.754,3.754,0,0,1-1.143-2.9v-6.9h2.263v6.555a2.746,2.746,0,0,0,.5,1.816,2.07,2.07,0,0,0,1.648.579,2.024,2.024,0,0,0,1.615-.582,2.76,2.76,0,0,0,.5-1.827V6.292Zm-5.654-.857v-.2a20.621,20.621,0,0,0,1.721-2.2h2.5v.154q-.381.381-1.3,1.132t-1.439,1.117Zm8.276.857H-7.3a6.422,6.422,0,0,1,3.307.648A2.256,2.256,0,0,1-2.963,9a2.6,2.6,0,0,1-.45,1.575,1.8,1.8,0,0,1-1.2.74v.073a2.359,2.359,0,0,1,1.469.85,2.764,2.764,0,0,1,.45,1.655A2.728,2.728,0,0,1-3.75,16.18,4.577,4.577,0,0,1-6.625,17h-4.006Zm2.271,4.241h1.318a2.41,2.41,0,0,0,1.337-.286A1.065,1.065,0,0,0-5.292,9.3a.945.945,0,0,0-.45-.883,2.9,2.9,0,0,0-1.425-.267H-8.361Zm0,1.8v2.791h1.479A2.195,2.195,0,0,0-5.5,14.766a1.325,1.325,0,0,0,.447-1.1q0-1.333-1.9-1.333ZM-.553,17V6.292H1.718v8.833H6.061V17Zm8.474,0V6.292h2.271V17Zm9.514-8.972a2.314,2.314,0,0,0-1.985.963,4.481,4.481,0,0,0-.7,2.684q0,3.582,2.688,3.582a8.5,8.5,0,0,0,2.732-.564v1.9a7.587,7.587,0,0,1-2.944.549,4.491,4.491,0,0,1-3.574-1.417,6,6,0,0,1-1.238-4.069,6.644,6.644,0,0,1,.608-2.926,4.394,4.394,0,0,1,1.747-1.926,5.168,5.168,0,0,1,2.67-.67,7.205,7.205,0,0,1,3.135.754l-.732,1.846a12.124,12.124,0,0,0-1.208-.5A3.605,3.605,0,0,0,17.435,8.028Zm14.429,3.6a5.81,5.81,0,0,1-1.318,4.087,4.887,4.887,0,0,1-3.779,1.428,4.887,4.887,0,0,1-3.779-1.428,5.833,5.833,0,0,1-1.318-4.1,5.754,5.754,0,0,1,1.322-4.083,4.944,4.944,0,0,1,3.79-1.41,4.875,4.875,0,0,1,3.776,1.421A5.825,5.825,0,0,1,31.864,11.631Zm-7.815,0a4.473,4.473,0,0,0,.681,2.7,2.383,2.383,0,0,0,2.036.908q2.717,0,2.717-3.611t-2.7-3.618a2.4,2.4,0,0,0-2.043.912A4.454,4.454,0,0,0,24.049,11.631Z" transform="translate(310.567 594.332)"/>
      <path id="Trazado_24260" data-name="Trazado 24260" d="M-42.455-5.955h.732a2.8,2.8,0,0,0,1.589-.359,1.281,1.281,0,0,0,.513-1.128,1.172,1.172,0,0,0-.524-1.084,3.178,3.178,0,0,0-1.622-.322h-.688Zm0,1.846V0h-2.271V-10.708h3.12a5.34,5.34,0,0,1,3.23.795A2.836,2.836,0,0,1-37.328-7.5a2.841,2.841,0,0,1-.52,1.681A3.441,3.441,0,0,1-39.32-4.666Q-36.9-1.055-36.171,0h-2.52l-2.556-4.109ZM-28.656,0h-6.167V-10.708h6.167v1.86h-3.9V-6.5h3.625v1.86h-3.625v2.761h3.9Zm2.234,0V-10.708h2.271v8.833h4.343V0Zm15.029,0-.776-2.549h-3.9L-16.849,0H-19.3l3.779-10.752h2.776L-8.947,0Zm-1.318-4.453q-1.077-3.464-1.212-3.918t-.194-.718q-.242.938-1.384,4.636Zm9.36-4.519a2.314,2.314,0,0,0-1.985.963,4.481,4.481,0,0,0-.7,2.684q0,3.582,2.688,3.582A8.5,8.5,0,0,0-.619-2.307V-.4A7.587,7.587,0,0,1-3.563.146,4.491,4.491,0,0,1-7.137-1.271,6,6,0,0,1-8.375-5.339a6.644,6.644,0,0,1,.608-2.926,4.394,4.394,0,0,1,1.747-1.926,5.168,5.168,0,0,1,2.67-.67,7.205,7.205,0,0,1,3.135.754L-.948-8.262a12.124,12.124,0,0,0-1.208-.5A3.605,3.605,0,0,0-3.351-8.972ZM1.659,0V-10.708H3.929V0ZM16.344-5.369a5.81,5.81,0,0,1-1.318,4.087A4.887,4.887,0,0,1,11.246.146,4.887,4.887,0,0,1,7.467-1.282a5.833,5.833,0,0,1-1.318-4.1A5.754,5.754,0,0,1,7.471-9.467a4.944,4.944,0,0,1,3.79-1.41,4.875,4.875,0,0,1,3.776,1.421A5.825,5.825,0,0,1,16.344-5.369Zm-7.815,0a4.473,4.473,0,0,0,.681,2.7,2.383,2.383,0,0,0,2.036.908q2.717,0,2.717-3.611t-2.7-3.618a2.4,2.4,0,0,0-2.043.912A4.454,4.454,0,0,0,8.529-5.369ZM28.063,0H25.177L20.519-8.1h-.066q.139,2.146.139,3.062V0H18.563V-10.708h2.864l4.651,8.02h.051q-.11-2.087-.11-2.952v-5.068h2.043Zm8.862,0H30.758V-10.708h6.167v1.86h-3.9V-6.5h3.625v1.86H33.029v2.761h3.9ZM45.48-2.974A2.768,2.768,0,0,1,44.436-.688a4.534,4.534,0,0,1-2.9.835A6.82,6.82,0,0,1,38.5-.5V-2.607a12.5,12.5,0,0,0,1.835.681,5.429,5.429,0,0,0,1.373.2,1.953,1.953,0,0,0,1.146-.286.977.977,0,0,0,.4-.85.938.938,0,0,0-.176-.56,1.967,1.967,0,0,0-.516-.472,13.28,13.28,0,0,0-1.388-.725A6.579,6.579,0,0,1,39.7-5.508a3.327,3.327,0,0,1-.784-.989,2.822,2.822,0,0,1-.293-1.318,2.767,2.767,0,0,1,.963-2.234,4,4,0,0,1,2.662-.813,6.287,6.287,0,0,1,1.593.2,10.95,10.95,0,0,1,1.586.557L44.7-8.342a10.716,10.716,0,0,0-1.417-.491,4.562,4.562,0,0,0-1.1-.139,1.46,1.46,0,0,0-.989.3.991.991,0,0,0-.344.784.97.97,0,0,0,.139.524,1.53,1.53,0,0,0,.443.432,13.7,13.7,0,0,0,1.439.751,5.727,5.727,0,0,1,2.058,1.439A2.809,2.809,0,0,1,45.48-2.974ZM-32.6,11.331h.747a2.488,2.488,0,0,0,1.567-.414,1.448,1.448,0,0,0,.52-1.2,1.485,1.485,0,0,0-.436-1.179,2.042,2.042,0,0,0-1.366-.381H-32.6Zm5.127-1.7a3.273,3.273,0,0,1-1.08,2.644,4.62,4.62,0,0,1-3.073.916H-32.6V17h-2.271V6.292h3.42a4.549,4.549,0,0,1,2.963.839A3.058,3.058,0,0,1-27.477,9.632Zm10.737-3.34v6.929a3.994,3.994,0,0,1-.531,2.08A3.456,3.456,0,0,1-18.8,16.67a5.487,5.487,0,0,1-2.373.476,4.544,4.544,0,0,1-3.208-1.058,3.754,3.754,0,0,1-1.143-2.9v-6.9h2.263v6.555a2.746,2.746,0,0,0,.5,1.816,2.07,2.07,0,0,0,1.648.579A2.024,2.024,0,0,0-19.5,14.66a2.76,2.76,0,0,0,.5-1.827V6.292Zm-5.654-.857v-.2a20.621,20.621,0,0,0,1.721-2.2h2.5v.154q-.381.381-1.3,1.132t-1.439,1.117Zm8.276.857h3.333a6.422,6.422,0,0,1,3.307.648A2.256,2.256,0,0,1-6.449,9a2.6,2.6,0,0,1-.45,1.575,1.8,1.8,0,0,1-1.2.74v.073a2.359,2.359,0,0,1,1.469.85,2.764,2.764,0,0,1,.45,1.655A2.728,2.728,0,0,1-7.236,16.18a4.577,4.577,0,0,1-2.875.82h-4.006Zm2.271,4.241h1.318a2.41,2.41,0,0,0,1.337-.286A1.065,1.065,0,0,0-8.778,9.3a.945.945,0,0,0-.45-.883,2.9,2.9,0,0,0-1.425-.267h-1.194Zm0,1.8v2.791h1.479a2.195,2.195,0,0,0,1.384-.359,1.325,1.325,0,0,0,.447-1.1q0-1.333-1.9-1.333ZM-4.039,17V6.292h2.271v8.833H2.574V17Zm8.474,0V6.292H6.705V17Zm9.514-8.972a2.314,2.314,0,0,0-1.985.963,4.481,4.481,0,0,0-.7,2.684q0,3.582,2.688,3.582a8.5,8.5,0,0,0,2.732-.564v1.9a7.587,7.587,0,0,1-2.944.549,4.491,4.491,0,0,1-3.574-1.417,6,6,0,0,1-1.238-4.069,6.644,6.644,0,0,1,.608-2.926,4.394,4.394,0,0,1,1.747-1.926,5.168,5.168,0,0,1,2.67-.67,7.205,7.205,0,0,1,3.135.754l-.732,1.846a12.124,12.124,0,0,0-1.208-.5A3.605,3.605,0,0,0,13.949,8.028ZM25.514,17l-.776-2.549h-3.9L20.057,17H17.611L21.39,6.248h2.776L27.96,17ZM24.2,12.547q-1.077-3.464-1.212-3.918t-.194-.718q-.242.938-1.384,4.636Zm11.433,1.479a2.768,2.768,0,0,1-1.044,2.285,4.534,4.534,0,0,1-2.9.835,6.82,6.82,0,0,1-3.032-.645V14.393a12.5,12.5,0,0,0,1.835.681,5.429,5.429,0,0,0,1.373.2A1.953,1.953,0,0,0,33,14.986a.977.977,0,0,0,.4-.85.938.938,0,0,0-.176-.56,1.967,1.967,0,0,0-.516-.472,13.28,13.28,0,0,0-1.388-.725,6.579,6.579,0,0,1-1.472-.886,3.327,3.327,0,0,1-.784-.989,2.822,2.822,0,0,1-.293-1.318,2.767,2.767,0,0,1,.963-2.234A4,4,0,0,1,32.4,6.138a6.287,6.287,0,0,1,1.593.2,10.95,10.95,0,0,1,1.586.557l-.732,1.765a10.716,10.716,0,0,0-1.417-.491,4.562,4.562,0,0,0-1.1-.139,1.46,1.46,0,0,0-.989.3.991.991,0,0,0-.344.784.97.97,0,0,0,.139.524,1.53,1.53,0,0,0,.443.432,13.7,13.7,0,0,0,1.439.751,5.727,5.727,0,0,1,2.058,1.439A2.809,2.809,0,0,1,35.629,14.026Z" transform="translate(140.577 99.815) rotate(-36)"/>
      <path id="Trazado_24255" data-name="Trazado 24255" d="M-32.129-9.57a2.468,2.468,0,0,0-2.117,1.027A4.78,4.78,0,0,0-35-5.68q0,3.82,2.867,3.82a9.063,9.063,0,0,0,2.914-.6V-.43a8.093,8.093,0,0,1-3.141.586,4.79,4.79,0,0,1-3.812-1.512,6.4,6.4,0,0,1-1.32-4.34,7.087,7.087,0,0,1,.648-3.121,4.687,4.687,0,0,1,1.863-2.055,5.512,5.512,0,0,1,2.848-.715,7.686,7.686,0,0,1,3.344.8l-.781,1.969a12.932,12.932,0,0,0-1.289-.531A3.846,3.846,0,0,0-32.129-9.57ZM-19.793,0l-.828-2.719h-4.164L-25.613,0h-2.609l4.031-11.469h2.961L-17.184,0ZM-21.2-4.75q-1.148-3.7-1.293-4.18T-22.7-9.7q-.258,1-1.477,4.945Zm7.875-1.6h.781a2.989,2.989,0,0,0,1.7-.383,1.366,1.366,0,0,0,.547-1.2,1.25,1.25,0,0,0-.559-1.156,3.39,3.39,0,0,0-1.73-.344h-.734Zm0,1.969V0h-2.422V-11.422h3.328a5.7,5.7,0,0,1,3.445.848A3.025,3.025,0,0,1-7.855-8,3.03,3.03,0,0,1-8.41-6.207a3.67,3.67,0,0,1-1.57,1.23Q-7.4-1.125-6.621,0H-9.309l-2.727-4.383ZM-.777,0H-3.2V-9.406H-6.3v-2.016H2.324v2.016h-3.1ZM10.66,0H4.082V-11.422H10.66v1.984H6.5V-6.93h3.867v1.984H6.5V-2H10.66Zm2.383,0V-11.422h2.422V-2H20.1V0ZM28.66,0H22.082V-11.422H28.66v1.984H24.5V-6.93h3.867v1.984H24.5V-2H28.66Zm9.125-3.172A2.953,2.953,0,0,1,36.672-.734a4.836,4.836,0,0,1-3.1.891A7.275,7.275,0,0,1,30.34-.531v-2.25a13.329,13.329,0,0,0,1.957.727,5.791,5.791,0,0,0,1.465.211,2.083,2.083,0,0,0,1.223-.3,1.042,1.042,0,0,0,.426-.906,1,1,0,0,0-.187-.6,2.1,2.1,0,0,0-.551-.5,14.165,14.165,0,0,0-1.48-.773,7.017,7.017,0,0,1-1.57-.945,3.549,3.549,0,0,1-.836-1.055,3.01,3.01,0,0,1-.312-1.406A2.952,2.952,0,0,1,31.5-10.719a4.269,4.269,0,0,1,2.84-.867,6.706,6.706,0,0,1,1.7.211,11.68,11.68,0,0,1,1.691.594L36.949-8.9a11.43,11.43,0,0,0-1.512-.523,4.866,4.866,0,0,0-1.176-.148,1.557,1.557,0,0,0-1.055.32,1.057,1.057,0,0,0-.367.836,1.035,1.035,0,0,0,.148.559,1.632,1.632,0,0,0,.473.461,14.614,14.614,0,0,0,1.535.8,6.108,6.108,0,0,1,2.2,1.535A3,3,0,0,1,37.785-3.172Z" transform="translate(478.244 556.623) rotate(-36)"/>
      <path id="Trazado_24252" data-name="Trazado 24252" d="M-25.646-5.669h.747a2.488,2.488,0,0,0,1.567-.414,1.448,1.448,0,0,0,.52-1.2,1.485,1.485,0,0,0-.436-1.179,2.042,2.042,0,0,0-1.366-.381h-1.033Zm5.127-1.7A3.273,3.273,0,0,1-21.6-4.724a4.62,4.62,0,0,1-3.073.916h-.974V0h-2.271V-10.708h3.42a4.549,4.549,0,0,1,2.963.839A3.058,3.058,0,0,1-20.519-7.368Zm4.292,1.414h.732a2.8,2.8,0,0,0,1.589-.359,1.281,1.281,0,0,0,.513-1.128,1.172,1.172,0,0,0-.524-1.084,3.178,3.178,0,0,0-1.622-.322h-.688Zm0,1.846V0H-18.5V-10.708h3.12a5.34,5.34,0,0,1,3.23.795A2.836,2.836,0,0,1-11.1-7.5a2.841,2.841,0,0,1-.52,1.681,3.441,3.441,0,0,1-1.472,1.154Q-10.675-1.055-9.943,0h-2.52l-2.556-4.109ZM-2.428,0H-8.595V-10.708h6.167v1.86h-3.9V-6.5H-2.7v1.86H-6.324v2.761h3.9ZM9.305,0H6.42L1.761-8.1H1.7q.139,2.146.139,3.062V0H-.194V-10.708H2.67l4.651,8.02h.051q-.11-2.087-.11-2.952v-5.068H9.305Zm9.016-2.974A2.768,2.768,0,0,1,17.278-.688a4.534,4.534,0,0,1-2.9.835A6.82,6.82,0,0,1,11.342-.5V-2.607a12.5,12.5,0,0,0,1.835.681,5.429,5.429,0,0,0,1.373.2A1.953,1.953,0,0,0,15.7-2.014a.977.977,0,0,0,.4-.85.938.938,0,0,0-.176-.56A1.967,1.967,0,0,0,15.4-3.9a13.28,13.28,0,0,0-1.388-.725,6.579,6.579,0,0,1-1.472-.886,3.327,3.327,0,0,1-.784-.989,2.822,2.822,0,0,1-.293-1.318,2.767,2.767,0,0,1,.963-2.234,4,4,0,0,1,2.662-.813,6.287,6.287,0,0,1,1.593.2,10.95,10.95,0,0,1,1.586.557l-.732,1.765a10.716,10.716,0,0,0-1.417-.491,4.562,4.562,0,0,0-1.1-.139,1.46,1.46,0,0,0-.989.3.991.991,0,0,0-.344.784.97.97,0,0,0,.139.524,1.53,1.53,0,0,0,.443.432,13.7,13.7,0,0,0,1.439.751,5.727,5.727,0,0,1,2.058,1.439A2.809,2.809,0,0,1,18.322-2.974ZM26.818,0l-.776-2.549h-3.9L21.361,0H18.915l3.779-10.752H25.47L29.264,0ZM25.5-4.453q-1.077-3.464-1.212-3.918t-.194-.718q-.242.938-1.384,4.636Z" transform="translate(482.061 97.733) rotate(36)"/>
      <path id="Trazado_24257" data-name="Trazado 24257" d="M-12.441-9.57a2.468,2.468,0,0,0-2.117,1.027,4.78,4.78,0,0,0-.75,2.863q0,3.82,2.867,3.82a9.063,9.063,0,0,0,2.914-.6V-.43a8.093,8.093,0,0,1-3.141.586A4.79,4.79,0,0,1-16.48-1.355,6.4,6.4,0,0,1-17.8-5.7a7.087,7.087,0,0,1,.648-3.121,4.687,4.687,0,0,1,1.863-2.055,5.512,5.512,0,0,1,2.848-.715,7.686,7.686,0,0,1,3.344.8l-.781,1.969a12.932,12.932,0,0,0-1.289-.531A3.846,3.846,0,0,0-12.441-9.57ZM-7.1,0V-11.422h2.422V0ZM8.332,0H5.254L.285-8.641H.215Q.363-6.352.363-5.375V0H-1.8V-11.422H1.254L6.215-2.867H6.27q-.117-2.227-.117-3.148v-5.406h2.18Zm9.453,0H11.207V-11.422h6.578v1.984H13.629V-6.93H17.5v1.984H13.629V-2h4.156Z" transform="translate(150.74 551.869) rotate(36)"/>
      <path id="Trazado_24259" data-name="Trazado 24259" d="M-35.369,0V-10.708H-33.1V0ZM-20.9,0h-2.886l-4.658-8.1h-.066q.139,2.146.139,3.062V0H-30.4V-10.708h2.864l4.651,8.02h.051q-.11-2.087-.11-2.952v-5.068H-20.9Zm6.826,0h-2.271V-8.818h-2.908v-1.89h8.086v1.89h-2.908ZM-3.354,0H-9.521V-10.708h6.167v1.86h-3.9V-6.5h3.625v1.86H-7.251v2.761h3.9Zm4.5-5.955h.732a2.8,2.8,0,0,0,1.589-.359,1.281,1.281,0,0,0,.513-1.128,1.172,1.172,0,0,0-.524-1.084,3.178,3.178,0,0,0-1.622-.322H1.15Zm0,1.846V0H-1.121V-10.708H2a5.34,5.34,0,0,1,3.23.795A2.836,2.836,0,0,1,6.277-7.5a2.841,2.841,0,0,1-.52,1.681A3.441,3.441,0,0,1,4.285-4.666Q6.7-1.055,7.434,0H4.915L2.358-4.109ZM18.281,0H15.4L10.737-8.1h-.066q.139,2.146.139,3.062V0H8.782V-10.708h2.864L16.3-2.688h.051q-.11-2.087-.11-2.952v-5.068h2.043Zm8.862,0H20.977V-10.708h6.167v1.86h-3.9V-6.5h3.625v1.86H23.247v2.761h3.9Zm6.365,0H31.238V-8.818H28.33v-1.89h8.086v1.89H33.508Z" transform="translate(50.121 249.076) rotate(-72)"/>
      <path id="Trazado_24254" data-name="Trazado 24254" d="M-30.492,0H-37.07V-11.422h6.578v1.984h-4.156V-6.93h3.867v1.984h-3.867V-2h4.156Zm11.617,0h-2.766L-24.3-4.32-26.953,0h-2.594l3.789-5.891L-29.3-11.422h2.672l2.461,4.109,2.414-4.109h2.609l-3.586,5.664Zm5.844,0h-2.422V-9.406h-3.1v-2.016H-9.93v2.016h-3.1ZM-1.594,0H-8.172V-11.422h6.578v1.984H-5.75V-6.93h3.867v1.984H-5.75V-2h4.156Zm4.8-6.352h.781a2.989,2.989,0,0,0,1.7-.383,1.366,1.366,0,0,0,.547-1.2,1.25,1.25,0,0,0-.559-1.156,3.39,3.39,0,0,0-1.73-.344H3.211Zm0,1.969V0H.789V-11.422H4.117a5.7,5.7,0,0,1,3.445.848A3.025,3.025,0,0,1,8.68-8a3.03,3.03,0,0,1-.555,1.793,3.67,3.67,0,0,1-1.57,1.23Q9.133-1.125,9.914,0H7.227L4.5-4.383ZM11.352,0V-11.422h2.422V0ZM27.016-5.727a6.2,6.2,0,0,1-1.406,4.359A5.213,5.213,0,0,1,21.578.156a5.213,5.213,0,0,1-4.031-1.523,6.222,6.222,0,0,1-1.406-4.375,6.137,6.137,0,0,1,1.41-4.355,5.273,5.273,0,0,1,4.043-1.5,5.2,5.2,0,0,1,4.027,1.516A6.214,6.214,0,0,1,27.016-5.727Zm-8.336,0a4.771,4.771,0,0,0,.727,2.883,2.542,2.542,0,0,0,2.172.969q2.9,0,2.9-3.852T21.594-9.586a2.559,2.559,0,0,0-2.18.973A4.751,4.751,0,0,0,18.68-5.727ZM31.8-6.352h.781a2.989,2.989,0,0,0,1.7-.383,1.366,1.366,0,0,0,.547-1.2,1.25,1.25,0,0,0-.559-1.156,3.39,3.39,0,0,0-1.73-.344H31.8Zm0,1.969V0H29.383V-11.422h3.328a5.7,5.7,0,0,1,3.445.848A3.025,3.025,0,0,1,37.273-8a3.03,3.03,0,0,1-.555,1.793,3.67,3.67,0,0,1-1.57,1.23Q37.727-1.125,38.508,0H35.82L33.094-4.383Z" transform="translate(583.492 417.444) rotate(-72)"/>
      <path id="Trazado_24253" data-name="Trazado 24253" d="M-32.156-6.352h.781a2.989,2.989,0,0,0,1.7-.383,1.366,1.366,0,0,0,.547-1.2,1.25,1.25,0,0,0-.559-1.156,3.39,3.39,0,0,0-1.73-.344h-.734Zm0,1.969V0h-2.422V-11.422h3.328a5.7,5.7,0,0,1,3.445.848A3.025,3.025,0,0,1-26.687-8a3.03,3.03,0,0,1-.555,1.793,3.67,3.67,0,0,1-1.57,1.23Q-26.234-1.125-25.453,0h-2.687l-2.727-4.383ZM-17.437,0h-6.578V-11.422h6.578v1.984h-4.156V-6.93h3.867v1.984h-3.867V-2h4.156Zm8.9-11.422h2.445L-9.977,0h-2.641l-3.875-11.422h2.445l2.148,6.8q.18.6.371,1.4t.238,1.113A20.011,20.011,0,0,1-10.7-4.625ZM-4.656,0V-11.422h2.422V0ZM7.383-3.172A2.953,2.953,0,0,1,6.27-.734a4.836,4.836,0,0,1-3.1.891A7.275,7.275,0,0,1-.062-.531v-2.25a13.329,13.329,0,0,0,1.957.727,5.791,5.791,0,0,0,1.465.211,2.083,2.083,0,0,0,1.223-.3,1.042,1.042,0,0,0,.426-.906,1,1,0,0,0-.187-.6,2.1,2.1,0,0,0-.551-.5,14.165,14.165,0,0,0-1.48-.773,7.017,7.017,0,0,1-1.57-.945A3.549,3.549,0,0,1,.383-6.93,3.01,3.01,0,0,1,.07-8.336,2.952,2.952,0,0,1,1.1-10.719a4.269,4.269,0,0,1,2.84-.867,6.706,6.706,0,0,1,1.7.211,11.68,11.68,0,0,1,1.691.594L6.547-8.9a11.43,11.43,0,0,0-1.512-.523A4.866,4.866,0,0,0,3.859-9.57,1.557,1.557,0,0,0,2.8-9.25a1.057,1.057,0,0,0-.367.836,1.035,1.035,0,0,0,.148.559,1.632,1.632,0,0,0,.473.461,14.614,14.614,0,0,0,1.535.8,6.108,6.108,0,0,1,2.2,1.535A3,3,0,0,1,7.383-3.172ZM13.859,0H11.438V-9.406h-3.1v-2.016h8.625v2.016h-3.1ZM24.594,0l-.828-2.719H19.6L18.773,0H16.164L20.2-11.469h2.961L27.2,0ZM23.188-4.75q-1.148-3.7-1.293-4.18T21.688-9.7q-.258,1-1.477,4.945Zm12.2,1.578A2.953,2.953,0,0,1,34.27-.734a4.836,4.836,0,0,1-3.1.891,7.275,7.275,0,0,1-3.234-.687v-2.25a13.329,13.329,0,0,0,1.957.727,5.791,5.791,0,0,0,1.465.211,2.083,2.083,0,0,0,1.223-.3,1.042,1.042,0,0,0,.426-.906,1,1,0,0,0-.187-.6,2.1,2.1,0,0,0-.551-.5,14.166,14.166,0,0,0-1.48-.773,7.017,7.017,0,0,1-1.57-.945,3.549,3.549,0,0,1-.836-1.055,3.01,3.01,0,0,1-.312-1.406A2.952,2.952,0,0,1,29.1-10.719a4.269,4.269,0,0,1,2.84-.867,6.706,6.706,0,0,1,1.7.211,11.68,11.68,0,0,1,1.691.594L34.547-8.9a11.43,11.43,0,0,0-1.512-.523,4.866,4.866,0,0,0-1.176-.148,1.557,1.557,0,0,0-1.055.32,1.057,1.057,0,0,0-.367.836,1.035,1.035,0,0,0,.148.559,1.632,1.632,0,0,0,.473.461,14.614,14.614,0,0,0,1.535.8,6.108,6.108,0,0,1,2.2,1.535A3,3,0,0,1,35.383-3.172Z" transform="translate(587.007 237.961) rotate(72)"/>
      <path id="Trazado_24258" data-name="Trazado 24258" d="M-19.144-5.558h.684a2.615,2.615,0,0,0,1.483-.335A1.2,1.2,0,0,0-16.5-6.945a1.094,1.094,0,0,0-.489-1.012,2.966,2.966,0,0,0-1.514-.3h-.643Zm0,1.723V0h-2.119V-9.994h2.912a4.984,4.984,0,0,1,3.015.742A2.647,2.647,0,0,1-14.359-7a2.652,2.652,0,0,1-.485,1.569,3.211,3.211,0,0,1-1.374,1.077Q-13.962-.984-13.279,0H-15.63l-2.386-3.835ZM-5.9,0l-.725-2.379h-3.644L-11,0h-2.283l3.527-10.035h2.591L-3.62,0Zm-1.23-4.156q-1-3.233-1.131-3.657t-.181-.67q-.226.875-1.292,4.327ZM5.93-5.093a4.922,4.922,0,0,1-1.4,3.78A5.729,5.729,0,0,1,.468,0h-2.83V-9.994H.776A5.284,5.284,0,0,1,4.577-8.7,4.752,4.752,0,0,1,5.93-5.093Zm-2.2.055q0-3.22-2.844-3.22H-.243V-1.75H.667Q3.729-1.75,3.729-5.038ZM8,0V-9.994h2.119V0ZM21.708-5.011A5.423,5.423,0,0,1,20.477-1.2,4.562,4.562,0,0,1,16.95.137,4.562,4.562,0,0,1,13.422-1.2a5.444,5.444,0,0,1-1.23-3.828,5.37,5.37,0,0,1,1.234-3.811,4.614,4.614,0,0,1,3.538-1.316,4.55,4.55,0,0,1,3.524,1.326A5.437,5.437,0,0,1,21.708-5.011Zm-7.294,0a4.175,4.175,0,0,0,.636,2.522,2.224,2.224,0,0,0,1.9.848q2.536,0,2.536-3.37T16.963-8.388a2.24,2.24,0,0,0-1.907.851A4.157,4.157,0,0,0,14.414-5.011Z" transform="translate(53.701 405.629) rotate(72)"/>
    </g>
  </g>
</svg>
